<svg xmlns="http://www.w3.org/2000/svg" width="65" height="65" fill="none" viewBox="0 0 65 65"><path fill="#43A363" fill-rule="evenodd" d="M28.2842 13.2775C17.6181 15.703 10.9311 26.3173 13.3483 36.9853C15.7655 47.6533 26.3716 54.3352 37.0377 51.9097C47.7038 49.4842 54.3909 38.8698 51.9737 28.2018C49.5565 17.5339 38.9503 10.852 28.2842 13.2775ZM6.32548 38.5823C3.02928 24.0351 12.148 9.56094 26.6927 6.25345C41.2374 2.94596 55.7003 12.0576 58.9965 26.6049C62.2927 41.1521 53.174 55.6262 38.6293 58.9337C24.0846 62.2412 9.62168 53.1296 6.32548 38.5823Z" clip-rule="evenodd"/><path fill="#43A363" fill-rule="evenodd" d="M31.0695 25.5695C27.1909 26.4515 24.7592 30.3113 25.6382 34.1906C26.5172 38.0699 30.374 40.4996 34.2526 39.6176C38.1311 38.7356 40.5628 34.8759 39.6838 30.9966C38.8048 27.1173 34.948 24.6875 31.0695 25.5695ZM18.6154 35.7876C16.8574 28.029 21.7207 20.3095 29.4779 18.5455C37.2351 16.7815 44.9486 21.6411 46.7066 29.3996C48.4646 37.1581 43.6013 44.8777 35.8441 46.6417C28.0869 48.4057 20.3734 43.5461 18.6154 35.7876Z" clip-rule="evenodd"/></svg>