<svg width="458" height="458" viewBox="0 0 458 458" fill="none" xmlns="http://www.w3.org/2000/svg">
<path d="M170.078 185.551C162.886 177.67 168.805 173.865 164.423 173.539C158.815 173.149 153.055 166.919 153.642 161.625C154.535 153.107 170.018 144.788 185.823 144.752C188.065 144.751 191.62 144.672 193.605 144.612C204.201 144.332 203.28 157.705 191.093 178.55C184.3 190.203 176.646 192.857 170.078 185.551ZM191.693 154.167L192.671 150.476C174.441 154.98 164.678 156.936 161.147 162.583C158.265 167.164 160.03 167.945 167.542 165.205C171.935 163.589 174.164 163.288 175.716 163.939C182.566 166.935 174.1 171.725 173.696 179.761C173.524 182.287 175.122 182.382 178.819 180.148C182.531 177.728 188.802 165.172 191.693 154.167Z" fill="white"/>
<path d="M276.403 302.323C273.721 299.523 272.966 299.162 271.052 299.265C268.653 299.365 263.943 296.696 261.889 293.986C255.797 285.897 263.087 267.337 276.862 255.739C287.264 246.962 291.039 251.01 293.833 273.657C297.279 301.961 289.061 315.476 276.403 302.323ZM287.049 293.306C288.402 284.19 284.456 263.279 281.743 265.819C278.167 269.296 271.237 279.891 269.295 284.849C265.757 294.194 267.96 298.262 272.544 290.721C274.88 286.88 278.532 287.445 279.22 291.76C279.357 292.818 279.769 295.504 280.114 297.662C281.159 304.436 285.817 301.422 287.049 293.306Z" fill="white"/>
<path d="M206.54 271.245C205.296 269.125 204.386 268.376 203.159 268.312C191.413 267.601 188.852 253.865 198.767 245.571C223.717 224.887 230.787 229.283 228.114 263.805C226.912 278.761 213.608 283.337 206.54 271.245ZM219.62 268.48C220.493 265.601 219.839 260.429 219.56 254.317C219.212 243.193 219.864 243.882 213.8 248.087C208.296 251.852 202.966 252.606 200.941 254.493C198.142 257.175 195.456 264.797 204.696 261.939C209.373 260.496 212.348 262.013 211.37 265.705C209.031 275 218.323 272.856 219.62 268.48Z" fill="white"/>
<path d="M246.721 314.285C258.105 352.287 252.444 377.782 235.312 365.417L231.047 362.337L227.625 363.959C221.527 366.778 214.968 365.227 210.488 359.775C202.72 350.278 205.277 337.9 218.674 320.031C235.884 297.174 241.273 296.163 246.721 314.285ZM218.432 336.934C210.54 351.037 211.349 361.565 220.138 360.089C224.797 359.316 228.459 355.697 227.62 352.751C224.306 340.895 228.18 330.196 234.44 334.002C239.562 337.116 240.578 346.502 236.829 355.232C233.428 362.908 239.32 366.198 243.688 359.013C245.937 355.314 246.018 351.174 244.197 337.985C243.074 329.898 238.466 309.753 237.737 309.992C236.435 310.37 222.63 329.549 218.432 336.934Z" fill="white"/>
<path d="M324.38 238.156C322.506 236.432 322.206 236.444 321.298 237.938C318.832 241.993 311.102 240.605 306.935 235.44C298.133 224.438 300.409 199.223 311.363 186.495C318.767 177.843 346.62 226.736 340.219 237.264C337.062 242.457 329.62 242.998 324.38 238.156ZM316.044 194.018C315.129 194.241 309.921 215.627 309.401 221.449C308.488 231.124 311.326 236.552 314.57 231.217C315.089 230.363 315.319 227.58 315.105 225.209C314.142 216.537 314.269 216.809 315.641 216.474C318.272 215.833 322.437 221.483 323.8 227.573C325.387 234.578 330.295 237.563 333.019 233.081C334.922 229.952 319.018 193.293 316.044 194.018Z" fill="white"/>
<path d="M241.261 184.013C243.485 186.925 238.992 210.499 234.998 217.229C229.981 225.48 220.331 225.167 215.256 216.528C214.535 215.31 214.086 213.965 214.259 213.68C214.475 213.325 212.471 211.814 209.867 210.329C201.102 205.194 201.977 199.588 212.98 190.787C225.144 181.035 236.697 178.218 241.261 184.013ZM215.495 205.079C220.65 202.368 224.755 206.032 221.901 210.727C219.652 214.426 221.469 218.649 224.197 215.924C226.926 213.198 232.487 192.514 230.78 191.476C229.571 190.741 216.741 199.504 214.266 202.773C211.244 206.781 211.47 207.211 215.495 205.079Z" fill="white"/>
<path d="M265.445 152.73C264.61 151.54 263.792 149.679 263.64 148.808C263.491 147.45 262.582 146.703 259.592 145.372C245.765 139.108 251.462 124.45 269.535 120.044C285.892 116.057 290.764 120.383 287.076 135.582C282.13 156.055 272.849 163.467 265.445 152.73ZM279.315 127.355C268.61 131.661 258.066 135.383 257.403 138.877C256.959 141.53 260.987 141.154 265.045 138.165C269.375 135.05 274.763 139.007 271.599 142.929C266.766 148.954 268.674 154.791 273.59 149.109C277.227 144.89 279.006 128.824 279.315 127.355Z" fill="white"/>
<path d="M148.454 284.253C145.684 279.354 145.755 279.397 142.801 281.693C138.597 285.081 132.255 283.173 128.292 277.353C120.974 266.473 132.495 249.608 154.485 239.4C158.68 237.468 164.559 228.28 168.961 246.838C171.372 256.975 174.503 273.298 174.8 278.74C175.736 296.749 157.639 300.555 148.454 284.253ZM166.192 285.685C168.536 280.388 163.768 248.649 159.926 244.072C158.905 242.867 142.544 257.277 137.409 263.8C130.216 273.067 131.432 282.283 139.066 275.817C140.917 274.215 143.145 271.672 144.096 270.107C147.183 264.871 152.292 267.685 151.596 274.278C150.208 286.976 161.693 295.81 166.192 285.685Z" fill="white"/>
</svg>
