<svg xmlns="http://www.w3.org/2000/svg" width="31" height="31" viewBox="0 0 31 31" fill="none">
  <path d="M6.36903 0.740904L8.13139 2.78339C8.2606 2.93314 8.49257 2.93314 8.62178 2.78339L10.4284 0.689644C10.5576 0.539899 10.7895 0.539899 10.9187 0.689644L12.7253 2.78339C12.8545 2.93314 13.0865 2.93314 13.2157 2.78339L15.0223 0.68964C15.1515 0.539897 15.3835 0.539897 15.5127 0.68964L17.3193 2.7834C17.4485 2.93314 17.6804 2.93314 17.8097 2.7834L19.6163 0.689638C19.7455 0.539896 19.9774 0.539896 20.1066 0.689639L21.9132 2.78339C22.0425 2.93314 22.2744 2.93314 22.4036 2.78339L24.166 0.740908C24.3092 0.574888 24.5725 0.59619 24.6872 0.783085L26.7118 4.08143C26.7385 4.12482 26.775 4.16133 26.8183 4.18798L30.0428 6.16957C30.2486 6.29608 30.2486 6.59542 30.0428 6.72194L27.2018 8.46788C26.9959 8.5944 26.9959 8.89374 27.2018 9.02025L30.0428 10.7662C30.2486 10.8927 30.2486 11.192 30.0428 11.3185L27.2018 13.0645C26.9959 13.191 26.9959 13.4903 27.2018 13.6169L30.0428 15.3628C30.2486 15.4893 30.2486 15.7886 30.0428 15.9152L27.2018 17.6611C26.9959 17.7876 26.9959 18.087 27.2018 18.2135L30.0428 19.9594C30.2486 20.086 30.2486 20.3853 30.0428 20.5118L27.2018 22.2578C26.9959 22.3843 26.9959 22.6836 27.2018 22.8101L30.0428 24.556C30.2486 24.6826 30.2486 24.9819 30.0428 25.1084L26.8183 27.09C26.775 27.1166 26.7385 27.1531 26.7118 27.1965L24.7314 30.4228C24.605 30.6288 24.3058 30.6288 24.1794 30.4228L22.4345 27.5802C22.308 27.3742 22.0089 27.3742 21.8824 27.5802L20.1375 30.4228C20.011 30.6288 19.7119 30.6288 19.5854 30.4229L17.8405 27.5802C17.714 27.3742 17.4149 27.3742 17.2884 27.5802L15.5435 30.4228C15.4171 30.6288 15.1179 30.6288 14.9915 30.4228L13.2465 27.5802C13.1201 27.3742 12.8209 27.3742 12.6945 27.5802L10.9496 30.4228C10.8231 30.6288 10.524 30.6288 10.3975 30.4228L8.65261 27.5802C8.52617 27.3742 8.227 27.3742 8.10056 27.5802L6.35563 30.4228C6.22919 30.6288 5.93002 30.6288 5.80358 30.4228L3.82314 27.1965C3.7965 27.1531 3.76002 27.1166 3.71665 27.09L0.492259 25.1084C0.286399 24.9819 0.286399 24.6825 0.492261 24.556L3.33323 22.8101C3.5391 22.6836 3.5391 22.3842 3.33323 22.2577L0.492258 20.5118C0.286398 20.3853 0.286397 20.0859 0.492258 19.9594L3.33323 18.2135C3.53909 18.087 3.53909 17.7876 3.33323 17.6611L0.492253 15.9151C0.286394 15.7886 0.286396 15.4893 0.492256 15.3628L3.33322 13.6168C3.53908 13.4903 3.53908 13.191 3.33322 13.0645L0.492259 11.3185C0.286398 11.192 0.286399 10.8927 0.49226 10.7662L3.33322 9.02022C3.53908 8.89371 3.53908 8.59437 3.33322 8.46786L0.492259 6.72192C0.286399 6.5954 0.2864 6.29606 0.492261 6.16955L3.71667 4.18797C3.76004 4.16132 3.79652 4.12482 3.82316 4.08142L5.84781 0.783082C5.96254 0.596188 6.22578 0.574886 6.36903 0.740904Z" fill="#7CA851"/>
</svg>