<svg xmlns="http://www.w3.org/2000/svg" width="31" height="31" viewBox="0 0 31 31" fill="none">
  <path d="M19.6889 14.32C26.0205 14.5218 30.6687 15.1897 30.6687 15.9825C30.6687 16.7754 26.0205 17.4433 19.6889 17.6451C24.0234 22.2676 26.8382 26.0285 26.2779 26.5892C25.7176 27.1498 21.9588 24.3334 17.339 19.9963C17.1373 26.3317 16.4698 30.9825 15.6774 30.9825C14.8851 30.9825 14.2176 26.3316 14.0159 19.9963C9.39605 24.3333 5.63728 27.1498 5.077 26.5891C4.51672 26.0285 7.33149 22.2676 11.666 17.6451C5.33435 17.4433 0.686157 16.7754 0.686157 15.9825C0.686157 15.1897 5.33435 14.5218 11.666 14.32C7.33148 9.6975 4.51672 5.93655 5.077 5.37594C5.63728 4.81534 9.39605 7.63174 14.0159 11.9688C14.2176 5.63344 14.8851 0.982544 15.6774 0.982544C16.4698 0.982544 17.1373 5.63344 17.339 11.9688C21.9588 7.63173 25.7176 4.81533 26.2779 5.37594C26.8382 5.93654 24.0234 9.6975 19.6889 14.32Z" fill="#2F2965"/>
</svg>