<svg xmlns="http://www.w3.org/2000/svg" width="31" height="31" viewBox="0 0 31 31" fill="none">
  <path d="M15.9218 30.5773C13.5691 30.5773 11.6341 28.7878 11.4023 26.4948C9.61796 27.9522 6.98502 27.8485 5.32139 26.1839C3.65775 24.5193 3.55418 21.8849 5.01068 20.0995C2.71908 19.8676 0.930542 17.9314 0.930542 15.5773C0.930542 13.2232 2.71908 11.2871 5.01069 11.0552C3.55419 9.2698 3.65776 6.63533 5.32139 4.97073C6.98503 3.30613 9.61796 3.2025 11.4023 4.65984C11.6341 2.3669 13.5691 0.577332 15.9218 0.577332C18.2746 0.577331 20.2096 2.36691 20.4414 4.65984C22.2257 3.2025 24.8586 3.30612 26.5223 4.97073C28.1859 6.63533 28.2895 9.2698 26.833 11.0552C29.1246 11.2871 30.9131 13.2232 30.9131 15.5773C30.9131 17.9314 29.1246 19.8676 26.833 20.0995C28.2895 21.8849 28.1859 24.5193 26.5223 26.1839C24.8586 27.8485 22.2257 27.9522 20.4414 26.4948C20.2096 28.7878 18.2746 30.5773 15.9218 30.5773Z" fill="#F5BD33"/>
</svg>