<svg width="744" height="480" viewBox="0 0 744 480" fill="none" xmlns="http://www.w3.org/2000/svg">
<path fill-rule="evenodd" clip-rule="evenodd" d="M308.56 2.11435C260.66 7.04813 227.317 21.6145 235.301 34.3014C239.058 40.4099 253.616 40.6448 261.834 34.7713C325.466 -10.3366 500.865 42.0545 573.185 70.2475C703.972 121.465 740.836 228.131 655.837 308.951C628.365 335.029 610.05 338.083 530.451 330.565C459.775 323.752 418.684 334.089 344.485 378.728C304.568 402.692 282.731 413.262 245.867 434.407C81.9739 528.149 -25.3324 362.28 75.8687 171.272C108.976 108.778 159.693 55.4461 201.489 50.0425C217.925 47.928 211.351 42.5243 192.097 42.5243C142.553 42.5243 84.7915 90.6874 46.0487 158.116C-62.9012 347.479 32.1951 520.161 218.864 471.763C252.911 462.835 255.494 461.663 328.049 421.018C454.139 350.535 475.976 342.782 528.807 349.361C620.147 360.873 660.535 354.057 695.052 321.4C787.565 233.767 742.245 113.949 594.553 56.3883C476.211 10.3397 387.689 -6.34356 308.56 2.11435ZM347.54 72.362C271.933 78.0006 182 113.479 182 137.913C182 139.088 172.138 149.895 159.928 162.112C73.7557 248.571 77.9824 352.885 167.912 346.541C191.157 344.897 201.958 340.433 259.486 307.776C336.032 264.312 350.59 261.023 443.338 268.306C633.061 283.107 654.428 210.273 635.879 174.562C607.702 120.055 451.559 64.6089 347.54 72.362ZM433.711 249.51C336.971 241.522 310.673 247.629 221.917 299.081C161.337 334.087 149.127 336.204 136.213 314.119C96.532 246.221 193.271 103.374 359.982 91.1573C467.054 83.4042 602.067 139.323 602.771 194.299C603.71 266.191 477.385 253.035 433.711 249.51ZM325.234 131.097C288.134 138.616 193.74 175.736 193.74 213.562C193.74 230.243 228.491 234.239 272.4 222.492C346.364 202.757 386.518 198.761 467.291 201.815C526.462 204.164 544.774 171.977 498.048 148.248C470.81 134.387 361.628 123.579 325.234 131.097ZM494.293 172.212C494.293 185.839 472.926 191.008 437.94 185.839C412.111 182.08 402.25 182.317 348.714 188.426C311.145 192.655 288.132 196.881 257.842 205.104C245.632 208.393 234.362 210.745 232.953 210.275C227.083 207.926 278.507 154.592 352.236 147.543C379.943 144.724 494.293 144.254 494.293 172.212Z" fill="#F6F6F6"/>
</svg>
