<svg xmlns="http://www.w3.org/2000/svg" width="90" height="91" fill="none" viewBox="0 0 90 91"><circle cx="45" cy="45.75" r="45" fill="#FFECDB"/><g clip-path="url(#clip0_951_12515)"><path fill="#9B7E62" d="M31.997 31.5242C35.3312 31.595 37.7856 33.0664 39.2863 36.0618C40.0849 37.6556 40.8223 39.2804 41.6231 40.8732C41.9482 41.5151 42.323 42.1307 42.7439 42.714C43.381 43.6015 42.9778 44.8979 41.9209 45.1347C41.2821 45.267 40.636 45.361 39.9859 45.416C38.5316 45.5614 37.075 45.6833 35.6193 45.8147C35.575 45.8235 35.5297 45.8266 35.4846 45.8243C34.622 45.6799 33.876 46.0365 33.0923 46.318C31.8973 46.7347 30.6235 46.8742 29.3671 46.7258C27.8375 46.5688 26.4091 46.1705 25.0927 45.3623C24.8989 45.2434 24.6235 45.2493 24.3833 45.2161C23.1333 45.0443 21.9228 45.3671 20.6975 45.5127C20.2942 45.5573 19.8882 45.5737 19.4826 45.562C18.6753 45.5445 18.1033 44.7148 18.5658 43.9755C19.6502 42.2424 20.2652 40.2862 21.1813 38.4736C22.2538 36.351 23.7603 34.6139 25.7714 33.3363C27.1509 32.4663 28.703 31.9083 30.3197 31.7014C30.8762 31.6257 31.4376 31.5823 31.997 31.5242ZM24.336 39.4455C24.0063 41.3518 25.2488 43.4805 27.1224 44.169C28.2891 44.5945 29.5307 44.7747 30.7699 44.6987C32.7457 44.5905 34.2097 43.6005 35.2609 41.9671C35.6372 41.3715 35.8359 40.6803 35.8334 39.9751C33.6948 39.2612 31.7781 38.3236 30.8576 35.9621C29.2125 38.2792 26.8346 38.9935 24.336 39.4455Z"/><path fill="#9B7E62" d="M34.3205 60.3726C31.4113 60.3726 28.5019 60.3586 25.5928 60.3773C23.25 60.3922 20.9074 60.4586 18.5648 60.4759C17.9569 60.4731 17.3501 60.4245 16.7496 60.3305C15.3593 60.129 14.8012 59.3044 15.2621 57.9741C15.5782 57.0813 15.9914 56.2259 16.4943 55.4237C18.6111 52.0084 21.6895 49.7713 25.3873 48.3494C27.2373 47.6218 29.1947 47.2066 31.1802 47.1207C33.7225 47.0241 36.1662 47.3333 38.4331 48.5757C40.4478 49.68 42.0737 51.2123 43.425 53.063C44.3922 54.3879 45.059 55.8714 45.7378 57.3474C45.8967 57.7464 45.9944 58.1672 46.0279 58.5956C46.143 59.5244 45.6614 60.1315 44.7314 60.2285C44.038 60.301 43.3396 60.3569 42.6431 60.3607C39.8693 60.3754 37.0954 60.3667 34.3215 60.3667L34.3205 60.3726ZM16.7381 58.4983C16.8086 58.5289 16.8808 58.5554 16.9544 58.5775C17.7587 58.7586 18.5615 58.6471 19.3723 58.6016C21.0131 58.5091 22.6582 58.4672 24.3019 58.4587C29.7367 58.4306 35.1716 58.4324 40.6063 58.408C41.5963 58.4036 42.586 58.3306 43.5756 58.2829C43.6516 58.2676 43.7243 58.2395 43.7912 58.2001C43.8007 58.1161 43.8222 58.066 43.8083 58.0291C42.8844 55.5569 41.5623 53.3475 39.5303 51.6242C38.3491 50.6225 37.0461 49.8153 35.5227 49.4459C33.2329 48.8984 30.8493 48.8778 28.5505 49.3855C24.3887 50.2712 20.9183 52.3135 18.3349 55.7557C17.7007 56.6005 17.1092 57.4786 16.7381 58.4975V58.4983Z"/></g><g clip-path="url(#clip1_951_12515)"><path fill="#9B7E62" d="M59.3199 46.8689C57.0827 46.7498 55.0896 46.3694 53.4269 44.9863C52.2182 43.9806 51.5018 42.6786 51.2074 41.154C50.5632 37.823 52.3967 34.9331 55.1512 33.5125C57.0699 32.5229 59.0906 32.1401 61.2384 32.4719C63.0712 32.7549 64.4118 33.7884 65.4974 35.216C65.865 35.6995 66.2965 36.1588 66.5523 36.6983C67.0804 37.814 67.5295 38.9586 67.2247 40.2591C66.9395 41.4752 66.5864 42.6487 65.792 43.6426C64.397 45.3878 62.6346 46.4962 60.3756 46.7426C59.9724 46.7864 59.5713 46.8387 59.3199 46.8689ZM53.1643 40.4491C53.4065 42.2532 54.3004 43.5453 55.9718 44.2128C56.6481 44.4603 57.3514 44.6269 58.067 44.7088C60.3782 45.0355 62.3621 44.4361 63.8318 42.5316C64.4932 41.7132 64.8153 40.6733 64.732 39.6255C62.8617 39.279 61.1695 38.6525 59.7985 37.2884C58.0316 39.295 55.6912 40.0287 53.1639 40.4491H53.1643Z"/><path fill="#9B7E62" d="M63.1943 60.3627C60.3753 60.3627 57.5562 60.3483 54.7375 60.367C52.3043 60.3831 49.8719 60.4528 47.4383 60.4636C46.7631 60.4681 46.0892 60.4017 45.4279 60.2654C44.1915 60.006 43.7928 59.3088 44.1039 58.0828C44.3508 57.1097 44.8554 56.2549 45.3871 55.4191C47.5464 52.0197 50.6373 49.7947 54.3586 48.3689C56.3785 47.5784 58.5251 47.1589 60.6947 47.1306C63.8375 47.1072 66.7561 47.867 69.2626 49.8949C71.0456 51.3175 72.5076 53.0989 73.5537 55.123C73.8625 55.723 74.1931 56.3163 74.4428 56.9407C74.6641 57.4791 74.8224 58.0411 74.9147 58.6156C75.0476 59.5097 74.5624 60.1066 73.6714 60.214C73.0463 60.2952 72.417 60.3403 71.7866 60.3492C68.9225 60.3633 66.0584 60.3554 63.1943 60.3554V60.3627ZM72.6851 58.2324C72.6954 58.1141 72.7149 58.0648 72.7009 58.0277C71.7812 55.5933 70.4773 53.4101 68.4696 51.7037C67.2922 50.7032 65.9929 49.9043 64.4759 49.5106C62.457 49.0044 60.3536 48.9295 58.3036 49.2907C53.221 50.1277 49.1606 52.5937 46.389 57.0031C46.0941 57.4722 45.8593 57.9792 45.581 58.4972C46.5058 58.7648 47.3479 58.6582 48.2031 58.6065C49.8657 58.5062 51.534 58.4698 53.2005 58.4607C58.4322 58.4324 63.6643 58.4357 68.896 58.4108C70.0664 58.4053 71.2366 58.3356 72.4068 58.2918C72.501 58.2795 72.5941 58.2595 72.6851 58.232V58.2324Z"/></g><defs><clipPath id="clip0_951_12515"><rect width="31.119" height="29.085" fill="#fff" transform="translate(15 31.5)"/></clipPath><clipPath id="clip1_951_12515"><rect width="31.119" height="28.271" fill="#fff" transform="translate(43.8818 32.3137)"/></clipPath></defs></svg>