<svg width="90" height="91" viewBox="0 0 90 91" fill="none" xmlns="http://www.w3.org/2000/svg">
<circle cx="45" cy="45.25" r="45" fill="#D3F3FF"/>
<rect width="56.25" height="35.1624" transform="translate(17.25 28)" fill="#D3F3FF"/>
<path d="M62.3111 49.1468C62.1042 50.6279 61.4284 51.9562 60.7459 53.2606C59.594 55.4937 57.9789 57.4571 56.0078 59.0205C53.6783 60.8617 51.0146 61.9641 48.1033 62.4729C46.2985 62.7884 44.4804 63.018 42.6372 62.9247C38.1936 62.6996 34.3578 61.151 31.2403 57.8998C29.9175 56.4974 28.7932 54.9216 27.8986 53.2159C27.3819 52.2572 27.188 51.2545 27.0139 50.2269C26.6923 48.3256 26.4944 46.4261 26.7058 44.4829C26.9668 42.083 27.6317 39.8337 28.8334 37.743C30.2902 35.1601 32.2863 32.919 34.6868 31.171C37.0773 29.4444 39.7828 28.5599 42.7059 28.2081C45.8046 27.8105 48.9537 28.1375 51.9038 29.1632C54.7982 30.1758 57.3813 31.7209 59.1281 34.3123C60.8749 36.9037 62.087 39.7022 62.4983 42.8695C62.8399 45.4974 62.4905 47.862 62.3111 49.1468ZM60.6228 45.2291C60.6082 43.3843 60.4338 41.5597 59.7623 39.8442C59.209 38.4307 58.5515 36.2773 57.4319 35.1614C55.8766 33.0054 53.7115 31.689 51.2597 30.819C48.4641 29.8065 45.4606 29.4991 42.5168 29.9239C39.5088 30.3564 36.8139 31.4567 34.5477 33.5018C33.8789 34.1066 33.2418 34.7452 32.6389 35.4151C30.0782 38.255 28.6975 41.6469 28.699 47.2264C28.6998 50.7051 30.4218 53.6786 32.8882 56.22C35.5061 58.9177 38.6621 60.2701 42.3532 60.5722C44.1457 60.7185 45.9128 60.5241 47.6756 60.2528C52.9466 59.4419 56.709 56.6019 59.135 51.8856C60.5971 49.043 60.5345 46.2739 60.6228 45.2291Z" fill="#3E9FA5"/>
<path d="M54.2187 47.4572C54.1069 48.2514 53.7414 48.9638 53.3724 49.6633C52.7495 50.8609 51.8761 51.9138 50.8103 52.7523C49.5506 53.7396 48.1102 54.3308 46.5359 54.6037C45.56 54.7729 44.5769 54.896 43.5802 54.846C41.1773 54.7253 39.1031 53.8948 37.4174 52.1512C36.7021 51.3992 36.0941 50.5541 35.6103 49.6393C35.331 49.1252 35.2261 48.5875 35.132 48.0364C34.9581 47.0168 34.851 45.9981 34.9654 44.956C35.1065 43.669 35.466 42.4627 36.1158 41.3416C36.9036 39.9564 37.983 38.7545 39.281 37.8171C40.5737 36.8912 42.0367 36.4168 43.6173 36.2282C45.293 36.0149 46.9958 36.1903 48.5911 36.7404C50.1562 37.2834 51.553 38.112 52.4976 39.5017C53.4421 40.8915 54.0976 42.3922 54.32 44.0908C54.5047 45.5001 54.3158 46.7682 54.2187 47.4572ZM53.3058 45.3562C53.2979 44.3668 53.2036 43.3883 52.8405 42.4684C52.5413 41.7103 52.1857 40.5555 51.5804 39.9571C50.7393 38.8009 49.5686 38.0949 48.2427 37.6283C46.731 37.0854 45.1069 36.9205 43.5151 37.1483C41.8885 37.3803 40.4313 37.9703 39.2058 39.0671C38.8442 39.3914 38.4997 39.7339 38.1736 40.0932C36.789 41.6161 36.0424 43.4351 36.0431 46.4273C36.0436 48.2929 36.9748 49.8875 38.3084 51.2504C39.7241 52.6971 41.4306 53.4224 43.4266 53.5844C44.3959 53.6628 45.3514 53.5586 46.3047 53.4131C49.1549 52.9782 51.1894 51.4552 52.5013 48.9259C53.2919 47.4015 53.2581 45.9165 53.3058 45.3562Z" fill="#3E9FA5"/>
<path d="M18.7976 33.8727C18.712 33.1179 18.6738 32.3437 18.6367 31.5944C18.6198 31.2473 18.6027 30.9002 18.581 30.5534C18.572 30.4071 18.5633 30.2609 18.555 30.1147C18.5275 29.636 18.4989 29.1413 18.4451 28.6554C18.4248 28.5443 18.3751 28.4405 18.3011 28.3549C18.2271 28.2693 18.1315 28.2049 18.0242 28.1683C17.8375 28.1316 17.6594 28.3279 17.5152 28.4866C17.4311 28.5959 17.3849 28.7295 17.3838 28.8672C17.3689 29.3571 17.3524 29.8469 17.3355 30.3369C17.2889 31.6689 17.2407 33.0454 17.2515 34.4007C17.2595 34.8828 17.3742 35.3572 17.5875 35.7901C17.8008 36.2229 18.1074 36.6036 18.4855 36.9049C18.8668 37.2005 19.2766 37.4577 19.7088 37.673C19.8872 37.7699 20.0713 37.8695 20.2574 37.9774C20.2394 38.4919 20.2176 39.0105 20.1956 39.5315C20.1447 40.737 20.0916 41.9834 20.0877 43.2192C20.0716 47.6477 20.0743 52.1503 20.077 56.5044C20.0779 58.1486 20.0787 59.7927 20.0791 61.4368C20.0791 61.4924 20.079 61.5484 20.078 61.6042C20.0763 61.7765 20.0746 61.9544 20.0887 62.1317C20.1384 62.752 20.4894 63.1623 20.9659 63.1623C20.9753 63.1623 20.9844 63.1623 20.9938 63.1623C21.4902 63.1458 21.8156 62.7193 21.8232 62.0753C21.8272 61.7214 21.8169 61.3631 21.8071 61.0166C21.7985 60.7163 21.7895 60.406 21.7901 60.1016C21.7983 56.201 21.8088 52.3006 21.8213 48.4002L21.8302 45.3017C21.8317 44.7973 21.8328 44.2929 21.8335 43.7885C21.8358 42.4437 21.8383 41.0534 21.8518 39.6863C21.8563 39.2431 21.886 38.7907 21.9147 38.353C21.9258 38.1822 21.937 38.0115 21.9468 37.8405C23.4665 37.2952 24.3728 36.1989 24.8792 34.3013C25.3655 32.4784 25.3847 30.6697 25.3401 29.1408L25.3388 29.0856C25.3359 28.9241 25.3322 28.7227 25.2134 28.6017C25.0013 28.3854 24.7526 28.1535 24.4796 28.1387C24.2208 28.1239 23.9257 28.4347 23.8128 28.6644C23.739 28.846 23.7054 29.0413 23.7141 29.2371C23.712 29.3124 23.7102 29.3877 23.7025 29.4602C23.6634 29.8378 23.6294 30.2163 23.5955 30.5949C23.5156 31.4829 23.4332 32.4006 23.2826 33.2895C23.1849 33.8647 22.9377 34.4347 22.6985 34.9858C22.6514 35.0946 22.6044 35.2033 22.5584 35.3115C22.5126 35.4293 22.4428 35.5366 22.3536 35.6264C22.2643 35.7163 22.1574 35.7869 22.0395 35.8339C22.0389 35.7495 22.0384 35.6667 22.0377 35.5854C22.035 35.2851 22.0323 35.0014 22.042 34.7205C22.0512 34.4532 22.0619 34.1859 22.0727 33.9186C22.1343 32.3868 22.198 30.8028 21.959 29.2427C21.9371 28.9973 21.8641 28.7591 21.7448 28.5433C21.6736 28.4593 21.5833 28.3937 21.4812 28.3519C21.3791 28.3101 21.2684 28.2935 21.1584 28.3033C20.9347 28.3257 20.7854 28.6366 20.7579 28.6988C20.7203 28.8017 20.708 28.9121 20.722 29.0207C20.7241 29.0575 20.7262 29.0947 20.7251 29.1301C20.7069 29.6223 20.6891 30.1145 20.6718 30.6069C20.6245 31.9355 20.5756 33.3095 20.5161 34.6599C20.5013 34.9855 20.4586 35.3111 20.4128 35.6545C20.3991 35.756 20.3856 35.8583 20.3725 35.9622C19.4306 35.5894 18.9145 34.9041 18.7976 33.8727Z" fill="#3E9FA5"/>
<path d="M69.1404 29.8637C69.0298 29.6269 68.9191 29.39 68.8133 29.1522C68.5964 28.6659 68.1912 28.322 67.5384 28.0699C67.446 28.0258 67.3452 28.002 67.2427 28.0001C67.1402 27.9982 67.0386 28.0183 66.9446 28.0589C66.8632 28.1049 66.7928 28.1679 66.7382 28.2435C66.6836 28.3192 66.6461 28.4057 66.6284 28.4972C66.5525 28.8017 66.5143 29.1142 66.5143 29.4279C66.5029 30.1845 66.4973 30.9413 66.4919 31.6979C66.4826 32.9671 66.4733 34.2797 66.4337 35.5687C66.3777 37.404 66.3049 39.2688 66.2345 41.0729C66.1615 42.9451 66.0858 44.8814 66.0287 46.7861C65.9325 49.9938 65.8612 53.2554 65.7922 56.4099L65.7353 58.9952C65.7179 59.782 65.7184 60.6011 65.7373 61.4297C65.723 61.734 65.7859 62.0371 65.9201 62.3109C66.0041 62.4497 66.308 62.9095 66.6964 62.9917C66.7458 63.0023 66.7961 63.0076 66.8466 63.0077C67.2516 63.0077 67.5305 62.6432 67.6261 62.2667C67.7054 61.937 67.7449 61.5991 67.7439 61.2602C67.7538 59.8659 67.7605 58.4717 67.7638 57.0775C67.7666 56.2208 67.7699 55.3641 67.7736 54.5073C67.7745 54.3304 67.7862 54.1553 67.7996 53.9524C67.8033 53.8962 67.8071 53.8383 67.8108 53.7783C68.2045 53.7783 68.5941 53.7803 68.9795 53.7841C69.9923 53.7906 70.9485 53.7971 71.9231 53.768C73.0493 53.7342 73.4617 53.3142 73.499 52.1624C73.5012 51.978 73.492 51.7934 73.471 51.6102L73.4579 51.4642C73.4359 51.2014 73.412 50.9389 73.3879 50.6764C73.3433 50.1928 73.2977 49.6926 73.2678 49.2009L73.2357 48.6657C73.087 46.1765 72.932 43.6024 72.3585 41.1229C71.73 38.4077 70.9922 35.5387 70.0373 32.0944C69.8005 31.3275 69.5005 30.5814 69.1404 29.8637ZM71.6379 51.8116H67.8877C67.8525 49.4269 67.9247 46.9394 67.9946 44.5327C68.0254 43.472 68.0572 42.3755 68.08 41.2948C68.1317 38.8124 68.1819 36.3302 68.2305 33.8478L68.2766 31.537C70.0408 37.4936 71.7362 44.4732 71.6377 51.8116H71.6379Z" fill="#3E9FA5"/>
</svg>
