<svg width="90" height="91" viewBox="0 0 90 91" fill="none" xmlns="http://www.w3.org/2000/svg">
<circle cx="45" cy="45.75" r="45" fill="#EEE0FF"/>
<rect width="60" height="38.6195" transform="translate(15 26.25)" fill="#EEE0FF"/>
<path d="M26.4837 26.5709C25.9492 26.5041 25.2273 26.3419 24.879 26.9513C24.3377 27.8987 23.3454 28.6672 22.787 29.6317C22.3954 30.3081 21.9522 31.0721 21.5032 31.7059C21.0362 32.3653 20.8142 33.0842 20.4394 33.792C19.7791 35.0393 18.9873 36.2764 18.1809 37.4412C17.4796 38.4542 16.4006 39.2003 15.8096 40.2643C15.494 40.8324 15.1677 41.3548 15.0607 42.0235C14.8803 43.1509 15.1409 44.0553 15.3341 45.1616C15.474 45.9629 15.9586 46.9625 16.7962 47.2417C17.8501 47.593 18.6529 48.3218 19.6014 48.8702C22.4866 50.5382 25.6304 51.8354 28.8254 52.8046C31.0106 53.4676 33.1276 54.2268 35.2382 55.1047C36.5065 55.6322 37.6601 56.3137 38.8695 56.9531C39.5234 57.2987 40.3022 57.6049 40.8784 58.0763C41.5208 58.6019 42.3928 58.8527 43.1012 59.2531C44.0502 59.7895 45.0594 60.434 46.0788 60.8162C46.7416 61.0648 47.3057 61.4687 47.9271 61.7909C48.537 62.1071 49.1915 62.3161 49.8052 62.623C50.7497 63.0952 51.7612 63.2382 52.7471 63.5382C54.3186 64.0165 55.9539 64.1049 57.5671 64.3822C59.2016 64.6631 60.9941 64.8695 62.6546 64.8695C63.6007 64.8695 64.682 64.8256 65.6144 64.6793C66.9755 64.4658 68.3896 64.645 69.7509 64.3584C70.4034 64.221 70.9871 64.1769 71.5695 63.8592C72.2629 63.481 72.8427 62.6501 73.3407 62.0643C74.3707 60.8524 75.2816 59.3382 74.6482 57.7257C74.0787 56.2762 72.7766 55.6263 71.5814 54.7897C70.9858 54.3728 70.3373 53.8424 69.6499 53.5891C69.0272 53.3597 68.4691 53.3723 67.8312 53.2623C66.1494 52.9723 63.8686 53.4313 62.4228 52.347C61.8585 51.9237 61.3329 51.4574 60.7884 51.0098C60.5212 50.7901 60.0583 50.5319 59.8613 50.2609C59.0399 49.1315 58.2185 47.9934 57.4067 46.8495C56.2459 45.2138 55.4206 43.2964 54.8332 41.3876C54.1657 39.2179 53.1337 37.1402 52.5035 34.9629C52.2936 34.2379 52.0881 33.5464 51.921 32.8114C51.804 32.2964 51.5679 31.4918 51.2197 31.0878C50.9285 30.7501 50.9249 30.2479 50.7205 29.8576C50.5496 29.5315 50.3906 29.1986 50.2331 28.865C50.0432 28.4629 49.9898 27.9079 49.6745 27.5575C49.2929 27.1336 48.2335 26.8919 47.6894 26.8919C46.3958 26.8919 44.6967 27.2933 43.7549 28.2351C42.8385 29.1515 42.1304 30.1801 41.4073 31.2245C41.0982 31.671 40.8942 32.1905 40.5515 32.6093C40.3718 32.829 40.2006 33.3774 40.0166 33.5246C39.7691 33.7226 39.3493 33.5296 39.036 33.5246C38.5073 33.5162 37.9779 33.5246 37.4491 33.5246C36.7739 33.5246 36.0559 33.5564 35.4046 33.3582C34.6392 33.1252 33.992 33.0081 33.3304 32.538C32.7318 32.1127 32.0402 31.6697 31.4048 31.3018C30.5179 30.7883 29.639 30.1928 28.9442 29.4594C28.2709 28.7486 27.7452 27.9585 27.0186 27.2722C26.4693 26.7535 25.8286 26.5643 25.2 26.25" stroke="#5F4086" stroke-width="2.25" stroke-linecap="round"/>
<path d="M53.1127 37.2104C52.3391 37.2104 51.481 37.5113 50.7797 37.7918C50.2494 38.004 49.843 38.3389 49.366 38.6316C49.125 38.7795 48.8684 38.9124 48.6182 39.044C48.4865 39.1133 48.3476 39.1718 48.2356 39.2726C48.1328 39.3651 48.0748 39.5106 47.9697 39.5807" stroke="#5F4086" stroke-width="2.25" stroke-linecap="round"/>
<path d="M54.4097 41.4587C54.2903 41.4658 54.1934 41.544 54.0867 41.5929C53.7557 41.7444 53.4268 41.9002 53.0929 42.0451C52.3422 42.3708 51.599 42.7009 50.9289 43.1755C50.6492 43.3736 50.4052 43.5849 50.1611 43.829" stroke="#5F4086" stroke-width="2.25" stroke-linecap="round"/>
<path d="M56.3323 45.6628C56.1215 45.6739 55.9125 45.7728 55.7162 45.8417C55.1063 46.0558 54.4856 46.2497 53.8925 46.5076C53.4518 46.6992 53.0861 46.9217 52.7074 47.2057C52.4629 47.3891 52.2553 47.5485 52.0391 47.7648" stroke="#5F4086" stroke-width="2.25" stroke-linecap="round"/>
<path d="M16.2041 39.5603C17.0511 40.3303 18.5067 40.6285 19.5868 40.8877C21.488 41.344 23.4052 41.5516 25.3306 41.8725C28.554 42.4097 31.8047 42.7607 34.7506 44.2336C36.5246 45.1206 38.3896 45.8749 39.8522 47.2432C40.4747 47.8255 41.1746 48.2864 41.7607 48.9376C42.5611 49.827 43.1646 50.8859 44.0056 51.7269C45.8385 53.5599 48.2234 54.58 50.5017 55.7457C53.1594 57.1055 55.9037 57.6049 58.8147 57.9967C62.0742 58.4355 65.3289 58.6268 68.6079 58.7247C70.245 58.7735 71.8264 58.8001 73.4586 58.7185C73.9876 58.6921 74.4693 58.4983 75.0001 58.4983" stroke="#5F4086" stroke-width="2.25" stroke-linecap="round"/>
</svg>
