<svg width="90" height="91" viewBox="0 0 90 91" fill="none" xmlns="http://www.w3.org/2000/svg">
<circle cx="45" cy="45.25" r="45" fill="#F1F7E0"/>
<g clip-path="url(#clip0_951_12498)">
<path d="M45.5094 69.0096C43.5986 70.9504 41.1208 71.4065 38.6534 71.8528C36.503 72.2814 34.2853 72.2438 32.1506 71.7435C27.995 70.7128 23.3124 67.0095 22.7706 60.8396C22.4685 57.4054 22.2395 53.9761 22.2785 50.5184C22.3203 46.798 22.0526 43.075 21.9983 39.3518C21.9653 37.0949 21.854 34.8026 22.18 32.5844C22.7311 28.8348 23.3243 25.0247 26.1622 22.1089C28.4985 19.7086 31.2463 18.1733 34.6949 18.2915C35.6045 18.3336 36.5006 18.527 37.3462 18.8637C39.5874 19.7341 41.4995 21.2819 42.8146 23.2904C45.0782 26.6838 46.3696 30.445 46.898 34.4658C47.1607 36.4631 47.3113 38.4753 47.5241 40.5952C47.8924 40.4971 48.2584 40.4068 48.6201 40.3022C52.9073 39.0619 57.154 39.0776 61.3632 40.6661C62.4688 41.0631 63.4802 41.6835 64.3341 42.4887C65.188 43.2936 65.8662 44.2658 66.326 45.3442C68.2313 49.5893 68.8819 53.9744 67.8784 58.5545C67.1906 61.6907 65.6285 64.2775 63.0311 66.2174C59.5535 68.8145 55.6695 70.2407 51.304 70.2312C49.3376 70.2282 47.4496 69.7589 45.5094 69.0096ZM24.9047 44.3706C27.0078 44.3706 28.9523 44.4 30.8957 44.3643C34.4702 44.2985 38.044 44.1995 41.6176 44.0964C41.88 44.0813 42.1324 43.9905 42.3439 43.8347C42.9527 43.3907 43.5338 42.9098 44.084 42.395C44.3215 42.1637 44.4678 41.8548 44.4964 41.525C44.5196 40.0985 44.5139 38.6692 44.4511 37.2439C44.2697 33.1251 43.5271 29.1416 41.52 25.4687C40.6774 23.8864 39.4423 22.546 37.9327 21.5751C35.9333 20.2914 33.8322 20.097 31.6799 21.0231C29.1345 22.1186 27.1804 23.9432 26.1548 26.5063C25.0127 29.3065 24.4317 32.3026 24.4445 35.3256C24.47 37.9793 24.6536 40.6313 24.7767 43.2836C24.7932 43.6333 24.8576 43.9812 24.9047 44.3706ZM42.7787 67.5565C42.133 67.0174 41.6329 66.6271 41.1635 66.2028C39.4198 64.6797 38.1631 62.6793 37.5493 60.45C36.3576 56.0348 37.1903 51.9074 39.2996 47.9552C39.4997 47.5807 39.7009 47.2066 39.9142 46.8087C37.9106 46.5074 26.0772 46.6849 24.9972 47.0335C24.9972 47.6444 24.9751 48.2734 25.0014 48.9003C25.076 50.6807 25.1366 52.4629 25.2654 54.2396C25.4368 56.6056 25.6113 58.974 25.8855 61.3296C26.3337 65.1786 29.9403 68.4404 33.3412 69.0448C36.2435 69.5605 39.0231 69.0564 41.7581 68.1271C42.1138 67.9658 42.4552 67.775 42.7787 67.5565ZM62.835 46.0279C62.1834 44.9099 61.1662 44.0496 59.9538 43.5916C58.4825 43.0043 56.9895 42.456 55.4708 42.0078C54.5335 41.7317 53.5021 41.4476 52.5634 41.5653C50.2241 41.8196 47.9749 42.6076 45.9902 43.8686C42.7888 45.9616 41.0936 49.0894 40.0596 52.6356C39.2973 55.2505 39.2911 57.8745 40.2277 60.4621C40.3947 60.9233 40.6301 61.3599 40.8369 61.8146C47.9222 56.0566 55.6474 51.4483 62.835 46.0279ZM42.3525 63.8393C44.6194 66.0315 47.1078 67.2526 50.0075 67.5414C54.2196 67.9607 57.9075 66.5743 61.2136 64.065C62.9811 62.7412 64.2116 60.8273 64.6805 58.6729C65.1864 56.4239 65.2479 54.0982 64.862 51.8256C64.7084 50.8754 64.4263 49.9472 64.1591 48.8264L42.3525 63.8393Z" fill="#7CA851"/>
</g>
<defs>
<clipPath id="clip0_951_12498">
<rect width="46.7027" height="54" fill="white" transform="translate(21.75 18.25)"/>
</clipPath>
</defs>
</svg>
