<svg xmlns="http://www.w3.org/2000/svg" width="90" height="91" fill="none" viewBox="0 0 90 91"><circle cx="45" cy="45.75" r="45" fill="#FFE4E4"/><g clip-path="url(#clip0_951_12506)"><path fill="#8F4949" d="M38.2776 25.969C38.3515 24.5844 38.4243 23.2223 38.5085 21.6455C37.7728 21.6455 37.122 21.6704 36.4739 21.6397C35.4486 21.5912 35.068 21.3107 35.0177 20.6356C34.9644 19.9192 35.4147 19.4694 36.3963 19.3273C36.9153 19.262 37.4375 19.225 37.9606 19.2166C41.8542 19.0829 45.7481 18.9537 49.6422 18.8289C49.8784 18.8201 50.1148 18.8401 50.346 18.8887C51.1795 19.0698 51.6518 19.6087 51.6446 20.3409C51.6412 20.7009 51.5065 21.0474 51.2656 21.3156C51.0244 21.5837 50.6935 21.755 50.3349 21.7975C49.6878 21.9047 49.0229 21.9038 48.268 21.9581V25.7467C52.4139 26.1558 55.9124 28.1191 59.441 30.4791C60.2942 29.7834 61.1986 29.1128 62.0248 28.3584C64.4201 26.1749 65.742 26.331 67.4927 28.7668C67.9414 29.3195 68.4273 29.8411 68.9474 30.3276C70.291 31.736 70.3255 32.8296 69.0055 34.2901C68.1181 35.2721 67.1768 36.2061 66.2335 37.1889C66.8553 38.3162 67.4838 39.4187 68.0781 40.5397C71.4657 46.929 70.9806 56.4349 65.4961 62.6258C60.9293 67.781 55.3254 70.8922 48.6089 72.152C42.2404 73.3461 36.131 72.4089 30.2364 69.8649C26.1303 68.0925 23.3066 64.9597 21.7566 60.8942C18.6376 52.7136 19.1524 44.6648 23.3047 36.8979C24.8958 33.9218 27.383 31.8025 30.1117 29.954C31.6889 28.9027 33.3302 27.9501 35.026 27.1018C36.0218 26.5955 37.1487 26.3515 38.2776 25.969ZM24.056 50.717C24.0521 53.3087 24.4655 55.8844 25.2804 58.3457C26.7321 62.638 29.4082 65.7573 33.8319 67.177C43.7685 70.3661 52.8043 68.8245 60.6337 61.7995C66.4555 56.5759 67.648 48.8367 63.8341 42.0321C60.784 36.59 56.1839 32.9293 50.3176 30.8648C47.6151 29.9289 44.7501 29.5494 41.8961 29.7491C38.4915 29.9618 35.4503 31.2722 32.5683 32.98C29.5472 34.7361 27.1987 37.4446 25.893 40.6784C24.5891 43.8074 24.1979 47.0597 24.056 50.717ZM41.5738 21.8723C41.6477 23.1184 41.7186 24.3123 41.7892 25.5031H44.9465C45.1293 24.281 45.3021 23.127 45.49 21.8723H41.5738ZM67.1654 32.2788L64.9794 29.8472L62.3344 32.646L64.0994 34.5967L67.1654 32.2788Z"/><path fill="#8F4949" d="M46.0105 48.0605C47.9518 48.112 49.7947 48.1513 51.6367 48.2158C52.2043 48.2147 52.7706 48.2759 53.3249 48.3983C53.6572 48.4609 53.9572 48.6362 54.1742 48.8943C54.3915 49.1526 54.5121 49.4777 54.5157 49.8148C54.5248 50.1748 54.4098 50.5267 54.19 50.8125C53.9706 51.0983 53.6591 51.3005 53.3082 51.3855C52.8089 51.5383 52.288 51.6084 51.7659 51.5932C49.2037 51.4672 46.6437 51.2941 44.0829 51.1398C42.9566 51.072 42.412 50.6192 42.2872 49.5312C42.2446 49.012 42.2575 48.49 42.3259 47.9738C42.6483 44.8184 42.9817 41.6643 43.3261 38.5115C43.3889 37.9949 43.4841 37.4829 43.6112 36.9783C43.7579 36.3649 44.1351 35.9691 44.8022 35.9536C45.5524 35.9364 45.933 36.387 46.0597 37.0613C46.1676 37.5702 46.2235 38.0888 46.2264 38.609C46.1708 41.3547 46.0844 44.1001 46.0114 46.8456C46.0027 47.1743 46.0105 47.503 46.0105 48.0605Z"/></g><defs><clipPath id="clip0_951_12506"><rect width="50.844" height="54" fill="#fff" transform="translate(19.5 18.75)"/></clipPath></defs></svg>