<svg xmlns="http://www.w3.org/2000/svg" width="90" height="91" fill="none" viewBox="0 0 90 91"><circle cx="45" cy="45.75" r="45" fill="#EEE0FF"/><path fill="#5F4086" d="M45.6064 56.6708C42.8005 56.6106 40.6473 56.2005 38.595 55.3002C37.0612 54.6433 35.7629 53.5364 34.8718 52.1258C34.5399 51.6043 34.2761 50.9846 34.8128 50.512C35.4075 49.9883 35.998 50.3342 36.4559 50.8439C39.2056 53.9095 42.7804 54.608 46.5989 54.0427C49.8139 53.5665 52.2464 51.7434 53.6508 48.7136C53.8168 48.358 53.9258 47.8986 54.21 47.6943C54.613 47.4051 55.2177 47.0818 55.6199 47.1932C56.0319 47.3072 56.5783 47.928 56.5778 48.326C56.5891 49.1044 56.3852 49.8708 55.9885 50.5407C53.4145 54.4694 49.77 56.5667 45.6064 56.6708Z"/><path fill="#5F4086" d="M52.6445 37.4177C52.8116 36.5189 52.8977 35.859 53.0629 35.2194C53.2642 34.4405 53.7449 33.8742 54.5847 33.7735C55.4381 33.6723 56.1148 34.0537 56.6154 34.7278C57.5162 35.9422 57.4178 39.0581 56.4569 40.2172C55.5917 41.2602 54.0123 41.2154 53.4033 40.0072C52.9769 39.1619 52.8524 38.1635 52.6445 37.4177Z"/><path fill="#5F4086" d="M36.4574 37.4611C36.2203 38.3633 36.1255 39.1241 35.8233 39.7926C35.2575 41.0489 33.845 41.1971 33.0845 40.0614C32.074 38.5522 31.9989 36.831 32.5867 35.1807C33.0547 33.867 34.7801 33.7405 35.523 34.9473C36.0001 35.7226 36.1793 36.6817 36.4574 37.4611Z"/><path fill="#5F4086" d="M18.2322 38.3205C15.7784 47.965 17.9271 56.4731 24.6233 63.6116C24.7975 63.796 24.9753 63.9804 25.1529 64.1581C28.7499 67.755 33.2302 69.9758 36.7802 71.5213C38.3039 72.1867 46.1219 72.9948 48.2373 72.6797C60.8083 70.8024 69.081 63.7122 71.9622 51.8503C72.5123 49.5267 72.7864 47.1463 72.7786 44.7585C72.7919 39.1335 70.4236 32.5941 65.5394 27.6963C65.0364 27.2806 64.5353 26.8498 64.0507 26.4324C62.9999 25.5291 61.9138 24.5937 60.7775 23.7961C52.0968 17.6864 43.0774 17.6522 33.971 20.8921C25.7263 23.8235 20.4313 29.6884 18.2322 38.3205ZM34.0063 23.7799C41.9963 20.4597 50.0132 19.8738 57.8325 24.8466C59.2621 25.7569 63.0737 28.8375 63.6739 29.3002L63.7123 29.3286L63.744 29.3639C66.7947 32.5988 70.2878 38.5137 70.2107 44.594C70.1852 47.1939 69.8332 49.7802 69.163 52.2923C67.1768 59.5117 62.4284 64.773 54.6462 68.3715C46.7347 72.1597 35.389 68.3301 32.3703 66.3373C29.0338 64.0561 26.1144 61.2182 23.7396 57.9477C20.0153 52.6747 19.1794 45.0951 21.1808 38.1662C22.1174 34.9669 23.7543 32.0162 25.9726 29.5279C28.1909 27.0397 30.9352 25.0762 34.0063 23.7799Z"/></svg>