<svg width="128" height="194" viewBox="0 0 128 194" fill="none" xmlns="http://www.w3.org/2000/svg">
<path d="M60.7304 32.154C61.1295 32.2774 63.1706 35.0088 65.2235 38.2677C71.1064 47.5218 77.2851 52.1446 78.4952 48.2334C80.1003 43.0452 62.0821 23.8271 58.4775 26.9974C57.6471 27.7026 59.3735 31.7342 60.7304 32.154Z" fill="#53C8F1"/>
<path d="M43.9102 60.7968C48.9899 61.0565 55.5064 61.7607 58.5338 62.4349C65.1967 63.7966 66.7767 63.4983 66.172 61.2122C65.0426 56.6647 57.0806 52.7146 45.8967 51.2661C17.8542 47.4881 25.7595 59.8167 43.9102 60.7968Z" fill="#53C8F1"/>
<path d="M92.2021 23.4368C90.6185 18.6613 85.8328 14.9069 84.0848 17.1648C82.3614 19.3429 82.9081 34.8173 84.7823 38.3708C88.9718 46.3138 95.5348 33.3013 92.2021 23.4368Z" fill="#53C8F1"/>
<path d="M36.0676 163.321C31.3799 167.731 36.9313 184.841 43.716 186.94C47.8666 188.224 48.231 186.764 46.377 178.056C43.6749 165.588 39.6665 159.887 36.0676 163.321Z" fill="#53C8F1"/>
<path d="M57.6106 151.358C51.8367 147.122 49.1722 146.123 47.9904 147.682C45.6761 150.639 65.2654 166.757 68.549 164.625C70.9471 163.093 66.6858 157.926 57.6106 151.358Z" fill="#53C8F1"/>
<path d="M71.276 121.039C49.7051 123.199 45.0231 143.703 75.2527 131.366C82.8253 128.374 79.6622 120.223 71.276 121.039Z" fill="#53C8F1"/>
<path d="M73.6764 94.0572C113.61 70.9907 125.01 55.6273 120.656 30.404C119.262 22.1889 113.848 19.9011 112.547 26.9326C106.328 60.6042 95.7131 64.6667 47.8786 92.6353C18.3356 109.821 1.71172 130.479 1.63259 149.958C1.55696 167.164 8.86812 182.544 16.3953 181.112C18.9209 180.581 18.8715 180.741 16.6223 173.311C7.49659 143.725 21.5815 124.206 73.6764 94.0572Z" fill="#53C8F1"/>
</svg>
