<svg xmlns="http://www.w3.org/2000/svg" width="240" height="241" viewBox="0 0 240 241" fill="none">
  <path d="M145.601 39.8677C149.903 31.1208 144.311 24.8116 138.36 31.7661C133.986 36.9282 127.821 51.6259 128.896 54.4221C131.405 60.803 138.288 54.7805 145.601 39.8677Z" fill="#DEC89F"/>
  <path d="M102.799 57.5042C107.316 58.9382 108.893 56.2853 108.391 48.112C107.316 31.9804 102.369 25.3126 93.9086 28.6824C89.8936 30.2597 97.7801 55.9269 102.799 57.5042Z" fill="#DEC89F"/>
  <path d="M57.5592 61.664C67.7401 69.2638 74.8377 72.6335 78.4225 71.343C82.8677 69.7657 82.151 68.2601 74.0493 61.8791C63.7251 53.6341 58.0608 51.1964 52.6119 52.6303C48.7403 53.6341 49.9594 55.9283 57.5592 61.664Z" fill="#DEC89F"/>
  <path d="M145.529 64.3877C143.091 67.0405 143.092 67.1121 144.956 68.4744C150.261 72.346 155.925 69.263 178.366 50.1202C184.389 44.9581 174.423 40.8714 167.396 45.6751C163.74 48.1844 148.397 61.3048 145.529 64.3877Z" fill="#DEC89F"/>
  <path d="M230.848 193.584C228.339 191.505 226.69 187.633 225.973 182.112C225.471 178.312 217.441 115.507 213.785 98.9448C210.774 85.1792 202.313 78.6549 195.574 78.2964C191.344 78.0813 188.906 80.8775 187.185 79.802C182.525 76.8625 181.235 75.5002 176.646 75.9304C174.495 76.0738 169.691 77.3643 168.042 78.7983C166.967 79.6586 165.605 79.6586 162.594 78.8699C147.824 74.9266 141.3 88.9791 147.968 110.416C151.767 122.676 157.216 117.299 155.639 102.888C153.56 83.817 153.99 81.8095 159.941 83.9603C163.167 85.1075 163.311 85.3943 163.024 89.3375C162.594 94.8581 166.465 120.095 167.899 121.027C171.843 123.608 174.854 119.02 173.563 112.209C170.05 93.1375 172.416 81.3076 179.442 83.1C181.593 83.6736 183.17 85.6094 183.17 87.8319C183.529 109.412 183.744 123.823 190.34 123.823C194.498 123.823 194.498 123.967 193.566 105.254C192.563 85.3943 194.929 84.3188 198.442 85.3943C203.532 86.9716 204.034 98.8732 204.536 102.099C204.536 102.171 215.864 176.592 215.864 176.735C217.226 193.655 227.765 208.497 235.15 203.765C236.656 202.761 233.86 196.093 230.848 193.584Z" fill="#DEC89F"/>
  <path d="M53.759 103.247C53.759 91.7036 53.9023 90.7715 56.1966 88.1905C60.2832 83.3868 61.5738 87.7603 62.3625 109.843C62.9361 125.974 63.0079 126.189 66.4493 127.193C70.8945 128.555 71.3247 126.476 70.8229 108.265C70.321 91.847 70.3926 91.2734 72.5435 89.1225C76.9886 84.6057 77.9208 86.3981 79.7849 101.956C80.8603 111.42 80.7167 116.726 79.2111 124.899C78.8526 126.978 79.211 127.623 80.9317 128.125C85.592 129.344 86.3806 127.767 87.7429 114.145C90.1088 90.5565 86.8826 83.4586 73.5472 83.3152C69.6039 83.2435 65.087 82.7416 63.5097 82.0246C61.9324 81.3793 58.3475 80.8775 55.5514 80.9492C52.7552 81.0209 48.1666 80.8058 45.4422 80.4473C42.1441 80.0172 39.42 80.3039 37.4842 81.1643C29.2391 84.9642 27.8052 89.4093 18.1262 141.676C16.4772 150.709 14.613 161.966 14.1112 166.626C13.1074 175.301 10.096 185.41 6.08106 193.727C3.28492 199.463 3.93032 201.542 8.37548 201.542C16.3337 201.542 23.7901 188.637 25.5825 171.645C26.5146 162.611 28.1637 158.883 31.0315 138.234C36.4804 98.443 37.4839 93.8545 41.4989 89.1942C47.0195 82.8133 46.5176 84.8925 47.2346 122.031C47.2346 123.608 48.6686 124.827 50.2459 124.684C53.1138 124.469 53.759 121.816 53.759 103.247Z" fill="#DEC89F"/>
  <path d="M187.472 202.116C182.955 193.799 182.596 193.512 174.566 192.652C164.816 191.576 157.288 187.777 154.061 182.328C146.963 170.211 136.998 138.019 138.145 130.921C139.722 120.956 143.02 121.673 148.397 133.001C152.627 141.891 155.424 145.046 165.389 152.502C169.835 155.8 172.559 158.74 174.351 162.253C176.574 166.554 177.363 167.271 179.944 167.271C188.762 167.271 178.223 148.129 167.469 144.687C162.88 143.253 161.446 142.034 161.446 139.668C161.446 127.839 144.167 115.005 134.99 120.024C127.104 124.397 126.458 130.993 131.907 150.853C142.375 188.924 148.254 196.667 167.899 198.388C175.57 199.105 177.434 200.395 181.306 207.636C186.611 217.602 192.706 210.791 191.487 209.214C191.057 208.568 189.264 205.414 187.472 202.116Z" fill="#DEC89F"/>
  <path d="M92.1884 124.684C86.9546 127.122 81.2905 133.144 78.8528 138.88C77.0604 143.11 76.5587 143.54 72.5437 144.186C63.7968 145.548 56.1971 152.072 55.05 159.027C54.0462 165.193 60.3552 168.347 62.6495 162.755C65.6607 155.514 71.6115 149.921 78.1359 148.272C82.1509 147.269 90.181 139.239 96.9922 129.631C101.294 123.537 104.162 131.782 101.15 141.389C91.6865 171.072 79.4265 187.418 65.3024 188.996C59.3516 189.713 58.0609 190.931 52.9705 201.041C49.6008 207.637 49.5292 207.995 51.3216 209.286C55.6234 212.44 59.7101 209.429 62.5063 201.112C64.4421 195.377 64.6572 195.09 69.0307 194.014C85.5208 189.784 93.6941 180.034 105.524 150.71C114.558 128.341 108.75 117.013 92.1884 124.684Z" fill="#DEC89F"/>
</svg>