<svg width="120" height="120" viewBox="0 0 120 120" fill="none" xmlns="http://www.w3.org/2000/svg">
<circle cx="60" cy="60" r="60" fill="#F1F7E0"/>
<g clip-path="url(#clip0_130_4646)">
<path d="M60.0826 86.3999C57.9648 88.5563 55.2187 89.0631 52.4842 89.5591C50.1009 90.0352 47.6431 89.9935 45.2772 89.4375C40.6716 88.2924 35.4821 84.1776 34.8816 77.3222C34.5468 73.5064 34.2929 69.696 34.3362 65.8542C34.3825 61.7204 34.0859 57.5837 34.0256 53.4468C33.989 50.9391 33.8657 48.3921 34.227 45.9275C34.8378 41.7612 35.4952 37.5278 38.6404 34.288C41.2297 31.621 44.275 29.9152 48.097 30.0465C49.1051 30.0933 50.0982 30.3082 51.0355 30.6823C53.5193 31.6493 55.6384 33.3692 57.0959 35.6008C59.6046 39.3713 61.0359 43.5504 61.6214 48.0179C61.9127 50.2372 62.0795 52.4729 62.3154 54.8283C62.7236 54.7194 63.1292 54.619 63.5301 54.5029C68.2814 53.1247 72.988 53.1421 77.653 54.9071C78.8783 55.3483 79.9992 56.0376 80.9456 56.9322C81.8919 57.8266 82.6436 58.9068 83.1532 60.105C85.2648 64.8218 85.9858 69.6942 84.8736 74.7831C84.1114 78.2678 82.3802 81.1421 79.5014 83.2975C75.6473 86.1831 71.3427 87.7678 66.5046 87.7573C64.3253 87.7539 62.2328 87.2325 60.0826 86.3999ZM37.2468 59.0232C39.5775 59.0232 41.7326 59.0559 43.8865 59.0163C47.848 58.9431 51.8088 58.8332 55.7693 58.7186C56.0602 58.7018 56.3399 58.6009 56.5743 58.4278C57.249 57.9345 57.8931 57.4001 58.5028 56.8282C58.766 56.5712 58.9281 56.2279 58.9598 55.8615C58.9856 54.2765 58.9792 52.6884 58.9097 51.1047C58.7086 46.5283 57.8855 42.1021 55.6612 38.0211C54.7273 36.2631 53.3585 34.7737 51.6854 33.695C49.4695 32.2686 47.1409 32.0526 44.7556 33.0816C41.9345 34.2988 39.7688 36.3262 38.6322 39.174C37.3665 42.2853 36.7226 45.6144 36.7367 48.9733C36.765 51.9218 36.9684 54.8685 37.1049 57.8155C37.1232 58.2041 37.1945 58.5906 37.2468 59.0232ZM57.0561 84.7854C56.3405 84.1864 55.7863 83.7527 55.2661 83.2812C53.3336 81.5889 51.9408 79.3663 51.2605 76.8893C49.9398 71.9835 50.8627 67.3975 53.2003 63.0061C53.4221 62.59 53.6451 62.1744 53.8815 61.7322C51.6609 61.3975 38.5462 61.5947 37.3493 61.982C37.3493 62.6608 37.3248 63.3597 37.3539 64.0563C37.4366 66.0345 37.5038 68.0147 37.6465 69.9888C37.8365 72.6177 38.0299 75.2492 38.3338 77.8666C38.8305 82.1433 42.8276 85.7675 46.5967 86.4391C49.8133 87.012 52.8939 86.452 55.9251 85.4193C56.3193 85.2401 56.6976 85.0282 57.0561 84.7854ZM79.2841 60.8647C78.562 59.6224 77.4347 58.6666 76.091 58.1577C74.4604 57.5052 72.8056 56.8959 71.1226 56.3979C70.0838 56.0912 68.9407 55.7755 67.9003 55.9063C65.3077 56.1888 62.815 57.0643 60.6153 58.4654C57.0674 60.791 55.1886 64.2664 54.0427 68.2066C53.1978 71.112 53.1909 74.0276 54.2289 76.9027C54.414 77.4151 54.6749 77.9003 54.904 78.4055C62.7565 72.0077 71.3183 66.8873 79.2841 60.8647ZM56.5838 80.6551C59.0961 83.0909 61.854 84.4478 65.0677 84.7686C69.7359 85.2345 73.8231 83.694 77.4872 80.906C79.4461 79.4351 80.8099 77.3085 81.3295 74.9147C81.8901 72.4158 81.9583 69.8317 81.5306 67.3066C81.3604 66.2508 81.0478 65.2194 80.7517 63.9741L56.5838 80.6551Z" fill="#7CA851"/>
</g>
<defs>
<clipPath id="clip0_130_4646">
<rect width="51.7597" height="60" fill="white" transform="translate(33.75 30)"/>
</clipPath>
</defs>
</svg>
