<svg xmlns="http://www.w3.org/2000/svg" width="226" height="209" viewBox="0 0 226 209" fill="none">
  <path fill-rule="evenodd" clip-rule="evenodd" d="M91.724 56.9161C91.7701 58.7716 91.7106 60.5267 91.6152 60.8385C91.5389 61.088 89.3421 60.6887 86.7228 59.8874C82.7315 58.6662 72.597 56.7932 67.4083 56.3651C65.61 56.2242 60.4203 58.251 58.3996 59.9516C55.1241 62.6324 53.9971 74.5639 56.7681 77.3213C57.6566 78.2069 57.662 78.4131 56.2737 79.8298C52.7121 83.4461 52.3491 90.428 55.4377 96.829C56.9386 99.9481 57.0406 100.73 56.2583 103.286C55.0754 107.153 55.8483 110.868 58.7763 115.788C60.2186 118.207 61.1672 120.679 61.0923 121.816C60.4298 133.344 75.8356 142.286 103.374 146.346C118.18 148.557 118.386 148.552 119.251 150.181C120.675 152.662 122.897 154.092 127.387 155.466C131.129 156.611 131.633 156.97 132.317 158.748C133.309 161.302 137.32 163.347 142.913 164.24C145.066 164.558 147.949 165.167 149.383 165.606C153.374 166.827 155.166 165.875 153.844 163.288C152.91 161.434 152.344 161.056 148.103 159.758C140.994 157.583 140.844 159.856 150.237 123.582C152.324 115.423 155.093 104.812 156.293 99.996C159.038 89.2415 158.142 89.7176 169.09 93.6128C178.561 96.9877 180.565 97.1235 179.17 94.105C177.447 90.3725 169.788 85.983 159.747 82.9111L157.627 82.2624C156.754 81.9953 155.828 82.1214 155.076 82.5733C154.324 83.0252 153.765 83.7405 153.497 84.6136C153.14 86.0047 152.84 87.2088 152.897 87.0217L145.375 84.8568C137.978 82.73 137.854 82.6919 137.496 84.083C136.986 85.973 136.444 85.7388 132.942 81.803C129.738 78.2311 128.78 75.3462 124.805 57.3525C123.476 51.2172 122.088 46.8368 120.587 43.7178C114.646 31.2605 91.5765 33.5461 91.724 56.9161ZM112.303 41.5925C113.673 43.5802 114.409 48.3068 114.469 55.6908C114.599 70.8712 121.337 83.845 133.534 92.3509L135.214 93.5469C134.137 97.514 125.144 129.136 121.84 140.606L115.614 139.11C109.244 137.639 91.1434 134.829 85.2547 134.46C76.3688 133.855 68.1818 126.508 69.9372 120.771C70.2425 119.773 70.1787 118.867 69.8669 118.771C65.7508 117.512 62.6958 104.983 65.9433 102.839C66.451 102.517 66.027 101.228 64.9449 99.1921C62.1175 94.1668 62.0332 92.436 64.3968 86.2708C66.3737 81.1467 66.3687 80.9406 65.2396 79.5039C61.9008 75.4815 63.7421 66.5649 68.1466 65.3208C69.2729 64.9833 74.2223 65.7474 82.9518 67.5315C100.66 71.1762 99.2185 72.0991 101.149 55.9805C102.519 43.0321 108.257 35.6485 112.303 41.5925ZM134.101 150.018C134.038 149.999 128.426 148.282 128.613 148.339L143.477 91.5054C143.602 91.5436 149.901 93.4708 149.652 93.3944C141.132 124.138 143.773 111.715 134.101 150.018Z" fill="#E6FE55"/>
</svg>