<svg width="120" height="120" viewBox="0 0 120 120" fill="none" xmlns="http://www.w3.org/2000/svg">
<circle cx="60" cy="60" r="60" fill="#D3F3FF"/>
<path d="M59.7269 73.4996C55.7965 73.5199 52.5416 72.8227 49.8049 70.5832C48.8828 69.8287 48.173 68.7652 47.4925 67.7539C47.1015 67.1725 47.1556 66.4009 47.8589 66.0069C48.4557 65.6727 49.0603 65.8615 49.4769 66.437C51.9747 69.8869 55.5829 70.6459 59.4416 70.6188C60.9044 70.6087 62.3751 70.2656 63.8238 69.9782C66.3741 69.472 68.4235 68.1677 69.8146 65.8577C70.1455 65.3336 70.5326 64.849 70.9688 64.4129C71.5216 63.8376 72.1877 63.4687 72.9415 64.0247C73.6113 64.5189 73.5982 65.2067 73.3207 65.9448C72.5217 68.1366 71.0066 69.9783 69.0323 71.1577C66.0148 72.9925 62.6583 73.4077 59.7269 73.4996Z" fill="#3E9FA5"/>
<path d="M52.188 48.4002L50.4763 48.005C46.6388 47.1202 43.3138 47.9055 40.6909 51.1602C40.4181 51.4987 39.8277 51.56 39.3849 51.75C39.2565 51.2246 38.862 50.5355 39.0498 50.2015C39.6181 49.195 40.2672 48.1276 41.1437 47.439C44.7654 44.598 48.7855 44.4476 52.9524 45.9181C53.6201 46.154 54.1461 46.639 53.9633 47.4653C53.784 48.281 53.1533 48.4837 52.188 48.4002Z" fill="#3E9FA5"/>
<path d="M49.5654 51.75C51.7395 51.7978 53.5389 52.8 54.9999 54.5167C55.2517 54.7801 55.4212 55.1175 55.486 55.4841C55.5198 55.9637 55.5115 56.6209 55.2392 56.8959C55.0155 57.1207 54.3281 57.0272 53.9414 56.8488C53.3398 56.5712 52.8199 56.1002 52.2636 55.7139C49.2465 53.6184 46.5509 54.3262 44.755 57.6071C44.5184 58.0392 43.88 58.5421 43.4808 58.4972C42.7146 58.4107 42.7068 57.5981 42.7787 56.93C43.0544 54.363 45.5152 52.1442 48.4356 51.8163C48.7899 51.7759 49.1479 51.7728 49.5654 51.75Z" fill="#3E9FA5"/>
<path d="M72.644 44.2621C74.4588 44.2029 76.1568 44.7062 77.7609 45.524C78.1472 45.7165 78.5097 45.9481 78.8419 46.2148C79.3679 46.6468 79.727 47.1942 79.3326 47.8431C78.9031 48.5489 78.1725 48.4939 77.4719 48.2751C77.1027 48.1447 76.7515 47.9735 76.4257 47.7651C73.5576 46.0717 70.719 46.1729 67.8958 47.8616C67.4322 48.1707 66.9408 48.4416 66.4272 48.6713C66.149 48.7793 65.6151 48.7865 65.478 48.6276C65.3746 48.4818 65.3043 48.3177 65.2714 48.1455C65.2384 47.9733 65.2436 47.7965 65.2866 47.6262C65.4267 47.2832 65.6612 46.9807 65.9663 46.7496C67.8341 45.1199 69.9824 44.1277 72.644 44.2621Z" fill="#3E9FA5"/>
<path d="M73.242 51.0032C74.6738 50.9491 76.1333 51.5905 77.365 52.8323C77.7712 53.2364 78.1218 53.7032 78.4059 54.2179C78.9347 55.2007 78.8321 56.287 78.2485 56.7609C77.6369 57.2576 76.9045 56.9786 76.0985 55.9419C73.9061 53.1216 71.4961 52.9485 68.927 55.4274C68.8318 55.5191 68.7432 55.6188 68.6478 55.7114C68.1997 56.1512 67.6978 56.6973 67.1126 56.1295C66.478 55.5134 66.7874 54.7882 67.1979 54.1423C68.4178 52.2249 70.7429 50.9613 73.242 51.0032Z" fill="#3E9FA5"/>
<path d="M31.0746 51.4732C28.39 62.0553 30.7408 71.3906 38.0666 79.2231C38.2572 79.4254 38.4517 79.6278 38.6462 79.8228C42.5813 83.7694 47.4829 86.2061 51.3668 87.9019C53.0335 88.6319 61.587 89.5186 63.901 89.1729C77.654 87.113 86.7045 79.3336 89.8567 66.3183C90.4587 63.7689 90.7584 61.1571 90.7498 58.5371C90.7643 52.3653 88.1734 45.19 82.8299 39.8161C82.2799 39.3599 81.7314 38.8873 81.2016 38.4293C80.0517 37.4381 78.8635 36.4119 77.6203 35.5367C68.1234 28.833 58.2559 28.7955 48.2933 32.3503C39.2733 35.5668 33.4804 42.0019 31.0746 51.4732ZM48.3319 35.519C57.0734 31.8759 65.8441 31.233 74.3983 36.6894C75.9626 37.6881 80.1324 41.0682 80.789 41.5759L80.831 41.6071L80.866 41.6458C84.2033 45.1952 88.0235 51.6852 87.9405 58.3566C87.9126 61.2093 87.5276 64.047 86.7945 66.8034C84.6214 74.7246 79.4265 80.4975 70.9124 84.4458C62.2573 88.6023 49.8448 84.4004 46.5423 82.2138C42.8919 79.711 39.6979 76.5972 37.0998 73.0086C33.0253 67.223 32.1109 58.9064 34.3004 51.3038C35.3251 47.7936 37.1159 44.556 39.5428 41.8258C41.9697 39.0956 44.972 36.9413 48.3319 35.519Z" fill="#3E9FA5"/>
</svg>
