<svg width="120" height="120" viewBox="0 0 120 120" fill="none" xmlns="http://www.w3.org/2000/svg">
<circle cx="60" cy="60" r="60" fill="#FFECDB"/>
<path d="M58.5055 80.8402L58.7557 80.917C59.6759 81.1975 60.5449 81.4621 61.1177 82.6217C61.1322 82.651 61.1526 82.6769 61.1776 82.6978C61.2026 82.7184 61.2316 82.7337 61.2626 82.7423C61.2823 82.7475 61.3024 82.7502 61.3227 82.7502C61.3671 82.7502 61.4104 82.7371 61.4477 82.7125C61.87 82.4327 62.2678 82.1792 62.6455 81.9384C63.4369 81.4337 64.1204 80.9983 64.7741 80.4908C67.1185 78.7105 69.2577 76.6668 71.1514 74.3981C73.6402 71.3655 76.2136 68.2295 78.6361 64.9468C80.1523 62.8918 81.4451 60.5976 82.5376 58.6094C83.6303 56.5976 84.2808 54.3686 84.4444 52.0761C84.7409 48.3086 83.8602 44.9128 81.8273 41.9831C79.5646 38.7224 76.5552 37.1344 72.8895 37.2568C68.7541 37.3974 65.1172 39.0058 62.0794 42.0375C61.9321 42.1915 61.7957 42.3559 61.6714 42.5295C61.4352 42.843 61.211 43.1405 60.8737 43.2584C57.3304 39.7468 54.6212 38.3731 50.5684 38.021C46.4092 37.6594 43.0419 39.0204 40.5598 42.0641C39.328 43.5686 38.2483 45.1956 37.3372 46.9205C35.3951 50.6205 34.9904 54.556 36.1362 58.6185C37.1582 62.2444 38.8621 65.6339 41.1536 68.5988C45.735 74.5455 51.5732 78.6646 58.5055 80.8402ZM41.3489 47.6212C41.8811 46.6007 42.4741 45.6143 43.1243 44.6672C44.6702 42.3715 46.8489 41.2128 49.6119 41.2128C49.9542 41.2128 50.3054 41.2305 50.6656 41.2661C54.356 41.6312 57.3166 43.2855 59.4647 46.1829C59.7228 46.5309 60.0038 46.8531 60.2516 47.137C60.3525 47.2528 60.4474 47.3617 60.5311 47.4614C60.5659 47.503 60.6141 47.5306 60.667 47.5397C61.6633 47.7146 62.066 47.189 62.3649 46.6842C64.0901 43.7729 66.7751 42.0351 70.8154 41.2156C71.7722 41.0475 72.7482 41.0226 73.7121 41.1417C75.2426 41.2887 76.5554 42.054 77.6146 43.4157C78.8217 44.9777 79.5371 46.8741 79.667 48.8567C79.8807 51.1483 79.467 53.4554 78.4721 55.5228C77.7222 57.125 76.8688 58.675 75.9174 60.1622C74.1507 62.8105 72.264 65.4433 70.4397 67.9894L69.8057 68.8753C68.4471 70.7733 67.0421 72.6866 65.6837 74.5367C65.1935 75.2042 64.7037 75.872 64.2142 76.5403C64.003 76.8288 63.7831 77.1113 63.5505 77.4107C63.4737 77.5093 63.3958 77.6097 63.3166 77.7122C62.665 77.4396 62.0305 77.1731 61.4084 76.9128C59.94 76.2982 58.5398 75.7119 57.1431 75.117C53.2769 73.497 49.775 71.0938 46.85 68.0537C43.8511 64.9141 41.7726 61.5553 40.4962 57.7851C39.3323 54.3461 39.611 51.0214 41.3489 47.6212Z" fill="#9B7E62"/>
</svg>
