<svg width="120" height="120" viewBox="0 0 120 120" fill="none" xmlns="http://www.w3.org/2000/svg">
<circle cx="60" cy="60" r="60" fill="#D3F3FF"/>
<circle cx="60" cy="60" r="60" fill="#F1F7E0"/>
<rect width="75" height="46.8832" transform="translate(23 37)" fill="#F1F7E0"/>
<path d="M83.0818 65.1957C82.8059 67.1705 81.9048 68.9417 80.9949 70.6809C79.459 73.6583 77.3056 76.2762 74.6774 78.3607C71.5715 80.8156 68.0199 82.2855 64.138 82.9639C61.7317 83.3845 59.3076 83.6906 56.85 83.5662C50.9251 83.2661 45.8107 81.2013 41.654 76.8664C39.8904 74.9966 38.3913 72.8955 37.1984 70.6212C36.5096 69.343 36.2509 68.0061 36.0189 66.6358C35.5901 64.1008 35.3262 61.5682 35.6081 58.9772C35.9561 55.7773 36.8425 52.7782 38.4448 49.9907C40.3873 46.5468 43.0487 43.5586 46.2493 41.228C49.4367 38.9259 53.044 37.7465 56.9415 37.2775C61.0732 36.7473 65.2719 37.1833 69.2054 38.5509C73.0646 39.9011 76.5087 41.9612 78.8378 45.4164C81.1669 48.8716 82.783 52.6029 83.3314 56.826C83.7868 60.3299 83.321 63.4827 83.0818 65.1957ZM80.8308 59.9721C80.8112 57.5124 80.5788 55.0796 79.6833 52.7922C78.9456 50.9076 78.069 48.0364 76.5762 46.5485C74.5025 43.6739 71.6157 41.9187 68.3466 40.7586C64.6191 39.4087 60.6144 38.9987 56.6893 39.5652C52.6788 40.1418 49.0855 41.6089 46.0639 44.3358C45.1722 45.1421 44.3228 45.9936 43.5188 46.8868C40.1046 50.6733 38.2636 55.1958 38.2656 62.6352C38.2668 67.2734 40.5628 71.2382 43.8512 74.6267C47.3418 78.2236 51.5497 80.0268 56.4712 80.4297C58.8613 80.6247 61.2174 80.3655 63.5677 80.0038C70.5958 78.9225 75.6123 75.1358 78.847 68.8475C80.7965 65.0573 80.713 61.3652 80.8308 59.9721Z" fill="#7CA851"/>
<path d="M72.292 62.9429C72.1428 64.0019 71.6555 64.9518 71.1635 65.8845C70.333 67.4812 69.1685 68.8851 67.7473 70.003C66.0678 71.3195 64.1473 72.1078 62.0482 72.4716C60.747 72.6972 59.4362 72.8613 58.1073 72.7946C54.9034 72.6337 52.1378 71.5263 49.8901 69.2017C48.9364 68.1989 48.1258 67.0721 47.4808 65.8525C47.1083 65.167 46.9684 64.45 46.843 63.7152C46.6111 62.3557 46.4684 60.9975 46.6208 59.608C46.809 57.892 47.2883 56.2836 48.1548 54.7888C49.2051 52.9419 50.6443 51.3394 52.375 50.0895C54.0986 48.8549 56.0492 48.2224 58.1568 47.9709C60.3909 47.6866 62.6614 47.9204 64.7884 48.6538C66.8752 49.3779 68.7376 50.4827 69.9971 52.3357C71.2565 54.1886 72.1304 56.1896 72.427 58.4544C72.6732 60.3335 72.4213 62.0242 72.292 62.9429ZM71.0747 60.1416C71.0642 58.8225 70.9385 57.5178 70.4543 56.2911C70.0554 55.2804 69.5813 53.7407 68.7741 52.9428C67.6528 51.4012 66.0917 50.4599 64.324 49.8378C62.3084 49.1138 60.1429 48.894 58.0204 49.1978C55.8517 49.507 53.9087 50.2937 52.2747 51.7561C51.7926 52.1886 51.3333 52.6452 50.8985 53.1242C49.0523 55.1548 48.0568 57.5801 48.0579 61.5697C48.0585 64.0571 49.3 66.1833 51.0783 68.0005C52.9658 69.9295 55.2412 70.8965 57.9024 71.1125C59.1949 71.2171 60.4689 71.0781 61.7399 70.8842C65.5403 70.3043 68.2529 68.2736 70.002 64.9013C71.0562 62.8686 71.0111 60.8886 71.0747 60.1416Z" fill="#7CA851"/>
<path d="M25.0635 44.8304C24.9493 43.8239 24.8983 42.7917 24.849 41.7926C24.8264 41.3298 24.8036 40.867 24.7747 40.4046C24.7626 40.2096 24.7511 40.0147 24.74 39.8197C24.7033 39.1815 24.6652 38.5219 24.5935 37.874C24.5664 37.7258 24.5001 37.5875 24.4014 37.4733C24.3028 37.3592 24.1754 37.2733 24.0323 37.2245C23.7833 37.1756 23.5459 37.4373 23.3536 37.6489C23.2414 37.7947 23.1799 37.9727 23.1784 38.1563C23.1586 38.8095 23.1365 39.4627 23.1139 40.1159C23.0519 41.892 22.9876 43.7273 23.0021 45.5344C23.0126 46.1772 23.1656 46.8097 23.45 47.3868C23.7344 47.964 24.1432 48.4715 24.6473 48.8733C25.1557 49.2674 25.7021 49.6103 26.2784 49.8974C26.5162 50.0266 26.7617 50.1594 27.0099 50.3033C26.9859 50.9892 26.9568 51.6807 26.9274 52.3754C26.8596 53.9828 26.7888 55.6446 26.7836 57.2924C26.7622 63.197 26.7657 69.2004 26.7693 75.0059C26.7706 77.1982 26.7716 79.3903 26.7722 81.5824C26.7722 81.6566 26.772 81.7312 26.7706 81.8056C26.7685 82.0354 26.7661 82.2726 26.785 82.509C26.8512 83.3361 27.3193 83.8831 27.9546 83.8831C27.9671 83.8831 27.9792 83.8831 27.9917 83.8831C28.6536 83.8612 29.0875 83.2924 29.0976 82.4338C29.103 81.9619 29.0892 81.4842 29.0762 81.0222C29.0647 80.6218 29.0527 80.2081 29.0535 79.8022C29.0645 74.6014 29.0783 69.4009 29.0951 64.2003L29.1069 60.0691C29.1089 59.3965 29.1104 58.724 29.1114 58.0514C29.1144 56.2583 29.1177 54.4047 29.1358 52.5818C29.1417 51.9909 29.1813 51.3877 29.2196 50.8041C29.2345 50.5764 29.2493 50.3487 29.2624 50.1208C31.2886 49.3937 32.4971 47.932 33.1722 45.4018C33.8206 42.9713 33.8463 40.5597 33.7869 38.5211L33.7851 38.4475C33.7812 38.2322 33.7763 37.9637 33.6179 37.8023C33.335 37.514 33.0035 37.2047 32.6395 37.185C32.2944 37.1653 31.9009 37.5796 31.7504 37.8859C31.6521 38.1281 31.6072 38.3885 31.6188 38.6495C31.616 38.7499 31.6136 38.8503 31.6033 38.9471C31.5512 39.4505 31.5058 39.9551 31.4606 40.4599C31.3542 41.644 31.2443 42.8675 31.0435 44.0528C30.9133 44.8196 30.5837 45.5796 30.2647 46.3145C30.2019 46.4596 30.1392 46.6045 30.0779 46.7487C30.0168 46.9058 29.9238 47.0489 29.8048 47.1687C29.6858 47.2885 29.5432 47.3826 29.3861 47.4452C29.3853 47.3327 29.3845 47.2223 29.3835 47.1139C29.38 46.7135 29.3765 46.3353 29.3893 45.9607C29.4016 45.6043 29.4159 45.2479 29.4302 44.8915C29.5125 42.8492 29.5974 40.7372 29.2786 38.657C29.2495 38.3298 29.1522 38.0122 28.9931 37.7244C28.8981 37.6125 28.7777 37.525 28.6416 37.4693C28.5054 37.4136 28.3578 37.3914 28.2112 37.4045C27.9129 37.4343 27.7138 37.8489 27.6771 37.9318C27.6271 38.069 27.6107 38.2162 27.6293 38.361C27.6321 38.4101 27.635 38.4597 27.6334 38.5069C27.6092 39.1631 27.5855 39.8194 27.5624 40.4759C27.4993 42.2475 27.4341 44.0794 27.3549 45.8799C27.335 46.3141 27.2781 46.7482 27.217 47.206C27.1988 47.3414 27.1808 47.4778 27.1634 47.6163C25.9074 47.1192 25.2193 46.2055 25.0635 44.8304Z" fill="#7CA851"/>
<path d="M92.1878 39.4849C92.0404 39.1692 91.8928 38.8533 91.7517 38.5363C91.4625 37.8879 90.9223 37.4293 90.0519 37.0932C89.9287 37.0344 89.7942 37.0027 89.6576 37.0002C89.521 36.9976 89.3855 37.0244 89.2602 37.0786C89.1516 37.1398 89.0577 37.2238 88.9849 37.3247C88.9121 37.4256 88.8622 37.541 88.8386 37.6629C88.7374 38.0689 88.6863 38.4856 88.6864 38.9039C88.6711 39.9127 88.6637 40.9217 88.6566 41.9305C88.6441 43.6227 88.6317 45.3729 88.579 47.0916C88.5042 49.5386 88.4071 52.0251 88.3134 54.4305C88.216 56.9268 88.115 59.5085 88.0389 62.0481C87.9106 66.325 87.8155 70.6739 87.7235 74.8799L87.6477 78.327C87.6245 79.376 87.6252 80.4681 87.6504 81.5729C87.6313 81.9786 87.7152 82.3828 87.8941 82.7479C88.0061 82.933 88.4114 83.5459 88.9291 83.6557C88.995 83.6697 89.0621 83.6768 89.1295 83.677C89.6695 83.677 90.0414 83.1909 90.1688 82.6889C90.2745 82.2494 90.3272 81.7988 90.3258 81.3469C90.339 79.4879 90.348 77.6289 90.3523 75.7699C90.3562 74.6277 90.3605 73.4855 90.3655 72.343C90.3667 72.1072 90.3823 71.8738 90.4001 71.6032C90.4051 71.5282 90.4101 71.451 90.415 71.3711C90.9399 71.3711 91.4594 71.3737 91.9734 71.3788C93.3237 71.3875 94.5986 71.3962 95.8981 71.3573C97.3997 71.3123 97.9495 70.7523 97.9993 69.2165C98.0023 68.9706 97.99 68.7245 97.962 68.4802L97.9446 68.2856C97.9152 67.9351 97.8833 67.5853 97.8512 67.2352C97.7917 66.5904 97.7309 65.9234 97.691 65.2678L97.6482 64.5542C97.45 61.2353 97.2433 57.8033 96.4787 54.4972C95.6406 50.8769 94.6569 47.0516 93.3838 42.4591C93.068 41.4367 92.668 40.4419 92.1878 39.4849ZM95.5179 68.7488H90.5176C90.4707 65.5692 90.567 62.2526 90.6601 59.0436C90.7012 57.6294 90.7436 56.1674 90.7739 54.7263C90.8429 51.4166 90.9098 48.1069 90.9747 44.797L91.0361 41.716C93.3884 49.6582 95.6489 58.9642 95.5175 68.7488H95.5179Z" fill="#7CA851"/>
</svg>
