<svg xmlns="http://www.w3.org/2000/svg" width="161" height="180" viewBox="0 0 161 180" fill="none">
  <path fill-rule="evenodd" clip-rule="evenodd" d="M78.8476 1.95329C74.7255 6.87318 74.8585 26.1538 78.8476 39.8497C82.9697 53.6786 97.9951 61.5237 114.616 58.7314C126.85 56.7368 161.422 39.1849 160.89 35.1958C159.561 26.2868 147.194 27.2176 126.052 37.8552C97.9953 51.817 96.9314 51.0192 90.6818 11.2612C88.2883 -3.89738 80.5762 -0.0412583 78.8476 1.95329ZM47.0679 28.0154C49.7273 63.2524 41.7493 74.4219 11.964 76.9483C-0.269217 78.0121 -3.06198 80.6715 4.25137 84.3946C17.6813 91.3091 46.9348 85.4583 55.5779 74.1558C61.9604 65.7787 67.1461 20.9679 62.7581 11.5271C61.8273 9.53251 44.0096 -11.0778 47.0679 28.0154ZM136.69 70.8316C102.649 89.3144 92.9423 106.999 99.9897 137.848C106.106 164.309 113.952 163.778 115.016 136.785C116.212 107.664 117.675 104.872 141.875 87.7189C156.768 77.2142 159.96 73.3581 156.236 70.4328C152.912 67.5074 142.407 67.6403 136.69 70.8316ZM73.5288 133.726C70.0716 116.972 55.7106 108.994 38.0256 113.914C26.1913 117.105 12.4958 125.615 12.4958 129.737C12.4958 134.657 23.7982 135.721 32.4412 131.732C35.2336 130.402 41.35 128.142 46.1369 126.413C47.8655 125.748 49.7269 126.014 51.3226 126.945C52.9182 127.876 53.9822 129.471 54.2482 131.333C55.3119 137.848 56.7745 147.688 57.4393 156.065C59.035 176.277 61.2953 180 71.9329 180C78.7144 179.601 79.3795 161.916 73.5288 133.726Z" fill="#E6FE55"/>
</svg>