<svg width="210" height="203" viewBox="0 0 210 203" fill="none" xmlns="http://www.w3.org/2000/svg">
<path d="M102.777 30.9128C101.412 41.509 98.8474 52.2317 98.0183 62.864" stroke="#3E9FA5" stroke-width="11.0613" stroke-miterlimit="1.5" stroke-linecap="round" strokeLinejoin="round"/>
<path d="M66.8221 68.3993C72.253 68.9615 79.2836 68.0062 84.5158 69.5517" stroke="#3E9FA5" stroke-width="11.0613" stroke-miterlimit="1.5" stroke-linecap="round" strokeLinejoin="round"/>
<path d="M105.756 71.1963C112.023 73.0908 118.626 73.2076 124.924 75.0762" stroke="#3E9FA5" stroke-width="11.0613" stroke-miterlimit="1.5" stroke-linecap="round" strokeLinejoin="round"/>
<path d="M94.5014 80.3384C92.8843 88.2379 91.5146 96.1818 90.1132 104.122" stroke="#3E9FA5" stroke-width="11.0613" stroke-miterlimit="1.5" stroke-linecap="round" strokeLinejoin="round"/>
<path d="M71.6321 126.672C68.0351 126.107 65.5992 131.44 69.5873 132.88C71.3829 133.528 74.8395 131.14 73.5611 129.17" stroke="#3E9FA5" stroke-width="11.0613" stroke-miterlimit="1.5" stroke-linecap="round" strokeLinejoin="round"/>
<path d="M113.737 109.558C112.067 115.699 111.473 121.979 110.496 128.25" stroke="#3E9FA5" stroke-width="11.0613" stroke-miterlimit="1.5" stroke-linecap="round" strokeLinejoin="round"/>
<path d="M94.9833 134.961C97.11 135.066 99.3288 135.062 101.428 135.45" stroke="#3E9FA5" stroke-width="11.0613" stroke-miterlimit="1.5" stroke-linecap="round" strokeLinejoin="round"/>
<path d="M117.499 137.613C120.275 138.197 123.055 138.336 125.864 138.679" stroke="#3E9FA5" stroke-width="11.0613" stroke-miterlimit="1.5" stroke-linecap="round" strokeLinejoin="round"/>
<path d="M108.49 145.075C106.985 151.802 105.856 158.61 104.656 165.397" stroke="#3E9FA5" stroke-width="11.0613" stroke-miterlimit="1.5" stroke-linecap="round" strokeLinejoin="round"/>
<path d="M141.054 84.8551C136.195 85.1515 134.228 91.3395 139.794 92.4292C141.727 92.8075 146.498 89.6917 143.822 87.8699" stroke="#3E9FA5" stroke-width="11.0613" stroke-miterlimit="1.5" stroke-linecap="round" strokeLinejoin="round"/>
<path d="M149.222 57.4189C142.453 53.6916 131.444 62.805 139.073 68.4898C147.284 74.6087 159.953 65.3131 151.518 57.5823" stroke="#3E9FA5" stroke-width="11.0613" stroke-miterlimit="1.5" stroke-linecap="round" strokeLinejoin="round"/>
</svg>
