<svg xmlns="http://www.w3.org/2000/svg" width="151" height="151" viewBox="0 0 151 151" fill="none">
  <path d="M96.015 67.639C127.683 68.6485 150.93 71.9889 150.93 75.9542C150.93 79.9194 127.683 83.2599 96.015 84.2694C117.694 107.389 131.772 126.199 128.97 129.003C126.167 131.806 107.368 117.72 84.2624 96.0288C83.2535 127.715 79.915 150.976 75.9521 150.976C71.9891 150.976 68.6506 127.715 67.6417 96.0287C44.536 117.72 25.7367 131.806 22.9345 129.003C20.1323 126.199 34.2102 107.389 55.8891 84.2694C24.2216 83.2599 0.973877 79.9194 0.973877 75.9542C0.973877 71.9889 24.2216 68.6485 55.8891 67.639C34.2102 44.5198 20.1322 25.7096 22.9345 22.9058C25.7367 20.1019 44.536 34.188 67.6417 55.8796C68.6506 24.1936 71.9891 0.932373 75.9521 0.932373C79.915 0.932373 83.2535 24.1936 84.2624 55.8796C107.368 34.188 126.167 20.1019 128.97 22.9057C131.772 25.7096 117.694 44.5198 96.015 67.639Z" fill="#36B887"/>
</svg>