<svg xmlns="http://www.w3.org/2000/svg" width="60" height="61" viewBox="0 0 60 61" fill="none">
  <path d="M47.5448 52.2653C47.4302 52.7753 47.3236 53.1985 47.2409 53.6273C46.7089 56.3909 45.1938 58.1342 42.6396 58.7203C41.6824 58.9584 40.7037 59.0804 39.7218 59.0843C36.4866 59.0297 33.2549 58.8823 29.8022 58.763C27.9845 60.648 25.5072 60.2672 23.1068 60.1078C22.5694 60.0813 22.0433 59.9314 21.5632 59.6683C21.0832 59.405 20.66 59.0343 20.3216 58.5808C19.9868 58.1269 19.7539 57.5951 19.6415 57.0269C19.5291 56.4587 19.5402 55.87 19.674 55.3072C19.8077 54.7445 20.0603 54.2233 20.412 53.7851C20.7636 53.3466 21.2045 53.003 21.6998 52.7813C23.9415 51.8058 26.2683 51.8801 28.5877 52.4844C28.8714 52.5432 29.1312 52.6965 29.3306 52.9235C29.888 53.7087 30.6412 53.7069 31.4373 53.7032C34.2266 53.6918 37.0159 53.7118 39.805 53.7097C40.2558 53.7209 40.7068 53.6915 41.153 53.6214C42.6825 53.3388 43.1119 52.754 43.2668 51.0522C44.1185 41.6949 43.6476 32.3115 43.6814 22.9415C43.6883 21.0441 43.4038 19.1393 43.1889 17.2467C42.868 14.4187 41.6091 12.0458 40.0238 9.8388C37.779 6.71551 34.9034 4.66762 31.2483 4.29073C26.5238 3.80363 22.0912 4.66913 18.4799 8.39753C17.2845 9.64451 16.5132 11.2935 16.2916 13.0762C15.9297 15.6602 15.7239 18.2711 15.4854 20.874C15.2386 23.5666 14.9627 26.2593 14.8285 28.9597C14.6989 31.5694 14.7468 34.1892 14.6907 36.8041C14.6629 38.0897 14.5347 39.3734 14.5292 40.6585C14.5247 41.7203 14.7051 42.785 14.6771 43.8447C14.6277 45.7048 14.5663 47.5739 14.3485 49.4165C14.1745 50.8895 13.5452 51.5432 12.2523 51.603C9.44213 51.733 6.67968 51.458 4.19761 49.7926C2.00121 48.3188 0.757429 46.188 0.37902 43.4244C-0.0688873 40.1522 -0.262286 36.8898 0.615555 33.6626C1.26261 31.2829 2.47548 29.2994 4.39652 27.9244C5.51126 27.0968 6.69616 26.3864 7.93521 25.803C8.97146 25.3391 10.1328 25.2037 11.3728 24.8887C11.4701 23.9925 11.5954 22.949 11.6951 21.9028C11.9515 19.2123 12.1648 16.5166 12.4526 13.83C13.0232 8.50927 15.7164 4.83268 20.085 2.53545C23.5044 0.746764 27.3036 -0.0144066 31.0865 0.331274C34.7251 0.596141 38.1751 2.18413 40.8789 4.83863C44.7682 8.61798 47.2665 13.2548 47.754 19.0047C47.8474 20.1083 47.9028 21.2156 48.0015 22.3185C48.043 22.7825 48.1513 23.2391 48.2443 23.7878C49.8536 23.4219 51.5239 23.5335 53.0797 24.1107C56.1509 25.1891 58.1922 27.4092 59.1343 30.748C59.8573 33.3119 60.2271 35.9076 59.8504 38.629C59.4243 41.706 58.6933 44.6331 57.063 47.2196C55.0528 50.4102 52.251 52.0831 48.6752 52.1972C48.3517 52.2079 48.0289 52.2359 47.5448 52.2653ZM48.316 27.2821C48.2285 34.0662 48.141 40.8763 48.0538 47.674C50.9775 47.9893 53.0838 46.3621 54.1649 44.198C56.1751 40.1771 56.5652 35.9583 55.545 31.5462C54.7151 27.9559 51.0094 26.4301 48.3164 27.2821H48.316ZM11.2002 28.136C10.6392 28.2233 10.1716 28.1854 9.80424 28.3751C8.88447 28.8503 7.99967 29.4091 7.12015 29.9693C4.72364 31.4943 3.75522 33.9033 3.71711 36.7848C3.69446 38.471 3.7881 40.1566 3.99726 41.8277C4.13291 42.9025 4.36417 44.0935 4.92136 44.9507C6.4695 47.3337 8.89213 47.5838 11.2002 47.7096V28.136Z" fill="#36B887"/>
</svg>