<svg xmlns="http://www.w3.org/2000/svg" width="60" height="46" viewBox="0 0 60 46" fill="none">
  <path d="M19.1576 6.64627C19.6556 6.98146 20.2227 7.20521 20.8185 7.30174C21.8584 7.4323 22.9052 7.50164 23.9535 7.50936C25.6492 7.54208 27.3447 7.57879 29.0401 7.61945C33.3586 7.71758 37.8135 7.81894 42.2154 7.81894C42.5392 7.81894 42.8627 7.8184 43.1859 7.81731C46.656 7.80511 50.1794 7.61105 53.5871 7.42319C54.6421 7.36518 55.6969 7.30877 56.7514 7.25401C57.2136 7.20841 57.6672 7.10223 58.1006 6.93823C58.3457 6.85907 58.5976 6.77555 58.8838 6.69938C58.9261 6.68791 58.9648 6.66712 58.9974 6.6386C59.0297 6.61006 59.0551 6.57457 59.0714 6.53486C59.0877 6.49515 59.0946 6.45229 59.0913 6.40959C59.088 6.36693 59.0747 6.32556 59.0526 6.28872C58.3227 5.08187 57.4125 4.96477 56.6812 4.87043C56.5757 4.85715 56.4729 4.8433 56.3737 4.82703C52.0063 4.09999 48.0583 3.4966 43.9782 3.47952C42.6099 3.47383 41.243 3.46054 39.8739 3.44726C37.7887 3.42693 35.6325 3.40793 33.5111 3.41362C29.6216 3.42799 25.719 3.48248 21.9108 3.57627C21.0407 3.59131 20.1804 3.7596 19.3709 4.07316C19.1356 4.17419 18.9333 4.33703 18.7863 4.54364C18.6393 4.75029 18.5533 4.99271 18.5377 5.24425C18.5018 5.51113 18.5405 5.78259 18.6496 6.02957C18.7588 6.27652 18.9344 6.4897 19.1576 6.64627Z" fill="#9B7E62"/>
  <path d="M59.8525 24.7808C59.7606 24.5233 59.6735 24.2801 59.4398 24.1844C58.8964 23.9545 58.3223 23.8033 57.7347 23.7355C56.5372 23.6179 55.3399 23.4888 54.1434 23.3595C51.0769 23.0283 47.9071 22.6858 44.7754 22.5565C38.9323 22.3153 32.9872 22.2088 27.2378 22.1063C25.3534 22.0727 23.4693 22.0375 21.5856 22.0006C20.8954 21.9701 20.2054 22.0671 19.5518 22.2866C19.3097 22.4043 19.095 22.5698 18.9211 22.7727C18.7473 22.9756 18.6181 23.2115 18.5415 23.4657C18.4416 23.8051 18.4774 24.1691 18.6417 24.4834C18.806 24.7977 19.0864 25.0387 19.4256 25.157C20.2309 25.4744 21.0758 25.6849 21.9379 25.783C25.1538 26.0318 28.427 26.2302 31.5921 26.4219L32.6579 26.4864C36.1531 26.6987 39.5367 26.8049 42.8455 26.8049C47.1957 26.8049 51.4159 26.6211 55.581 26.2527C55.7962 26.2337 56.0128 26.2175 56.2302 26.2012C57.4135 26.1129 58.6373 26.0215 59.839 25.4558C59.9064 25.424 59.9584 25.3675 59.9835 25.2985C60.0086 25.2294 60.005 25.1534 59.9735 25.0869C59.928 24.9869 59.8876 24.8847 59.8525 24.7808Z" fill="#9B7E62"/>
  <path d="M58.5051 40.0264C58.4021 39.9961 58.3057 39.9619 58.2137 39.9297C58.0123 39.8472 57.8001 39.7936 57.5832 39.7703C56.5459 39.703 55.5085 39.6285 54.4712 39.5534C51.884 39.3674 49.209 39.1739 46.5702 39.1077C38.9158 38.9142 31.1314 38.8207 23.604 38.7299L22.5354 38.7171C21.7475 38.713 20.9679 38.8746 20.2491 39.1915C19.9945 39.304 19.7764 39.4835 19.6192 39.7098C19.4619 39.9362 19.3715 40.201 19.3579 40.4748C19.3336 40.7662 19.3906 41.0587 19.523 41.3208C19.6553 41.583 19.8579 41.8047 20.109 41.9622C20.5378 42.2298 21.0188 42.4062 21.5213 42.4805L22.1033 42.5578C23.4095 42.7554 24.7256 42.8839 26.0458 42.9422C28.3862 43.0037 30.7654 43.0276 33.0663 43.0506C34.6584 43.0666 36.3046 43.0831 37.923 43.1119C38.4186 43.1208 38.9134 43.1251 39.4079 43.1251C44.8576 43.1251 50.2527 42.6131 54.8784 42.1002L55.4074 42.0425C56.1591 41.9611 56.9365 41.8776 57.6971 41.7486C58.4728 41.6171 58.8115 41.1159 58.704 40.2577C58.6971 40.2043 58.6747 40.1541 58.6394 40.1132C58.604 40.072 58.5576 40.0419 58.5051 40.0264Z" fill="#9B7E62"/>
  <path d="M4.59679 36.4375C2.37291 36.2478 1.05183 37.6257 0.0531534 38.9949C0.0307333 39.0255 0.014881 39.0602 0.00661563 39.0968C-0.00164978 39.1337 -0.00217411 39.1716 0.00506443 39.2088C0.0492659 39.4397 0.0923256 39.6536 0.133212 39.8561C0.21609 40.2608 0.285445 40.6105 0.339868 40.9643C0.442653 41.771 0.738676 42.5425 1.20372 43.2156C1.66876 43.8887 2.28962 44.4441 3.01545 44.8366C3.71502 45.1985 4.49438 45.3864 5.28522 45.3842C6.10298 45.3796 6.90913 45.1942 7.64387 44.8421C8.18702 44.6103 8.67236 44.2652 9.06619 43.8312C9.46 43.3972 9.75297 42.8843 9.92469 42.3281C10.0602 41.7791 10.0724 41.2082 9.96044 40.6544C9.84847 40.1006 9.61506 39.5772 9.27634 39.1209C8.76465 38.3454 8.07467 37.6989 7.26194 37.2329C6.44919 36.7669 5.53637 36.4942 4.59679 36.4375Z" fill="#9B7E62"/>
  <path d="M5.01057 11.0678C5.14372 11.0775 5.27555 11.0823 5.40595 11.0822C6.45653 11.1078 7.48375 10.7757 8.31322 10.1425C9.14266 9.50924 9.72319 8.61383 9.95619 7.60826C10.4535 5.47785 9.82358 3.5624 8.13509 2.06903C6.52201 0.642609 4.59894 0.366653 2.57287 1.2726C2.15287 1.47127 1.74585 1.69524 1.35405 1.94325C1.14768 2.06768 0.929672 2.19914 0.690984 2.33495C0.651692 2.3575 0.618499 2.38895 0.594133 2.42667C0.569765 2.4644 0.554974 2.50733 0.550968 2.55182C0.511739 3.02052 0.460076 3.47348 0.410073 3.90938C0.281864 4.81045 0.225405 5.71998 0.241254 6.62967C0.349824 9.00812 2.35544 10.874 5.01057 11.0678ZM4.24809 3.69821C4.6643 3.82163 5.04814 4.0325 5.37288 4.31619C5.69765 4.59987 5.95554 4.94957 6.12861 5.34095C6.47477 6.06148 6.4383 6.62668 6.01397 7.11924C5.67776 7.50986 5.19182 7.60962 4.48294 7.4326C4.16367 7.36838 3.87307 7.2072 3.65234 6.97193C3.43161 6.73663 3.29193 6.43918 3.25306 6.12166C3.09393 5.14008 3.41047 4.36669 4.24809 3.69821Z" fill="#9B7E62"/>
  <path d="M6.2905 19.6423H6.25704C2.88281 19.6751 0.885493 21.4524 0.776923 24.5175C0.754267 25.0527 0.84225 25.5869 1.03558 26.0879C1.22891 26.5889 1.52359 27.0463 1.90186 27.4326C2.36955 27.8901 2.9266 28.2504 3.53959 28.4917C4.15258 28.7329 4.80889 28.8503 5.4692 28.8368H5.49984C6.16013 28.8473 6.81589 28.7278 7.42824 28.4852C8.04063 28.2426 8.59718 27.882 9.06497 27.4245C9.47966 27.0135 9.80537 26.5244 10.0226 25.9868C10.2398 25.4491 10.3439 24.8739 10.3289 24.2957C10.2708 21.7215 8.46272 19.6423 6.2905 19.6423ZM5.83168 24.5397H4.53042C4.20443 23.7536 4.36776 23.2081 5.0899 22.6692C5.71977 23.0165 6.07203 23.4993 5.83168 24.5397Z" fill="#9B7E62"/>
</svg>