<svg xmlns="http://www.w3.org/2000/svg" width="41" height="61" viewBox="0 0 41 61" fill="none">
  <path d="M11.5076 11.0324C10.8111 10.8698 10.1155 10.7023 9.41742 10.5457C8.40986 10.3209 7.83353 9.66031 7.7874 8.66705C7.71058 7.00496 7.69587 5.33715 7.73552 3.67356C7.76046 2.58689 8.57676 1.96896 9.4646 1.64903C10.6178 1.23369 11.8373 0.823127 13.0444 0.768681C18.5413 0.520679 24.0427 0.358568 29.5449 0.251924C31.5348 0.213462 32.9479 0.732243 33.2185 3.56692C33.3803 5.26048 33.5352 6.95524 33.6531 8.65229C33.7182 9.5921 33.1167 10.3591 32.0805 10.7502C31.7582 10.8613 31.4283 10.9488 31.0934 11.0119C30.7716 11.0821 30.4449 11.1266 30.0728 11.1905C30.0915 12.006 30.6085 12.3853 31.1375 12.7362C31.7769 13.1608 32.4344 13.5589 33.089 13.96C37.3457 16.5641 39.4463 20.4835 40.0122 25.3366C40.7811 31.9275 40.8372 38.5534 40.9582 45.1748C40.9996 47.439 40.9719 49.7065 40.8926 51.9695C40.8474 53.2894 40.7098 54.6044 40.4803 55.9046C40.1312 57.8711 39.0441 58.944 36.9279 59.218C33.7574 59.6286 30.5731 60.0334 27.3829 60.1708C20.6741 60.4598 13.9926 59.9355 7.35218 58.9628C6.17389 58.7827 5.01951 58.4708 3.91058 58.0329C2.35061 57.4253 1.27344 56.3097 1.06994 54.5489C0.938008 53.4106 0.732049 52.2657 0.751253 51.1273C0.844526 45.5302 0.895638 39.9288 1.17272 34.3393C1.37223 30.2951 1.6176 26.2322 2.58999 22.2687C3.4065 18.9398 5.33986 16.3436 7.95053 14.2163C8.80944 13.517 9.73143 12.8926 10.632 12.2458C11.0096 11.9743 11.4066 11.7298 11.7949 11.473C11.6994 11.3255 11.6036 11.1786 11.5076 11.0324ZM14.0889 11.2457C14.1769 13.2052 12.8324 14.3883 11.4021 15.5209C10.9342 15.8913 10.4876 16.2897 10.0409 16.686C7.9804 18.5135 6.32495 20.6501 5.9743 23.4428C5.42887 27.7999 4.92337 32.1732 4.68221 36.5549C4.37745 42.0958 4.35795 47.6528 4.20831 53.2028C4.17314 54.5147 4.38294 54.8681 5.71844 55.1034C7.26893 55.3766 8.83588 55.5727 10.4026 55.7355C18.7466 56.6041 27.0898 56.6825 35.4288 55.6491C36.601 55.504 36.9574 55.0592 36.9324 53.8831C36.8793 51.3656 36.818 48.8474 36.8367 46.3299C36.8865 39.6246 37.0015 32.9183 36.4726 26.2249C36.2533 23.4528 35.7089 20.7762 33.7434 18.6773C32.7708 17.663 31.6849 16.7639 30.5075 15.9977C28.8052 14.8661 27.3876 13.6126 27.3347 11.246L14.0889 11.2457ZM10.1766 8.38883C16.9356 8.50312 23.6961 8.27732 30.4325 7.71226C30.3162 6.07864 30.2142 4.64631 30.1082 3.16205C29.2748 3.02878 28.4348 2.93834 27.5921 2.89107C23.3274 2.87009 19.0628 2.84509 14.8001 2.92126C13.5354 2.94399 12.2623 3.22771 11.0193 3.50892C9.99678 3.74069 9.84867 3.97696 9.88309 5.04639C9.91725 6.10334 10.0634 7.15681 10.1766 8.38883Z" fill="#8F4949"/>
  <path d="M8.73632 36.4734C8.73632 33.4404 8.72036 30.4077 8.7423 27.3752C8.75627 25.4594 9.45086 24.7128 11.3488 24.6374C14.9722 24.4935 18.5974 24.3986 22.2223 24.2902C24.1846 24.2315 26.1468 24.1674 28.1095 24.1484C28.746 24.1299 29.3817 24.2009 29.9985 24.3594C31.0459 24.6544 31.3452 25.1267 31.3851 26.2201C31.545 30.6177 31.6781 35.0166 31.8724 39.4127C31.9874 42.0151 32.2263 44.612 32.3478 47.2142C32.346 47.9372 32.2597 48.6577 32.0911 49.3608C32.0515 49.6188 31.9238 49.8553 31.73 50.0299C31.536 50.2044 31.2876 50.3063 31.027 50.3183C29.552 50.4587 28.0749 50.6907 26.5992 50.6869C22.16 50.6752 17.723 50.5786 13.2853 50.4871C12.6453 50.4654 12.0097 50.3733 11.3899 50.2124C10.2736 49.9364 9.60224 49.2883 9.28875 48.0808C8.90468 46.603 8.86473 45.1492 8.90339 43.6495C8.96374 41.2586 8.91965 38.8652 8.91965 36.4729L8.73632 36.4734ZM11.535 26.8005C11.8238 33.5633 12.1086 40.2239 12.3994 47.0496H28.9248V27.3839C23.093 26.7898 17.396 26.9529 11.535 26.8005Z" fill="#8F4949"/>
  <path d="M19.6209 40.7682H17.1948C16.9395 40.7682 16.6831 40.7816 16.4287 40.7649C15.2154 40.6855 14.437 40.0641 14.4443 39.1915C14.4512 38.3391 15.1112 37.7519 16.3125 37.6623C18.4344 37.5042 20.5597 37.3875 22.6851 37.2854C23.1528 37.2689 23.6206 37.3171 24.0752 37.4287C24.9231 37.6285 25.4264 38.198 25.4553 38.8943C25.486 39.6348 24.97 40.2816 24.0741 40.4982C23.5342 40.6173 22.9835 40.681 22.4307 40.6885C21.495 40.718 20.5577 40.6967 19.6209 40.6967V40.7682Z" fill="#8F4949"/>
  <path d="M19.9212 29.4273C21.1126 29.4273 22.3041 29.4096 23.495 29.4323C24.7951 29.4573 25.604 30.0937 25.5692 31.0172C25.5353 31.9163 24.6595 32.5757 23.406 32.5457C21.0253 32.4885 18.6458 32.3854 16.2661 32.294C16.0111 32.286 15.7578 32.2493 15.5109 32.1846C14.644 31.9511 14.216 31.3909 14.3026 30.6361C14.3839 29.9276 14.8483 29.4823 15.7102 29.4316C16.6432 29.3766 17.5806 29.4091 18.5171 29.4051C18.9849 29.4031 19.4531 29.4051 19.9212 29.4051V29.4273Z" fill="#8F4949"/>
  <path d="M20.3495 42.5225C21.0728 42.5225 21.7978 42.4941 22.5193 42.5335C22.9395 42.564 23.3541 42.6479 23.7531 42.7833C24.2616 42.9479 24.5681 43.3844 24.4082 43.8687C24.2811 44.2536 23.8905 44.5643 23.578 44.8677C23.4288 44.9529 23.2549 44.9838 23.0855 44.9559C21.2604 44.8742 19.435 44.7925 17.6112 44.6876C16.9645 44.6504 16.6086 44.2381 16.5488 43.6162C16.4912 43.0193 16.9384 42.5832 17.6746 42.4768C17.9277 42.4504 18.1826 42.4444 18.4367 42.4589C18.7769 42.4646 19.1166 42.4878 19.4568 42.4953C19.7545 42.5018 20.0523 42.4966 20.3501 42.4966L20.3495 42.5225Z" fill="#8F4949"/>
  <path d="M19.3911 33.8869C20.8027 33.8781 21.507 34.2832 21.5579 34.9793C21.6078 35.6681 20.962 36.256 19.85 36.3586C19.2182 36.3894 18.5852 36.3304 17.9698 36.1838C17.4613 36.0839 17.0859 35.6698 17.2266 35.1646C17.3575 34.7395 17.6463 34.3811 18.0334 34.1631C18.5117 33.9323 19.1043 33.9378 19.3911 33.8869Z" fill="#8F4949"/>
</svg>