<svg xmlns="http://www.w3.org/2000/svg" width="60" height="58" viewBox="0 0 60 58" fill="none">
  <path d="M42.7418 30.9524C44.3781 30.8676 45.9189 30.593 47.4161 30.7441C54.1812 31.4268 59.2335 36.5365 59.9208 43.2336C60.5394 49.261 57.5051 54.2203 51.7991 56.4123C47.5482 58.0455 43.2601 58.3039 38.9751 56.5136C35.9981 55.2698 33.6853 53.3162 32.3623 50.3332C32.2962 50.1853 32.203 50.0473 32.1041 49.8718C30.8506 49.9383 29.622 50.0066 28.3932 50.069C21.6255 50.4098 14.8587 50.7714 8.08932 51.0741C6.26141 51.1557 4.42601 51.0682 2.59287 51.0315C2.1678 51.0201 1.74633 50.9509 1.34039 50.8257C0.140225 50.4601 -0.258481 49.6398 0.162422 48.4808C1.96966 43.4217 4.75027 38.7564 8.3507 34.7428C12.7437 29.8624 18.1038 26.7845 24.7483 26.1106C29.2941 25.6497 33.6596 26.4047 37.8564 28.1565C38.7683 28.5072 39.6572 28.9134 40.5184 29.3729C41.2874 29.8597 42.0296 30.3869 42.7418 30.9524ZM39.3708 32.7083C35.8287 31.1353 32.4039 29.8382 28.6107 29.6652C23.3336 29.4244 18.5583 30.7374 14.3869 33.9521C9.90401 37.4069 6.61999 41.8444 3.96473 46.767C3.84978 47.0197 3.75214 47.2795 3.67244 47.5449C6.08074 47.7606 30.0701 46.1422 31.5852 45.6657C31.6229 45.4902 31.6792 45.2901 31.7071 45.0865C32.0789 42.5792 32.9165 40.1616 34.1772 37.9556C34.6003 37.2267 35.1274 36.5619 35.7422 35.9817C36.8579 34.8962 38.0528 33.8885 39.3713 32.7083H39.3708ZM45.2869 53.3371C47.3388 53.3243 49.3644 52.8757 51.2262 52.0216C52.6391 51.4002 53.8229 50.3608 54.6138 49.0463C56.446 45.9864 56.0931 41.0376 53.775 38.3174C51.9279 36.15 49.6198 34.6529 46.7076 34.4158C43.3294 34.1409 40.4586 35.3231 38.5073 38.0899C36.5528 40.8614 36.0816 44.0702 36.4407 47.3879C36.6079 48.7453 37.2927 49.9883 38.3551 50.8634C40.3315 52.6016 42.6805 53.3226 45.2874 53.3371H45.2869Z" fill="#8F4949"/>
  <path d="M25.552 23.1773C22.6551 23.0597 19.8174 22.4652 17.3231 20.7146C14.5056 18.7373 12.2813 15.0582 14.0277 10.4642C14.4678 9.28015 15.0641 8.15885 15.801 7.12925C16.8086 5.76849 17.9206 4.48653 19.1274 3.29486C21.8437 0.583495 26.479 -0.0886698 29.7525 1.89777C34.046 4.5024 36.5411 8.41411 37.0315 13.351C37.3228 16.2813 36.0035 18.7782 33.6496 20.6414C31.3145 22.4893 28.5668 23.1115 25.552 23.1773ZM25.1635 19.4412C26.9759 19.3961 28.7378 19.1813 30.3167 18.2198C32.4648 16.9119 33.3321 14.7598 32.6871 12.3563C32.184 10.4776 31.1493 8.8995 29.8188 7.50561C28.4933 6.1169 26.9425 5.17874 24.9247 5.11835C22.7032 5.0518 21.0218 6.23127 19.4743 7.51596C18.3404 8.4573 17.6533 9.82259 17.1908 11.2544C16.1651 14.4294 17.2873 17.0117 20.3375 18.4519C21.8676 19.1759 23.5049 19.3725 25.1635 19.441V19.4412Z" fill="#8F4949"/>
  <path d="M47.7199 45.4058C47.7199 46.6023 47.7391 47.5707 47.711 48.5379C47.7047 48.9577 47.6367 49.374 47.5094 49.7746C47.4291 50.0415 47.2621 50.2749 47.0344 50.4388C46.8066 50.6028 46.5305 50.688 46.2489 50.6814C45.967 50.6974 45.6882 50.618 45.4579 50.4566C45.2277 50.2949 45.0599 50.0607 44.9822 49.7923C44.8524 49.307 44.7866 48.8071 44.7866 48.3053C44.7574 47.3891 44.7783 46.4711 44.7783 45.4159C43.645 45.4159 42.5888 45.4443 41.5355 45.4056C40.8556 45.3903 40.1791 45.3082 39.5157 45.1613C39.2241 45.0965 38.9629 44.9368 38.7743 44.7075C38.5859 44.4783 38.4805 44.1931 38.4758 43.8976C38.471 43.602 38.5667 43.3136 38.7479 43.0785C38.9291 42.8433 39.1847 42.6755 39.4741 42.6015C40.0059 42.4578 40.5541 42.3809 41.1053 42.3728C42.2871 42.34 43.4705 42.3627 44.6996 42.3627C44.6996 41.1731 44.6944 40.1305 44.7023 39.0883C44.6836 38.7112 44.7071 38.3334 44.7721 37.9614C44.8967 37.4374 45.209 37.0383 45.826 37.0321C46.0864 37.0134 46.3448 37.0876 46.5547 37.2409C46.7647 37.3945 46.912 37.6173 46.9703 37.869C47.1308 38.5658 47.2447 39.2725 47.3112 39.9843C47.3997 40.727 47.4451 41.4746 47.5106 42.2493C48.2547 42.2493 48.8857 42.267 49.5149 42.2444C50.2391 42.2185 50.9618 42.1224 51.6852 42.1179C52.8408 42.111 53.5697 42.6624 53.6335 43.5266C53.6931 44.3358 53.096 44.9981 52.0239 45.1726C51.1811 45.2912 50.3326 45.3671 49.482 45.3999C48.9385 45.4322 48.3918 45.4058 47.7199 45.4058Z" fill="#8F4949"/>
</svg>