<svg xmlns="http://www.w3.org/2000/svg" width="60" height="48" viewBox="0 0 60 48" fill="none">
  <path d="M0.596172 43.9243C0.642119 44.7387 0.797214 45.5432 1.05753 46.3172C1.47265 47.6054 1.96863 47.8245 3.24895 47.8299L4.45724 47.8348C8.22148 47.85 12.1146 47.8646 15.9417 47.8601C16.3182 47.8525 16.6938 47.8243 17.067 47.7752C17.4585 47.7206 17.8535 47.6935 18.2489 47.6944C18.8683 47.7094 19.501 47.7577 20.1127 47.8048C20.8594 47.8621 21.6296 47.9212 22.394 47.9212C22.443 47.9212 22.4919 47.9212 22.5406 47.9212C32.1009 47.8222 39.8329 47.7143 46.8739 47.5806C49.3337 47.5336 51.1209 46.5358 52.3376 44.5297C55.0063 40.1288 57.0785 35.1603 59.0558 28.4188C59.3516 27.3254 59.5788 26.2152 59.7367 25.0942C59.8175 24.5934 59.9013 24.0758 59.9961 23.5712C59.9986 23.5576 60 23.5435 60 23.5294V21.9216C60 21.8957 59.9957 21.87 59.9868 21.8457C59.8783 21.5399 59.7826 21.2174 59.6895 20.905C59.5075 20.1824 59.2335 19.4855 58.874 18.8309C57.7165 16.9308 55.7659 15.834 53.2332 15.6591C50.846 15.4942 48.4129 15.4505 46.0611 15.4077C45.4649 15.397 44.8689 15.3857 44.2731 15.3737C43.0751 15.3484 41.8563 15.3549 40.6782 15.3609C40.2242 15.3633 39.7703 15.3652 39.3164 15.3665C40.0801 13.418 40.5554 11.25 40.855 8.35437C41.0311 6.65044 41.1459 4.41439 40.4632 2.23184C39.9805 0.688714 39.2206 0.1738 37.5612 0.258906C36.4437 0.290418 35.378 0.732092 34.573 1.4975C34.3869 1.67667 34.1996 1.85474 34.0115 2.03182C33.023 2.92428 32.1029 3.8876 31.2586 4.91386C30.1982 6.27221 29.2078 7.71515 28.2497 9.11091C27.8307 9.72144 27.4118 10.332 26.986 10.9374C24.9887 13.7755 22.6207 15.8422 19.7439 17.2532C19.5199 17.3733 19.274 17.4485 19.0204 17.4741C18.7668 17.4997 18.5106 17.4753 18.2666 17.4023C16.1624 16.8697 14.3799 16.7405 12.6573 16.995C11.3293 17.1914 9.96364 17.3128 8.64316 17.4297C8.13362 17.4745 7.62453 17.5204 7.1159 17.5699C6.57436 17.6223 6.03203 17.6692 5.4898 17.716C4.61576 17.7912 3.71193 17.8691 2.82404 17.9714C1.20238 18.1584 0.550055 18.7619 0.238657 20.363L0.209844 20.5072C0.14892 20.7707 0.11172 21.0389 0.0987987 21.3088C0.0879036 21.9006 0.0725568 22.492 0.0573501 23.0837C0.0169502 24.649 -0.0251264 26.2673 0.0184511 27.8604C0.174603 33.5406 0.398258 39.1684 0.596172 43.9243ZM16.4559 19.4114C16.4062 23.61 16.7071 27.8232 16.9988 31.8994C17.2893 35.9637 17.5888 40.1637 17.5353 44.3093H4.25279L4.25002 44.2831C4.23164 44.1163 4.21262 43.9438 4.20468 43.775C4.0685 40.6343 3.93227 37.4936 3.79609 34.3534C3.66731 31.3794 3.53876 28.4055 3.4103 25.4317C3.39804 25.1495 3.38671 24.8671 3.37627 24.5845C3.34019 23.6561 3.30319 22.696 3.21581 21.7536C3.15453 21.0929 3.35628 20.83 3.98747 20.7489C4.74767 20.6511 5.50717 20.5505 6.26601 20.4472C7.70996 20.253 9.20292 20.0526 10.6739 19.886C12.0423 19.7312 13.4404 19.6172 14.7926 19.5071C15.2697 19.4684 15.7468 19.4289 16.2239 19.3887C16.302 19.3869 16.38 19.3946 16.4563 19.4114H16.4559ZM38.1661 8.03569C38.0229 10.0467 37.5006 12.1811 36.5222 14.7525C36.2078 15.5791 35.9595 16.4953 36.2698 17.5955C36.2827 17.6416 36.3102 17.6827 36.3479 17.7128C36.3858 17.7429 36.4321 17.7607 36.4806 17.7637C36.6622 17.7744 36.8467 17.7874 37.0322 17.8004C37.4382 17.8288 37.8579 17.8584 38.2773 17.8675C39.4723 17.8899 40.6673 17.9057 41.8634 17.9207C44.5028 17.9541 47.2318 17.9878 49.9102 18.1092C51.3524 18.1878 52.7745 18.4777 54.1304 18.9694C55.7914 19.5618 56.5926 20.8136 56.5115 22.689C56.3862 25.5798 55.6597 28.589 54.2251 32.1588C53.2757 34.5211 52.203 37.0213 50.7466 40.2663C50.4107 40.9673 50.0271 41.6448 49.5981 42.2945C49.4667 42.504 49.3353 42.7134 49.2069 42.9239C48.5632 43.9808 47.5582 44.5788 46.22 44.7011C44.4056 44.867 42.2935 45.0453 40.199 45.0621C35.5478 45.0993 30.8181 45.0934 26.2436 45.0872C24.8021 45.0854 23.3607 45.084 21.9189 45.0831C21.6638 45.0831 21.4017 45.0607 21.17 45.0395L21.0741 45.031L19.0541 19.5505C19.3934 19.4015 19.7293 19.2593 20.0612 19.1182C20.8921 18.7656 21.6767 18.4328 22.4443 18.0321C25.5232 16.4227 28.1099 13.8738 30.5857 10.0102C31.9229 7.92346 33.5905 5.52009 35.8156 3.51515C36.2385 3.11851 36.7324 2.80287 37.2721 2.58419C37.6625 2.43817 37.8268 2.46002 37.8958 2.50415C37.9895 2.56372 38.0492 2.75053 38.0685 3.04437C38.2138 4.70411 38.2464 6.37165 38.1661 8.03569Z" fill="#3E9FA5"/>
  <path d="M10.7357 20.2896C10.7233 20.2895 10.7109 20.2904 10.6985 20.2921C7.94112 20.6952 6.26161 22.2219 6.20464 24.3778C6.14904 26.5055 7.9189 28.2287 10.2339 28.3013C10.2793 28.3028 10.3231 28.3035 10.3674 28.3035C11.4487 28.3049 12.4898 27.899 13.2785 27.1691C13.6405 26.8383 13.9318 26.4394 14.1355 25.996C14.3391 25.5525 14.451 25.0733 14.4644 24.5866C14.4524 23.407 13.9752 22.2785 13.1341 21.4403C12.4187 20.7093 11.5667 20.3005 10.7357 20.2896ZM10.8904 24.8455C10.5785 25.1989 10.137 25.235 9.5782 24.953C9.09771 24.7104 8.93545 24.3615 9.09547 23.9151C9.19152 23.6842 9.31201 23.4638 9.45498 23.258C9.50809 23.1738 9.56483 23.0838 9.62498 22.9857C9.73006 23.0508 9.83181 23.1113 9.92963 23.1695C10.2143 23.3216 10.4791 23.5073 10.7185 23.7225C10.9491 23.9537 11.278 24.4076 10.8904 24.8455Z" fill="#3E9FA5"/>
</svg>