<svg xmlns="http://www.w3.org/2000/svg" width="60" height="75" viewBox="0 0 60 75" fill="none">
  <g clip-path="url(#clip0_130_4740)">
    <path d="M19.0266 52.1908C19.4611 53.0954 20.0935 53.8903 20.8767 54.5164C21.66 55.1422 22.5741 55.5834 23.5509 55.8065C29.3945 57.2828 34.9351 56.4827 39.689 52.6505C43.6411 49.4645 44.9387 44.913 44.9515 40.0104C44.9236 36.8383 44.1875 33.713 42.7966 30.8634C39.8466 31.2368 39.4633 31.16 37.2854 29.7879C32.799 32.8968 28.326 35.9963 23.8662 39.0862C23.6956 39.2043 23.5201 39.3157 23.3419 39.4202C21.4583 40.5366 20.6108 40.3845 19.1732 38.6003C17.4053 39.8197 15.6363 41.0555 13.8484 42.2637C13.2175 42.7161 12.5476 43.1112 11.8466 43.4443C10.6997 43.9486 9.8093 43.6811 9.18415 42.612C8.37354 41.2256 7.66742 39.7785 6.90227 38.365C6.45591 37.54 6.612 36.8854 7.37442 36.3458C9.74027 34.6707 12.1005 32.9934 14.4548 31.3137C14.4585 31.2551 14.4521 31.1965 14.4357 31.14C12.7275 28.1753 13.1954 28.2406 15.3341 26.3781C20.9036 21.476 26.7415 16.8889 32.8208 12.6382C35.2505 10.9579 37.5827 9.1354 39.9611 7.38038C41.7069 6.09205 42.2466 6.12855 43.8257 7.6194C43.9733 7.75877 44.1393 7.8781 44.3136 8.02021C47.3551 5.80365 50.3893 3.62964 53.3796 1.39668C54.8645 0.286587 55.7766 0.302021 56.9508 1.7531C57.7342 2.72147 58.4657 3.73085 59.1424 4.77703C60.3199 6.59885 59.9763 7.87419 58.189 9.12669C55.7684 10.8219 53.3902 12.5784 51.0054 14.3243C50.5139 14.6844 50.073 15.1138 49.5321 15.5765C49.8457 16.0016 50.0711 16.3304 50.3199 16.6392C51.499 18.1025 51.326 19.178 49.7596 20.2738C48.7436 20.9846 47.753 21.7312 46.7796 22.442C46.8842 23.4194 46.9614 24.2881 47.0781 25.1517C47.1066 25.4043 47.2005 25.6451 47.3508 25.8501C50.1408 29.3012 51.5002 33.3602 52.1842 37.6524C52.8811 42.016 52.7042 46.3473 51.0824 50.5342C48.7793 56.4788 44.3514 60.2339 38.6387 62.6663C38.1278 62.8837 37.6066 63.0771 37.0796 63.286L39.056 68.1463C39.5827 68.1922 40.3448 68.2374 41.1021 68.3285C43.4463 68.6091 44.7121 70.7394 43.7915 72.8885C43.4018 73.7995 42.549 73.8845 41.6936 73.9094C39.1036 73.9853 36.5139 74.125 33.9239 74.1301C29.4666 74.1386 25.0094 74.0673 20.5521 74.0181C20.1885 74.0123 19.827 73.9613 19.4759 73.8663C18.3578 73.5672 17.986 72.884 18.2941 71.7523C18.8593 69.6673 20.3587 68.4172 22.5302 68.2301C23.0432 68.1861 23.5583 68.1655 24.068 68.1345L25.3711 64.9621C21.7217 64.4474 18.1001 63.8429 15.0274 61.6604C11.9211 59.4538 9.95118 56.3813 8.56391 52.7131C7.23239 52.7131 5.84233 52.7541 4.45627 52.6985C3.52545 52.6721 2.59932 52.5564 1.69052 52.353C1.27724 52.2701 0.905479 52.046 0.638943 51.7187C0.372404 51.3917 0.22756 50.9818 0.22923 50.5594C0.198223 50.1389 0.312513 49.7201 0.552828 49.374C0.793143 49.0275 1.14487 48.7746 1.54922 48.6571C2.23316 48.4254 2.94854 48.2997 3.67042 48.2851C9.58072 48.256 15.4913 48.2548 21.402 48.2809C21.9673 48.3049 22.5265 48.4081 23.0632 48.5876C23.7083 48.7798 24.2562 49.2686 24.1308 49.9306C23.9706 50.5047 23.6265 51.0106 23.1514 51.3695C22.7795 51.6671 22.1962 51.7339 21.6926 51.8249C20.8408 51.9771 19.9754 52.0648 19.0266 52.1908ZM47.1987 17.9361C44.3418 15.6728 43.2957 12.2969 41.089 9.78428C36.6748 12.1921 17.5374 26.8305 16.1768 28.8354L21.8551 36.3959L35.4778 26.9225C35.0369 24.2705 34.5821 21.5879 37.3836 19.8137C39.8987 18.2217 42.4442 17.6728 45.0293 19.7291L47.1987 17.9361ZM44.3239 29.9276C46.4233 33.8323 47.0496 35.506 47.1636 40.1392C47.3057 45.915 45.5602 51.0965 40.7724 54.6384C35.283 58.6993 29.0117 59.527 22.4562 57.9414C19.6838 57.2716 17.6511 55.3839 15.9856 53.1005C15.7308 52.7516 15.319 52.2503 14.9987 52.2652C13.9023 52.3147 12.7448 52.1845 11.7223 52.7346C12.4402 56.269 15.5618 59.9828 19.0375 61.3519C21.8542 62.4231 24.8525 62.9335 27.8642 62.8543C31.7096 62.7838 35.4887 61.8371 38.9151 60.0857C44.4048 57.3408 48.1899 53.1488 49.3848 46.9856C50.3242 42.1356 49.7384 37.3733 48.039 32.7532C47.4957 31.2754 46.8393 29.8383 46.1905 28.2794L44.3239 29.9276ZM48.2633 12.9746L56.0139 6.56794L54.4702 4.00791C51.5693 6.03894 48.7521 8.01143 45.8496 10.044C46.4769 10.8435 46.9775 11.495 47.4939 12.1335C47.7172 12.4096 47.9733 12.6601 48.2627 12.9746H48.2633ZM37.4451 22.991C37.7245 24.1394 37.8451 25.1821 38.233 26.1146C39.1481 28.3257 40.7996 28.6903 42.669 27.1995C43.9457 26.1814 44.1424 24.9786 43.3027 23.3235C42.6905 22.1168 41.6124 21.6383 40.1814 22.0278C39.3405 22.2559 38.5348 22.6015 37.4439 22.991H37.4451ZM27.7572 65.1027L27.1763 67.5436H35.1896C34.8993 66.2987 34.6572 65.2612 34.4184 64.2379L27.7572 65.1027ZM21.166 71.6151C27.7399 71.7517 34.3154 71.8243 40.9263 71.1657C40.5324 70.8147 40.0957 70.5171 39.6536 70.5114C38.5299 70.4965 37.4042 70.6735 36.2805 70.6632C32.663 70.6328 29.046 70.5515 25.4287 70.4871C23.9278 70.461 22.4423 70.5011 21.1672 71.6151H21.166ZM16.0377 33.6678L9.49815 38.0492L11.2045 40.0754C13.3323 38.549 15.5415 37.3967 17.1763 35.3939L16.0377 33.6678Z" fill="#7CA851"/>
  </g>
  <defs>
    <clipPath id="clip0_130_4740">
      <rect width="60" height="73.7838" fill="white" transform="translate(0 0.5)"/>
    </clipPath>
  </defs>
</svg>