<svg xmlns="http://www.w3.org/2000/svg" width="60" height="55" viewBox="0 0 60 55" fill="none">
  <path d="M14.5325 4.4171C14.5325 3.50888 14.5128 2.67636 14.5375 1.84483C14.568 0.819404 14.8468 0.371037 15.4174 0.33438C15.988 0.297724 16.3037 0.690179 16.4657 1.72767C16.5905 2.51651 16.6539 3.31375 16.7652 4.2924L42.6119 4.07783C42.6648 3.55499 42.7023 3.08491 42.7617 2.61754C42.8231 2.14149 42.8845 1.66377 42.9863 1.1947C43.1099 0.625798 43.4623 0.255373 44.0996 0.250067C44.7917 0.244038 45.1888 0.642662 45.2994 1.2557C45.4277 1.96569 45.4707 2.6901 45.549 3.40829C45.5705 3.60267 45.5887 3.7975 45.6202 4.10764C46.84 4.16865 48.0271 4.26104 49.2145 4.28154C54.4578 4.37174 57.4129 7.48683 58.4627 11.8693C58.9914 14.0757 59.1062 16.3923 59.2288 18.6679C59.5136 23.9588 59.721 29.255 59.8972 34.5492C59.9971 37.5156 59.9736 40.4872 59.9996 43.4566C60.0525 49.4597 55.3376 52.6717 51.1934 53.7601C49.7532 54.1506 48.27 54.3732 46.7754 54.4233C38.0508 54.6295 29.3243 54.8596 20.5982 54.8654C15.9443 54.8687 11.3211 54.1544 6.76847 53.2028C3.27397 52.4725 0.580939 49.3403 0.163595 45.7171C0.0353741 44.5194 -0.0175589 43.3156 0.00509198 42.1117C0.0510198 37.9774 0.181078 33.8438 0.199549 29.7096C0.221265 24.8935 0.17233 20.077 0.124655 15.261C0.111675 13.9401 0.0233223 12.6564 0.519541 11.3522C1.90386 7.71449 4.61711 5.70465 8.47953 5.07039C10.0318 4.81524 11.6154 4.73741 13.1844 4.57584C13.5917 4.53387 13.9939 4.48077 14.5325 4.4171ZM56.0271 18.287C47.154 18.5674 38.4797 18.8657 29.8035 19.1095C21.0922 19.3552 12.3776 19.5487 3.59968 19.7667C3.5907 19.8687 3.55974 20.0609 3.55949 20.2531C3.55118 26.6767 3.54587 33.1003 3.54355 39.524C3.54355 41.249 3.53431 42.976 3.61593 44.6981C3.66845 45.9114 4.14692 47.0712 4.97262 47.9869C5.79832 48.9024 6.92201 49.519 8.15876 49.7353C13.2008 50.5608 18.2394 51.327 23.3866 51.1929C28.081 51.0702 32.7799 51.1131 37.4755 51.0212C41.2129 50.9489 44.9495 50.808 48.6829 50.6443C50.3113 50.5625 51.8843 50.045 53.2257 49.1491C55.0366 47.9705 56.2534 46.4273 56.2931 44.2052C56.3238 42.4809 56.4392 40.7566 56.4114 39.033C56.3059 32.4907 56.1568 25.9491 56.0261 19.4074C56.0201 19.0124 56.0278 18.6174 56.0278 18.287H56.0271ZM3.26598 16.7733C20.8371 15.8665 38.1297 15.276 55.5298 14.8757C55.43 14.0208 55.4165 13.2116 55.2303 12.4416C54.654 10.0692 53.5759 8.03847 50.8989 7.33378C49.2003 6.88667 47.4585 7.01586 45.6571 7.05565C45.6169 7.43814 45.5912 7.75066 45.549 8.06104C45.5143 8.37971 45.4612 8.69631 45.3903 9.00934C45.1364 10.0044 44.6165 10.4563 43.8155 10.4025C43.0085 10.349 42.5475 9.82643 42.4746 8.80221C42.4329 8.21763 42.4671 7.62796 42.4671 7.06966H16.9614C16.9614 7.64001 16.9726 8.07271 16.9587 8.50439C16.9582 9.10497 16.9249 9.705 16.8588 10.3022C16.8358 10.5879 16.7016 10.8545 16.4833 11.0485C16.265 11.2425 15.9788 11.3493 15.6822 11.3476C14.9833 11.3881 14.5864 10.9618 14.4316 10.3815C14.341 9.9097 14.3017 9.42996 14.3146 8.95021C14.2921 8.40976 14.2921 7.86835 14.2799 7.17693C12.3906 7.33104 10.6623 7.30595 9.01317 7.64407C6.27023 8.2067 4.0148 9.52158 3.50785 12.4756C3.27447 13.8408 3.34186 15.2545 3.26598 16.7733Z" fill="#5F4086"/>
  <path d="M15.2893 45.7863C14.9229 45.8017 14.219 45.8586 13.5151 45.8562C11.9892 45.8528 11.0587 45.1858 10.7749 43.7581C10.4292 42.1027 10.5054 40.3912 10.997 38.7706C11.0887 38.4199 11.2764 38.0994 11.5406 37.8433C11.8047 37.5869 12.1354 37.4041 12.4979 37.3139C14.4914 36.7535 16.5726 36.5425 18.643 36.6903C19.7523 36.7646 20.6104 37.3615 20.8645 38.4848C21.2494 40.1826 21.3528 41.8982 20.8743 43.5975C20.4727 45.0227 19.5227 45.7272 17.9888 45.7819C17.2031 45.8094 16.415 45.7863 15.2893 45.7863ZM17.1214 40.0422H13.88L14.0173 42.1268H17.1214V40.0422Z" fill="#5F4086"/>
  <path d="M35.3354 40.3815C35.3354 40.7903 35.3411 41.0312 35.3354 41.2719C35.2665 43.7679 34.4353 44.7389 31.8786 45.1691C30.5721 45.3888 29.2482 45.5342 27.926 45.6418C26.4923 45.7588 25.5298 45.1421 25.2487 43.8429C24.893 42.1927 24.6846 40.5183 25.0585 38.8291C25.3216 37.6421 26.048 36.8518 27.2741 36.6753C28.9137 36.4284 30.5669 36.2731 32.2253 36.2106C34.0769 36.1539 34.8818 36.8784 35.1706 38.6321C35.2722 39.264 35.2915 39.9088 35.3354 40.3815ZM31.6192 39.6247H28.0441C28.1639 40.5248 28.2712 41.3286 28.3821 42.1611C29.1863 42.0853 29.8438 42.0289 30.5 41.9604C31.6881 41.8367 31.8164 41.6951 31.76 40.5267C31.746 40.2549 31.6764 39.9858 31.6182 39.6247H31.6192Z" fill="#5F4086"/>
  <path d="M44.0498 45.3758C43.2628 45.4103 42.4746 45.4057 41.688 45.3618C40.2623 45.2171 39.4316 44.4898 39.346 43.1431C39.2444 41.6633 39.2631 40.1785 39.4019 38.7016C39.5516 37.1914 40.2605 36.5752 41.8301 36.4561C43.3582 36.3399 44.8987 36.3068 46.4318 36.3375C48.05 36.37 49.5744 37.3745 49.4546 39.4304C49.3962 40.431 49.3777 41.4376 49.2444 42.4295C48.9893 44.3253 48.0271 45.1573 46.0387 45.3018C45.3765 45.35 44.713 45.3833 44.0501 45.4235L44.0498 45.3758ZM42.5135 39.2536C42.5634 40.28 42.6011 41.058 42.6383 41.8083H45.5437C45.6186 41.0327 45.68 40.3692 45.7531 39.5973L42.5135 39.2536Z" fill="#5F4086"/>
  <path d="M43.9212 32.3571C43.2175 32.3955 42.5134 32.4707 41.8102 32.4642C40.0755 32.4483 39.1721 31.6568 39.0858 29.9997C39.0186 28.7194 39.0186 27.4369 39.0858 26.1568C39.1711 24.5543 39.7682 23.8681 41.4091 23.7024C43.2218 23.5172 45.0444 23.4408 46.8665 23.4737C48.5581 23.5068 49.4594 24.4252 49.4505 26.0924C49.432 27.4514 49.2875 28.806 49.0184 30.1398C48.7486 31.5287 47.8832 32.1743 46.4057 32.2746C45.582 32.3308 44.7491 32.2848 43.9202 32.2848L43.9212 32.3571ZM42.1739 29.1077H45.7296C45.8257 28.2795 45.911 27.5444 46.0196 26.6075L42.1739 26.4438V29.1077Z" fill="#5F4086"/>
  <path d="M24.0616 28.098C24.1448 27.3022 24.1972 26.4601 24.329 25.6285C24.4787 24.688 24.9643 23.9616 26.0014 23.7581C27.836 23.398 29.6806 23.0924 31.5646 23.3087C33.2098 23.4973 34.1024 24.1738 34.3305 25.759C34.4828 26.9455 34.4626 28.147 34.2709 29.3282C34.0787 30.6064 33.1414 31.3742 31.811 31.5423C30.2055 31.7449 28.5911 31.906 26.9756 32.002C25.4141 32.0951 24.4688 31.3253 24.1989 29.8245C24.1006 29.2749 24.1071 28.7072 24.0616 28.098ZM30.8038 26.5124L27.0797 26.2744C27.1379 27.1693 27.1825 27.8593 27.234 28.6491L30.8033 28.3025L30.8038 26.5124Z" fill="#5F4086"/>
</svg>