<svg width="80" height="80" viewBox="0 0 80 80" fill="none" xmlns="http://www.w3.org/2000/svg">
<circle cx="40" cy="40" r="40" fill="white"/>
<path d="M24.9855 48.6397C15.5784 36.4824 16.9848 24.8876 28.2358 22.0437C31.6735 21.1686 36.0803 22.1687 38.518 24.3564L39.7681 25.4814L41.612 24.3876C52.2692 17.9495 65.3953 29.8256 59.8323 40.8578C54.7693 50.8899 38.2992 61.6721 34.924 57.1717C33.9239 55.8278 34.4239 55.6403 37.0804 56.2966C39.6118 56.9217 51.3003 46.5458 54.2068 41.0766C57.7071 34.5135 57.0196 30.9507 51.4253 26.4503C49.1126 24.6064 45.5186 25.4189 42.7058 28.4817C40.4869 30.8569 38.1742 31.0444 36.2678 28.0442C30.861 19.6059 21.9852 26.294 24.5167 36.8887C25.5793 41.2641 26.7357 43.4518 31.1423 49.2648C34.1426 53.2026 34.2363 53.3901 33.2362 53.9214C31.3298 54.9528 28.3608 53.0463 24.9855 48.6397Z" fill="#9B7E62"/>
<path d="M48.2063 30.5756C46.6749 30.2944 47.9562 28.5755 49.3938 29.0755C50.5814 29.513 52.2379 30.2319 52.8942 32.0758C53.613 34.0134 52.1753 35.8886 51.3627 35.6698C50.6439 35.4823 50.4252 34.6697 50.519 33.0133C50.6127 31.357 49.7377 30.8569 48.2063 30.5756Z" fill="#9B7E62"/>
<path d="M51.7067 40.4827C49.6753 40.9515 48.1439 39.4201 49.0502 38.3887C49.7378 37.6387 52.3318 37.5762 53.0818 38.3262C53.7069 38.9825 53.3006 40.1076 51.7067 40.4827Z" fill="#9B7E62"/>
</svg>
