<svg xmlns="http://www.w3.org/2000/svg" width="90" height="37" fill="none" viewBox="0 0 90 37"><g clip-path="url(#clip0_130_2404)"><path fill="#F5FFFF" d="M55.1089 4.53076C54.6248 4.53076 54.1454 4.6239 53.6982 4.80487C53.251 4.98584 52.8446 5.25109 52.5023 5.58548C52.16 5.91986 51.8885 6.31684 51.7032 6.75374C51.518 7.19064 51.4226 7.6589 51.4226 8.1318V36.2196H57.3269V4.53076H55.1089Z"/><path fill="#F5FFFF" d="M72.2767 13.8931C69.9437 13.8931 67.6631 14.5689 65.7233 15.835C63.7835 17.1012 62.2717 18.9008 61.3789 21.0064C60.4861 23.1119 60.2525 25.4288 60.7076 27.664C61.1628 29.8992 62.2862 31.9524 63.9358 33.5639C65.5855 35.1754 67.6873 36.2729 69.9754 36.7175C72.2636 37.1621 74.6353 36.9339 76.7907 36.0618C78.9461 35.1897 80.7883 33.7127 82.0845 31.8178C83.3806 29.9229 84.0724 27.695 84.0724 25.416C84.0724 23.9028 83.7673 22.4044 83.1745 21.0064C82.5817 19.6083 81.7129 18.3381 80.6175 17.268C79.5222 16.198 78.2219 15.3493 76.7907 14.7702C75.3596 14.1911 73.8257 13.8931 72.2767 13.8931V13.8931ZM72.2767 31.3648C71.0723 31.3648 69.8949 31.0159 68.8934 30.3623C67.892 29.7086 67.1114 28.7795 66.6505 27.6925C66.1896 26.6055 66.069 25.4094 66.304 24.2554C66.5389 23.1014 67.1189 22.0414 67.9706 21.2095C68.8223 20.3775 69.9073 19.8109 71.0886 19.5814C72.2699 19.3519 73.4944 19.4697 74.6071 19.9199C75.7198 20.3702 76.6709 21.1327 77.3401 22.111C78.0092 23.0893 78.3664 24.2394 78.3663 25.416C78.3663 26.9937 77.7248 28.5068 76.5827 29.6224C75.4407 30.7381 73.8918 31.3648 72.2767 31.3648V31.3648Z"/><path fill="#F5FFFF" d="M44.7813 15.4797C44.2972 15.4797 43.8178 15.5729 43.3706 15.7538C42.9233 15.9348 42.517 16.2001 42.1746 16.5344C41.8323 16.8688 41.5608 17.2658 41.3756 17.7027C41.1903 18.1396 41.095 18.6079 41.095 19.0808V36.2197H46.9992V15.4797H44.7813Z"/><path fill="#36B887" d="M46.9965 9.57298V7.41113H44.7835C43.8058 7.41114 42.8682 7.79055 42.1769 8.46589C41.4856 9.14122 41.0972 10.0572 41.0972 11.0123V13.1741H43.3102C43.7943 13.1741 44.2737 13.0809 44.7209 12.9C45.1682 12.719 45.5746 12.4537 45.9169 12.1193C46.2592 11.7849 46.5307 11.388 46.7159 10.951C46.9012 10.5141 46.9965 10.0459 46.9965 9.57298V9.57298Z"/><path fill="#F5FFFF" d="M87.0232 36.2202C88.6529 36.2202 89.9741 34.9295 89.9741 33.3375C89.9741 31.7454 88.6529 30.4548 87.0232 30.4548C85.3934 30.4548 84.0723 31.7454 84.0723 33.3375C84.0723 34.9295 85.3934 36.2202 87.0232 36.2202Z"/><path fill="#F5FFFF" d="M18.4316 0.929199C15.6676 0.930904 12.9394 1.53983 10.449 2.71092C7.95853 3.882 5.76957 5.58524 4.04416 7.69457C2.31874 9.8039 1.10103 12.2653 0.481184 14.8966C-0.138664 17.5278 -0.144786 20.2616 0.463271 22.8955C1.07133 25.5294 2.278 27.996 3.99395 30.1127C5.70991 32.2294 7.89121 33.9419 10.3764 35.1237C12.8616 36.3054 15.587 36.926 18.3509 36.9395C21.1149 36.953 23.8465 36.3591 26.3437 35.2017C25.8871 33.2219 24.6707 31.4885 22.9449 30.3586C20.025 31.464 16.788 31.4655 13.867 30.3627C10.9461 29.2599 8.55146 27.1321 7.15154 24.3958C5.75162 21.6594 5.44716 18.5112 6.29773 15.5671C7.14829 12.623 9.09268 10.0949 11.7505 8.47721C14.4084 6.85954 17.5884 6.26876 20.6686 6.82044C23.7487 7.37212 26.5074 9.02657 28.4048 11.4601C30.3023 13.8937 31.2021 16.9313 30.9281 19.9786C30.6542 23.026 29.2262 25.8638 26.9236 27.9371C28.4041 29.2683 29.535 30.928 30.2207 32.7761C31.8929 31.4151 33.3065 29.7771 34.3969 27.9371C36.0133 25.1995 36.8639 22.0946 36.8631 18.9342C36.8623 15.7739 36.0102 12.6694 34.3924 9.9326C32.7745 7.1958 30.448 4.92306 27.6464 3.34268C24.8447 1.76231 21.6667 0.929942 18.4316 0.929199V0.929199Z"/><path fill="#F5FFFF" d="M30.9403 36.2201H36.8472C36.7337 33.3053 35.8925 30.4618 34.397 27.9372C32.7783 25.2001 30.4509 22.9274 27.6485 21.3471C24.8461 19.7669 21.6674 18.9348 18.4316 18.9346V24.697C21.6293 24.6919 24.7075 25.8833 27.0338 28.0264C29.3602 30.1694 30.7581 33.1015 30.9403 36.22V36.2201Z"/></g><defs><clipPath id="clip0_130_2404"><rect width="89.974" height="36.011" fill="#fff" transform="translate(0 0.927734)"/></clipPath></defs></svg>