<svg xmlns="http://www.w3.org/2000/svg" width="75" height="31" viewBox="0 0 75 31" fill="none">
  <path d="M45.9196 3.01025C45.5162 3.01025 45.1167 3.08787 44.744 3.23868C44.3713 3.38948 44.0326 3.61053 43.7474 3.88918C43.4621 4.16784 43.2359 4.49865 43.0815 4.86273C42.9271 5.22682 42.8477 5.61704 42.8477 6.01112V29.4176H47.7679V3.01025H45.9196Z" fill="#043D3B"/>
  <path d="M60.2288 10.8125C58.2844 10.8125 56.3836 11.3757 54.7669 12.4308C53.1502 13.4859 51.8901 14.9856 51.1461 16.7402C50.402 18.4949 50.2073 20.4256 50.5866 22.2883C50.9659 24.151 51.9023 25.862 53.2771 27.2049C54.652 28.5478 56.4038 29.4624 58.3108 29.8329C60.2178 30.2034 62.1945 30.0132 63.9909 29.2864C65.7873 28.5596 67.3227 27.3289 68.403 25.7498C69.4832 24.1707 70.0598 22.3141 70.0598 20.4149C70.0598 19.1539 69.8055 17.9053 69.3115 16.7402C68.8174 15.5752 68.0933 14.5167 67.1804 13.625C66.2675 12.7333 65.1837 12.026 63.9909 11.5434C62.7982 11.0609 61.5198 10.8125 60.2288 10.8125V10.8125ZM60.2288 25.3723C59.2249 25.3723 58.2437 25.0815 57.409 24.5368C56.5744 23.9921 55.9238 23.2179 55.5397 22.312C55.1555 21.4062 55.055 20.4094 55.2508 19.4478C55.4467 18.4861 55.9301 17.6028 56.6399 16.9095C57.3497 16.2162 58.254 15.7441 59.2386 15.5528C60.2231 15.3615 61.2436 15.4597 62.171 15.8349C63.0984 16.2101 63.8911 16.8455 64.4488 17.6608C65.0065 18.476 65.3041 19.4345 65.3041 20.4149C65.3041 21.7297 64.7694 22.9906 63.8176 23.9203C62.8658 24.85 61.5748 25.3723 60.2288 25.3723V25.3723Z" fill="#043D3B"/>
  <path d="M37.3119 12.1343C36.9085 12.1343 36.509 12.2119 36.1363 12.3627C35.7636 12.5135 35.425 12.7345 35.1397 13.0132C34.8545 13.2919 34.6282 13.6227 34.4738 13.9868C34.3194 14.3508 34.24 14.7411 34.24 15.1351V29.4175H39.1602V12.1343H37.3119Z" fill="#043D3B"/>
  <path d="M39.1588 7.21267V5.41113H37.3146C36.4999 5.41114 35.7185 5.72731 35.1424 6.29009C34.5663 6.85287 34.2427 7.61617 34.2427 8.41206V10.2136H36.0869C36.4903 10.2136 36.8898 10.136 37.2625 9.98515C37.6352 9.83433 37.9738 9.61329 38.2591 9.33463C38.5443 9.05597 38.7706 8.72515 38.925 8.36106C39.0794 7.99697 39.1588 7.60675 39.1588 7.21267V7.21267Z" fill="#36B887"/>
  <path d="M72.5187 29.4172C73.8768 29.4172 74.9777 28.3417 74.9777 27.015C74.9777 25.6883 73.8768 24.6128 72.5187 24.6128C71.1605 24.6128 70.0596 25.6883 70.0596 27.015C70.0596 28.3417 71.1605 29.4172 72.5187 29.4172Z" fill="#043D3B"/>
  <path d="M15.3519 0.00878906C13.0483 0.0102096 10.7745 0.517651 8.69884 1.49355C6.6232 2.46945 4.79883 3.88882 3.3608 5.64659C1.92276 7.40437 0.907879 9.45553 0.391272 11.6483C-0.125336 13.841 -0.130438 16.1191 0.376342 18.314C0.883123 20.5089 1.88881 22.5644 3.31896 24.3283C4.7491 26.0922 6.56709 27.5194 8.63835 28.5041C10.7096 29.4889 12.9811 30.0061 15.2847 30.0173C17.5882 30.0286 19.8649 29.5337 21.9462 28.5692C21.5656 26.9194 20.5518 25.4749 19.1135 24.5333C16.6799 25.4545 13.982 25.4557 11.5476 24.5367C9.11318 23.6177 7.11737 21.8446 5.95062 19.5642C4.78387 17.2839 4.53012 14.6604 5.23902 12.207C5.94791 9.75365 7.56845 7.64684 9.7836 6.29879C11.9987 4.95073 14.6491 4.45842 17.2163 4.91815C19.7834 5.37788 22.0826 6.75659 23.664 8.78455C25.2454 10.8125 25.9953 13.3438 25.767 15.8833C25.5387 18.4227 24.3485 20.7876 22.4294 22.5153C23.6634 23.6247 24.6059 25.0078 25.1774 26.5478C26.5711 25.4137 27.7493 24.0487 28.658 22.5153C30.0052 20.234 30.7141 17.6466 30.7134 15.013C30.7128 12.3794 30.0026 9.79228 28.6542 7.51162C27.3059 5.23095 25.3668 3.337 23.0318 2.02002C20.6969 0.703045 18.0482 0.00940817 15.3519 0.00878906V0.00878906Z" fill="#043D3B"/>
  <path d="M25.7766 29.4178H30.6996C30.605 26.9888 29.9039 24.6192 28.6575 22.5154C27.3084 20.2345 25.3687 18.3405 23.0331 17.0236C20.6974 15.7068 18.0481 15.0134 15.3513 15.0132V19.8152C18.0163 19.811 20.5818 20.8038 22.5207 22.5897C24.4596 24.3756 25.6247 26.8189 25.7766 29.4177V29.4178Z" fill="#043D3B"/>
</svg>