<svg width="121" height="120" viewBox="0 0 121 120" fill="none" xmlns="http://www.w3.org/2000/svg">
<circle cx="60.75" cy="60" r="60" fill="#FFECDB"/>
<path fill-rule="evenodd" clip-rule="evenodd" d="M54.4245 45.1517C54.468 47.3691 57.055 50.9343 58.8159 50.2604C59.5767 49.956 59.5767 49.63 58.7506 47.2604C56.7723 41.63 54.381 43.3691 54.4245 45.1517ZM68.7724 50.1734C68.1637 51.8908 70.2724 52.1951 71.7289 50.6082C73.2072 48.9778 74.7941 46.543 75.6419 44.8908C76.5767 43.3039 74.7506 42.4995 73.2289 43.8039C71.4245 45.3256 69.1854 48.9778 68.7724 50.1734ZM38.8159 48.8473C37.468 49.3908 41.9898 54.9995 43.8159 55.043C45.9463 55.0865 46.1202 54.6082 44.6419 52.6299C42.3158 49.4995 40.3593 48.2169 38.8159 48.8473ZM59.2507 56.9125C58.4463 57.7169 57.4897 58.8256 57.1202 59.3473C53.9462 64.0865 53.9028 64.13 52.4462 63.0213C49.0767 60.4995 43.5332 58.7821 44.6202 63.1734C45.2941 65.8256 47.2941 70.6734 47.8158 72.2821C49.1637 76.5213 49.8811 77.2169 52.2724 76.6517C58.2072 75.2169 66.6855 75.1734 72.7507 76.543C74.2507 76.8908 74.3376 76.7169 74.4898 73.6952C74.7942 67.5865 78.3158 61.6299 78.3158 59.7169C78.3158 57.5647 74.2507 59.1734 68.7289 63.4995L68.1637 63.9343L67.3593 63.3908C65.7071 62.2821 64.881 63.1517 65.8158 64.9995C66.5767 66.4995 67.2071 66.9995 68.881 66.1952C69.8376 65.7386 71.1637 64.8691 73.0332 63.543C73.7724 63.0212 74.3811 62.6517 74.3811 62.7169C74.3811 63.0213 73.055 68.7169 73.055 68.7386L69.7506 68.456C67.1202 68.3473 66.8158 69.7386 69.5332 70.1517C69.8158 70.1952 72.5985 70.543 72.5985 70.543C72.5985 70.543 72.4898 71.7604 72.1854 72.456C71.8594 73.1517 71.3159 73.3256 70.4245 73.0213C63.4463 70.7169 52.0767 73.5212 52.055 73.5212C51.6419 73.5865 47.8593 63.6082 48.1637 63.3039C48.2072 63.2604 48.6636 63.543 49.1854 63.9343C55.0767 68.2169 55.6854 68.0865 59.5767 61.8473L61.4028 58.9126L62.1202 59.9778C64.2071 63.0865 67.1637 61.7169 65.5115 59.4343C64.9463 58.6734 64.0115 57.543 62.5115 55.7821C61.8376 54.9778 60.8376 55.3256 59.2507 56.9125ZM87.5333 56.5865C86.7507 57.043 82.6637 60.956 82.1854 61.6951C81.1637 63.3256 83.2941 63.6952 85.2289 62.2169C87.4898 60.4995 90.6855 57.543 90.6855 57.1517C90.7072 56.3691 88.5985 55.9778 87.5333 56.5865ZM33.6854 66.9995C36.8593 67.7821 38.6854 67.9778 39.4028 67.5865C40.5767 66.956 40.0332 66.4995 37.2506 65.8039C36.9897 65.7386 34.4245 65.0212 32.6636 65.0212C31.4028 65.0212 28.5985 65.7169 33.6854 66.9995Z" fill="#9B7E62"/>
</svg>
