<svg width="121" height="120" viewBox="0 0 121 120" fill="none" xmlns="http://www.w3.org/2000/svg">
<circle cx="60.75" cy="60" r="60" fill="#EEE0FF"/>
<path fill-rule="evenodd" clip-rule="evenodd" d="M63.6673 36.6184C58.4683 39.2601 46.7492 52.2999 42.9272 59.6067C40.6227 64.0189 40.9039 64.2718 48.3512 64.6934L53.6626 65.0025C44.0233 81.8643 45.0069 80.0657 44.9225 80.2343C42.8148 83.8596 45.6813 86.2765 48.7165 83.4381C48.7446 83.41 74.7961 63.1758 79.4612 56.4592C79.9951 55.7004 79.8547 54.8292 78.6744 53.958C76.7352 52.5247 74.1216 52.0751 64.5947 51.2882C63.1052 51.1758 62.4308 51.0072 62.5432 50.7824C63.2458 49.0681 65.9436 41.8737 67.2364 39.0634C68.7539 35.7753 68.6135 34.0891 63.6673 36.6184ZM61.7281 42.9135C61.4752 43.5037 58.3558 50.9791 58.2152 51.2882C57.4846 52.7495 57.9623 53.5084 59.789 53.7051C65.8593 54.3515 68.2761 54.5763 70.7211 54.6887C74.7679 54.8854 74.7961 54.7168 70.5245 59.0165C65.9718 63.6254 54.3371 74.3046 54.0842 74.0517C53.8593 73.8268 57.5971 66.6887 58.6088 65.3679C60.4355 62.9791 59.8734 62.6418 54.056 62.6418C51.4425 62.6418 49.8125 62.5856 48.5759 62.5013C47.4237 62.417 46.7211 61.1805 47.2832 60.1407C49.3909 56.2905 53.1568 51.4849 59.4238 44.5997C62.2903 41.5083 62.3464 41.4521 61.7281 42.9135Z" fill="#5F4086"/>
</svg>
