<svg width="121" height="120" viewBox="0 0 121 120" fill="none" xmlns="http://www.w3.org/2000/svg">
<circle cx="60.75" cy="60" r="60" fill="#D3F3FF"/>
<path d="M45.7355 68.6397C36.3284 56.4824 37.7348 44.8876 48.9858 42.0437C52.4235 41.1686 56.8303 42.1687 59.268 44.3564L60.5181 45.4814L62.362 44.3876C73.0192 37.9495 86.1453 49.8256 80.5823 60.8578C75.5193 70.8899 59.0492 81.6721 55.674 77.1717C54.6739 75.8278 55.1739 75.6403 57.8304 76.2966C60.3618 76.9217 72.0503 66.5458 74.9568 61.0766C78.4571 54.5135 77.7696 50.9507 72.1753 46.4503C69.8626 44.6064 66.2686 45.4189 63.4558 48.4817C61.2369 50.8569 58.9242 51.0444 57.0178 48.0442C51.611 39.6059 42.7352 46.294 45.2667 56.8887C46.3293 61.2641 47.4857 63.4518 51.8923 69.2648C54.8926 73.2026 54.9863 73.3901 53.9862 73.9214C52.0798 74.9528 49.1108 73.0463 45.7355 68.6397Z" fill="#3E9FA5"/>
<path d="M68.9558 50.5756C67.4244 50.2944 68.7057 48.5755 70.1434 49.0755C71.331 49.513 72.9874 50.2319 73.6437 52.0758C74.3625 54.0134 72.9248 55.8886 72.1122 55.6698C71.3934 55.4823 71.1747 54.6697 71.2685 53.0133C71.3622 51.357 70.4872 50.8569 68.9558 50.5756Z" fill="#3E9FA5"/>
<path d="M72.4565 60.4827C70.4251 60.9515 68.8937 59.4201 69.8 58.3887C70.4876 57.6387 73.0815 57.5762 73.8316 58.3262C74.4566 58.9825 74.0504 60.1076 72.4565 60.4827Z" fill="#3E9FA5"/>
</svg>
