<svg width="121" height="120" viewBox="0 0 121 120" fill="none" xmlns="http://www.w3.org/2000/svg">
<circle cx="60.75" cy="60" r="60" fill="#FFE4E4"/>
<path d="M75.3113 41.1053C67.5107 34.9661 56.2568 35.6855 48.743 40.2728C35.7932 48.1792 34.1134 67.916 43.3631 76.8014C53.5623 86.5982 67.483 84.2371 74.4203 77.9693C83.4116 69.8456 87.255 56.4701 79.5153 46.5073" stroke="#8F4949" stroke-width="4.5" stroke-miterlimit="1.5" stroke-linecap="round" strokeLinejoin="round"/>
<path d="M54.6549 53.9165C54.4527 55.1627 54.3691 56.446 54.3369 57.7086" stroke="#8F4949" stroke-width="4.5" stroke-miterlimit="1.5" stroke-linecap="round" strokeLinejoin="round"/>
<path d="M65.8116 53.5664C65.8204 55.0716 65.9139 56.6428 65.7637 58.1463" stroke="#8F4949" stroke-width="4.5" stroke-miterlimit="1.5" stroke-linecap="round" strokeLinejoin="round"/>
<path d="M48.7305 64.4814C49.104 65.8826 49.9384 67.1087 50.9592 68.1173C55.9656 73.064 65.3144 71.5184 68.8827 65.5478" stroke="#8F4949" stroke-width="4.5" stroke-miterlimit="1.5" stroke-linecap="round" strokeLinejoin="round"/>
</svg>
