<svg xmlns="http://www.w3.org/2000/svg" width="181" height="181" viewBox="0 0 181 181" fill="none">
  <path d="M76.8951 24.5C77.3898 35.1691 76.725 46.1711 77.7534 56.7826" stroke="#7CA851" stroke-width="11.0581" stroke-miterlimit="1.5" stroke-linecap="round" strokeLinejoin="round"/>
  <path d="M48 67.6505C53.4445 67.2607 60.2007 65.0989 65.6201 65.7117" stroke="#7CA851" stroke-width="11.0581" stroke-miterlimit="1.5" stroke-linecap="round" strokeLinejoin="round"/>
  <path d="M86.8169 63.6416C93.3156 64.4182 99.837 63.3862 106.362 64.1318" stroke="#7CA851" stroke-width="11.0581" stroke-miterlimit="1.5" stroke-linecap="round" strokeLinejoin="round"/>
  <path d="M77.3229 74.5972C77.1014 82.6551 77.1311 90.7138 77.1289 98.7739" stroke="#7CA851" stroke-width="11.0581" stroke-miterlimit="1.5" stroke-linecap="round" strokeLinejoin="round"/>
  <path d="M62.8462 124.185C59.2067 124.253 57.7338 129.927 61.9101 130.652C63.7904 130.978 66.7793 128.027 65.1788 126.309" stroke="#7CA851" stroke-width="11.0581" stroke-miterlimit="1.5" stroke-linecap="round" strokeLinejoin="round"/>
  <path d="M101.331 100.022C100.752 106.359 101.256 112.645 101.383 118.988" stroke="#7CA851" stroke-width="11.0581" stroke-miterlimit="1.5" stroke-linecap="round" strokeLinejoin="round"/>
  <path d="M87.2743 128.29C89.3864 128.024 91.5701 127.634 93.7044 127.651" stroke="#7CA851" stroke-width="11.0581" stroke-miterlimit="1.5" stroke-linecap="round" strokeLinejoin="round"/>
  <path d="M109.902 126.989C112.737 127.082 115.498 126.736 118.322 126.586" stroke="#7CA851" stroke-width="11.0581" stroke-miterlimit="1.5" stroke-linecap="round" strokeLinejoin="round"/>
  <path d="M102.327 135.901C102.013 142.785 102.082 149.683 102.078 156.574" stroke="#7CA851" stroke-width="11.0581" stroke-miterlimit="1.5" stroke-linecap="round" strokeLinejoin="round"/>
  <path d="M123.939 70.958C119.207 72.0938 118.344 78.5276 124.013 78.6336C125.981 78.6704 130.139 74.774 127.188 73.4453" stroke="#7CA851" stroke-width="11.0581" stroke-miterlimit="1.5" stroke-linecap="round" strokeLinejoin="round"/>
  <path d="M127.221 42.5279C119.91 40.0341 110.652 50.9187 119.15 55.1902C128.296 59.7879 139.155 48.4359 129.509 42.29" stroke="#7CA851" stroke-width="11.0581" stroke-miterlimit="1.5" stroke-linecap="round" strokeLinejoin="round"/>
</svg>