<svg width="162" height="181" viewBox="0 0 162 181" fill="none" xmlns="http://www.w3.org/2000/svg">
<path fill-rule="evenodd" clip-rule="evenodd" d="M79.0976 2.20329C74.9755 7.12318 75.1085 26.4038 79.0976 40.0997C83.2197 53.9286 98.2451 61.7737 114.866 58.9814C127.1 56.9868 161.672 39.4349 161.14 35.4458C159.811 26.5368 147.444 27.4676 126.302 38.1052C98.2453 52.067 97.1814 51.2692 90.9318 11.5112C88.5383 -3.64738 80.8262 0.208742 79.0976 2.20329ZM47.3179 28.2654C49.9773 63.5024 41.9993 74.6719 12.214 77.1983C-0.0192171 78.2621 -2.81198 80.9215 4.50137 84.6446C17.9313 91.5591 47.1848 85.7083 55.8279 74.4058C62.2104 66.0287 67.3961 21.2179 63.0081 11.7771C62.0773 9.78251 44.2596 -10.8278 47.3179 28.2654ZM136.94 71.0816C102.899 89.5644 93.1923 107.249 100.24 138.098C106.356 164.559 114.202 164.028 115.266 137.035C116.462 107.914 117.925 105.122 142.125 87.9689C157.018 77.4642 160.21 73.6081 156.486 70.6828C153.162 67.7574 142.657 67.8903 136.94 71.0816ZM73.7788 133.976C70.3216 117.222 55.9606 109.244 38.2756 114.164C26.4413 117.355 12.7458 125.865 12.7458 129.987C12.7458 134.907 24.0482 135.971 32.6912 131.982C35.4836 130.652 41.6 128.392 46.3869 126.663C48.1155 125.998 49.9769 126.264 51.5726 127.195C53.1682 128.126 54.2322 129.721 54.4982 131.583C55.5619 138.098 57.0245 147.938 57.6893 156.315C59.285 176.527 61.5453 180.25 72.1829 180.25C78.9644 179.851 79.6295 162.166 73.7788 133.976Z" fill="#5F4086"/>
</svg>
