<svg width="120" height="121" viewBox="0 0 120 121" fill="none" xmlns="http://www.w3.org/2000/svg">
<circle cx="60" cy="60.5" r="60" fill="white"/>
<g clip-path="url(#clip0_955_18377)">
<path d="M60.0826 86.9001C57.9648 89.0565 55.2187 89.5632 52.4842 90.0592C50.1009 90.5353 47.6431 90.4936 45.2772 89.9377C40.6716 88.7925 35.4821 84.6777 34.8816 77.8223C34.5468 74.0065 34.2929 70.1961 34.3362 66.3543C34.3825 62.2205 34.0859 58.0838 34.0256 53.9469C33.989 51.4393 33.8657 48.8923 34.227 46.4276C34.8378 42.2614 35.4952 38.0279 38.6404 34.7881C41.2297 32.1211 44.275 30.4153 48.097 30.5466C49.1051 30.5934 50.0982 30.8083 51.0355 31.1824C53.5193 32.1495 55.6384 33.8693 57.0959 36.1009C59.6046 39.8714 61.0359 44.0505 61.6214 48.5181C61.9127 50.7373 62.0795 52.973 62.3154 55.3285C62.7236 55.2195 63.1292 55.1191 63.5301 55.003C68.2814 53.6248 72.988 53.6422 77.653 55.4072C78.8783 55.8484 79.9992 56.5378 80.9456 57.4323C81.8919 58.3267 82.6436 59.4069 83.1532 60.6051C85.2648 65.322 85.9858 70.1943 84.8736 75.2832C84.1114 78.7679 82.3802 81.6422 79.5014 83.7976C75.6473 86.6832 71.3427 88.268 66.5046 88.2574C64.3253 88.2541 62.2328 87.7326 60.0826 86.9001ZM37.2468 59.5233C39.5775 59.5233 41.7326 59.556 43.8865 59.5164C47.848 59.4432 51.8088 59.3333 55.7693 59.2187C56.0602 59.202 56.3399 59.101 56.5743 58.928C57.249 58.4346 57.8931 57.9002 58.5028 57.3283C58.766 57.0713 58.9281 56.7281 58.9598 56.3616C58.9856 54.7766 58.9792 53.1885 58.9097 51.6049C58.7086 47.0284 57.8855 42.6022 55.6612 38.5212C54.7273 36.7632 53.3585 35.2738 51.6854 34.1951C49.4695 32.7687 47.1409 32.5527 44.7556 33.5817C41.9345 34.799 39.7688 36.8263 38.6322 39.6741C37.3665 42.7854 36.7226 46.1145 36.7367 49.4734C36.765 52.4219 36.9684 55.3687 37.1049 58.3156C37.1232 58.7042 37.1945 59.0907 37.2468 59.5233ZM57.0561 85.2855C56.3405 84.6865 55.7863 84.2529 55.2661 83.7814C53.3336 82.089 51.9408 79.8664 51.2605 77.3894C49.9398 72.4836 50.8627 67.8976 53.2003 63.5062C53.4221 63.0901 53.6451 62.6745 53.8815 62.2323C51.6609 61.8976 38.5462 62.0948 37.3493 62.4821C37.3493 63.1609 37.3248 63.8598 37.3539 64.5564C37.4366 66.5346 37.5038 68.5148 37.6465 70.4889C37.8365 73.1178 38.0299 75.7493 38.3338 78.3667C38.8305 82.6434 42.8276 86.2676 46.5967 86.9392C49.8133 87.5122 52.8939 86.9521 55.9251 85.9195C56.3193 85.7402 56.6976 85.5283 57.0561 85.2855ZM79.2841 61.3648C78.562 60.1226 77.4347 59.1667 76.091 58.6578C74.4604 58.0053 72.8056 57.396 71.1226 56.898C70.0838 56.5913 68.9407 56.2756 67.9003 56.4064C65.3077 56.6889 62.815 57.5644 60.6153 58.9656C57.0674 61.2911 55.1886 64.7665 54.0427 68.7067C53.1978 71.6122 53.1909 74.5277 54.2289 77.4028C54.414 77.9153 54.6749 78.4004 54.904 78.9056C62.7565 72.5078 71.3183 67.3875 79.2841 61.3648ZM56.5838 81.1553C59.0961 83.5911 61.854 84.9479 65.0677 85.2687C69.7359 85.7346 73.8231 84.1941 77.4872 81.4061C79.4461 79.9352 80.8099 77.8087 81.3295 75.4148C81.8901 72.916 81.9583 70.3318 81.5306 67.8067C81.3604 66.7509 81.0478 65.7196 80.7517 64.4742L56.5838 81.1553Z" fill="#7CA851"/>
</g>
<defs>
<clipPath id="clip0_955_18377">
<rect width="51.7597" height="60" fill="white" transform="translate(33.75 30.5)"/>
</clipPath>
</defs>
</svg>
