<svg xmlns="http://www.w3.org/2000/svg" width="65" height="73" viewBox="0 0 65 73" fill="none">
  <path fill-rule="evenodd" clip-rule="evenodd" d="M31.939 1.03132C30.2902 2.99927 30.3434 10.7115 31.939 16.1899C33.5879 21.7214 39.5981 24.8595 46.2466 23.7425C51.1398 22.9447 64.9689 15.9239 64.7561 14.3283C64.2242 10.7647 59.2777 11.137 50.8208 15.3921C39.5981 20.9768 39.1726 20.6577 36.6727 4.75447C35.7153 -1.30895 32.6305 0.233497 31.939 1.03132ZM19.2272 11.4561C20.2909 25.5509 17.0997 30.0188 5.18561 31.0293C0.292313 31.4548 -0.82479 32.5186 2.10055 34.0078C7.47253 36.7736 19.1739 34.4333 22.6311 29.9123C25.1842 26.5615 27.2584 8.63717 25.5032 4.86082C25.1309 4.063 18.0038 -4.18112 19.2272 11.4561ZM55.0758 28.5826C41.4597 35.9758 37.5769 43.0498 40.3959 55.3894C42.8425 65.9738 45.9808 65.7611 46.4063 54.9639C46.885 43.3158 47.4699 42.1988 57.1501 35.3375C63.1071 31.1357 64.3838 29.5932 62.8945 28.4231C61.5648 27.253 57.3629 27.3061 55.0758 28.5826ZM29.8115 53.7406C28.4286 47.0389 22.6842 43.8476 15.6102 45.8155C10.8765 47.0921 5.3983 50.4961 5.3983 52.1449C5.3983 54.1129 9.91928 54.5384 13.3765 52.9427C14.4934 52.4109 16.94 51.5067 18.8548 50.8152C19.5462 50.5493 20.2908 50.6557 20.929 51.028C21.5673 51.4003 21.9929 52.0385 22.0993 52.7832C22.5248 55.3894 23.1098 59.3253 23.3757 62.6762C24.014 70.7607 24.9181 72.25 29.1732 72.25C31.8857 72.0904 32.1518 65.0164 29.8115 53.7406Z" fill="#8F4949"/>
</svg>