<svg xmlns="http://www.w3.org/2000/svg" width="104" height="103" viewBox="0 0 104 103" fill="none">
  <path d="M66.7031 77.4609C67.2689 79.6918 67.8506 81.9121 68.3373 84.162" stroke="#7CA851" stroke-width="6" stroke-miterlimit="1.5" stroke-linecap="round" strokeLinejoin="round"/>
  <path d="M86.851 54.4409C89.5165 54.4596 92.1874 54.5892 94.8515 54.6781" stroke="#7CA851" stroke-width="6" stroke-miterlimit="1.5" stroke-linecap="round" strokeLinejoin="round"/>
  <path d="M72.5601 26.5605C73.7505 24.6776 74.9951 22.8504 76.2958 21.0426" stroke="#7CA851" stroke-width="6" stroke-miterlimit="1.5" stroke-linecap="round" strokeLinejoin="round"/>
  <path d="M36.1211 18.1279C36.9635 20.0487 37.6762 22.0248 38.5273 23.9398" stroke="#7CA851" stroke-width="6" stroke-miterlimit="1.5" stroke-linecap="round" strokeLinejoin="round"/>
  <path d="M17.9717 45.1322C19.7552 45.3222 21.5142 45.6746 23.2915 45.9042" stroke="#7CA851" stroke-width="6" stroke-miterlimit="1.5" stroke-linecap="round" strokeLinejoin="round"/>
  <path d="M34.3623 83.955C33.5493 85.2301 32.7164 86.5013 31.7758 87.6876" stroke="#7CA851" stroke-width="6" stroke-miterlimit="1.5" stroke-linecap="round" strokeLinejoin="round"/>
  <path fill-rule="evenodd" clip-rule="evenodd" d="M26.2629 74.7034C27.8075 72.3947 29.2438 70.0132 30.8328 67.7353C31.4621 66.8333 32.0564 65.6122 33.2752 65.5049C35.0545 65.3488 36.8614 66.3662 38.316 67.2937C41.0419 69.0326 43.7303 70.8722 46.4122 72.6826C47.6339 73.5067 49.602 74.5211 50.2959 75.8698C50.9571 77.1524 50.1649 78.9049 49.5684 80.0472C48.4255 82.2364 45.9706 87.1901 43.1813 87.6048C41.4244 87.8661 39.5856 86.932 38.0752 86.1663C34.0689 84.1347 24.3917 77.4997 26.2629 74.7034Z" stroke="#7CA851" stroke-width="6" stroke-miterlimit="1.5" stroke-linecap="round" strokeLinejoin="round"/>
  <path d="M72.729 55.0487C74.805 38.9712 52.7649 28.0037 40.9846 39.2813C33.8764 46.0863 37.4863 56.6181 33.416 64.7288L50.2943 76.0722C52.1332 74.4079 54.7399 72.7105 56.4207 71.72C59.9131 69.6627 63.3015 69.061 66.3569 66.2007C69.264 63.4789 72.2349 58.8727 72.729 55.0487Z" stroke="#7CA851" stroke-width="6" stroke-miterlimit="1.5" stroke-linecap="round" strokeLinejoin="round"/>
</svg>