<svg width="290" height="335" viewBox="0 0 290 335" fill="none" xmlns="http://www.w3.org/2000/svg">
<path fill-rule="evenodd" clip-rule="evenodd" d="M143.631 1.68656C130.296 5.25667 110.136 17.2265 91.7609 32.4515C-41.0642 142.806 -26.9945 303.247 118.221 332.857C233.196 356.272 347.016 148.581 257.871 78.0214C202.221 33.9218 115.176 83.4814 99.0059 168.321C85.2509 240.771 156.546 293.587 204.006 246.232C252.936 197.407 252.411 129.156 202.956 128.736C164.526 128.421 141.846 187.851 175.551 200.451C195.501 207.906 219.021 184.701 203.376 173.046C198.231 169.161 194.766 170.001 192.981 175.251C189.516 186.171 177.966 193.941 176.076 186.696C170.511 166.116 203.271 129.051 216.186 141.336C234.561 158.766 219.021 208.746 185.526 239.721C135.966 285.606 93.1259 210.007 128.616 139.132C169.461 57.547 255.351 48.0966 270.996 123.486C287.901 204.651 202.431 324.456 129.981 320.571C37.1607 315.636 -10.4044 220.822 37.4756 126.532C62.4659 77.1824 116.121 23.9466 155.916 9.03656C171.876 3.05156 161.586 -3.03844 143.631 1.68656Z" fill="#F5F5F5"/>
</svg>
