<svg xmlns="http://www.w3.org/2000/svg" width="121" height="121" viewBox="0 0 121 121" fill="none">
  <path fill-rule="evenodd" clip-rule="evenodd" d="M60.0877 13.1318C56.2777 14.1518 50.5177 17.5717 45.2677 21.9217C7.31767 53.4517 11.3376 99.292 52.8277 107.752C85.6777 114.442 118.198 55.1017 92.7277 34.9417C76.8277 22.3418 51.9577 36.5017 47.3377 60.7417C43.4077 81.4417 63.7777 96.532 77.3377 83.002C91.3177 69.052 91.1677 49.5517 77.0377 49.4317C66.0577 49.3417 59.5777 66.3217 69.2077 69.9217C74.9077 72.0517 81.6277 65.4217 77.1577 62.0917C75.6877 60.9817 74.6977 61.2217 74.1877 62.7217C73.1977 65.8417 69.8977 68.0617 69.3577 65.9917C67.7677 60.1117 77.1277 49.5217 80.8177 53.0317C86.0677 58.0117 81.6277 72.2917 72.0577 81.1417C57.8977 94.2517 45.6577 72.652 55.7977 52.402C67.4677 29.0919 92.0077 26.3918 96.4777 47.9317C101.308 71.1217 76.8877 105.352 56.1877 104.242C29.6676 102.832 16.0776 75.742 29.7576 48.802C36.8977 34.702 52.2277 19.4918 63.5977 15.2318C68.1577 13.5218 65.2177 11.7818 60.0877 13.1318Z" fill="#3E9FA5"/>
</svg>