<svg width="60" height="121" viewBox="0 0 60 121" fill="none" xmlns="http://www.w3.org/2000/svg">
<path fill-rule="evenodd" clip-rule="evenodd" d="M-0.412304 13.1318C-4.2223 14.1518 -9.9823 17.5717 -15.2323 21.9217C-53.1823 53.4517 -49.1624 99.292 -7.6723 107.752C25.1777 114.442 57.6977 55.1017 32.2277 34.9417C16.3277 22.3418 -8.5423 36.5017 -13.1623 60.7417C-17.0923 81.4417 3.2777 96.532 16.8377 83.002C30.8177 69.052 30.6677 49.5517 16.5377 49.4317C5.5577 49.3417 -0.922306 66.3217 8.7077 69.9217C14.4077 72.0517 21.1277 65.4217 16.6577 62.0917C15.1877 60.9817 14.1977 61.2217 13.6877 62.7217C12.6977 65.8417 9.39769 68.0617 8.8577 65.9917C7.2677 60.1117 16.6277 49.5217 20.3177 53.0317C25.5677 58.0117 21.1277 72.2917 11.5577 81.1417C-2.60231 94.2517 -14.8423 72.652 -4.7023 52.402C6.9677 29.0919 31.5077 26.3918 35.9777 47.9317C40.8077 71.1217 16.3877 105.352 -4.3123 104.242C-30.8324 102.832 -44.4224 75.742 -30.7424 48.802C-23.6023 34.702 -8.2723 19.4918 3.09769 15.2318C7.6577 13.5218 4.7177 11.7818 -0.412304 13.1318Z" fill="#3E9FA5"/>
</svg>
