<svg xmlns="http://www.w3.org/2000/svg" width="51" height="54" viewBox="0 0 51 54" fill="none">
  <g clip-path="url(#clip0_290_3235)">
    <path d="M44.2414 18.9568C43.8868 19.5766 43.6528 20.154 43.2758 20.614C42.049 22.112 40.7666 23.5639 39.5121 25.0393C31.7581 34.1566 23.1978 42.4972 14.6908 50.8884C14.0172 51.5533 13.3083 52.1876 12.5738 52.7842C12.1585 53.1191 11.6987 53.3946 11.2076 53.6026C10.8301 53.7796 10.4051 53.8273 9.99787 53.7386C9.59069 53.6499 9.22391 53.4293 8.95404 53.1111C6.44135 50.4974 3.93162 47.8813 1.42473 45.2628C0.564986 44.3595 0.474031 43.7845 1.23033 42.7455C2.39125 41.1506 3.54714 39.5253 4.90796 38.1083C8.87398 33.9782 12.8671 29.8687 16.9876 25.8946C21.465 21.5763 26.0916 17.4133 30.6672 13.1979C31.6361 12.3059 32.6493 11.459 33.6741 10.6297C34.569 9.90484 34.8685 9.97283 35.8475 10.622C38.6942 12.5099 40.9627 15.0185 43.2638 17.4907C43.6379 17.8942 43.8864 18.4176 44.2414 18.9568ZM10.4676 50.2506L33.975 25.7873L28.3785 19.6726C20.0958 27.6238 11.5458 35.266 3.93703 43.9485L10.4676 50.2506ZM36.363 23.1158L40.3134 18.8903C38.6384 16.8365 36.733 14.9828 34.6349 13.3657L30.5125 17.5015C32.5541 19.4607 34.4706 21.3 36.363 23.1158Z" fill="#3E9FA5"/>
    <path d="M21.727 41.7103L12.2305 32.2137L18.5615 26.0689L27.6856 35.193L21.727 41.7103Z" fill="#3E9FA5"/>
    <path d="M28.6617 26.2756L27.4781 25.106C27.2517 24.8824 27.2544 24.5161 27.4841 24.2958C27.7052 24.0838 28.0549 24.0864 28.2728 24.3017L29.4564 25.4713C29.6734 25.6856 29.6812 26.0335 29.474 26.2574C29.257 26.4919 28.889 26.5002 28.6617 26.2756Z" stroke="#3E9FA5" stroke-width="2.25"/>
  </g>
  <defs>
    <clipPath id="clip0_290_3235">
      <rect width="50.2759" height="54" fill="white" transform="translate(0.5)"/>
    </clipPath>
  </defs>
</svg>