<svg xmlns="http://www.w3.org/2000/svg" width="63" height="54" viewBox="0 0 63 54" fill="none">
  <g clip-path="url(#clip0_290_3277)">
    <path d="M49.4321 9.52507L55.7002 3.93601C55.4482 3.51724 55.1666 3.09904 54.9388 2.6557C54.7306 2.24908 54.4449 1.81334 54.442 1.38863C54.4387 0.943395 54.6118 0.291075 54.928 0.106126C55.256 -0.085574 55.864 0.121783 56.3185 0.258133C56.5533 0.328602 56.7253 0.619117 56.9176 0.818107C58.3929 2.34604 59.8857 3.85801 61.3297 5.4151C61.82 5.96115 62.2487 6.55941 62.6084 7.19904C63.005 7.88106 62.8211 8.56087 62.2809 9.09331C61.7541 9.61225 61.0885 9.55936 60.4681 9.29206C60.0102 9.05214 59.5695 8.78092 59.1489 8.48041L52.9259 13.5624C53.7046 14.4372 54.3078 15.1921 54.9909 15.8665C56.451 17.3089 56.1319 19.2351 54.7125 20.4153C47.6115 26.3202 40.6023 32.3366 33.5288 38.2756C32.3587 39.25 31.1067 40.1221 29.7872 40.8827C28.2509 41.7737 27.436 41.5374 26.3295 40.1472C25.8435 39.5373 25.387 38.9052 24.8554 38.2032C23.7484 38.8539 22.717 39.5494 21.607 40.0811C20.8858 40.4264 20.0486 40.5276 19.2664 40.7493C18.9682 40.8057 18.6806 40.9083 18.414 41.0536C13.4479 44.4451 8.8349 48.281 4.34156 52.2667C3.89541 52.6685 3.42246 53.0394 2.92598 53.3772C2.17268 53.8802 1.54008 53.8708 1.17315 53.4172C0.806224 52.9636 0.905546 52.2853 1.54599 51.7162C4.89398 48.7416 8.23523 45.7575 11.6321 42.8394C13.4141 41.3079 15.3068 39.9045 17.273 38.3452C17.02 37.1267 17.7927 36.3275 18.877 35.6266C19.8339 35.008 20.6952 34.2415 21.6516 33.4995C21.1791 32.7827 20.7727 32.1765 20.3758 31.5626C19.4011 30.0578 19.4578 29.2881 20.8016 28.0588C22.4367 26.5629 24.1137 25.1111 25.8066 23.6806C31.6977 18.7038 37.5961 13.7358 43.5021 8.77666C43.9611 8.39001 44.3877 7.96528 44.8424 7.57351C45.961 6.60961 46.66 6.60745 47.726 7.63804C48.3184 8.20801 48.8362 8.85844 49.4321 9.52507ZM28.7523 38.9392C34.1026 34.96 38.9061 30.4043 43.9641 26.2208C41.7144 22.9708 39.5501 19.8445 37.3177 16.619L21.8139 29.6572L28.7523 38.9392ZM39.6114 14.728L46.9068 23.7371L53.113 18.0789C50.872 15.1068 48.7444 12.2836 46.5115 9.32173L39.6114 14.728ZM22.657 35.0369C20.4395 36.7163 19.957 37.2358 19.7569 38.325L23.321 36.0186L22.657 35.0369ZM54.5875 8.91436L54.3847 8.69833C53.3989 9.52696 52.4035 10.3454 51.4396 11.198C51.3251 11.2993 51.3818 11.5938 51.3545 11.8419C52.4971 10.8062 53.5423 9.86044 54.5872 8.91436H54.5875Z" fill="#3E9FA5"/>
  </g>
  <defs>
    <clipPath id="clip0_290_3277">
      <rect width="62.1" height="54" fill="white" transform="translate(0.75)"/>
    </clipPath>
  </defs>
</svg>