<svg xmlns="http://www.w3.org/2000/svg" width="47" height="54" viewBox="0 0 47 54" fill="none">
  <g clip-path="url(#clip0_290_3291)">
    <path d="M23.9484 50.76C22.0425 52.7007 19.571 53.1568 17.1099 53.6032C14.9649 54.0317 12.7529 53.9942 10.6236 53.4938C6.47861 52.4632 1.80799 48.7599 1.26753 42.59C0.966244 39.1558 0.737745 35.7264 0.776681 32.2688C0.818398 28.5484 0.551399 24.8254 0.497167 21.1021C0.464257 18.8453 0.35324 16.553 0.678399 14.3348C1.22813 10.5851 1.8198 6.77502 4.65051 3.85925C6.98085 1.45892 9.72167 -0.0763013 13.1614 0.0418961C14.0687 0.0839929 14.9625 0.277394 15.806 0.61411C18.0415 1.48444 19.9487 3.03229 21.2605 5.04074C23.5183 8.43416 24.8064 12.1954 25.3334 16.2162C25.5955 18.2135 25.7457 20.2256 25.958 22.3455C26.3253 22.2475 26.6904 22.1571 27.0512 22.0526C31.3274 20.8122 35.5633 20.8279 39.7618 22.4164C40.8646 22.8135 41.8734 23.4339 42.7251 24.239C43.5768 25.0439 44.2533 26.0162 44.712 27.0945C46.6124 31.3397 47.2614 35.7248 46.2604 40.3048C45.5744 43.441 44.0163 46.0279 41.4254 47.9677C37.9567 50.5648 34.0826 51.9911 29.7283 51.9816C27.7669 51.9786 25.8836 51.5093 23.9484 50.76ZM3.39625 26.1209C5.49391 26.1209 7.4335 26.1504 9.37194 26.1147C12.9373 26.0488 16.502 25.9499 20.0665 25.8468C20.3283 25.8317 20.58 25.7408 20.791 25.5851C21.3983 25.141 21.9779 24.6601 22.5266 24.1454C22.7635 23.9141 22.9094 23.6052 22.938 23.2754C22.9611 21.8489 22.9554 20.4196 22.8928 18.9943C22.7118 14.8755 21.9711 10.892 19.9692 7.21902C19.1287 5.6368 17.8968 4.29635 16.391 3.32551C14.3967 2.0418 12.3009 1.84733 10.1541 2.77346C7.6152 3.86898 5.66608 5.6936 4.64309 8.25663C3.50397 11.0568 2.92443 14.053 2.93716 17.076C2.96265 19.7296 3.14572 22.3817 3.26855 25.034C3.285 25.3837 3.3492 25.7316 3.39625 26.1209ZM21.2246 49.3069C20.5806 48.7678 20.0818 48.3775 19.6136 47.9531C17.8743 46.43 16.6208 44.4297 16.0086 42.2004C14.8199 37.7852 15.6505 33.6577 17.7544 29.7055C17.954 29.331 18.1547 28.957 18.3674 28.559C16.369 28.2577 4.56571 28.4353 3.48849 28.7838C3.48849 29.3948 3.46647 30.0238 3.49266 30.6507C3.56706 32.431 3.62754 34.2133 3.75594 35.9899C3.92698 38.356 4.10103 40.7243 4.37451 43.0799C4.82157 46.929 8.41892 50.1908 11.8112 50.7952C14.7061 51.3109 17.4787 50.8068 20.2067 49.8774C20.5615 49.7161 20.902 49.5254 21.2246 49.3069ZM41.2298 27.7782C40.58 26.6602 39.5653 25.7999 38.356 25.342C36.8885 24.7547 35.3992 24.2064 33.8844 23.7581C32.9495 23.4821 31.9207 23.198 30.9844 23.3157C28.6511 23.5699 26.4076 24.3579 24.4279 25.6189C21.2347 27.712 19.5438 30.8398 18.5125 34.3859C17.7521 37.0009 17.7459 39.6249 18.6801 42.2125C18.8468 42.6737 19.0815 43.1103 19.2878 43.565C26.355 37.8069 34.0606 33.1986 41.2298 27.7782ZM20.7996 45.5897C23.0606 47.7819 25.5427 49.003 28.4351 49.2918C32.6364 49.711 36.3149 48.3247 39.6126 45.8154C41.3756 44.4916 42.603 42.5777 43.0707 40.4233C43.5752 38.1743 43.6366 35.8486 43.2517 33.5759C43.0985 32.6257 42.8171 31.6975 42.5506 30.5767L20.7996 45.5897Z" fill="#9B7E62"/>
  </g>
  <defs>
    <clipPath id="clip0_290_3291">
      <rect width="46.5837" height="54" fill="white" transform="translate(0.25)"/>
    </clipPath>
  </defs>
</svg>