<svg xmlns="http://www.w3.org/2000/svg" width="37" height="54" fill="none" viewBox="0 0 37 54"><g clip-path="url(#clip0_290_3251)"><path fill="#36B887" d="M9.75883 9.82645C9.13302 9.68058 8.50807 9.53025 7.88091 9.38976C6.97568 9.1881 6.45789 8.59545 6.41644 7.70433C6.34742 6.21317 6.3342 4.71688 6.36983 3.22437C6.39224 2.24946 7.12563 1.69507 7.9233 1.40804C8.95939 1.03542 10.0551 0.66708 11.1396 0.618233C16.0782 0.395735 21.0209 0.250296 25.9642 0.154619C27.7521 0.120113 29.0216 0.585542 29.2647 3.1287C29.4102 4.64809 29.5493 6.16856 29.6553 7.69109C29.7138 8.53426 29.1733 9.22241 28.2423 9.5733C27.9528 9.67294 27.6564 9.75138 27.3555 9.80807C27.0664 9.87103 26.7729 9.91094 26.4386 9.9683C26.4554 10.6999 26.9199 11.0402 27.3951 11.355C27.9696 11.736 28.5603 12.0931 29.1484 12.453C32.9728 14.7893 34.8601 18.3056 35.3685 22.6596C36.0593 28.5727 36.1097 34.5172 36.2184 40.4576C36.2556 42.489 36.2307 44.5233 36.1595 46.5536C36.1189 47.7377 35.9952 48.9174 35.7891 50.0839C35.4754 51.8482 34.4987 52.8108 32.5975 53.0566C29.7489 53.425 26.8881 53.7882 24.0218 53.9114C17.9944 54.1707 11.9914 53.7004 6.02542 52.8276C4.96679 52.6661 3.92966 52.3862 2.93335 51.9934C1.53181 51.4483 0.564033 50.4474 0.381195 48.8677C0.262664 47.8464 0.0776223 46.8193 0.0948754 45.798C0.178676 40.7764 0.224598 35.7511 0.473535 30.7365C0.652788 27.1082 0.873238 23.4631 1.74687 19.9072C2.48046 16.9206 4.21747 14.5915 6.563 12.6829C7.33468 12.0555 8.16303 11.4953 8.97214 10.915C9.31137 10.6714 9.66811 10.4521 10.017 10.2217C9.9311 10.0894 9.84503 9.95761 9.75883 9.82645ZM12.0779 10.0178C12.157 11.7758 10.9491 12.8372 9.66403 13.8534C9.24368 14.1857 8.84238 14.543 8.44108 14.8986C6.58984 16.5381 5.10251 18.4551 4.78747 20.9606C4.29744 24.8695 3.84328 28.7932 3.62661 32.7242C3.3528 37.6953 3.33528 42.6808 3.20084 47.66C3.16924 48.837 3.35773 49.1541 4.5576 49.3651C5.95062 49.6103 7.35843 49.7862 8.76602 49.9322C16.2626 50.7115 23.7585 50.7819 31.2506 49.8547C32.3037 49.7245 32.6239 49.3255 32.6015 48.2703C32.5538 46.0118 32.4987 43.7525 32.5155 41.4939C32.5603 35.4782 32.6636 29.4615 32.1884 23.4566C31.9914 20.9695 31.5023 18.5682 29.7364 16.6851C28.8625 15.7751 27.8869 14.9685 26.8291 14.2811C25.2997 13.2659 24.0261 12.1413 23.9786 10.018L12.0779 10.0178ZM8.56301 7.45473C14.6356 7.55726 20.7095 7.35468 26.7617 6.84773C26.6573 5.38211 26.5656 4.09709 26.4704 2.76546C25.7216 2.6459 24.9669 2.56477 24.2098 2.52235C20.3782 2.50353 16.5467 2.4811 12.7169 2.54944C11.5807 2.56983 10.4369 2.82437 9.32011 3.07667C8.40144 3.2846 8.26837 3.49657 8.29929 4.45602C8.32998 5.40427 8.46129 6.34941 8.56301 7.45473Z"/><path fill="#36B887" d="M7.26773 32.6511C7.26773 29.9301 7.25339 27.2092 7.27311 24.4886C7.28566 22.7698 7.9097 22.1 9.61485 22.0324C12.8703 21.9033 16.1273 21.8181 19.3841 21.7209C21.1471 21.6682 22.91 21.6107 24.6734 21.5936C25.2453 21.5771 25.8164 21.6408 26.3705 21.783C27.3116 22.0476 27.5805 22.4713 27.6163 23.4523C27.7599 27.3977 27.8796 31.3442 28.0541 35.2882C28.1574 37.6229 28.3721 39.9528 28.4812 42.2873C28.4796 42.936 28.4021 43.5824 28.2507 44.2132C28.215 44.4446 28.1003 44.6568 27.9262 44.8135C27.7519 44.9701 27.5287 45.0615 27.2946 45.0723C25.9694 45.1982 24.6423 45.4063 23.3165 45.403C19.3281 45.3924 15.3417 45.3057 11.3547 45.2237C10.7797 45.2042 10.2087 45.1215 9.65184 44.9772C8.64892 44.7297 8.04571 44.1482 7.76406 43.0648C7.419 41.739 7.3831 40.4347 7.41783 39.0892C7.47206 36.9442 7.43244 34.797 7.43244 32.6507L7.26773 32.6511ZM9.78218 23.973C10.0417 30.0403 10.2976 36.0159 10.5588 42.1397H25.4059V24.4965C20.1663 23.9634 15.048 24.1097 9.78218 23.973Z"/><path fill="#36B887" d="M17.0465 36.5043H14.8668C14.6373 36.5043 14.407 36.5164 14.1784 36.5014C13.0884 36.4301 12.3891 35.8726 12.3956 35.0897C12.4018 34.325 12.9948 33.7982 14.0741 33.7178C15.9804 33.5759 17.8899 33.4713 19.7994 33.3797C20.2197 33.3649 20.6399 33.4081 21.0483 33.5083C21.8102 33.6875 22.2623 34.1984 22.2883 34.8231C22.3159 35.4875 21.8523 36.0678 21.0474 36.262C20.5623 36.3689 20.0676 36.4261 19.5709 36.4328C18.7302 36.4592 17.8881 36.4402 17.0465 36.4402V36.5043Z"/><path fill="#36B887" d="M17.3186 26.3296C18.389 26.3296 19.4595 26.3137 20.5294 26.3341C21.6975 26.3565 22.4242 26.9275 22.393 27.7561C22.3625 28.5627 21.5756 29.1542 20.4495 29.1273C18.3105 29.076 16.1727 28.9835 14.0347 28.9015C13.8056 28.8943 13.578 28.8614 13.3562 28.8033C12.5773 28.5938 12.1928 28.0913 12.2706 27.4141C12.3436 26.7785 12.7608 26.3789 13.5352 26.3335C14.3735 26.2842 15.2157 26.3133 16.0571 26.3097C16.4774 26.3079 16.898 26.3097 17.3186 26.3097V26.3296Z"/><path fill="#36B887" d="M17.7014 38.0784C18.3512 38.0784 19.0026 38.0528 19.6509 38.0882C20.0284 38.1156 20.4009 38.1909 20.7593 38.3123C21.2162 38.46 21.4916 38.8516 21.3479 39.2861C21.2337 39.6314 20.8828 39.9101 20.602 40.1824C20.4679 40.2588 20.3117 40.2865 20.1595 40.2615C18.5198 40.1882 16.8798 40.1149 15.2412 40.0208C14.6602 39.9874 14.3405 39.6175 14.2867 39.0596C14.2349 38.524 14.6367 38.1328 15.2982 38.0374C15.5256 38.0136 15.7546 38.0082 15.9829 38.0212C16.2885 38.0264 16.5937 38.0472 16.8993 38.0539C17.1669 38.0598 17.4344 38.0551 17.7019 38.0551L17.7014 38.0784Z"/><path fill="#36B887" d="M16.8426 30.3308C18.1108 30.323 18.7436 30.6864 18.7893 31.3109C18.8341 31.9289 18.2539 32.4563 17.2548 32.5484C16.6872 32.576 16.1185 32.5231 15.5656 32.3915C15.1087 32.3019 14.7715 31.9304 14.8979 31.4771C15.0155 31.0958 15.275 30.7742 15.6228 30.5786C16.0525 30.3716 16.5849 30.3765 16.8426 30.3308Z"/></g><defs><clipPath id="clip0_290_3251"><rect width="36.299" height="54" fill="#fff"/></clipPath></defs></svg>