<svg width="47" height="54" viewBox="0 0 47 54" fill="none" xmlns="http://www.w3.org/2000/svg">
<g clip-path="url(#clip0_339_9886)">
<path d="M23.9484 50.7596C22.0425 52.7004 19.571 53.1565 17.1099 53.6028C14.9649 54.0314 12.7529 53.9938 10.6236 53.4935C6.47861 52.4628 1.80799 48.7595 1.26753 42.5896C0.966244 39.1554 0.737745 35.7261 0.776681 32.2684C0.818398 28.548 0.551399 24.825 0.497167 21.1018C0.464257 18.8449 0.35324 16.5526 0.678399 14.3344C1.22813 10.5848 1.8198 6.77465 4.65051 3.85888C6.98085 1.45855 9.72167 -0.0766675 13.1614 0.0415299C14.0687 0.0836267 14.9625 0.277028 15.806 0.613744C18.0415 1.48408 19.9487 3.03192 21.2605 5.04037C23.5183 8.4338 24.8064 12.195 25.3334 16.2158C25.5955 18.2131 25.7457 20.2253 25.958 22.3452C26.3253 22.2471 26.6904 22.1568 27.0512 22.0522C31.3274 20.8119 35.5633 20.8276 39.7618 22.4161C40.8646 22.8131 41.8734 23.4335 42.7251 24.2387C43.5768 25.0436 44.2533 26.0158 44.712 27.0942C46.6124 31.3393 47.2614 35.7244 46.2604 40.3045C45.5744 43.4407 44.0163 46.0275 41.4254 47.9674C37.9567 50.5645 34.0826 51.9907 29.7283 51.9812C27.7669 51.9782 25.8836 51.5089 23.9484 50.7596ZM3.39625 26.1206C5.49391 26.1206 7.4335 26.15 9.37194 26.1143C12.9373 26.0485 16.502 25.9495 20.0665 25.8464C20.3283 25.8313 20.58 25.7405 20.791 25.5847C21.3983 25.1407 21.9779 24.6598 22.5266 24.145C22.7635 23.9137 22.9094 23.6048 22.938 23.275C22.9611 21.8485 22.9554 20.4192 22.8928 18.9939C22.7118 14.8751 21.9711 10.8916 19.9692 7.21866C19.1287 5.63643 17.8968 4.29598 16.391 3.32514C14.3967 2.04143 12.3009 1.84697 10.1541 2.77309C7.6152 3.86862 5.66608 5.69324 4.64309 8.25627C3.50397 11.0565 2.92443 14.0526 2.93716 17.0756C2.96265 19.7293 3.14572 22.3813 3.26855 25.0336C3.285 25.3833 3.3492 25.7312 3.39625 26.1206ZM21.2246 49.3065C20.5806 48.7674 20.0818 48.3771 19.6136 47.9528C17.8743 46.4297 16.6208 44.4293 16.0086 42.2C14.8199 37.7848 15.6505 33.6574 17.7544 29.7052C17.954 29.3307 18.1547 28.9566 18.3674 28.5587C16.369 28.2574 4.56571 28.4349 3.48849 28.7835C3.48849 29.3944 3.46647 30.0234 3.49266 30.6503C3.56706 32.4307 3.62754 34.2129 3.75594 35.9896C3.92698 38.3556 4.10103 40.724 4.37451 43.0796C4.82157 46.9286 8.41892 50.1904 11.8112 50.7948C14.7061 51.3105 17.4787 50.8064 20.2067 49.8771C20.5615 49.7158 20.902 49.525 21.2246 49.3065ZM41.2298 27.7779C40.58 26.6599 39.5653 25.7996 38.356 25.3416C36.8885 24.7543 35.3992 24.206 33.8844 23.7578C32.9495 23.4817 31.9207 23.1976 30.9844 23.3153C28.6511 23.5696 26.4076 24.3576 24.4279 25.6186C21.2347 27.7116 19.5438 30.8394 18.5125 34.3856C17.7521 37.0005 17.7459 39.6245 18.6801 42.2121C18.8468 42.6733 19.0815 43.1099 19.2878 43.5646C26.355 37.8066 34.0606 33.1983 41.2298 27.7779ZM20.7996 45.5893C23.0606 47.7815 25.5427 49.0026 28.4351 49.2914C32.6364 49.7107 36.3149 48.3243 39.6126 45.815C41.3756 44.4912 42.603 42.5773 43.0707 40.4229C43.5752 38.1739 43.6366 35.8482 43.2517 33.5756C43.0985 32.6254 42.8171 31.6972 42.5506 30.5764L20.7996 45.5893Z" fill="#7CA851"/>
</g>
<defs>
<clipPath id="clip0_339_9886">
<rect width="46.5837" height="54" fill="white" transform="translate(0.25)"/>
</clipPath>
</defs>
</svg>
