<svg xmlns="http://www.w3.org/2000/svg" width="63" height="54" fill="none" viewBox="0 0 63 54"><g clip-path="url(#clip0_290_3263)"><path fill="#8F4949" d="M49.4321 9.52489L55.7002 3.93583C55.4482 3.51706 55.1666 3.09886 54.9388 2.65552C54.7306 2.2489 54.4449 1.81315 54.442 1.38844C54.4387 0.943212 54.6118 0.290892 54.928 0.105943C55.256 -0.0857571 55.864 0.1216 56.3185 0.25795C56.5533 0.328419 56.7253 0.618934 56.9176 0.817924C58.3929 2.34585 59.8857 3.85783 61.3297 5.41492C61.82 5.96097 62.2487 6.55923 62.6084 7.19886C63.005 7.88088 62.8211 8.56069 62.2809 9.09313C61.7541 9.61207 61.0885 9.55918 60.4681 9.29187C60.0102 9.05195 59.5695 8.78074 59.1489 8.48023L52.9259 13.5622C53.7046 14.437 54.3078 15.1919 54.9909 15.8663C56.451 17.3087 56.1319 19.2349 54.7125 20.4151C47.6115 26.32 40.6023 32.3365 33.5288 38.2754C32.3587 39.2498 31.1067 40.1219 29.7872 40.8825C28.2509 41.7735 27.436 41.5373 26.3295 40.147C25.8435 39.5371 25.387 38.905 24.8554 38.203C23.7484 38.8537 22.717 39.5492 21.607 40.0809C20.8858 40.4262 20.0486 40.5275 19.2664 40.7491C18.9682 40.8056 18.6806 40.9082 18.414 41.0534C13.4479 44.4449 8.8349 48.2808 4.34156 52.2665C3.89541 52.6683 3.42246 53.0392 2.92598 53.377C2.17268 53.88 1.54008 53.8706 1.17315 53.417C0.806224 52.9634 0.905546 52.2851 1.54599 51.716C4.89398 48.7414 8.23523 45.7574 11.6321 42.8392C13.4141 41.3078 15.3068 39.9043 17.273 38.345C17.02 37.1265 17.7927 36.3273 18.877 35.6264C19.8339 35.0078 20.6952 34.2413 21.6516 33.4993C21.1791 32.7825 20.7727 32.1763 20.3758 31.5624C19.4011 30.0577 19.4578 29.2879 20.8016 28.0586C22.4367 26.5627 24.1137 25.1109 25.8066 23.6804C31.6977 18.7036 37.5961 13.7356 43.5021 8.77647C43.9611 8.38983 44.3877 7.9651 44.8424 7.57332C45.961 6.60942 46.66 6.60726 47.726 7.63786C48.3184 8.20782 48.8362 8.85825 49.4321 9.52489ZM28.7523 38.939C34.1026 34.9598 38.9061 30.4041 43.9641 26.2206C41.7144 22.9706 39.5501 19.8443 37.3177 16.6189L21.8139 29.657L28.7523 38.939ZM39.6114 14.7278L46.9068 23.7369L53.113 18.0787C50.872 15.1066 48.7444 12.2834 46.5115 9.32155L39.6114 14.7278ZM22.657 35.0367C20.4395 36.7161 19.957 37.2356 19.7569 38.3248L23.321 36.0184L22.657 35.0367ZM54.5875 8.91417L54.3847 8.69814C53.3989 9.52677 52.4035 10.3452 51.4396 11.1978C51.3251 11.2991 51.3818 11.5936 51.3545 11.8417C52.4971 10.806 53.5423 9.86025 54.5872 8.91417H54.5875Z"/></g><defs><clipPath id="clip0_290_3263"><rect width="62.1" height="54" fill="#fff" transform="translate(0.75)"/></clipPath></defs></svg>