<svg xmlns="http://www.w3.org/2000/svg" width="63" height="54" fill="none" viewBox="0 0 63 54"><g clip-path="url(#clip0_290_3284)"><path fill="#5F4086" d="M48.9321 9.52507L55.2002 3.93601C54.9482 3.51724 54.6666 3.09904 54.4388 2.6557C54.2306 2.24908 53.9449 1.81334 53.942 1.38863C53.9387 0.943395 54.1118 0.291075 54.428 0.106126C54.756 -0.085574 55.364 0.121783 55.8185 0.258133C56.0533 0.328602 56.2253 0.619117 56.4176 0.818107C57.8929 2.34604 59.3857 3.85801 60.8297 5.4151C61.32 5.96115 61.7487 6.55941 62.1084 7.19904C62.505 7.88106 62.3211 8.56087 61.7809 9.09331C61.2541 9.61225 60.5885 9.55936 59.9681 9.29206C59.5102 9.05214 59.0695 8.78092 58.6489 8.48041L52.4259 13.5624C53.2046 14.4372 53.8078 15.1921 54.4909 15.8665C55.951 17.3089 55.6319 19.2351 54.2125 20.4153C47.1115 26.3202 40.1023 32.3366 33.0288 38.2756C31.8587 39.25 30.6067 40.1221 29.2872 40.8827C27.7509 41.7737 26.936 41.5374 25.8295 40.1472C25.3435 39.5373 24.887 38.9052 24.3554 38.2032C23.2484 38.8539 22.217 39.5494 21.107 40.0811C20.3858 40.4264 19.5486 40.5276 18.7664 40.7493C18.4682 40.8057 18.1806 40.9083 17.914 41.0536C12.9479 44.4451 8.3349 48.281 3.84156 52.2667C3.39541 52.6685 2.92246 53.0394 2.42598 53.3772C1.67268 53.8802 1.04008 53.8708 0.673155 53.4172C0.306224 52.9636 0.405546 52.2853 1.04599 51.7162C4.39398 48.7416 7.73523 45.7575 11.1321 42.8394C12.9141 41.3079 14.8068 39.9045 16.773 38.3452C16.52 37.1267 17.2927 36.3275 18.377 35.6266C19.3339 35.008 20.1952 34.2415 21.1516 33.4995C20.6791 32.7827 20.2727 32.1765 19.8758 31.5626C18.9011 30.0578 18.9578 29.2881 20.3016 28.0588C21.9367 26.5629 23.6137 25.1111 25.3066 23.6806C31.1977 18.7038 37.0961 13.7358 43.0021 8.77666C43.4611 8.39001 43.8877 7.96528 44.3424 7.57351C45.461 6.60961 46.16 6.60745 47.226 7.63804C47.8184 8.20801 48.3362 8.85844 48.9321 9.52507ZM28.2523 38.9392C33.6026 34.96 38.4061 30.4043 43.4641 26.2208C41.2144 22.9708 39.0501 19.8445 36.8177 16.619L21.3139 29.6572L28.2523 38.9392ZM39.1114 14.728L46.4068 23.7371L52.613 18.0789C50.372 15.1068 48.2444 12.2836 46.0115 9.32173L39.1114 14.728ZM22.157 35.0369C19.9395 36.7163 19.457 37.2358 19.2569 38.325L22.821 36.0186L22.157 35.0369ZM54.0875 8.91436L53.8847 8.69833C52.8989 9.52696 51.9035 10.3454 50.9396 11.198C50.8251 11.2993 50.8818 11.5938 50.8545 11.8419C51.9971 10.8062 53.0423 9.86044 54.0872 8.91436H54.0875Z"/></g><defs><clipPath id="clip0_290_3284"><rect width="62.1" height="54" fill="#fff" transform="translate(0.25)"/></clipPath></defs></svg>