<svg xmlns="http://www.w3.org/2000/svg" width="52" height="54" fill="none" viewBox="0 0 52 54"><g clip-path="url(#clip0_290_3298)"><path fill="#5F4086" d="M44.4914 18.9568C44.1368 19.5766 43.9028 20.154 43.5258 20.614C42.299 22.112 41.0166 23.5639 39.7621 25.0393C32.0081 34.1566 23.4478 42.4972 14.9408 50.8884C14.2672 51.5533 13.5583 52.1876 12.8238 52.7842C12.4085 53.1191 11.9487 53.3946 11.4576 53.6026C11.0801 53.7796 10.6551 53.8273 10.2479 53.7386C9.84069 53.6499 9.47391 53.4293 9.20404 53.1111C6.69135 50.4974 4.18162 47.8813 1.67473 45.2628C0.814986 44.3595 0.724031 43.7845 1.48033 42.7455C2.64125 41.1506 3.79714 39.5253 5.15796 38.1083C9.12398 33.9782 13.1171 29.8687 17.2376 25.8946C21.715 21.5763 26.3416 17.4133 30.9172 13.1979C31.8861 12.3059 32.8993 11.459 33.9241 10.6297C34.819 9.90484 35.1185 9.97283 36.0975 10.622C38.9442 12.5099 41.2127 15.0185 43.5138 17.4907C43.8879 17.8942 44.1364 18.4176 44.4914 18.9568ZM10.7176 50.2506L34.225 25.7873L28.6285 19.6726C20.3458 27.6238 11.7958 35.266 4.18703 43.9485L10.7176 50.2506ZM36.613 23.1158L40.5634 18.8903C38.8884 16.8365 36.983 14.9828 34.8849 13.3657L30.7625 17.5015C32.8041 19.4607 34.7206 21.3 36.613 23.1158Z"/><path fill="#5F4086" d="M21.977 41.7103L12.4805 32.2137L18.8115 26.0689L27.9356 35.193L21.977 41.7103Z"/><path stroke="#5F4086" stroke-width="2.25" d="M28.9117 26.2754L27.7281 25.1059C27.5017 24.8822 27.5044 24.5159 27.7341 24.2956C27.9552 24.0836 28.3049 24.0862 28.5228 24.3015L29.7064 25.4711C29.9234 25.6855 29.9312 26.0333 29.724 26.2572C29.507 26.4917 29.139 26.5 28.9117 26.2754Z"/></g><defs><clipPath id="clip0_290_3298"><rect width="50.276" height="54" fill="#fff" transform="translate(0.75)"/></clipPath></defs></svg>