<svg width="90" height="90" viewBox="0 0 90 90" fill="none" xmlns="http://www.w3.org/2000/svg">
<circle cx="45" cy="45" r="45" fill="white"/>
<g clip-path="url(#clip0_1789_4317)">
<path d="M36.7588 27.8266C36.133 27.6808 35.5081 27.5304 34.8809 27.3899C33.9757 27.1883 33.4579 26.5956 33.4164 25.7045C33.3474 24.2134 33.3342 22.7171 33.3698 21.2246C33.3922 20.2496 34.1256 19.6953 34.9233 19.4082C35.9594 19.0356 37.0551 18.6673 38.1396 18.6184C43.0782 18.3959 48.0209 18.2505 52.9642 18.1548C54.7521 18.1203 56.0216 18.5857 56.2647 21.1289C56.4102 22.6483 56.5493 24.1687 56.6553 25.6913C56.7138 26.5344 56.1733 27.2226 55.2423 27.5735C54.9528 27.6731 54.6564 27.7516 54.3555 27.8083C54.0664 27.8712 53.7729 27.9111 53.4386 27.9685C53.4554 28.7001 53.9199 29.0404 54.3951 29.3552C54.9696 29.7361 55.5603 30.0933 56.1484 30.4531C59.9728 32.7895 61.8601 36.3057 62.3685 40.6597C63.0593 46.5729 63.1097 52.5173 63.2184 58.4578C63.2556 60.4892 63.2307 62.5235 63.1595 64.5537C63.1189 65.7379 62.9952 66.9176 62.7891 68.0841C62.4754 69.8484 61.4987 70.811 59.5975 71.0568C56.7489 71.4252 53.8881 71.7884 51.0218 71.9116C44.9944 72.1709 38.9914 71.7006 33.0254 70.8278C31.9668 70.6663 30.9297 70.3864 29.9333 69.9936C28.5318 69.4485 27.564 68.4476 27.3812 66.8679C27.2627 65.8466 27.0776 64.8195 27.0949 63.7982C27.1787 58.7766 27.2246 53.7513 27.4735 48.7367C27.6528 45.1084 27.8732 41.4632 28.7469 37.9074C29.4805 34.9208 31.2175 32.5916 33.563 30.683C34.3347 30.0557 35.163 29.4955 35.9721 28.9152C36.3114 28.6716 36.6681 28.4523 37.017 28.2219C36.9311 28.0896 36.845 27.9578 36.7588 27.8266ZM39.0779 28.018C39.157 29.776 37.9491 30.8374 36.664 31.8535C36.2437 32.1858 35.8424 32.5432 35.4411 32.8988C33.5898 34.5383 32.1025 36.4552 31.7875 38.9608C31.2974 42.8697 30.8433 46.7933 30.6266 50.7244C30.3528 55.6955 30.3353 60.681 30.2008 65.6602C30.1692 66.8372 30.3577 67.1542 31.5576 67.3653C32.9506 67.6104 34.3584 67.7863 35.766 67.9324C43.2626 68.7117 50.7585 68.7821 58.2506 67.8549C59.3037 67.7247 59.6239 67.3257 59.6015 66.2705C59.5538 64.0119 59.4987 61.7527 59.5155 59.4941C59.5603 53.4784 59.6636 47.4617 59.1884 41.4567C58.9914 38.9697 58.5023 36.5684 56.7364 34.6853C55.8625 33.7753 54.8869 32.9687 53.8291 32.2813C52.2997 31.2661 51.0261 30.1415 50.9786 28.0182L39.0779 28.018ZM35.563 25.4549C41.6356 25.5574 47.7095 25.3549 53.7617 24.8479C53.6573 23.3823 53.5656 22.0973 53.4704 20.7656C52.7216 20.6461 51.9669 20.565 51.2098 20.5225C47.3782 20.5037 43.5467 20.4813 39.7169 20.5496C38.5807 20.57 37.4369 20.8246 36.3201 21.0769C35.4014 21.2848 35.2684 21.4968 35.2993 22.4562C35.33 23.4045 35.4613 24.3496 35.563 25.4549Z" fill="#3E9FA5"/>
<path d="M34.2677 50.6511C34.2677 47.9301 34.2534 45.2092 34.2731 42.4886C34.2857 40.7698 34.9097 40.1 36.6148 40.0324C39.8703 39.9033 43.1273 39.8181 46.3841 39.7209C48.1471 39.6682 49.91 39.6107 51.6734 39.5936C52.2453 39.5771 52.8164 39.6408 53.3705 39.783C54.3116 40.0476 54.5805 40.4713 54.6163 41.4523C54.7599 45.3977 54.8796 49.3442 55.0541 53.2882C55.1574 55.6229 55.3721 57.9528 55.4812 60.2873C55.4796 60.936 55.4021 61.5824 55.2507 62.2132C55.215 62.4446 55.1003 62.6568 54.9262 62.8135C54.7519 62.9701 54.5287 63.0615 54.2946 63.0723C52.9694 63.1982 51.6423 63.4063 50.3165 63.403C46.3281 63.3924 42.3417 63.3057 38.3547 63.2237C37.7797 63.2042 37.2087 63.1215 36.6518 62.9772C35.6489 62.7297 35.0457 62.1482 34.7641 61.0648C34.419 59.739 34.3831 58.4347 34.4178 57.0892C34.4721 54.9442 34.4324 52.797 34.4324 50.6507L34.2677 50.6511ZM36.7822 41.973C37.0417 48.0403 37.2976 54.0159 37.5588 60.1397H52.4059V42.4965C47.1663 41.9634 42.048 42.1097 36.7822 41.973Z" fill="#3E9FA5"/>
<path d="M44.0465 54.5043H41.8668C41.6373 54.5043 41.407 54.5164 41.1784 54.5014C40.0884 54.4301 39.3891 53.8726 39.3956 53.0897C39.4018 52.325 39.9948 51.7982 41.0741 51.7178C42.9804 51.5759 44.8899 51.4713 46.7994 51.3797C47.2197 51.3649 47.6399 51.4081 48.0483 51.5083C48.8102 51.6875 49.2623 52.1984 49.2883 52.8231C49.3159 53.4875 48.8523 54.0678 48.0474 54.262C47.5623 54.3689 47.0676 54.4261 46.5709 54.4328C45.7302 54.4592 44.8881 54.4402 44.0465 54.4402V54.5043Z" fill="#3E9FA5"/>
<path d="M44.3186 44.3296C45.389 44.3296 46.4595 44.3137 47.5294 44.3341C48.6975 44.3565 49.4242 44.9275 49.393 45.7561C49.3625 46.5627 48.5756 47.1542 47.4495 47.1273C45.3105 47.076 43.1727 46.9835 41.0347 46.9015C40.8056 46.8943 40.578 46.8614 40.3562 46.8033C39.5773 46.5938 39.1928 46.0913 39.2706 45.4141C39.3436 44.7785 39.7608 44.3789 40.5352 44.3335C41.3735 44.2842 42.2157 44.3133 43.0571 44.3097C43.4774 44.3079 43.898 44.3097 44.3186 44.3097V44.3296Z" fill="#3E9FA5"/>
<path d="M44.7014 56.0784C45.3512 56.0784 46.0026 56.0528 46.6509 56.0882C47.0284 56.1156 47.4009 56.1909 47.7593 56.3123C48.2162 56.46 48.4916 56.8516 48.3479 57.2861C48.2337 57.6314 47.8828 57.9101 47.602 58.1824C47.4679 58.2588 47.3117 58.2865 47.1595 58.2615C45.5198 58.1882 43.8798 58.1149 42.2412 58.0208C41.6602 57.9874 41.3405 57.6175 41.2867 57.0596C41.2349 56.524 41.6367 56.1328 42.2982 56.0374C42.5256 56.0136 42.7546 56.0082 42.9829 56.0212C43.2885 56.0264 43.5937 56.0472 43.8993 56.0539C44.1669 56.0598 44.4344 56.0551 44.7019 56.0551L44.7014 56.0784Z" fill="#3E9FA5"/>
<path d="M43.8426 48.3308C45.1108 48.323 45.7436 48.6864 45.7893 49.3109C45.8341 49.9289 45.2539 50.4563 44.2548 50.5484C43.6872 50.576 43.1185 50.5231 42.5656 50.3915C42.1087 50.3019 41.7715 49.9304 41.8979 49.4771C42.0155 49.0958 42.275 48.7742 42.6228 48.5786C43.0525 48.3716 43.5849 48.3765 43.8426 48.3308Z" fill="#3E9FA5"/>
</g>
<defs>
<clipPath id="clip0_1789_4317">
<rect width="36.2988" height="54" fill="white" transform="translate(27 18)"/>
</clipPath>
</defs>
</svg>
