<svg width="91" height="90" viewBox="0 0 91 90" fill="none" xmlns="http://www.w3.org/2000/svg">
<circle cx="45.5" cy="45" r="45" fill="white"/>
<g clip-path="url(#clip0_339_4452)">
<path d="M63.4321 27.5251L69.7002 21.936C69.4482 21.5172 69.1666 21.099 68.9388 20.6557C68.7306 20.2491 68.4449 19.8133 68.442 19.3886C68.4387 18.9434 68.6118 18.2911 68.928 18.1061C69.256 17.9144 69.864 18.1218 70.3185 18.2581C70.5533 18.3286 70.7253 18.6191 70.9176 18.8181C72.3929 20.346 73.8857 21.858 75.3297 23.4151C75.82 23.9611 76.2487 24.5594 76.6084 25.199C77.005 25.8811 76.8211 26.5609 76.2809 27.0933C75.7541 27.6123 75.0885 27.5594 74.4681 27.2921C74.0102 27.0521 73.5695 26.7809 73.1489 26.4804L66.9259 31.5624C67.7046 32.4372 68.3078 33.1921 68.9909 33.8665C70.451 35.3089 70.1319 37.2351 68.7125 38.4153C61.6115 44.3202 54.6023 50.3366 47.5288 56.2756C46.3587 57.25 45.1067 58.1221 43.7872 58.8827C42.2509 59.7737 41.436 59.5374 40.3295 58.1472C39.8435 57.5373 39.387 56.9052 38.8554 56.2032C37.7484 56.8539 36.717 57.5494 35.607 58.0811C34.8858 58.4264 34.0486 58.5276 33.2664 58.7493C32.9682 58.8057 32.6806 58.9083 32.414 59.0536C27.4479 62.4451 22.8349 66.281 18.3416 70.2667C17.8954 70.6685 17.4225 71.0394 16.926 71.3772C16.1727 71.8802 15.5401 71.8708 15.1732 71.4172C14.8062 70.9636 14.9055 70.2853 15.546 69.7162C18.894 66.7416 22.2352 63.7575 25.6321 60.8394C27.4141 59.3079 29.3068 57.9045 31.273 56.3452C31.02 55.1267 31.7927 54.3275 32.877 53.6266C33.8339 53.008 34.6952 52.2415 35.6516 51.4995C35.1791 50.7827 34.7727 50.1765 34.3758 49.5626C33.4011 48.0578 33.4578 47.2881 34.8016 46.0588C36.4367 44.5629 38.1137 43.1111 39.8066 41.6806C45.6977 36.7038 51.5961 31.7358 57.5021 26.7767C57.9611 26.39 58.3877 25.9653 58.8424 25.5735C59.961 24.6096 60.66 24.6074 61.726 25.638C62.3184 26.208 62.8362 26.8584 63.4321 27.5251ZM42.7523 56.9392C48.1026 52.96 52.9061 48.4043 57.9641 44.2208C55.7144 40.9708 53.5501 37.8445 51.3177 34.619L35.8139 47.6572L42.7523 56.9392ZM53.6114 32.728L60.9068 41.7371L67.113 36.0789C64.872 33.1068 62.7444 30.2836 60.5115 27.3217L53.6114 32.728ZM36.657 53.0369C34.4395 54.7163 33.957 55.2358 33.7569 56.325L37.321 54.0186L36.657 53.0369ZM68.5875 26.9144L68.3847 26.6983C67.3989 27.527 66.4035 28.3454 65.4396 29.198C65.3251 29.2993 65.3818 29.5938 65.3545 29.8419C66.4971 28.8062 67.5423 27.8604 68.5872 26.9144H68.5875Z" fill="#3E9FA5"/>
</g>
<defs>
<clipPath id="clip0_339_4452">
<rect width="62.1" height="54" fill="white" transform="translate(14.75 18)"/>
</clipPath>
</defs>
</svg>
