<svg width="90" height="90" viewBox="0 0 90 90" fill="none" xmlns="http://www.w3.org/2000/svg">
<circle cx="45" cy="45" r="45" fill="white"/>
<g clip-path="url(#clip0_1776_998)">
<path d="M63.2415 36.9568C62.8869 37.5766 62.6528 38.154 62.2759 38.614C61.0491 40.112 59.7667 41.5639 58.5122 43.0393C50.7581 52.1566 42.1978 60.4972 33.6909 68.8884C33.0173 69.5533 32.3083 70.1876 31.5739 70.7842C31.1585 71.1191 30.6987 71.3946 30.2076 71.6026C29.8302 71.7796 29.4051 71.8273 28.9979 71.7386C28.5907 71.6499 28.224 71.4293 27.9541 71.1111C25.4414 68.4974 22.9317 65.8813 20.4248 63.2628C19.565 62.3595 19.4741 61.7845 20.2304 60.7455C21.3913 59.1506 22.5472 57.5253 23.908 56.1083C27.874 51.9782 31.8672 47.8687 35.9876 43.8946C40.4651 39.5763 45.0916 35.4133 49.6672 31.1979C50.6362 30.3059 51.6494 29.459 52.6742 28.6297C53.569 27.9048 53.8685 27.9728 54.8476 28.622C57.6943 30.5099 59.9627 33.0185 62.2639 35.4907C62.6379 35.8942 62.8864 36.4176 63.2415 36.9568ZM29.4677 68.2506L52.9751 43.7873L47.3786 37.6726C39.0959 45.6238 30.5458 53.266 22.9371 61.9485L29.4677 68.2506ZM55.3631 41.1158L59.3135 36.8903C57.6385 34.8365 55.7331 32.9828 53.6349 31.3657L49.5126 35.5015C51.5541 37.4607 53.4706 39.3 55.3631 41.1158Z" fill="#9B7E62"/>
<path d="M40.727 59.7103L31.2305 50.2137L37.5615 44.0689L46.6856 53.193L40.727 59.7103Z" fill="#9B7E62"/>
<path d="M47.6617 44.2756L46.4781 43.106C46.2517 42.8824 46.2544 42.5161 46.4841 42.2958C46.7052 42.0838 47.0549 42.0864 47.2728 42.3017L48.4564 43.4713C48.6734 43.6856 48.6812 44.0335 48.474 44.2574C48.257 44.4919 47.889 44.5002 47.6617 44.2756Z" stroke="#9B7E62" stroke-width="2.25"/>
</g>
<defs>
<clipPath id="clip0_1776_998">
<rect width="50.2759" height="54" fill="white" transform="translate(19.5 18)"/>
</clipPath>
</defs>
</svg>
