<svg width="90" height="90" viewBox="0 0 90 90" fill="none" xmlns="http://www.w3.org/2000/svg">
<circle cx="45" cy="45" r="45" fill="white"/>
<g clip-path="url(#clip0_339_4655)">
<path d="M45.4484 68.76C43.5425 70.7007 41.071 71.1568 38.6099 71.6032C36.4649 72.0317 34.2529 71.9942 32.1236 71.4938C27.9786 70.4632 23.308 66.7599 22.7675 60.59C22.4662 57.1558 22.2377 53.7264 22.2767 50.2688C22.3184 46.5484 22.0514 42.8254 21.9972 39.1021C21.9643 36.8453 21.8532 34.553 22.1784 32.3348C22.7281 28.5851 23.3198 24.775 26.1505 21.8593C28.4809 19.4589 31.2217 17.9237 34.6614 18.0419C35.5687 18.084 36.4625 18.2774 37.306 18.6141C39.5415 19.4844 41.4487 21.0323 42.7605 23.0407C45.0183 26.4342 46.3064 30.1954 46.8334 34.2162C47.0955 36.2135 47.2457 38.2256 47.458 40.3455C47.8253 40.2475 48.1904 40.1571 48.5512 40.0526C52.8274 38.8122 57.0633 38.8279 61.2618 40.4164C62.3646 40.8135 63.3734 41.4339 64.2251 42.239C65.0768 43.0439 65.7533 44.0162 66.212 45.0945C68.1124 49.3397 68.7614 53.7248 67.7604 58.3048C67.0744 61.441 65.5163 64.0279 62.9254 65.9677C59.4567 68.5648 55.5826 69.9911 51.2283 69.9816C49.2669 69.9786 47.3836 69.5093 45.4484 68.76ZM24.8962 44.1209C26.9939 44.1209 28.9335 44.1504 30.8719 44.1147C34.4373 44.0488 38.002 43.9499 41.5665 43.8468C41.8283 43.8317 42.08 43.7408 42.291 43.5851C42.8983 43.141 43.4779 42.6601 44.0266 42.1454C44.2635 41.9141 44.4094 41.6052 44.438 41.2754C44.4611 39.8489 44.4554 38.4196 44.3928 36.9943C44.2118 32.8755 43.4711 28.892 41.4692 25.219C40.6287 23.6368 39.3968 22.2963 37.891 21.3255C35.8967 20.0418 33.8009 19.8473 31.6541 20.7735C29.1152 21.869 27.1661 23.6936 26.1431 26.2566C25.004 29.0568 24.4244 32.053 24.4372 35.076C24.4626 37.7296 24.6457 40.3817 24.7685 43.034C24.785 43.3837 24.8492 43.7316 24.8962 44.1209ZM42.7246 67.3069C42.0806 66.7678 41.5818 66.3775 41.1136 65.9531C39.3743 64.43 38.1208 62.4297 37.5086 60.2004C36.3199 55.7852 37.1505 51.6577 39.2544 47.7055C39.454 47.331 39.6547 46.957 39.8674 46.559C37.869 46.2577 26.0657 46.4353 24.9885 46.7838C24.9885 47.3948 24.9665 48.0238 24.9927 48.6507C25.0671 50.431 25.1275 52.2133 25.2559 53.9899C25.427 56.356 25.601 58.7243 25.8745 61.0799C26.3216 64.929 29.9189 68.1908 33.3112 68.7952C36.2061 69.3109 38.9787 68.8068 41.7067 67.8774C42.0615 67.7161 42.402 67.5254 42.7246 67.3069ZM62.7298 45.7782C62.08 44.6602 61.0653 43.7999 59.856 43.342C58.3885 42.7547 56.8992 42.2064 55.3844 41.7581C54.4495 41.4821 53.4207 41.198 52.4844 41.3157C50.1511 41.5699 47.9076 42.3579 45.9279 43.6189C42.7347 45.712 41.0438 48.8398 40.0125 52.3859C39.2521 55.0009 39.2459 57.6249 40.1801 60.2125C40.3468 60.6737 40.5815 61.1103 40.7878 61.565C47.855 55.8069 55.5606 51.1986 62.7298 45.7782ZM42.2996 63.5897C44.5606 65.7819 47.0427 67.003 49.9351 67.2918C54.1364 67.711 57.8149 66.3247 61.1126 63.8154C62.8756 62.4916 64.103 60.5777 64.5707 58.4233C65.0752 56.1743 65.1366 53.8486 64.7517 51.5759C64.5985 50.6257 64.3171 49.6975 64.0506 48.5767L42.2996 63.5897Z" fill="#7CA851"/>
</g>
<defs>
<clipPath id="clip0_339_4655">
<rect width="46.5837" height="54" fill="white" transform="translate(21.75 18)"/>
</clipPath>
</defs>
</svg>
