<svg width="91" height="90" viewBox="0 0 91 90" fill="none" xmlns="http://www.w3.org/2000/svg">
<circle cx="45.25" cy="45" r="45" fill="white"/>
<g clip-path="url(#clip0_339_5086)">
<path d="M37.0088 27.8266C36.383 27.6808 35.7581 27.5304 35.1309 27.3899C34.2257 27.1883 33.7079 26.5956 33.6664 25.7045C33.5974 24.2134 33.5842 22.7171 33.6198 21.2246C33.6422 20.2496 34.3756 19.6953 35.1733 19.4082C36.2094 19.0356 37.3051 18.6673 38.3896 18.6184C43.3282 18.3959 48.2709 18.2505 53.2142 18.1548C55.0021 18.1203 56.2716 18.5857 56.5147 21.1289C56.6602 22.6483 56.7993 24.1687 56.9053 25.6913C56.9638 26.5344 56.4233 27.2226 55.4923 27.5735C55.2028 27.6731 54.9064 27.7516 54.6055 27.8083C54.3164 27.8712 54.0229 27.9111 53.6886 27.9685C53.7054 28.7001 54.1699 29.0404 54.6451 29.3552C55.2196 29.7361 55.8103 30.0933 56.3984 30.4531C60.2228 32.7895 62.1101 36.3057 62.6185 40.6597C63.3093 46.5729 63.3597 52.5173 63.4684 58.4578C63.5056 60.4892 63.4807 62.5235 63.4095 64.5537C63.3689 65.7379 63.2452 66.9176 63.0391 68.0841C62.7254 69.8484 61.7487 70.811 59.8475 71.0568C56.9989 71.4252 54.1381 71.7884 51.2718 71.9116C45.2444 72.1709 39.2414 71.7006 33.2754 70.8278C32.2168 70.6663 31.1797 70.3864 30.1833 69.9936C28.7818 69.4485 27.814 68.4476 27.6312 66.8679C27.5127 65.8466 27.3276 64.8195 27.3449 63.7982C27.4287 58.7766 27.4746 53.7513 27.7235 48.7367C27.9028 45.1084 28.1232 41.4632 28.9969 37.9074C29.7305 34.9208 31.4675 32.5916 33.813 30.683C34.5847 30.0557 35.413 29.4955 36.2221 28.9152C36.5614 28.6716 36.9181 28.4523 37.267 28.2219C37.1811 28.0896 37.095 27.9578 37.0088 27.8266ZM39.3279 28.018C39.407 29.776 38.1991 30.8374 36.914 31.8535C36.4937 32.1858 36.0924 32.5432 35.6911 32.8988C33.8398 34.5383 32.3525 36.4552 32.0375 38.9608C31.5474 42.8697 31.0933 46.7933 30.8766 50.7244C30.6028 55.6955 30.5853 60.681 30.4508 65.6602C30.4192 66.8372 30.6077 67.1542 31.8076 67.3653C33.2006 67.6104 34.6084 67.7863 36.016 67.9324C43.5126 68.7117 51.0085 68.7821 58.5006 67.8549C59.5537 67.7247 59.8739 67.3257 59.8515 66.2705C59.8038 64.0119 59.7487 61.7527 59.7655 59.4941C59.8103 53.4784 59.9136 47.4617 59.4384 41.4567C59.2414 38.9697 58.7523 36.5684 56.9864 34.6853C56.1125 33.7753 55.1369 32.9687 54.0791 32.2813C52.5497 31.2661 51.2761 30.1415 51.2286 28.0182L39.3279 28.018ZM35.813 25.4549C41.8856 25.5574 47.9595 25.3549 54.0117 24.8479C53.9073 23.3823 53.8156 22.0973 53.7204 20.7656C52.9716 20.6461 52.2169 20.565 51.4598 20.5225C47.6282 20.5037 43.7967 20.4813 39.9669 20.5496C38.8307 20.57 37.6869 20.8246 36.5701 21.0769C35.6514 21.2848 35.5184 21.4968 35.5493 22.4562C35.58 23.4045 35.7113 24.3496 35.813 25.4549Z" fill="#8F4949"/>
<path d="M34.5177 50.6511C34.5177 47.9301 34.5034 45.2092 34.5231 42.4886C34.5357 40.7698 35.1597 40.1 36.8648 40.0324C40.1203 39.9033 43.3773 39.8181 46.6341 39.7209C48.3971 39.6682 50.16 39.6107 51.9234 39.5936C52.4953 39.5771 53.0664 39.6408 53.6205 39.783C54.5616 40.0476 54.8305 40.4713 54.8663 41.4523C55.0099 45.3977 55.1296 49.3442 55.3041 53.2882C55.4074 55.6229 55.6221 57.9528 55.7312 60.2873C55.7296 60.936 55.6521 61.5824 55.5007 62.2132C55.465 62.4446 55.3503 62.6568 55.1762 62.8135C55.0019 62.9701 54.7787 63.0615 54.5446 63.0723C53.2194 63.1982 51.8923 63.4063 50.5665 63.403C46.5781 63.3924 42.5917 63.3057 38.6047 63.2237C38.0297 63.2042 37.4587 63.1215 36.9018 62.9772C35.8989 62.7297 35.2957 62.1482 35.0141 61.0648C34.669 59.739 34.6331 58.4347 34.6678 57.0892C34.7221 54.9442 34.6824 52.797 34.6824 50.6507L34.5177 50.6511ZM37.0322 41.973C37.2917 48.0403 37.5476 54.0159 37.8088 60.1397H52.6559V42.4965C47.4163 41.9634 42.298 42.1097 37.0322 41.973Z" fill="#8F4949"/>
<path d="M44.2965 54.5043H42.1168C41.8873 54.5043 41.657 54.5164 41.4284 54.5014C40.3384 54.4301 39.6391 53.8726 39.6456 53.0897C39.6518 52.325 40.2448 51.7982 41.3241 51.7178C43.2304 51.5759 45.1399 51.4713 47.0494 51.3797C47.4697 51.3649 47.8899 51.4081 48.2983 51.5083C49.0602 51.6875 49.5123 52.1984 49.5383 52.8231C49.5659 53.4875 49.1023 54.0678 48.2974 54.262C47.8123 54.3689 47.3176 54.4261 46.8209 54.4328C45.9802 54.4592 45.1381 54.4402 44.2965 54.4402V54.5043Z" fill="#8F4949"/>
<path d="M44.5686 44.3296C45.639 44.3296 46.7095 44.3137 47.7794 44.3341C48.9475 44.3565 49.6742 44.9275 49.643 45.7561C49.6125 46.5627 48.8256 47.1542 47.6995 47.1273C45.5605 47.076 43.4227 46.9835 41.2847 46.9015C41.0556 46.8943 40.828 46.8614 40.6062 46.8033C39.8273 46.5938 39.4428 46.0913 39.5206 45.4141C39.5936 44.7785 40.0108 44.3789 40.7852 44.3335C41.6235 44.2842 42.4657 44.3133 43.3071 44.3097C43.7274 44.3079 44.148 44.3097 44.5686 44.3097V44.3296Z" fill="#8F4949"/>
<path d="M44.9514 56.0784C45.6012 56.0784 46.2526 56.0528 46.9009 56.0882C47.2784 56.1156 47.6509 56.1909 48.0093 56.3123C48.4662 56.46 48.7416 56.8516 48.5979 57.2861C48.4837 57.6314 48.1328 57.9101 47.852 58.1824C47.7179 58.2588 47.5617 58.2865 47.4095 58.2615C45.7698 58.1882 44.1298 58.1149 42.4912 58.0208C41.9102 57.9874 41.5905 57.6175 41.5367 57.0596C41.4849 56.524 41.8867 56.1328 42.5482 56.0374C42.7756 56.0136 43.0046 56.0082 43.2329 56.0212C43.5385 56.0264 43.8437 56.0472 44.1493 56.0539C44.4169 56.0598 44.6844 56.0551 44.9519 56.0551L44.9514 56.0784Z" fill="#8F4949"/>
<path d="M44.0926 48.3308C45.3608 48.323 45.9936 48.6864 46.0393 49.3109C46.0841 49.9289 45.5039 50.4563 44.5048 50.5484C43.9372 50.576 43.3685 50.5231 42.8156 50.3915C42.3587 50.3019 42.0215 49.9304 42.1479 49.4771C42.2655 49.0958 42.525 48.7742 42.8728 48.5786C43.3025 48.3716 43.8349 48.3765 44.0926 48.3308Z" fill="#8F4949"/>
</g>
<defs>
<clipPath id="clip0_339_5086">
<rect width="36.2988" height="54" fill="white" transform="translate(27.25 18)"/>
</clipPath>
</defs>
</svg>
