<svg width="91" height="90" viewBox="0 0 91 90" fill="none" xmlns="http://www.w3.org/2000/svg">
<circle cx="45.5" cy="45" r="45" fill="white"/>
<path d="M63.7415 36.9568C63.3869 37.5766 63.1528 38.154 62.7759 38.614C61.549 40.112 60.2666 41.5639 59.0122 43.0393C51.2581 52.1566 42.6978 60.4972 34.1908 68.8884C33.5173 69.5533 32.8083 70.1876 32.0739 70.7842C31.6585 71.1191 31.1987 71.3946 30.7076 71.6026C30.3302 71.7796 29.9051 71.8273 29.4979 71.7386C29.0907 71.6499 28.724 71.4293 28.4541 71.1111C25.9414 68.4974 23.4317 65.8813 20.9248 63.2628C20.065 62.3595 19.9741 61.7845 20.7304 60.7455C21.8913 59.1506 23.0472 57.5253 24.408 56.1083C28.374 51.9782 32.3672 47.8687 36.4876 43.8946C40.9651 39.5763 45.5916 35.4133 50.1672 31.1979C51.1362 30.3059 52.1494 29.459 53.1741 28.6297C54.069 27.9048 54.3685 27.9728 55.3476 28.622C58.1943 30.5099 60.4627 33.0185 62.7638 35.4907C63.1379 35.8942 63.3864 36.4176 63.7415 36.9568ZM29.9676 68.2506L53.4751 43.7873L47.8786 37.6726C39.5958 45.6238 31.0458 53.266 23.4371 61.9485L29.9676 68.2506ZM55.8631 41.1158L59.8134 36.8903C58.1385 34.8365 56.233 32.9828 54.1349 31.3657L50.0125 35.5015C52.0541 37.4607 53.9706 39.3 55.8631 41.1158Z" fill="#8F4949"/>
<path d="M41.227 59.7103L31.7305 50.2137L38.0615 44.0689L47.1856 53.193L41.227 59.7103Z" fill="#8F4949"/>
<path d="M48.1617 44.2756L46.9781 43.106C46.7517 42.8824 46.7544 42.5161 46.9841 42.2958C47.2052 42.0838 47.5549 42.0864 47.7728 42.3017L48.9564 43.4713C49.1734 43.6856 49.1812 44.0335 48.974 44.2574C48.757 44.4919 48.389 44.5002 48.1617 44.2756Z" stroke="#8F4949" stroke-width="2.25"/>
</svg>
