<svg width="91" height="90" viewBox="0 0 91 90" fill="none" xmlns="http://www.w3.org/2000/svg">
<circle cx="45.5" cy="45" r="45" fill="white"/>
<g clip-path="url(#clip0_1789_4326)">
<path d="M45.9484 68.76C44.0425 70.7007 41.571 71.1568 39.1099 71.6032C36.9649 72.0317 34.7529 71.9942 32.6236 71.4938C28.4786 70.4632 23.808 66.7599 23.2675 60.59C22.9662 57.1558 22.7377 53.7264 22.7767 50.2688C22.8184 46.5484 22.5514 42.8254 22.4972 39.1021C22.4643 36.8453 22.3532 34.553 22.6784 32.3348C23.2281 28.5851 23.8198 24.775 26.6505 21.8593C28.9809 19.4589 31.7217 17.9237 35.1614 18.0419C36.0687 18.084 36.9625 18.2774 37.806 18.6141C40.0415 19.4844 41.9487 21.0323 43.2605 23.0407C45.5183 26.4342 46.8064 30.1954 47.3334 34.2162C47.5955 36.2135 47.7457 38.2256 47.958 40.3455C48.3253 40.2475 48.6904 40.1571 49.0512 40.0526C53.3274 38.8122 57.5633 38.8279 61.7618 40.4164C62.8646 40.8135 63.8734 41.4339 64.7251 42.239C65.5768 43.0439 66.2533 44.0162 66.712 45.0945C68.6124 49.3397 69.2614 53.7248 68.2604 58.3048C67.5744 61.441 66.0163 64.0279 63.4254 65.9677C59.9567 68.5648 56.0826 69.9911 51.7283 69.9816C49.7669 69.9786 47.8836 69.5093 45.9484 68.76ZM25.3962 44.1209C27.4939 44.1209 29.4335 44.1504 31.3719 44.1147C34.9373 44.0488 38.502 43.9499 42.0665 43.8468C42.3283 43.8317 42.58 43.7408 42.791 43.5851C43.3983 43.141 43.9779 42.6601 44.5266 42.1454C44.7635 41.9141 44.9094 41.6052 44.938 41.2754C44.9611 39.8489 44.9554 38.4196 44.8928 36.9943C44.7118 32.8755 43.9711 28.892 41.9692 25.219C41.1287 23.6368 39.8968 22.2963 38.391 21.3255C36.3967 20.0418 34.3009 19.8473 32.1541 20.7735C29.6152 21.869 27.6661 23.6936 26.6431 26.2566C25.504 29.0568 24.9244 32.053 24.9372 35.076C24.9626 37.7296 25.1457 40.3817 25.2685 43.034C25.285 43.3837 25.3492 43.7316 25.3962 44.1209ZM43.2246 67.3069C42.5806 66.7678 42.0818 66.3775 41.6136 65.9531C39.8743 64.43 38.6208 62.4297 38.0086 60.2004C36.8199 55.7852 37.6505 51.6577 39.7544 47.7055C39.954 47.331 40.1547 46.957 40.3674 46.559C38.369 46.2577 26.5657 46.4353 25.4885 46.7838C25.4885 47.3948 25.4665 48.0238 25.4927 48.6507C25.5671 50.431 25.6275 52.2133 25.7559 53.9899C25.927 56.356 26.101 58.7243 26.3745 61.0799C26.8216 64.929 30.4189 68.1908 33.8112 68.7952C36.7061 69.3109 39.4787 68.8068 42.2067 67.8774C42.5615 67.7161 42.902 67.5254 43.2246 67.3069ZM63.2298 45.7782C62.58 44.6602 61.5653 43.7999 60.356 43.342C58.8885 42.7547 57.3992 42.2064 55.8844 41.7581C54.9495 41.4821 53.9207 41.198 52.9844 41.3157C50.6511 41.5699 48.4076 42.3579 46.4279 43.6189C43.2347 45.712 41.5438 48.8398 40.5125 52.3859C39.7521 55.0009 39.7459 57.6249 40.6801 60.2125C40.8468 60.6737 41.0815 61.1103 41.2878 61.565C48.355 55.8069 56.0606 51.1986 63.2298 45.7782ZM42.7996 63.5897C45.0606 65.7819 47.5427 67.003 50.4351 67.2918C54.6364 67.711 58.3149 66.3247 61.6126 63.8154C63.3756 62.4916 64.603 60.5777 65.0707 58.4233C65.5752 56.1743 65.6366 53.8486 65.2517 51.5759C65.0985 50.6257 64.8171 49.6975 64.5506 48.5767L42.7996 63.5897Z" fill="#5F4086"/>
</g>
<defs>
<clipPath id="clip0_1789_4326">
<rect width="46.5837" height="54" fill="white" transform="translate(22.25 18)"/>
</clipPath>
</defs>
</svg>
