<svg width="117" height="117" viewBox="0 0 117 117" fill="none" xmlns="http://www.w3.org/2000/svg">
<path d="M70.1457 43.197C58.128 32.3172 36.544 44.1571 39.0822 60.2667C40.6139 69.9872 51.3224 73.033 55.6599 81.0041L74.6069 73.6174C74.2896 71.1575 74.3833 68.0483 74.5291 66.1028C74.8327 62.0609 76.2723 58.935 75.6671 54.7937C75.0911 50.8532 73.004 45.7849 70.1457 43.197Z" stroke="#9B7E62" stroke-width="6" stroke-miterlimit="1.5" stroke-linecap="round" strokeLinejoin="round"/>
<path fill-rule="evenodd" clip-rule="evenodd" d="M59.7687 92.5701C58.7543 89.9841 57.6183 87.4457 56.6545 84.8409C56.2729 83.8094 55.6093 82.6245 56.2168 81.5624C57.104 80.0122 58.9706 79.109 60.5624 78.4438C63.5459 77.1977 66.5907 76.0399 69.6079 74.8707C70.9818 74.3378 72.938 73.3005 74.4414 73.5003C75.872 73.6893 76.859 75.34 77.4567 76.4817C78.6022 78.6695 81.2691 83.5124 80.0178 86.0396C79.2298 87.6314 77.4134 88.6083 75.9227 89.4116C71.9681 91.5422 60.997 95.7024 59.7687 92.5701Z" stroke="#9B7E62" stroke-width="6" stroke-miterlimit="1.5" stroke-linecap="round" strokeLinejoin="round"/>
<path d="M71.9878 91.1994C72.5708 92.5947 73.1394 94.0041 73.5768 95.4535" stroke="#9B7E62" stroke-width="6" stroke-miterlimit="1.5" stroke-linecap="round" strokeLinejoin="round"/>
<path d="M30.7541 82.5032C31.9278 81.147 33.221 79.9037 34.4238 78.5753" stroke="#9B7E62" stroke-width="6" stroke-miterlimit="1.5" stroke-linecap="round" strokeLinejoin="round"/>
<path d="M18.936 52.1899C20.9941 52.5943 23.0235 53.1368 25.0818 53.5307" stroke="#9B7E62" stroke-width="6" stroke-miterlimit="1.5" stroke-linecap="round" strokeLinejoin="round"/>
<path d="M46.6566 27.0791C45.7897 25.027 44.9995 22.9622 44.2573 20.8624" stroke="#9B7E62" stroke-width="6" stroke-miterlimit="1.5" stroke-linecap="round" strokeLinejoin="round"/>
<path d="M77.7043 31.2555C79.2408 29.0773 80.8714 26.958 82.4647 24.821" stroke="#9B7E62" stroke-width="6" stroke-miterlimit="1.5" stroke-linecap="round" strokeLinejoin="round"/>
<path d="M85.1125 60.9353C87.2674 61.7438 89.4225 62.5332 91.5479 63.4174" stroke="#9B7E62" stroke-width="6" stroke-miterlimit="1.5" stroke-linecap="round" strokeLinejoin="round"/>
</svg>
