<svg xmlns="http://www.w3.org/2000/svg" width="120" height="121" viewBox="0 0 120 121" fill="none">
  <path fill-rule="evenodd" clip-rule="evenodd" d="M59.5877 12.8818C55.7777 13.9018 50.0177 17.3217 44.7677 21.6717C6.81767 53.2017 10.8376 99.042 52.3277 107.502C85.1777 114.192 117.698 54.8517 92.2277 34.6917C76.3277 22.0918 51.4577 36.2517 46.8377 60.4917C42.9077 81.1917 63.2777 96.282 76.8377 82.752C90.8177 68.802 90.6677 49.3017 76.5377 49.1817C65.5577 49.0917 59.0777 66.0717 68.7077 69.6717C74.4077 71.8017 81.1277 65.1717 76.6577 61.8417C75.1877 60.7317 74.1977 60.9717 73.6877 62.4717C72.6977 65.5917 69.3977 67.8117 68.8577 65.7417C67.2677 59.8617 76.6277 49.2717 80.3177 52.7817C85.5677 57.7617 81.1277 72.0417 71.5577 80.8917C57.3977 94.0017 45.1577 72.402 55.2977 52.152C66.9677 28.8419 91.5077 26.1418 95.9777 47.6817C100.808 70.8717 76.3877 105.102 55.6877 103.992C29.1676 102.582 15.5776 75.492 29.2576 48.552C36.3977 34.452 51.7277 19.2418 63.0977 14.9818C67.6577 13.2718 64.7177 11.5318 59.5877 12.8818Z" fill="#5F4086"/>
</svg>