<svg xmlns="http://www.w3.org/2000/svg" width="93" height="91" viewBox="0 0 93 91" fill="none">
  <path fill-rule="evenodd" clip-rule="evenodd" d="M46.3074 9.97371C43.3785 10.7387 38.9505 13.3037 34.9146 16.5662C5.74048 40.2137 8.83079 74.5939 40.7263 80.9389C65.9798 85.9564 90.9795 41.4512 71.3994 26.3312C59.1763 16.8813 40.0575 27.5012 36.5059 45.6812C33.4847 61.2062 49.1441 72.5239 59.5684 62.3764C70.3155 51.9139 70.2002 37.2887 59.3378 37.1987C50.8969 37.1312 45.9154 49.8662 53.3184 52.5662C57.7003 54.1637 62.8663 49.1912 59.43 46.6937C58.2999 45.8612 57.5389 46.0412 57.1468 47.1662C56.3858 49.5062 53.8489 51.1712 53.4338 49.6187C52.2114 45.2087 59.4069 37.2662 62.2436 39.8987C66.2796 43.6337 62.8663 54.3437 55.5094 60.9812C44.6239 70.8137 35.2144 54.6139 43.0095 39.4264C51.9808 21.9438 70.8459 19.9187 74.2823 36.0737C77.9953 53.4662 59.2224 79.1387 43.3093 78.3062C22.922 77.2487 12.4747 56.9314 22.9912 36.7264C28.4801 26.1514 40.2651 14.7437 49.0058 11.5487C52.5113 10.2662 50.2511 8.96121 46.3074 9.97371Z" fill="#5F4086"/>
</svg>