<svg xmlns="http://www.w3.org/2000/svg" width="23" height="22" viewBox="0 0 23 22" fill="none">
  <g clip-path="url(#clip0_542_1550)">
    <path d="M17.4663 0H5.53383C2.84972 0 0.673828 2.1759 0.673828 4.86V16.7925C0.673828 19.4766 2.84972 21.6525 5.53383 21.6525H17.4663C20.1504 21.6525 22.3263 19.4766 22.3263 16.7925V4.86C22.3263 2.1759 20.1504 0 17.4663 0Z" fill="currentColor"/>
    <path d="M6.67363 8.99996H8.92363V16.26H6.67363V8.99996ZM7.82113 5.39246C8.07892 5.39246 8.33093 5.46881 8.54537 5.61188C8.75981 5.75494 8.92707 5.95832 9.02606 6.19634C9.12505 6.43436 9.15133 6.69636 9.10158 6.9493C9.05183 7.20224 8.92829 7.43478 8.74653 7.61758C8.56477 7.80039 8.33294 7.92526 8.08029 7.97646C7.82764 8.02766 7.56549 8.00288 7.32691 7.90526C7.08832 7.80763 6.884 7.64154 6.7397 7.42792C6.59541 7.2143 6.51762 6.96274 6.51613 6.70496C6.51515 6.53295 6.54817 6.36245 6.61331 6.20325C6.67845 6.04405 6.77442 5.89931 6.8957 5.77733C7.01698 5.65535 7.16117 5.55856 7.31999 5.49251C7.47881 5.42645 7.64913 5.39245 7.82113 5.39246Z" fill="#EEE0FF"/>
    <path d="M10.3639 8.99993H12.5314V9.98993C12.7484 9.61965 13.0619 9.31524 13.4383 9.10918C13.8148 8.90312 14.2401 8.80314 14.6689 8.81993C16.9189 8.81993 17.3764 10.3199 17.3764 12.2774V16.2599H15.1264V12.7499C15.1264 11.9099 15.1264 10.8224 13.9564 10.8224C12.7864 10.8224 12.6064 11.7374 12.6064 12.6824V16.2749H10.3564L10.3639 8.99993Z" fill="#EEE0FF"/>
  </g>
  <defs>
    <clipPath id="clip0_542_1550">
      <rect width="21.6525" height="21.6525" fill="white" transform="translate(0.673828)"/>
    </clipPath>
  </defs>
</svg>