<svg width="90" height="90" viewBox="0 0 90 90" fill="none" xmlns="http://www.w3.org/2000/svg">
<circle cx="45" cy="45" r="45" fill="white"/>
<g clip-path="url(#clip0_47_3061)">
<path d="M30.9125 28.5276C34.7697 28.6096 37.6091 30.3118 39.3452 33.777C40.2691 35.6208 41.1222 37.5005 42.0485 39.3431C42.4247 40.0858 42.8582 40.7979 43.3452 41.4727C44.0822 42.4994 43.6158 43.9992 42.3931 44.2731C41.6541 44.4262 40.9066 44.5349 40.1546 44.5986C38.4722 44.7668 36.7871 44.9078 35.103 45.0598C35.0517 45.0699 34.9994 45.0736 34.9472 45.0708C33.9493 44.9038 33.0862 45.3163 32.1797 45.6421C30.7972 46.1241 29.3236 46.2855 27.87 46.1137C26.1005 45.9322 24.448 45.4714 22.9252 44.5365C22.701 44.3988 22.3824 44.4057 22.1045 44.3673C20.6584 44.1685 19.2581 44.542 17.8405 44.7104C17.3739 44.762 16.9043 44.781 16.4351 44.7674C15.5011 44.7472 14.8394 43.7873 15.3745 42.9321C16.629 40.9272 17.3405 38.6641 18.4002 36.5671C19.641 34.1116 21.3838 32.102 23.7103 30.624C25.3063 29.6175 27.1018 28.972 28.9722 28.7327C29.6159 28.645 30.2654 28.5949 30.9125 28.5276ZM22.0498 37.6915C21.6684 39.8968 23.1058 42.3594 25.2733 43.1559C26.623 43.6481 28.0593 43.8566 29.4929 43.7688C31.7786 43.6435 33.4723 42.4983 34.6884 40.6087C35.1237 39.9195 35.3536 39.12 35.3507 38.3042C32.8766 37.4783 30.6593 36.3936 29.5944 33.6616C27.6913 36.3422 24.9403 37.1686 22.0498 37.6915Z" fill="#5F4086"/>
<path d="M33.602 61.902C30.2364 61.902 26.8707 61.8857 23.5053 61.9073C20.7949 61.9246 18.0849 62.0014 15.3748 62.0214C14.6716 62.0182 13.9696 61.9619 13.2749 61.8532C11.6665 61.6201 11.0209 60.6662 11.554 59.1271C11.9198 58.0943 12.3978 57.1048 12.9795 56.1768C15.4285 52.2257 18.9897 49.6376 23.2675 47.9927C25.4077 47.1509 27.6722 46.6707 29.9692 46.5713C32.9102 46.4595 35.7373 46.8172 38.3598 48.2546C40.6905 49.5321 42.5715 51.3047 44.1347 53.4457C45.2536 54.9785 46.025 56.6946 46.8103 58.4022C46.9941 58.8638 47.1072 59.3506 47.1459 59.8461C47.2791 60.9207 46.7218 61.623 45.646 61.7352C44.8439 61.8191 44.0359 61.8838 43.2301 61.8882C40.0213 61.9052 36.8122 61.8951 33.6032 61.8951L33.602 61.902ZM13.2616 59.7336C13.3431 59.769 13.4267 59.7996 13.5118 59.8252C14.4423 60.0347 15.371 59.9058 16.309 59.8532C18.2072 59.7461 20.1103 59.6976 22.0119 59.6878C28.2991 59.6552 34.5866 59.6574 40.8738 59.6291C42.0191 59.624 43.1641 59.5396 44.3089 59.4844C44.3968 59.4667 44.481 59.4342 44.5583 59.3887C44.5693 59.2914 44.5942 59.2334 44.5782 59.1908C43.5093 56.3308 41.9797 53.7748 39.6291 51.7812C38.2626 50.6224 36.7552 49.6885 34.9928 49.2612C32.3438 48.6279 29.5863 48.604 26.9269 49.1913C22.1123 50.216 18.0975 52.5787 15.1089 56.5608C14.3751 57.5381 13.6909 58.5539 13.2616 59.7326V59.7336Z" fill="#5F4086"/>
</g>
<g clip-path="url(#clip1_47_3061)">
<path d="M60.8833 45.338C58.2951 45.2002 55.9893 44.7601 54.0659 43.1601C52.6675 41.9966 51.8388 40.4903 51.4981 38.7267C50.753 34.8731 52.8741 31.53 56.0607 29.8864C58.2803 28.7416 60.618 28.2988 63.1026 28.6826C65.223 29.01 66.7739 30.2056 68.0297 31.8572C68.455 32.4165 68.9542 32.9479 69.2501 33.572C69.861 34.8628 70.3806 36.1868 70.028 37.6913C69.6981 39.0983 69.2896 40.4558 68.3705 41.6056C66.7568 43.6246 64.7179 44.9068 62.1045 45.1918C61.6381 45.2425 61.174 45.303 60.8833 45.338ZM53.762 37.9112C54.0423 39.9982 55.0764 41.4931 57.01 42.2652C57.7923 42.5516 58.606 42.7443 59.4338 42.8391C62.1076 43.217 64.4026 42.5236 66.1028 40.3203C66.868 39.3735 67.2406 38.1706 67.1442 36.9584C64.9806 36.5576 63.023 35.8327 61.4369 34.2546C59.3928 36.576 56.6853 37.4248 53.7616 37.9112H53.762Z" fill="#5F4086"/>
<path d="M65.3654 60.9487C62.1042 60.9487 58.8428 60.932 55.582 60.9536C52.7671 60.9723 49.9532 61.0529 47.1378 61.0654C46.3567 61.0706 45.5771 60.9937 44.812 60.8361C43.3818 60.536 42.9205 59.7295 43.2803 58.3111C43.566 57.1854 44.1498 56.1965 44.7649 55.2296C47.2629 51.297 50.8387 48.7229 55.1437 47.0735C57.4804 46.159 59.9637 45.6737 62.4736 45.641C66.1095 45.6139 69.4859 46.4929 72.3855 48.8389C74.4482 50.4846 76.1396 52.5454 77.3497 54.887C77.707 55.5811 78.0894 56.2675 78.3783 56.9899C78.6343 57.6127 78.8175 58.2629 78.9243 58.9275C79.078 59.9619 78.5167 60.6524 77.4859 60.7767C76.7627 60.8705 76.0348 60.9227 75.3055 60.933C71.9921 60.9493 68.6788 60.9402 65.3654 60.9402V60.9487ZM76.3449 58.4842C76.3568 58.3473 76.3794 58.2902 76.3632 58.2473C75.2992 55.4311 73.7908 52.9055 71.4681 50.9314C70.1061 49.7739 68.6029 48.8497 66.8479 48.3942C64.5124 47.8087 62.079 47.722 59.7074 48.1399C53.8276 49.1081 49.1303 51.961 45.9239 57.062C45.5828 57.6048 45.3112 58.1912 44.9891 58.7906C46.0591 59.1001 47.0332 58.9768 48.0226 58.917C49.946 58.8009 51.876 58.7588 53.8039 58.7483C59.8563 58.7156 65.909 58.7194 71.9615 58.6906C73.3154 58.6842 74.6693 58.6036 76.0229 58.553C76.132 58.5387 76.2397 58.5155 76.3449 58.4837V58.4842Z" fill="#5F4086"/>
</g>
<defs>
<clipPath id="clip0_47_3061">
<rect width="36" height="33.6471" fill="white" transform="translate(11.25 28.5)"/>
</clipPath>
<clipPath id="clip1_47_3061">
<rect width="36" height="32.7059" fill="white" transform="translate(43.022 28.5)"/>
</clipPath>
</defs>
</svg>
