<svg width="90" height="90" viewBox="0 0 90 90" fill="none" xmlns="http://www.w3.org/2000/svg">
<circle cx="45" cy="45" r="45" fill="white"/>
<g clip-path="url(#clip0_47_3042)">
<path d="M43.7717 30.7297V27.8308C42.8052 27.4177 41.9162 26.8357 41.5625 25.7102C41.3563 24.9923 41.3965 24.2262 41.6768 23.5336C42.2047 22.0494 44.1041 20.9399 45.8319 21.0992C47.2248 21.2277 48.1754 22.145 48.3744 23.5524C48.7208 26.0006 48.0841 27.176 45.8767 28.0327C45.841 28.6144 45.8029 29.2366 45.7528 30.052C46.343 29.6066 46.7821 29.259 47.2382 28.935C47.8813 28.4457 48.549 27.9894 49.2386 27.568C51.4677 26.3066 53.6247 26.5478 55.7121 27.9508C56.6619 28.5892 57.6242 29.211 58.602 29.8057C60.3637 30.879 62.3379 31.559 64.3882 31.7989C64.9228 31.8685 65.4512 31.9792 65.9687 32.1302C67.8334 32.6574 68.3024 34.3254 66.9179 35.658C65.0001 37.504 62.6263 38.4467 60.0148 38.7007C57.3531 38.941 54.67 38.7522 52.0685 38.1414C50.2598 37.7328 48.4403 37.3722 46.6241 36.9979C46.2679 36.9243 45.9045 36.8853 45.5007 36.8238V45.8139C46.8778 45.2867 48.1105 44.858 48.9694 43.8105C49.2773 43.4143 49.4947 42.9557 49.6061 42.4669C49.8016 41.6558 49.5688 41.4008 48.8342 40.9761C48.2284 40.6189 47.6653 40.1941 47.1557 39.7098C46.9638 39.5387 46.8352 39.3082 46.7904 39.0553C46.7458 38.8025 46.7877 38.542 46.9094 38.3157C47.0037 38.0762 47.1798 37.8778 47.4069 37.7557C47.6339 37.6336 47.8969 37.5958 48.1493 37.6488C48.7253 37.7616 49.3844 37.9103 49.8063 38.2746C52.9414 40.9828 52.3918 44.5564 49.7353 46.5724C49.2027 46.9773 48.6163 47.3141 47.9752 47.7343C48.277 47.8346 48.5194 47.9178 48.7642 47.9959C49.9659 48.3478 51.0814 48.9439 52.0407 49.7467C53.6367 51.1391 53.806 52.9177 52.4916 54.5715C51.3278 56.0367 49.7716 56.9632 48.061 57.6559C47.5712 57.8542 47.0705 58.0255 46.4452 58.2573C46.8962 58.5785 47.254 58.8067 47.5814 59.0721C48.8072 60.0653 49.5738 61.2587 49.2013 62.9233C49.1025 63.3679 48.9092 63.7859 48.6344 64.1497C48.3598 64.5132 48.0101 64.814 47.6091 65.0314C47.1597 65.2983 46.7541 65.6383 46.2618 65.9935C46.8524 66.263 47.327 66.4362 47.7564 66.6888C48.1395 66.9148 48.4942 67.2429 48.2845 67.7589C48.0809 68.26 47.6199 68.3247 47.1737 68.1858C46.4089 67.9478 45.6637 67.6484 44.8622 67.3574C44.6093 67.9922 44.631 68.9298 43.741 68.9284C43.3293 68.9284 42.9186 68.3935 42.4024 68.0267C42.1406 68.1207 41.7108 68.3032 41.2646 68.427C40.8951 68.5295 40.4832 68.5285 40.3037 68.1134C40.128 67.7068 40.3907 67.3922 40.7093 67.1758C41.1774 66.8579 41.6723 66.5792 42.0444 66.3518C41.1303 65.8354 40.1679 65.3568 39.2739 64.7737C36.9659 63.2684 37.2919 60.8261 38.598 59.269C38.7921 59.0377 39.0067 58.8234 39.2926 58.514C37.3002 57.3968 35.5784 56.0414 35.5504 53.549C35.5234 51.131 36.8663 49.4629 38.9266 48.1849C38.6505 47.9611 38.4414 47.8141 38.259 47.6396C37.8277 47.2653 37.4242 46.8602 37.0517 46.4274C35.7818 44.7962 35.6584 43.0716 36.6817 41.2537C37.5299 39.7455 38.801 38.7503 40.3453 38.0578C41.0075 37.7609 41.5258 37.8858 41.8765 38.3759C41.9672 38.4992 42.0321 38.6395 42.0674 38.7883C42.1027 38.9372 42.1075 39.0916 42.0818 39.2424C42.056 39.3932 42.0002 39.5372 41.9174 39.666C41.8347 39.7948 41.7269 39.9057 41.6003 39.9922C41.0859 40.3718 40.5259 40.6857 39.9333 40.9267C39.5231 41.0798 39.1557 41.3286 38.8621 41.6526C38.5685 41.9766 38.3572 42.3661 38.246 42.7885C38.1549 43.0777 38.1237 43.3822 38.1542 43.6836C38.1847 43.9851 38.2763 44.2773 38.4235 44.5423C39.1563 45.8931 40.4158 46.5429 41.8122 46.8832C42.3037 47.003 42.9056 46.6735 43.5634 46.5252C43.6489 43.37 43.7331 40.2621 43.8209 37.0209C43.4435 37.0261 43.0667 37.0519 42.6921 37.0984C39.9699 37.5935 37.2495 38.0893 34.5335 38.6131C32.0687 39.0878 29.6038 39.4412 27.1017 38.9094C25.7702 38.6265 24.4915 38.211 23.4304 37.316C22.8363 36.8143 22.3773 36.209 22.6787 35.3881C22.8142 34.9785 23.0692 34.6186 23.411 34.3543C24.0864 33.9133 24.8061 33.5437 25.5585 33.2515C28.1578 32.2349 30.5543 30.8965 32.6401 29.0291C33.0919 28.6246 33.5701 28.2491 34.0425 27.8684C35.0529 27.0536 36.1891 26.8168 37.4632 27.0755C39.3766 27.4636 40.9166 28.5471 42.4446 29.6588C42.8689 29.967 43.2644 30.3182 43.7717 30.7297ZM45.4183 35.0454C47.1431 35.3068 48.7423 35.5175 50.3301 35.7969C52.9858 36.2661 55.6306 36.7474 58.353 36.6546C60.3826 36.5931 62.361 36.0036 64.0915 34.9445C64.331 34.7719 64.5584 34.5833 64.7723 34.3801C63.9499 34.2089 63.2583 34.1035 62.5888 33.9192C59.7591 33.14 57.2265 31.7716 54.8858 30.0227C53.1394 28.7179 51.8977 28.683 50.0663 29.8547C49.7809 30.0335 49.5055 30.2277 49.2412 30.4362C48.1922 31.28 47.1715 32.1603 46.0967 32.9694C45.6735 33.2877 45.4591 33.6186 45.4786 34.1377C45.4747 34.4413 45.4548 34.7445 45.4183 35.046V35.0454ZM43.9357 33.8733C43.1535 33.2922 42.5401 32.8879 41.9855 32.4148C40.6922 31.284 39.2351 30.3544 37.6634 29.6576C36.5534 29.179 35.5454 29.2461 34.6005 30.1429C31.9783 32.6317 28.9155 34.4228 25.5242 35.6696C25.1864 35.8237 24.8582 35.9977 24.5411 36.1907C25.2063 36.4809 25.6536 36.7103 26.1235 36.8751C28.219 37.6108 30.3582 37.5833 32.5036 37.158C35.1469 36.6347 37.7792 36.0662 40.4217 35.5449C41.5694 35.3183 42.7296 35.1601 43.9357 34.9626V33.8733ZM43.4701 49.6332C41.971 49.6356 39.6056 50.7533 38.7983 51.8046C37.907 52.9653 37.8958 54.4013 39.0048 55.2101C39.9595 55.9068 41.1024 56.3745 42.2114 56.8232C42.8081 57.0642 43.2311 56.6874 43.2681 56.0306C43.3526 54.5261 43.4125 53.0208 43.4654 51.5143C43.4885 50.8869 43.4701 50.259 43.4701 49.6332ZM45.5905 55.9541C46.3446 55.6722 47.0471 55.4508 47.7138 55.151C48.7956 54.6646 49.7913 54.0345 50.5571 53.1079C51.0923 52.4603 51.0897 52.0822 50.48 51.5518C49.1047 50.355 47.4451 49.9509 45.5905 49.8388V55.9541ZM42.9498 59.8098C41.707 59.6487 40.3075 60.577 40.0944 61.5657C40.0421 61.7796 40.0532 62.004 40.1263 62.2116C40.1994 62.4193 40.3313 62.6013 40.5061 62.7356C41.1647 63.2924 41.8392 63.8302 42.6184 64.4668C42.7346 62.834 42.8401 61.3511 42.9498 59.8106V59.8098ZM46.2961 24.8879C46.3054 23.5972 45.839 23.1817 44.4332 23.0895C43.7982 23.0478 43.3622 23.3706 43.1989 24.4882C43.0673 25.3872 43.8063 26.0423 44.9523 26.1146C46.0047 26.1821 46.2896 25.9229 46.2961 24.8887V24.8879ZM45.1638 60.6874C45.0952 61.3594 45.0007 62.0202 44.9666 62.6841C44.9326 63.359 44.9591 64.0369 44.9591 64.813C45.7903 64.3387 46.1582 63.695 46.4328 62.9638C46.8983 61.7272 46.5752 61.1091 45.1638 60.6882V60.6874Z" fill="#8F4949"/>
</g>
<defs>
<clipPath id="clip0_47_3042">
<rect width="45.3699" height="48" fill="white" transform="translate(22.5 21)"/>
</clipPath>
</defs>
</svg>
