<svg xmlns="http://www.w3.org/2000/svg" width="90" height="90" viewBox="0 0 90 90" fill="none">
  <circle cx="45" cy="45" r="45" fill="white"/>
  <path d="M44.7952 55.1247C41.8474 55.1399 39.4062 54.6171 37.3537 52.9374C36.6621 52.3716 36.1297 51.5739 35.6194 50.8154C35.3261 50.3794 35.3667 49.8007 35.8942 49.5052C36.3417 49.2545 36.7952 49.3961 37.1077 49.8278C38.981 52.4152 41.6872 52.9844 44.5812 52.9641C45.6783 52.9565 46.7813 52.6992 47.8678 52.4836C49.7806 52.104 51.3176 51.1258 52.3609 49.3933C52.6091 49.0002 52.8995 48.6367 53.2266 48.3097C53.6412 47.8782 54.1408 47.6015 54.7061 48.0185C55.2085 48.3892 55.1986 48.905 54.9906 49.4586C54.3913 51.1025 53.2549 52.4837 51.7742 53.3683C49.5111 54.7444 46.9937 55.0558 44.7952 55.1247Z" fill="#043D3B"/>
  <path d="M39.141 36.3001L37.8572 36.0038C34.9791 35.3401 32.4853 35.9291 30.5182 38.3702C30.3136 38.624 29.8708 38.67 29.5386 38.8125C29.4424 38.4185 29.1465 37.9017 29.2874 37.6511C29.7136 36.8962 30.2004 36.0957 30.8577 35.5793C33.5741 33.4485 36.5891 33.3357 39.7143 34.4386C40.2151 34.6155 40.6096 34.9793 40.4725 35.599C40.338 36.2108 39.865 36.3628 39.141 36.3001Z" fill="#043D3B"/>
  <path d="M37.174 38.8125C38.8046 38.8483 40.1542 39.6 41.2499 40.8875C41.4388 41.0851 41.5659 41.3381 41.6145 41.6131C41.6398 41.9728 41.6336 42.4657 41.4294 42.672C41.2616 42.8405 40.7461 42.7704 40.4561 42.6366C40.0049 42.4284 39.615 42.0752 39.1977 41.7854C36.9349 40.2138 34.9132 40.7446 33.5662 43.2053C33.3888 43.5294 32.91 43.9066 32.6106 43.8729C32.036 43.808 32.0301 43.1986 32.084 42.6975C32.2908 40.7723 34.1364 39.1082 36.3267 38.8622C36.5924 38.8319 36.8609 38.8296 37.174 38.8125Z" fill="#043D3B"/>
  <path d="M54.483 33.1966C55.8441 33.1522 57.1176 33.5297 58.3207 34.143C58.6104 34.2874 58.8823 34.4611 59.1314 34.6611C59.5259 34.9851 59.7953 35.3957 59.4994 35.8823C59.1773 36.4117 58.6294 36.3704 58.104 36.2063C57.827 36.1085 57.5636 35.9801 57.3193 35.8239C55.1682 34.5538 53.0393 34.6296 50.9218 35.8962C50.5741 36.128 50.2056 36.3312 49.8204 36.5034C49.6118 36.5845 49.2113 36.5899 49.1085 36.4707C49.031 36.3613 48.9782 36.2383 48.9535 36.1091C48.9288 35.9799 48.9327 35.8474 48.9649 35.7197C49.07 35.4624 49.2459 35.2355 49.4747 35.0622C50.8755 33.8399 52.4868 33.0958 54.483 33.1966Z" fill="#043D3B"/>
  <path d="M54.9315 38.2524C56.0053 38.2118 57.0999 38.6929 58.0238 39.6242C58.3284 39.9273 58.5913 40.2774 58.8044 40.6634C59.201 41.4005 59.1241 42.2152 58.6864 42.5706C58.2277 42.9432 57.6784 42.7339 57.0739 41.9564C55.4296 39.8412 53.6221 39.7114 51.6953 41.5705C51.6239 41.6393 51.5574 41.7141 51.4858 41.7835C51.1498 42.1134 50.7733 42.523 50.3345 42.0971C49.8585 41.6351 50.0906 41.0911 50.3984 40.6068C51.3133 39.1687 53.0572 38.221 54.9315 38.2524Z" fill="#043D3B"/>
  <path d="M23.3059 38.6049C21.2925 46.5415 23.0556 53.5429 28.55 59.4173C28.6929 59.5691 28.8388 59.7208 28.9847 59.8671C31.936 62.827 35.6121 64.6546 38.5251 65.9264C39.7751 66.474 46.1902 67.1389 47.9257 66.8797C58.2405 65.3348 65.0284 59.5002 67.3925 49.7388C67.844 47.8267 68.0688 45.8678 68.0624 43.9028C68.0733 39.2739 66.13 33.8925 62.1224 29.8621C61.7099 29.5199 61.2985 29.1655 60.9012 28.822C60.0388 28.0786 59.1476 27.3089 58.2152 26.6525C51.0925 21.6247 43.6919 21.5966 36.2199 24.2627C29.455 26.6751 25.1103 31.5014 23.3059 38.6049ZM36.2489 26.6392C42.805 23.907 49.3831 23.4248 55.7988 27.517C56.972 28.2661 60.0993 30.8011 60.5917 31.1819L60.6233 31.2053L60.6495 31.2344C63.1525 33.8964 66.0176 38.7639 65.9554 43.7675C65.9344 45.9069 65.6457 48.0353 65.0959 50.1026C63.466 56.0434 59.5699 60.3731 53.1843 63.3344C46.693 66.4517 37.3836 63.3003 34.9067 61.6604C32.1689 59.7832 29.7734 57.4479 27.8249 54.7564C24.7689 50.4172 24.0832 44.1798 25.7253 38.4779C26.4938 35.8452 27.8369 33.417 29.6571 31.3694C31.4773 29.3217 33.729 27.706 36.2489 26.6392Z" fill="#043D3B"/>
</svg>