<svg width="90" height="90" viewBox="0 0 90 90" fill="none" xmlns="http://www.w3.org/2000/svg">
<circle cx="45" cy="45" r="45" fill="white"/>
<g clip-path="url(#clip0_47_3024)">
<path d="M45.5039 66.1199C43.7745 67.845 41.5319 68.2505 39.2988 68.6472C37.3525 69.0281 35.3455 68.9948 33.4134 68.55C29.6523 67.6339 25.4143 64.3421 24.9239 58.8577C24.6506 55.8051 24.4432 52.7567 24.4786 49.6833C24.5164 46.3763 24.2741 43.0669 24.2249 39.7574C24.1951 37.7513 24.0943 35.7137 24.3894 33.742C24.8882 30.4089 25.425 27.0222 27.9935 24.4304C30.108 22.2967 32.595 20.9321 35.7161 21.0372C36.5393 21.0746 37.3504 21.2465 38.1157 21.5458C40.1441 22.3194 41.8747 23.6953 43.0649 25.4806C45.1136 28.497 46.2824 31.8403 46.7606 35.4143C46.9984 37.1897 47.1347 38.9783 47.3273 40.8626C47.6607 40.7755 47.9919 40.6952 48.3193 40.6022C52.1994 39.4997 56.0429 39.5137 59.8525 40.9256C60.8531 41.2786 61.7685 41.8301 62.5413 42.5457C63.3141 43.2612 63.928 44.1254 64.3442 45.084C66.0685 48.8574 66.6574 52.7553 65.7491 56.8265C65.1266 59.6142 63.7129 61.9136 61.362 63.6379C58.2146 65.9464 54.6993 67.2142 50.7484 67.2058C48.9687 67.2031 47.2598 66.7859 45.5039 66.1199ZM26.8555 44.2185C28.7588 44.2185 30.5188 44.2447 32.2776 44.213C35.5128 44.1544 38.7473 44.0665 41.9816 43.9748C42.2191 43.9614 42.4475 43.8807 42.6389 43.7422C43.19 43.3475 43.7159 42.92 44.2138 42.4625C44.4287 42.2569 44.5612 41.9823 44.587 41.6891C44.6081 40.4211 44.6029 39.1507 44.5461 37.8837C44.3818 34.2226 43.7098 30.6817 41.8932 27.4168C41.1306 26.0104 40.0128 24.8189 38.6465 23.9559C36.837 22.8149 34.9353 22.642 32.9874 23.4652C30.6836 24.439 28.915 26.0609 27.9868 28.3391C26.9532 30.8282 26.4274 33.4915 26.4389 36.1786C26.462 38.5374 26.6281 40.8948 26.7396 43.2523C26.7545 43.5632 26.8128 43.8724 26.8555 44.2185ZM43.0324 64.8282C42.448 64.3491 41.9954 64.0021 41.5706 63.6249C39.9925 62.271 38.855 60.493 38.2996 58.5114C37.221 54.5867 37.9746 50.9179 39.8837 47.4049C40.0647 47.0719 40.2468 46.7394 40.4399 46.3857C38.6265 46.1179 27.9166 46.2757 26.9392 46.5856C26.9392 47.1286 26.9192 47.6877 26.943 48.245C27.0105 49.8275 27.0653 51.4117 27.1818 52.991C27.337 55.0941 27.495 57.1993 27.7431 59.2932C28.1488 62.7146 31.4129 65.614 34.4909 66.1512C37.1177 66.6096 39.6334 66.1615 42.1088 65.3354C42.4307 65.192 42.7397 65.0225 43.0324 64.8282ZM61.1845 45.6917C60.5949 44.6979 59.6742 43.9332 58.5769 43.5261C57.2453 43.0041 55.894 42.5167 54.5195 42.1183C53.6712 41.8729 52.7377 41.6203 51.8881 41.725C49.7709 41.951 47.7353 42.6514 45.939 43.7723C43.0416 45.6328 41.5073 48.4131 40.5715 51.5652C39.8816 53.8896 39.8759 56.222 40.7236 58.5221C40.8748 58.9321 41.0878 59.3202 41.275 59.7244C47.6876 54.6061 54.6793 50.5098 61.1845 45.6917ZM42.6467 61.5241C44.6983 63.4727 46.9505 64.5582 49.5749 64.8148C53.3871 65.1875 56.7249 63.9552 59.7171 61.7247C61.3168 60.548 62.4305 58.8468 62.8549 56.9317C63.3127 54.9326 63.3684 52.8653 63.0191 50.8452C62.8801 50.0006 62.6248 49.1755 62.383 48.1792L42.6467 61.5241Z" fill="#9B7E62"/>
</g>
<defs>
<clipPath id="clip0_47_3024">
<rect width="42.2687" height="48" fill="white" transform="translate(24 21)"/>
</clipPath>
</defs>
</svg>
