<svg xmlns="http://www.w3.org/2000/svg" width="90" height="90" viewBox="0 0 90 90" fill="none">
  <circle cx="45" cy="45" r="45" fill="white"/>
  <path d="M64.2219 25.913L64.4097 25.8761C64.6251 25.8337 64.8283 25.7937 65.0268 25.7465C65.2422 25.7022 65.4366 25.5856 65.5789 25.4155C65.7213 25.2454 65.8032 25.0316 65.8118 24.8085C65.8202 24.5853 65.7548 24.3657 65.6257 24.185C65.4966 24.0042 65.3116 23.8728 65.1002 23.8117C64.6851 23.6861 64.2543 23.6232 63.8212 23.625C62.7338 23.6518 61.6289 23.6909 60.5597 23.7286C59.1079 23.7797 57.6068 23.8326 56.1307 23.8555C49.4546 23.9594 42.1619 24.0544 33.8355 24.1459C31.993 24.1663 30.1214 24.1192 28.4701 24.0781C27.944 24.065 27.4074 24.0214 26.8887 23.9794C26.5557 23.9524 26.2228 23.9263 25.8896 23.9059C25.1782 23.8651 24.9028 24.2604 24.7987 24.6007C24.6431 25.1094 24.8664 25.5941 25.3811 25.866C25.5331 25.9428 25.6893 26.0107 25.849 26.0693L25.9467 26.1076C25.9467 26.4493 25.9474 26.7892 25.9488 27.1271C25.9507 27.9222 25.953 28.7443 25.9451 29.5481C25.9238 31.7674 25.8754 34.0243 25.8277 36.2067C25.6943 42.3726 25.5565 48.7485 26.0196 55.0223C26.0972 56.0735 26.431 56.4436 27.3931 56.5455C28.2009 56.6395 29.0137 56.6826 29.8268 56.6749C32.1681 56.6234 34.548 56.5532 36.8495 56.4855C37.7904 56.4575 38.7315 56.43 39.6727 56.4032C39.806 56.3993 39.9395 56.4 40.1113 56.4011C40.0545 56.472 39.9992 56.5409 39.9458 56.6074C39.6997 56.9135 39.4871 57.1776 39.2897 57.4555C38.0672 59.1748 36.6815 61.1245 35.3342 63.0733C35.0967 63.4427 34.9145 63.8458 34.7935 64.2694C34.7135 64.5092 34.7136 64.7692 34.7938 65.009C34.874 65.2488 35.0298 65.455 35.2371 65.5955C35.4268 65.7382 35.657 65.8142 35.893 65.8125C36.1877 65.8084 36.4726 65.7045 36.7028 65.5175C36.9235 65.3369 37.1211 65.129 37.2913 64.8988C39.0492 62.5997 40.8034 60.2978 42.5828 57.9632L43.8579 56.29L48.6947 56.1292L49.654 57.6856C50.4439 58.9687 51.2205 60.2307 52.0001 61.4909C52.1357 61.7098 52.2705 61.929 52.4048 62.1486C52.8785 62.9212 53.3684 63.7199 53.8899 64.4801C54.1801 64.8931 54.5502 65.2417 54.9775 65.5044C55.2123 65.6634 55.4922 65.7384 55.7735 65.7175C56.0549 65.6967 56.3214 65.5813 56.531 65.3896C56.759 65.2004 56.9201 64.9411 56.9902 64.6504C57.0603 64.3599 57.0354 64.0542 56.9192 63.7793C56.7576 63.3768 56.5558 62.992 56.3168 62.6313C55.3712 61.1963 54.4215 59.7641 53.4675 58.335C52.9993 57.6317 52.5316 56.9282 52.0641 56.2246C52.0439 56.1932 52.0256 56.1604 52.0097 56.1264C52.0891 56.1175 52.1611 56.1104 52.2305 56.1086C53.0956 56.0918 53.9607 56.0762 54.826 56.0617C56.8223 56.0262 58.8866 55.9908 60.9168 55.9328C61.4253 55.9078 61.932 55.8518 62.4341 55.7651C62.6958 55.7253 62.967 55.684 63.2322 55.6531C63.918 55.5735 64.3389 55.1402 64.4829 54.3647C64.5334 54.0377 64.5532 53.7066 64.5424 53.3757V53.3351C64.54 52.0786 64.5391 50.8221 64.5398 49.5653C64.5398 46.3266 64.5388 42.9779 64.4995 39.684C64.4646 36.7359 64.3905 33.7393 64.3192 30.8415C64.2857 29.4832 64.2534 28.1249 64.2224 26.7666C64.2177 26.5477 64.2189 26.3285 64.2203 26.1002C64.221 26.0388 64.2215 25.9764 64.2219 25.913ZM28.8942 53.9388L28.8812 53.9351L28.8702 53.8667C28.8469 53.7378 28.8312 53.6075 28.8233 53.4767C28.7898 52.6082 28.7535 51.7397 28.7146 50.8712C28.6253 48.8082 28.5329 46.6751 28.5009 44.5774C28.4535 41.4809 28.4359 38.3315 28.4191 35.2859C28.4082 33.3236 28.3968 31.2943 28.3776 29.2985C28.3712 28.6204 28.3264 27.9438 28.2791 27.2274C28.2606 26.9463 28.2416 26.6587 28.2243 26.3618C37.1601 26.6622 46.2196 26.4681 54.9827 26.2788C57.1978 26.2313 59.4855 26.1822 61.7442 26.1414V53.0838C50.6258 52.9223 39.6144 53.2174 29.0158 53.9624C28.9746 53.9586 28.9339 53.9508 28.8942 53.9388Z" fill="#9B7E62"/>
  <path d="M59.5673 31.8178C59.8501 31.5054 60.0495 31.1257 60.1468 30.7144C60.1962 30.5322 60.2007 30.3407 60.1598 30.1564C60.1191 29.9721 60.0341 29.8007 59.9126 29.657C59.7909 29.5133 59.6363 29.4017 59.4621 29.3319C59.2881 29.2622 59.0997 29.2364 58.9134 29.2568C58.557 29.2978 58.2167 29.4285 57.9236 29.6369C57.5364 29.9188 57.1688 30.2271 56.8234 30.5595L56.7326 30.643C54.0885 33.0707 51.4399 35.5053 48.7874 37.9467L46.4035 40.1391L46.3977 40.1363C45.4959 39.09 44.3938 38.2659 43.3278 37.4691C42.7986 37.0736 42.2512 36.6643 41.7386 36.2349C41.0277 35.64 40.4993 35.6232 39.7191 36.1712C39.293 36.4775 38.9053 36.8346 38.5642 37.2346C37.804 38.1081 37.0407 39.0041 36.3026 39.8703C35.703 40.5741 35.1021 41.2764 34.4996 41.9772C33.9358 42.63 33.3686 43.2801 32.7981 43.9274C32.0665 44.7619 31.31 45.6249 30.5763 46.4834C30.2618 46.8372 30.0136 47.2456 29.8438 47.6888C29.8036 47.8594 29.8021 48.0369 29.8395 48.2082C29.877 48.3795 29.9523 48.54 30.06 48.6776C30.1288 48.7605 30.2151 48.8268 30.3126 48.8718C30.4101 48.9167 30.5163 48.9392 30.6235 48.9374C30.8302 48.9319 31.031 48.8677 31.203 48.7523C31.342 48.6622 31.4694 48.5552 31.5824 48.4338L32.2146 47.7655C34.4343 45.4216 36.7295 42.998 38.9796 40.607C39.3536 40.2096 39.7192 39.7911 40.1064 39.3479C40.2583 39.1741 40.4157 38.9939 40.5806 38.8062C40.8546 39.0962 41.1252 39.3833 41.3921 39.6679C42.198 40.525 42.9592 41.335 43.7491 42.1402C44.1181 42.5176 44.5366 42.8425 44.993 43.106C45.6185 43.4627 46.2161 43.4655 46.7203 43.1143C47.1242 42.8416 47.5137 42.5482 47.8874 42.2348L49.0464 41.2354C51.5622 39.066 54.1635 36.8227 56.7017 34.5924C57.7282 33.6896 58.6858 32.7245 59.5673 31.8178Z" fill="#9B7E62"/>
</svg>