<svg width="90" height="90" viewBox="0 0 90 90" fill="none" xmlns="http://www.w3.org/2000/svg">
<circle cx="45" cy="45" r="45" fill="white"/>
<g clip-path="url(#clip0_47_3050)">
<path d="M27.0339 57.3841C27.8561 57.9512 27.9638 58.3633 27.5343 59.3016C26.6359 61.2654 25.5994 63.5929 24.7247 65.973C24.4916 66.6067 24.4749 67.8448 24.9791 68.3418C25.3916 68.7488 26.0915 68.8045 26.7683 68.8583C26.9685 68.8742 27.1574 68.8893 27.3353 68.9129C27.3641 68.9169 27.3931 68.9187 27.4221 68.9187C27.6682 68.895 27.9053 68.8127 28.1136 68.6787L28.2015 68.6322C28.9432 68.246 29.6857 67.8609 30.429 67.4769C32.5503 66.3789 34.7438 65.2428 36.8797 64.0839L36.8996 64.0733C39.4698 62.6798 41.8953 61.3628 44.8739 61.9416C44.9982 61.9615 45.1243 61.9666 45.2499 61.9562C45.2897 61.9542 45.3299 61.9525 45.3692 61.952C52.4453 61.8872 57.8978 60.4083 62.5288 57.2982C69.6213 52.5343 72.8059 45.7168 71.266 38.5938C69.8403 31.9987 67.0292 27.8952 62.1516 25.2888C57.1927 22.6395 51.6046 21.1172 46.4171 21.0024C46.4151 21.0028 46.4131 21.0028 46.4114 21.0024C40.0082 21.0279 34.6588 22.0901 29.5768 24.3461C23.4163 27.0803 20.0384 31.0086 19.2505 36.3552C18.9108 38.5301 18.8703 40.7418 19.1301 42.9278C19.9831 49.5756 22.5686 54.3041 27.0339 57.3841ZM29.2027 62.7592C29.6311 61.2205 30.0353 59.7673 30.5395 58.375C31.3303 56.1929 30.1632 54.9668 29.0589 54.1424C27.3792 52.8891 25.6803 51.4462 24.6289 49.3953C21.9138 44.0987 21.5443 39.137 23.4985 34.2266C24.5584 31.5636 26.7101 29.5863 30.2699 28.0039C35.1833 25.8198 40.0737 24.7278 44.9086 24.7278C49.7223 24.7494 54.4755 25.8102 58.8479 27.8384C63.896 30.1285 66.6955 33.9055 67.6583 39.7252C68.4492 44.501 67.1349 48.4789 63.5245 52.243C60.3094 55.5948 55.9746 57.5672 49.8828 58.45C46.8125 58.8951 43.1808 59.2638 39.5258 58.6239C39.0696 58.5458 38.5593 58.8336 38.1465 59.0663C35.6723 60.4665 33.2214 61.8706 30.6269 63.3575L28.7291 64.4445C28.8948 63.8658 29.0507 63.3055 29.2027 62.7594V62.7592Z" fill="#7CA851"/>
<path d="M35.5075 44.7315H35.538C35.8827 44.7304 36.2238 44.6598 36.5411 44.5242C36.8585 44.3884 37.1458 44.1904 37.3861 43.9416C37.5926 43.727 37.7537 43.4724 37.8599 43.1935C37.966 42.9145 38.0149 42.6168 38.0036 42.3182C37.9647 41.7097 37.7039 41.1372 37.2712 40.7106C36.8386 40.284 36.2646 40.0333 35.6597 40.0068C35.3383 40.0089 35.0205 40.0753 34.7247 40.2019C34.4289 40.3285 34.161 40.5129 33.9366 40.7445C33.6919 40.98 33.4958 41.2618 33.3596 41.5738C33.2235 41.8858 33.1499 42.222 33.1431 42.5627C33.1413 42.8396 33.1944 43.114 33.2994 43.37C33.4043 43.6259 33.559 43.858 33.7542 44.0531C34.2265 44.5039 34.8569 44.7478 35.5075 44.7315Z" fill="#7CA851"/>
<path d="M45.9114 45.3453H45.9334C46.5296 45.3404 47.0997 45.0986 47.5197 44.6726C47.9614 44.2402 48.216 43.6496 48.2281 43.0293C48.2332 42.4099 47.8927 41.6776 47.3395 41.1191C46.9646 40.6953 46.4415 40.4339 45.8796 40.3892H45.8726C44.738 40.3958 43.6082 41.6486 43.5917 42.9183C43.586 43.2357 43.6431 43.5511 43.7597 43.846C43.8762 44.1411 44.0497 44.4098 44.2705 44.6365C44.4838 44.8582 44.7386 45.0349 45.0202 45.1566C45.3021 45.2782 45.6048 45.3424 45.9114 45.3453Z" fill="#7CA851"/>
<path d="M55.8152 45.0885H55.8297C56.3949 45.0666 56.9329 44.8375 57.3422 44.4444C57.7516 44.0511 58.0043 43.5209 58.0528 42.9534C58.0374 42.3925 57.8037 41.8601 57.4019 41.4713C56.8615 40.8652 56.1115 40.4898 55.3056 40.4219C55.1011 40.4179 54.8981 40.4559 54.7087 40.5334C54.5194 40.6109 54.3478 40.7263 54.2041 40.8727C53.9781 41.1067 53.8004 41.3837 53.6817 41.6875C53.5631 41.9914 53.5056 42.3159 53.5128 42.6423C53.499 43.2734 53.7331 43.8841 54.1644 44.3422C54.5954 44.8001 55.1887 45.0686 55.8152 45.0885Z" fill="#7CA851"/>
</g>
<defs>
<clipPath id="clip0_47_3050">
<rect width="52.9412" height="48" fill="white" transform="translate(18.75 21)"/>
</clipPath>
</defs>
</svg>
