<svg width="90" height="90" viewBox="0 0 90 90" fill="none" xmlns="http://www.w3.org/2000/svg">
<circle cx="45" cy="45" r="45" fill="white"/>
<g clip-path="url(#clip0_47_3016)">
<path d="M37.8675 54.6276C38.1499 55.216 38.561 55.7332 39.0701 56.1405C39.5792 56.5476 40.1734 56.8346 40.8083 56.9798C44.6067 57.9402 48.208 57.4197 51.2981 54.9266C53.867 52.8539 54.7104 49.893 54.7187 46.7036C54.7006 44.64 54.2221 42.6068 53.318 40.753C51.4005 40.996 51.1514 40.946 49.7357 40.0534C46.8196 42.0759 43.9121 44.0923 41.0133 46.1023C40.9024 46.1792 40.7883 46.2517 40.6725 46.3196C39.4481 47.0459 38.8972 46.947 37.9628 45.7863C36.8137 46.5796 35.6638 47.3835 34.5017 48.1695C34.0916 48.4638 33.6562 48.7208 33.2005 48.9375C32.455 49.2656 31.8763 49.0916 31.4699 48.3961C30.943 47.4941 30.4841 46.5527 29.9867 45.6332C29.6966 45.0965 29.798 44.6706 30.2936 44.3196C31.8314 43.2298 33.3655 42.1387 34.8958 41.0459C34.8983 41.0078 34.8941 40.9697 34.8834 40.933C33.7731 39.0043 34.0772 39.0468 35.4674 37.8351C39.0876 34.646 42.8822 31.6619 46.8338 28.8966C48.4131 27.8035 49.929 26.6179 51.475 25.4762C52.6097 24.638 52.9605 24.6618 53.9869 25.6317C54.0829 25.7223 54.1908 25.8 54.3041 25.8924C56.281 24.4504 58.2533 23.0361 60.197 21.5835C61.1622 20.8613 61.755 20.8713 62.5183 21.8153C63.0275 22.4453 63.5029 23.102 63.9428 23.7826C64.7082 24.9677 64.4848 25.7974 63.3231 26.6122C61.7497 27.715 60.2039 28.8577 58.6537 29.9935C58.3343 30.2278 58.0477 30.5071 57.6961 30.8082C57.8999 31.0847 58.0465 31.2986 58.2082 31.4995C58.9746 32.4514 58.8621 33.1511 57.844 33.864C57.1836 34.3264 56.5397 34.8121 55.907 35.2745C55.975 35.9103 56.0252 36.4755 56.101 37.0373C56.1195 37.2016 56.1806 37.3582 56.2783 37.4916C58.0918 39.7367 58.9754 42.3773 59.42 45.1696C59.873 48.0083 59.758 50.8261 58.7038 53.5498C57.2068 57.4171 54.3287 59.86 50.6154 61.4424C50.2833 61.5838 49.9445 61.7097 49.602 61.8456L50.8866 65.0074C51.229 65.0373 51.7243 65.0667 52.2166 65.1259C53.7403 65.3085 54.5631 66.6943 53.9647 68.0925C53.7114 68.6851 53.1571 68.7404 52.6011 68.7566C50.9176 68.806 49.2343 68.8968 47.5508 68.9002C44.6535 68.9057 41.7563 68.8593 38.8591 68.8273C38.6228 68.8235 38.3878 68.7903 38.1596 68.7285C37.4328 68.534 37.1911 68.0895 37.3914 67.3533C37.7588 65.9969 38.7334 65.1836 40.1449 65.0619C40.4783 65.0333 40.8131 65.0199 41.1444 64.9997L41.9915 62.9359C39.6194 62.6011 37.2653 62.2078 35.2681 60.788C33.2489 59.3525 31.9685 57.3537 31.0668 54.9673C30.2013 54.9673 29.2978 54.994 28.3968 54.9578C27.7918 54.9407 27.1898 54.8654 26.5991 54.7331C26.3304 54.6791 26.0888 54.5334 25.9156 54.3204C25.7423 54.1077 25.6482 53.841 25.6492 53.5662C25.6291 53.2927 25.7034 53.0203 25.8596 52.7951C26.0158 52.5697 26.2444 52.4052 26.5072 52.3287C26.9518 52.178 27.4168 52.0962 27.886 52.0867C31.7277 52.0678 35.5696 52.067 39.4115 52.084C39.779 52.0996 40.1425 52.1667 40.4913 52.2835C40.9107 52.4085 41.2668 52.7265 41.1852 53.1572C41.0811 53.5307 40.8575 53.8598 40.5486 54.0933C40.3069 54.2868 39.9278 54.3303 39.6004 54.3896C39.0467 54.4885 38.4842 54.5456 37.8675 54.6276ZM56.1794 32.3432C54.3224 30.8708 53.6424 28.6746 52.2081 27.04C49.3388 28.6064 36.8995 38.1294 36.0151 39.4337L39.706 44.3522L48.5608 38.1893C48.2742 36.464 47.9786 34.7188 49.7996 33.5647C51.4344 32.529 53.089 32.1719 54.7693 33.5096L56.1794 32.3432ZM54.3108 40.1442C55.6754 42.6845 56.0825 43.7733 56.1566 46.7874C56.2489 50.5448 55.1144 53.9157 52.0023 56.2199C48.4342 58.8616 44.3578 59.4001 40.0968 58.3686C38.2947 57.9329 36.9734 56.7048 35.8909 55.2194C35.7252 54.9924 35.4576 54.6663 35.2494 54.676C34.5368 54.7082 33.7843 54.6234 33.1198 54.9814C33.5864 57.2806 35.6154 59.6966 37.8746 60.5873C39.7055 61.2842 41.6543 61.6162 43.612 61.5647C46.1115 61.5188 48.5679 60.9029 50.795 59.7636C54.3633 57.9779 56.8237 55.2508 57.6003 51.2413C58.211 48.0861 57.8302 44.9881 56.7256 41.9824C56.3724 41.0211 55.9458 40.0862 55.5241 39.072L54.3108 40.1442ZM56.8714 29.1155L61.9093 24.9476L60.9059 23.2822C59.0203 24.6035 57.1891 25.8867 55.3025 27.209C55.7102 27.7291 56.0356 28.1529 56.3713 28.5683C56.5164 28.7479 56.6829 28.9109 56.871 29.1155H56.8714ZM49.8395 35.6317C50.0212 36.3787 50.0995 37.0571 50.3517 37.6637C50.9465 39.1021 52.02 39.3393 53.2351 38.3695C54.0649 37.7071 54.1928 36.9247 53.647 35.8479C53.2491 35.0629 52.5483 34.7516 51.6182 35.0051C51.0716 35.1534 50.5478 35.3782 49.8388 35.6317H49.8395ZM43.5424 63.0274L43.1648 64.6153H48.3735C48.1848 63.8055 48.0274 63.1305 47.8722 62.4648L43.5424 63.0274ZM39.2581 67.264C43.5312 67.3529 47.8052 67.4001 52.1023 66.9717C51.8463 66.7433 51.5624 66.5497 51.2751 66.546C50.5447 66.5363 49.813 66.6515 49.0826 66.6448C46.7312 66.625 44.3801 66.5721 42.0289 66.5302C41.0533 66.5132 40.0878 66.5393 39.2589 67.264H39.2581ZM35.9247 42.5774L31.674 45.4278L32.7831 46.7459C34.1663 45.7529 35.6022 45.0033 36.6648 43.7004L35.9247 42.5774Z" fill="#5F4086"/>
</g>
<defs>
<clipPath id="clip0_47_3016">
<rect width="39" height="48" fill="white" transform="translate(25.5 21)"/>
</clipPath>
</defs>
</svg>
