<svg xmlns="http://www.w3.org/2000/svg" width="70" height="64" viewBox="0 0 70 64" fill="none">
  <g clip-path="url(#clip0_2734_6192)">
    <path d="M14.728 55.4897C15.4584 55.8589 15.7034 56.3743 15.5465 57.2131C15.4151 58.0732 15.4073 58.9483 15.5236 59.8108C15.698 61.4339 16.5595 63.3079 18.0383 63.5865C19.0343 63.7822 20.0461 63.8844 21.0608 63.8922C22.4245 63.905 23.7786 63.6599 25.0528 63.1692C26.6291 62.556 27.3716 61.1644 27.0367 59.4468C26.9594 59.0456 26.8759 58.6453 26.7883 58.2212L26.7368 57.9701C27.2917 58.0222 27.8369 58.082 28.3671 58.1395C29.7686 58.3169 31.1784 58.421 32.5907 58.4517C34.01 58.4488 35.3803 58.3216 36.8388 58.1767C37.3561 58.1247 37.8884 58.0726 38.4212 58.0274C38.4109 58.1057 38.4008 58.1822 38.3908 58.2571C38.3356 58.6026 38.3057 58.9517 38.3011 59.3019C38.322 60.9607 38.7548 62.2417 39.5524 63.0027C40.1875 63.6094 41.0451 63.8946 42.0965 63.8485C44.3763 63.7502 46.2555 63.5904 48.01 63.3456C49.277 63.1692 50.0195 62.3011 50.0452 60.9641C50.0697 59.7413 50.0228 58.4977 49.9777 57.2958C49.9636 56.9204 49.9494 56.545 49.9376 56.1698C49.9247 55.7725 49.8917 55.3794 49.8603 54.9991C49.8515 54.8966 49.8427 54.7948 49.8345 54.6944C50.4513 54.4241 51.0606 54.1593 51.6624 53.8996C53.1327 53.263 54.5221 52.6618 55.9167 52.0119C59.3205 50.4264 61.7649 48.04 63.1842 44.9191C63.2512 44.7718 63.3346 44.6279 63.4228 44.4768C63.4362 44.4542 63.4485 44.431 63.4624 44.4081C63.5789 44.4237 63.6933 44.4396 63.8059 44.4562C64.1846 44.5098 64.5424 44.5603 64.9095 44.5814C65.507 44.6157 66.0972 44.6032 66.6462 44.5837C68.5432 44.5195 69.2859 43.8092 69.4843 41.8705C69.8525 38.2776 69.3297 34.704 68.823 31.248L68.799 31.0857C68.5321 29.2617 67.7914 28.6282 65.8648 28.5749C65.0445 28.5527 64.2139 28.5585 63.4101 28.5639C63.11 28.566 62.8101 28.5681 62.511 28.5686C60.5363 22.7955 57.2976 19.4173 52.3461 17.9714C52.7398 17.1288 53.0794 16.2615 53.3622 15.3747C53.8371 13.9864 54.2856 12.6747 55.186 11.5544C55.7438 10.8598 55.8154 10.1412 55.3777 9.63184C55.1793 9.44106 54.9433 9.29469 54.6852 9.20228C54.4268 9.1099 54.1521 9.07353 53.8793 9.09564C49.0632 9.54807 45.6093 11.3746 43.3234 14.6798C43.2123 14.8346 43.0938 14.9837 42.9681 15.1265L42.9475 15.1504C42.6886 15.1311 42.4392 15.1082 42.1965 15.0861C41.6135 15.0206 41.0276 14.9886 40.4413 14.9904C38.7831 15.0274 36.9725 15.1049 34.9055 15.2279C27.6444 15.6609 21.4403 17.5309 15.9389 20.9453C10.9341 24.0511 7.96286 28.2083 6.85453 33.6551C6.72829 34.2753 6.48893 34.6437 6.09346 34.8102C6.07002 34.5516 6.05201 34.2914 6.03397 34.0372C6.00378 33.2091 5.88991 32.3865 5.69413 31.5821C5.52477 30.9548 5.13726 30.41 4.6026 30.0479C4.06791 29.6858 3.42195 29.5302 2.78295 29.6098C2.17371 29.7045 1.61405 30.0045 1.19495 30.461C0.775846 30.9174 0.521868 31.5035 0.47426 32.1243C0.43973 32.8925 0.48352 33.6623 0.6049 34.4215C0.645348 34.7454 0.687329 35.0807 0.715411 35.4065C0.720443 35.4668 0.745732 35.5233 0.787053 35.5673C0.342639 36.0967 -0.160237 36.7976 0.466838 37.64C1.06351 38.4415 1.95105 38.2828 2.6647 38.1567L2.87075 38.1179C3.15669 38.0489 3.45024 38.0172 3.74415 38.0237C4.31093 38.0635 4.88651 38.139 5.49607 38.2186C5.68671 38.2446 5.88249 38.2688 6.08473 38.2945C6.08473 38.3049 6.08341 38.3154 6.0829 38.3258C6.07234 38.5261 6.0618 38.7298 6.04196 38.933C5.79585 41.1004 6.08705 43.2957 6.88931 45.3213C7.0341 45.6811 7.16598 46.0578 7.29325 46.422C7.49085 47.0233 7.72316 47.6125 7.98891 48.1865C8.44069 49.1654 8.99942 50.0903 9.6547 50.9442C10.9691 52.5663 12.5505 54.3885 14.728 55.4897ZM51.201 12.5834C50.8975 13.1961 50.6334 13.828 50.4108 14.475C49.9865 15.8078 49.6075 17.2361 49.285 18.7211C49.0644 19.7358 49.4681 20.3435 50.5188 20.5784C53.7989 21.3113 56.3188 23.2841 58.222 26.6078C58.8181 27.714 59.2937 28.8824 59.6412 30.0921C60.073 31.4772 60.543 32.104 62.1851 32.157C62.9322 32.1815 63.6866 32.1758 64.4852 32.1698C64.7854 32.1677 65.094 32.1654 65.4148 32.1646L66.0465 40.8405C65.7476 40.9087 65.4593 40.9706 65.1793 41.0325C64.3775 41.2071 63.6204 41.3707 62.8923 41.6085C62.3683 41.7786 61.7072 42.1442 61.4284 42.6598C58.9742 47.1762 54.7488 49.283 50.9395 50.7483L50.4443 50.9384C49.4821 51.3079 48.4863 51.6898 47.5179 52.0923C46.5693 52.4859 46.509 53.5063 46.4799 53.9967C46.4067 55.2306 46.3768 56.4854 46.3475 57.699C46.3366 58.1512 46.3258 58.6034 46.3127 59.0553C46.3078 59.228 46.3086 59.401 46.3098 59.6242V59.7894L42.4662 60.1948C42.417 59.8724 42.3632 59.5574 42.3117 59.2473C42.1615 58.452 42.0576 57.6483 42.0007 56.8408C41.9469 55.7567 41.6019 54.977 40.9753 54.5227C40.3055 54.0378 39.334 53.9587 38.1625 54.2935C35.8142 54.9639 33.5068 54.9793 31.3445 54.9385C30.6966 54.9262 30.0329 54.8482 29.3907 54.7725C28.9249 54.7173 28.4428 54.6609 27.9644 54.6283C27.3737 54.5828 26.7798 54.6078 26.1953 54.7033C24.7267 54.958 23.9739 55.7265 23.6751 57.2716C23.5792 57.7659 23.5251 58.2709 23.4774 58.7446C23.4475 59.0454 23.4321 59.3456 23.414 59.6932C23.4091 59.7897 23.404 59.8901 23.3981 59.9955L19.2893 60.2817C19.2517 59.8938 19.2095 59.5134 19.168 59.1385C19.0382 58.1421 18.9642 57.1392 18.9462 56.1347C18.948 55.1859 18.8094 54.1941 17.7892 53.3738L17.2379 52.9316C15.9725 51.9578 14.7636 50.9117 13.6169 49.7982C12.2187 48.4331 11.1291 46.7792 10.4226 44.9498C9.71604 43.12 9.40928 41.1579 9.52331 39.1976C9.6681 35.8082 10.3359 32.8969 11.5651 30.2974C12.5479 28.2184 14.1236 26.4098 16.3827 24.7683C21.7657 20.8547 28.1525 18.8179 35.9075 18.5411C36.8445 18.5078 37.799 18.4917 38.7223 18.4763C40.1239 18.4529 41.5728 18.4287 42.9975 18.3431C43.6709 18.3025 44.3129 17.5366 44.4935 17.3012C46.2529 15.0219 47.8762 13.63 49.7572 12.7892C50.1916 12.5951 50.6406 12.4211 51.1608 12.2194L51.4143 12.1211C51.3422 12.2808 51.2703 12.4343 51.201 12.5834Z" fill="#36B887"/>
    <path d="M28.4528 0.0907536C26.0293 0.304086 23.9882 1.74957 22.7047 4.1605C21.8383 5.7886 21.5824 7.36279 21.9444 8.83948C22.6691 11.7957 25.0017 13.3011 28.8779 13.3143C28.9766 13.3195 29.0745 13.3218 29.1721 13.3218C31.5142 13.3218 33.6188 11.8498 34.8454 9.33274C35.9514 7.06257 35.9986 5.19226 34.9892 3.61463C33.3872 1.11187 31.0683 -0.13871 28.4528 0.0907536ZM31.4313 7.6638C30.6633 9.0986 29.5928 9.92076 28.5703 9.84063H28.553C27.1041 9.83361 26.0393 9.43733 25.4732 8.69587C24.9891 8.06133 24.876 7.16952 25.146 6.11742C25.2814 5.54322 25.505 4.99386 25.8085 4.48932C26.0324 4.12424 26.3446 3.82276 26.7161 3.61335C27.0874 3.40398 27.5055 3.29356 27.9306 3.29255C28.3114 3.29414 28.6873 3.37817 29.0327 3.53892C29.6931 3.82677 30.3142 4.19857 30.8812 4.64519C32.0218 5.57891 32.1545 6.31252 31.4313 7.6638Z" fill="#36B887"/>
    <path d="M33.8593 20.7126C29.1446 21.0836 25.0682 22.1931 21.3936 24.1051C20.7227 24.4746 20.0933 24.916 19.5162 25.4218C18.8183 26.01 18.6591 26.8207 19.1197 27.4389C19.2197 27.5814 19.3528 27.6967 19.5074 27.7752C19.6619 27.8536 19.8331 27.8923 20.006 27.8884C20.3569 27.8723 20.6996 27.7755 21.0079 27.6056C23.9297 26.1461 27.2762 25.152 31.2386 24.5667C32.4039 24.3944 33.5851 24.1797 34.7488 23.929C35.6506 23.7354 36.1586 23.1643 36.1828 22.3219V22.3136C36.1882 22.1051 36.1501 21.8978 36.0705 21.7053C35.9911 21.5128 35.8721 21.3394 35.7217 21.1965C35.3138 20.8161 34.6698 20.6468 33.8593 20.7126Z" fill="#36B887"/>
    <path d="M47.1023 27.3606C47.0796 27.7059 47.1262 28.0522 47.2391 28.3787C47.3519 28.7054 47.5289 29.0059 47.7592 29.2622C47.9898 29.5182 48.2688 29.7247 48.58 29.8696C48.8913 30.0143 49.2282 30.0944 49.5706 30.1048C49.6095 30.1067 49.6479 30.1074 49.6868 30.1074C50.3533 30.1056 50.993 29.8416 51.4696 29.3712C51.7296 29.1191 51.9362 28.8165 52.0774 28.4817C52.2183 28.1469 52.2907 27.7865 52.2902 27.4228C52.283 26.0072 51.2558 24.8812 49.9519 24.8591C48.3108 24.8422 47.1613 25.8365 47.1023 27.3606Z" fill="#36B887"/>
  </g>
  <defs>
    <clipPath id="clip0_2734_6192">
      <rect width="69.8182" height="64" fill="white" transform="translate(-0.00195312 0.00146484)"/>
    </clipPath>
  </defs>
</svg>