<svg xmlns="http://www.w3.org/2000/svg" width="61" height="64" viewBox="0 0 61 64" fill="none">
  <g clip-path="url(#clip0_2734_6200)">
    <path d="M28.3623 12.9748V9.10956C27.0736 8.55874 25.8882 7.78266 25.4167 6.28207C25.1417 5.32482 25.1953 4.30334 25.5691 3.37998C26.2729 1.40097 28.8055 -0.0783734 31.1092 0.134086C32.9664 0.305364 34.2338 1.5285 34.4992 3.40495C34.9611 6.66922 34.1121 8.2364 31.1689 9.3787C31.1213 10.1543 31.0706 10.9839 31.0038 12.0711C31.7907 11.4773 32.3762 11.0138 32.9843 10.5818C33.8417 9.92939 34.732 9.32105 35.6515 8.75916C38.6235 7.07732 41.4996 7.3989 44.2828 9.26958C45.5492 10.1207 46.8322 10.9498 48.136 11.7428C50.4849 13.1738 53.1172 14.0805 55.8509 14.4003C56.5637 14.4932 57.2683 14.6408 57.9582 14.842C60.4445 15.545 61.0699 17.769 59.2238 19.5458C56.6668 22.0072 53.5017 23.2641 50.0197 23.6027C46.4708 23.9231 42.8933 23.6713 39.4247 22.857C37.0131 22.3122 34.5871 21.8314 32.1655 21.3323C31.6905 21.2342 31.206 21.1822 30.6676 21.1001V33.0869C32.5037 32.384 34.1473 31.8125 35.2925 30.4157C35.703 29.8875 35.9929 29.2761 36.1415 28.6243C36.4021 27.5428 36.0918 27.2029 35.1123 26.6366C34.3046 26.1604 33.5537 25.5939 32.8743 24.9482C32.6184 24.7201 32.4469 24.4127 32.3872 24.0756C32.3278 23.7384 32.3835 23.3911 32.5458 23.0894C32.6715 22.7701 32.9064 22.5056 33.2091 22.3428C33.5119 22.18 33.8625 22.1295 34.1991 22.2002C34.9671 22.3505 35.8459 22.5488 36.4084 23.0346C40.5885 26.6455 39.8558 31.4104 36.3138 34.0984C35.6036 34.6382 34.8217 35.0872 33.9669 35.6475C34.3693 35.7812 34.6925 35.8922 35.0189 35.9963C36.6212 36.4656 38.1086 37.2603 39.3876 38.3308C41.5156 40.1873 41.7413 42.5587 39.9888 44.7638C38.4371 46.7174 36.3621 47.9528 34.0813 48.8763C33.4282 49.1407 32.7607 49.3692 31.9269 49.6782C32.5282 50.1065 33.0053 50.4108 33.4419 50.7646C35.0763 52.0889 36.0983 53.68 35.6018 55.8995C35.47 56.4923 35.2123 57.0497 34.8459 57.5347C34.4798 58.0194 34.0134 58.4205 33.4787 58.7103C32.8796 59.0662 32.3388 59.5195 31.6823 59.9932C32.4698 60.3525 33.1026 60.5833 33.6752 60.9201C34.186 61.2215 34.6589 61.659 34.3793 62.347C34.1079 63.0151 33.4932 63.1014 32.8983 62.9162C31.8786 62.5988 30.8849 62.1996 29.8163 61.8117C29.4791 62.6581 29.508 63.9082 28.3213 63.9064C27.7724 63.9064 27.2248 63.1932 26.5365 62.704C26.1875 62.8294 25.6144 63.0728 25.0194 63.2378C24.5268 63.3744 23.9776 63.3731 23.7383 62.8197C23.5039 62.2775 23.8543 61.8581 24.2791 61.5696C24.9032 61.1457 25.5631 60.774 26.0592 60.4708C24.8404 59.7823 23.5571 59.1441 22.3652 58.3667C19.2879 56.3596 19.7226 53.1032 21.464 51.0271C21.7228 50.7187 22.009 50.433 22.3901 50.0205C19.7336 48.5309 17.4379 46.7237 17.4005 43.4004C17.3645 40.1765 19.155 37.9523 21.9022 36.2484C21.534 35.9499 21.2552 35.754 21.012 35.5213C20.437 35.0222 19.899 34.4821 19.4023 33.905C17.709 31.7301 17.5445 29.4306 18.9089 27.0067C20.0398 24.9958 21.7346 23.6688 23.7938 22.7455C24.6767 22.3497 25.3677 22.5162 25.8353 23.1696C25.9563 23.3341 26.0428 23.5211 26.0899 23.7196C26.1369 23.9181 26.1434 24.1239 26.109 24.325C26.0747 24.526 26.0002 24.7181 25.8899 24.8899C25.7796 25.0616 25.6359 25.2094 25.4671 25.3247C24.7812 25.8309 24.0345 26.2494 23.2444 26.5708C22.6975 26.7748 22.2076 27.1066 21.8162 27.5386C21.4247 27.9706 21.143 28.49 20.9946 29.0531C20.8732 29.4387 20.8315 29.8447 20.8722 30.2466C20.9129 30.6487 21.0351 31.0382 21.2313 31.3915C22.2084 33.1927 23.8877 34.059 25.7495 34.5128C26.405 34.6725 27.2074 34.2332 28.0846 34.0354C28.1985 29.8285 28.3108 25.6845 28.4278 21.363C27.9247 21.3699 27.4223 21.4044 26.9229 21.4663C23.2932 22.1265 19.666 22.7875 16.0446 23.486C12.7583 24.1189 9.47168 24.59 6.13562 23.881C4.36028 23.5038 2.65534 22.9498 1.2406 21.7564C0.448398 21.0876 -0.163643 20.2804 0.238242 19.1859C0.418907 18.6398 0.758947 18.1599 1.21465 17.8076C2.11526 17.2195 3.07485 16.7267 4.07801 16.3372C7.54374 14.9816 10.7391 13.1972 13.5202 10.7072C14.1225 10.1679 14.7601 9.66725 15.39 9.15971C16.7372 8.07328 18.2521 7.75748 19.9509 8.1024C22.5021 8.61991 24.5555 10.0646 26.5928 11.5468C27.1585 11.9578 27.6859 12.426 28.3623 12.9748ZM30.5577 18.729C32.8575 19.0776 34.9897 19.3585 37.1067 19.731C40.6477 20.3565 44.1742 20.9983 47.804 20.8745C50.5102 20.7926 53.1479 20.0066 55.4554 18.5944C55.7747 18.3643 56.0779 18.1129 56.363 17.8419C55.2665 17.6137 54.3444 17.4732 53.4517 17.2274C49.6788 16.1884 46.302 14.3639 43.181 12.0321C40.8526 10.2923 39.1969 10.2458 36.7551 11.8081C36.3745 12.0465 36.0073 12.3053 35.6549 12.5834C34.2562 13.7084 32.8954 14.8822 31.4622 15.961C30.898 16.3854 30.6121 16.8266 30.6382 17.5188C30.6329 17.9236 30.6064 18.3278 30.5577 18.7298V18.729ZM28.5809 17.1662C27.538 16.3914 26.7201 15.8524 25.9807 15.2216C24.2563 13.7138 22.3135 12.4744 20.2179 11.5453C18.7379 10.9071 17.3938 10.9966 16.134 12.1924C12.6378 15.5107 8.55403 17.8989 4.0323 19.5613C3.58191 19.7668 3.14421 19.9987 2.72147 20.2561C3.60835 20.643 4.20486 20.9488 4.83136 21.1686C7.62536 22.1496 10.4777 22.1129 13.3382 21.5458C16.8626 20.8481 20.3723 20.09 23.8956 19.395C25.4258 19.0928 26.9728 18.8819 28.5809 18.6186V17.1662ZM27.9602 38.1794C25.9613 38.1826 22.8075 39.6729 21.731 41.0746C20.5427 42.6222 20.5277 44.5369 22.0063 45.6152C23.2793 46.5443 24.8032 47.1677 26.2819 47.766C27.0775 48.0873 27.6414 47.585 27.6909 46.7092C27.8034 44.7032 27.8834 42.6961 27.9539 40.6875C27.9846 39.851 27.9602 39.0138 27.9602 38.1794ZM30.7873 46.6072C31.7928 46.2313 32.7294 45.9363 33.6184 45.5365C35.0608 44.8879 36.3884 44.0477 37.4095 42.8123C38.123 41.9489 38.1196 41.4447 37.3066 40.7376C35.4729 39.1418 33.2602 38.603 30.7873 38.4535V46.6072ZM27.2663 51.7482C25.6094 51.5334 23.7433 52.7711 23.4592 54.0894C23.3895 54.3746 23.4043 54.6738 23.5017 54.9506C23.5991 55.2275 23.775 55.4702 24.0081 55.6493C24.8863 56.3916 25.7856 57.1087 26.8245 57.9575C26.9794 55.7805 27.1201 53.8033 27.2663 51.7492V51.7482ZM31.7281 5.18562C31.7405 3.46471 31.1187 2.91079 29.2442 2.78777C28.3976 2.73217 27.8163 3.16257 27.5985 4.65267C27.4231 5.85135 28.4084 6.7248 29.9365 6.82132C31.3396 6.91129 31.7194 6.56561 31.7281 5.18673V5.18562ZM30.2184 52.9183C30.1269 53.8143 30.0009 54.6953 29.9554 55.5806C29.9102 56.4805 29.9454 57.3844 29.9454 58.4191C31.0537 57.7868 31.5443 56.9285 31.9104 55.9536C32.5311 54.3048 32.1003 53.4807 30.2184 52.9193V52.9183Z" fill="#8F4949"/>
  </g>
  <defs>
    <clipPath id="clip0_2734_6200">
      <rect width="60.4931" height="64" fill="white" transform="translate(0 0.00195312)"/>
    </clipPath>
  </defs>
</svg>