<svg width="61" height="60" viewBox="0 0 61 60" fill="none" xmlns="http://www.w3.org/2000/svg">
<path d="M29.7269 43.4996C25.7965 43.5199 22.5416 42.8227 19.8049 40.5832C18.8828 39.8287 18.173 38.7652 17.4925 37.7539C17.1015 37.1725 17.1556 36.4009 17.8589 36.0069C18.4557 35.6727 19.0603 35.8615 19.4769 36.437C21.9747 39.8869 25.5829 40.6459 29.4416 40.6188C30.9044 40.6087 32.3751 40.2656 33.8238 39.9782C36.3741 39.472 38.4235 38.1677 39.8146 35.8577C40.1455 35.3336 40.5326 34.849 40.9688 34.4129C41.5216 33.8376 42.1877 33.4687 42.9415 34.0247C43.6113 34.5189 43.5982 35.2067 43.3207 35.9448C42.5217 38.1366 41.0066 39.9783 39.0323 41.1577C36.0148 42.9925 32.6583 43.4077 29.7269 43.4996Z" fill="#043D3B"/>
<path d="M22.188 18.4002L20.4763 18.005C16.6388 17.1202 13.3138 17.9055 10.6909 21.1602C10.4181 21.4987 9.82775 21.56 9.38486 21.75C9.25653 21.2246 8.86199 20.5355 9.04983 20.2015C9.61812 19.195 10.2672 18.1276 11.1437 17.439C14.7654 14.598 18.7855 14.4476 22.9524 15.9181C23.6201 16.154 24.1461 16.639 23.9633 17.4653C23.784 18.281 23.1533 18.4837 22.188 18.4002Z" fill="#043D3B"/>
<path d="M19.5654 21.75C21.7395 21.7978 23.5389 22.8 24.9999 24.5167C25.2517 24.7801 25.4212 25.1175 25.486 25.4841C25.5198 25.9637 25.5115 26.6209 25.2392 26.8959C25.0155 27.1207 24.3281 27.0272 23.9414 26.8488C23.3398 26.5712 22.8199 26.1002 22.2636 25.7139C19.2465 23.6184 16.5509 24.3262 14.755 27.6071C14.5184 28.0392 13.88 28.5421 13.4808 28.4972C12.7146 28.4107 12.7068 27.5981 12.7787 26.93C13.0544 24.363 15.5152 22.1442 18.4356 21.8163C18.7899 21.7759 19.1479 21.7728 19.5654 21.75Z" fill="#043D3B"/>
<path d="M42.644 14.2621C44.4588 14.2029 46.1568 14.7062 47.7609 15.524C48.1472 15.7165 48.5097 15.9481 48.8419 16.2148C49.3679 16.6468 49.727 17.1942 49.3326 17.8431C48.9031 18.5489 48.1725 18.4939 47.4719 18.2751C47.1027 18.1447 46.7515 17.9735 46.4257 17.7651C43.5576 16.0717 40.719 16.1729 37.8958 17.8616C37.4322 18.1707 36.9408 18.4416 36.4272 18.6713C36.149 18.7793 35.6151 18.7865 35.478 18.6276C35.3746 18.4818 35.3043 18.3177 35.2714 18.1455C35.2384 17.9733 35.2436 17.7965 35.2866 17.6262C35.4267 17.2832 35.6612 16.9807 35.9663 16.7496C37.8341 15.1199 39.9824 14.1277 42.644 14.2621Z" fill="#043D3B"/>
<path d="M43.242 21.0032C44.6738 20.9491 46.1333 21.5905 47.365 22.8323C47.7712 23.2364 48.1218 23.7032 48.4059 24.2179C48.9347 25.2007 48.8321 26.287 48.2485 26.7609C47.6369 27.2576 46.9045 26.9786 46.0985 25.9419C43.9061 23.1216 41.4961 22.9485 38.927 25.4274C38.8318 25.5191 38.7432 25.6188 38.6478 25.7114C38.1997 26.1512 37.6978 26.6973 37.1126 26.1295C36.478 25.5134 36.7874 24.7882 37.1979 24.1423C38.4178 22.2249 40.7429 20.9613 43.242 21.0032Z" fill="#043D3B"/>
<path d="M1.07459 21.4732C-1.60998 32.0553 0.740838 41.3906 8.06662 49.2231C8.25723 49.4254 8.45173 49.6278 8.64622 49.8228C12.5813 53.7694 17.4829 56.2061 21.3668 57.9019C23.0335 58.6319 31.587 59.5186 33.901 59.1729C47.654 57.113 56.7045 49.3336 59.8567 36.3183C60.4587 33.7689 60.7584 31.1571 60.7498 28.5371C60.7643 22.3653 58.1734 15.19 52.8299 9.8161C52.2799 9.35991 51.7314 8.88733 51.2016 8.42931C50.0517 7.43813 48.8635 6.41187 47.6203 5.53668C38.1234 -1.16704 28.2559 -1.20455 18.2933 2.35031C9.27328 5.56679 3.48038 12.0019 1.07459 21.4732ZM18.3319 5.51897C27.0734 1.87594 35.8441 1.23301 44.3983 6.68935C45.9626 7.68808 50.1324 11.0682 50.789 11.5759L50.831 11.6071L50.866 11.6458C54.2033 15.1952 58.0235 21.6852 57.9405 28.3566C57.9126 31.2093 57.5276 34.047 56.7945 36.8034C54.6214 44.7246 49.4265 50.4975 40.9124 54.4458C32.2573 58.6023 19.8448 54.4004 16.5423 52.2138C12.8919 49.711 9.69789 46.5972 7.09984 43.0086C3.02526 37.223 2.11087 28.9064 4.30039 21.3038C5.32512 17.7936 7.11586 14.556 9.54277 11.8258C11.9697 9.09562 14.972 6.94128 18.3319 5.51897Z" fill="#043D3B"/>
</svg>
