<svg width="66" height="60" viewBox="0 0 66 60" fill="none" xmlns="http://www.w3.org/2000/svg">
<path d="M65.9931 26.0231C65.8796 19.3433 63.1483 13.6424 57.8692 9.07953C53.6361 5.41657 48.4374 2.74882 42.422 1.1473C40.0941 0.529436 37.6341 8.2436e-05 35.0608 8.2436e-05C33.7073 -0.00413192 32.358 0.153255 31.0426 0.468854C25.0035 1.93785 20.5745 3.63512 16.6861 5.97839C10.8712 9.48275 7.17883 12.964 4.71401 17.2682C1.38254 23.0783 0.169409 29.0752 1.00503 35.6022C1.49855 39.4447 2.9175 43.2358 5.47193 47.533C7.48574 50.9185 10.0685 53.348 13.3691 54.9567C15.1042 55.8056 16.8111 56.6263 18.5795 57.3747C23.261 59.3565 28.0631 60.1586 34.1519 59.9743C34.5319 59.9231 34.9969 59.8672 35.5258 59.8042C36.9377 59.6363 38.8713 59.4078 40.7528 59.0697C46.0105 58.1278 50.3168 56.5308 53.9178 54.1875C55.1201 53.4192 56.2181 52.5025 57.1852 51.4594C58.9766 49.4713 60.5051 47.2666 61.7343 44.8982C64.7182 39.2341 66.111 33.0599 65.9931 26.0231ZM11.7116 12.7237C16.2516 8.62937 21.1813 5.78261 26.7811 4.02227L27.7516 3.7168L27.015 4.41159C23.5728 7.67112 21.3416 11.7328 19.7811 14.9061L19.7175 15.0391L19.5663 15.0368C17.6421 15.0182 13.4116 13.969 11.7613 13.1015L11.4663 12.9454L11.7116 12.7237ZM3.32835 29.6963C3.87356 24.2614 5.89675 19.4374 9.5138 14.9515L9.6128 14.83L18.6315 17.4765L18.5441 17.7098C17.1079 21.5375 16.094 25.5071 15.5199 29.5495L15.4914 29.7478L3.30214 29.9574L3.32835 29.6963ZM7.73135 46.7917L7.6227 46.6263C4.61014 41.9792 3.1723 37.2532 3.22905 32.1795L3.23135 31.9488H15.0027L15.2742 43.6043L7.73135 46.7917ZM18.2255 54.5701C14.8988 53.1152 11.4592 51.6112 8.98929 48.5638L8.81467 48.3492L9.05778 48.2165C11.2653 46.9875 13.5435 46.2719 15.4794 45.7332L15.7367 45.6633L15.7769 45.922C16.3412 49.4054 17.3067 52.0868 18.813 54.3577L19.252 55.0175L18.2255 54.5701ZM30.6081 57.3837L30.3981 57.4001C30.0076 57.4328 29.6213 57.4493 29.2388 57.4493C27.6555 57.4169 26.0799 57.2197 24.5382 56.8614C24.254 56.7747 24.0137 56.5848 23.8655 56.33L23.5254 55.782C22.6294 54.3341 21.7265 53.5792 20.8341 51.3403C19.945 49.1091 19.2311 46.98 18.9998 45.0264L18.9768 44.8187L19.1822 44.7734C23.0103 43.9029 26.9093 43.3706 30.8331 43.1832L31.0904 43.1691L30.6081 57.3837ZM31.1984 40.8456L18.6882 42.627L18.6551 42.3963C18.1379 38.8195 18.2186 35.1774 18.3647 32.0858L18.3741 31.8644H31.5738L31.1984 40.8456ZM31.6469 29.4744H18.7045L18.7275 29.2202C19.0604 25.695 19.9151 22.0459 21.3387 18.0637L21.4 17.8933L31.6471 18.7025L31.6469 29.4744ZM31.7225 16.3172L22.3145 15.7499L22.4491 15.4445C24.9042 9.8399 28.0229 5.83589 32.2679 2.85115L32.6762 2.56436L31.7225 16.3172ZM42.8541 4.4774C46.6998 5.60104 51.6412 7.37324 55.768 11.1485L56.0159 11.3754L55.4069 11.6831C53.4567 12.6695 51.6159 13.5998 49.3914 13.9449L49.2354 13.9706L49.1529 13.8344C48.8271 13.3073 48.5096 12.7734 48.1921 12.2394C46.6313 9.63273 45.0189 6.93505 42.632 4.87632L41.8175 4.1745L42.8541 4.4774ZM34.8435 4.96003C34.872 4.37937 34.9002 3.79422 34.9262 3.20903L34.9427 2.87094L35.2568 3.00368C39.9146 4.98322 43.2413 8.48075 46.0436 14.3447L46.1734 14.617L45.0757 14.8199C41.6123 15.4659 38.3401 16.0767 34.8515 16.1886L34.613 16.1956L34.6084 15.96C34.4991 12.2683 34.6666 8.71807 34.8437 4.95958L34.8435 4.96003ZM34.5678 18.7842L47.3652 16.8674L47.4359 17.0306C48.9565 20.4256 49.6742 24.226 49.6292 28.6482V28.8719L34.5668 29.4292L34.5678 18.7842ZM34.4237 31.7711L49.5924 31.2978L49.5853 31.5474C49.4815 34.8784 49.1051 38.1953 48.4595 41.4662L48.4193 41.669L34.0628 40.6523L34.4237 31.7711ZM40.0474 56.6681C38.4892 56.9177 36.9264 57.1273 35.2738 57.3488C34.7095 57.4257 34.1358 57.5026 33.5479 57.5821L33.2669 57.6215L33.9019 43.084L34.1193 43.077C38.1092 42.9277 42.2219 43.2333 47.4511 44.0656L47.7369 44.111L47.6354 44.377C47.529 44.6567 47.4228 44.9342 47.319 45.2117C46.4 47.6483 45.2785 49.8028 44.1224 52.0362C42.8512 54.4911 40.4727 56.6 40.047 56.6676L40.0474 56.6681ZM57.3504 46.8915C55.039 51.2983 51.0539 53.2592 47.0947 54.7235L46.4406 54.9658L46.8112 54.3806C48.5443 51.6577 49.6751 48.6891 50.8719 45.5462L51.1883 44.7141L57.4802 46.6444L57.3504 46.8915ZM62.9716 31.0738C62.5537 36.0449 61.3403 40.2091 59.1565 44.1775L59.0689 44.3384L51.9509 42.4966L53.1716 31.1485L62.9927 30.8129L62.9716 31.0738ZM63.0968 28.164L63.0706 28.3623L53.1527 28.7076L53.1242 28.4975C53.0392 27.8622 52.9634 27.2198 52.8883 26.5972C52.7231 25.189 52.5505 23.7363 52.2555 22.342C51.9628 20.9688 51.5497 19.6468 51.1104 18.2477C50.9241 17.6462 50.7281 17.0261 50.5461 16.4034L50.4873 16.2031L57.8131 13.2023L57.9215 13.2814C61.2452 15.72 63.7596 22.9555 63.0963 28.1635L63.0968 28.164Z" fill="#3E9FA5"/>
</svg>
