<svg width="55" height="57" viewBox="0 0 55 57" fill="none" xmlns="http://www.w3.org/2000/svg">
<path d="M52.6291 3.55061L52.8796 3.50146C53.1668 3.44497 53.4377 3.39156 53.7023 3.3287C53.9895 3.26962 54.2488 3.11414 54.4386 2.88734C54.6284 2.66051 54.7377 2.37549 54.7491 2.07795C54.7602 1.78042 54.673 1.48766 54.5009 1.24665C54.3288 1.00565 54.0821 0.830364 53.8003 0.748959C53.2468 0.581453 52.6724 0.497551 52.095 0.500054C50.645 0.53574 49.1718 0.587844 47.7463 0.63818C45.8106 0.706243 43.809 0.776862 41.841 0.807348C32.9395 0.945836 23.2159 1.07255 12.114 1.1945C9.65735 1.22167 7.16187 1.15897 4.9601 1.10414C4.25873 1.08665 3.54318 1.02849 2.85158 0.972477C2.40764 0.936555 1.9637 0.901685 1.51953 0.874508C0.570966 0.820152 0.203769 1.34715 0.0649376 1.80089C-0.142496 2.47915 0.155171 3.12544 0.841422 3.48796C1.04409 3.59046 1.25241 3.68095 1.46535 3.75903L1.59557 3.81015C1.59557 4.26578 1.59651 4.71887 1.59837 5.16948C1.60093 6.22964 1.60394 7.32577 1.59348 8.39752C1.56511 11.3566 1.50047 14.3657 1.43698 17.2756C1.25908 25.4969 1.07536 33.998 1.69278 42.3631C1.79626 43.7647 2.24137 44.2582 3.52411 44.3941C4.60125 44.5193 5.68498 44.5767 6.76909 44.5666C9.89083 44.4978 13.064 44.4042 16.1327 44.3139C17.3872 44.2766 18.6419 44.24 19.8969 44.2043C20.0746 44.1991 20.2527 44.2 20.4818 44.2015C20.406 44.296 20.3323 44.3879 20.2611 44.4765C19.933 44.8847 19.6495 45.2368 19.3863 45.6074C17.7563 47.8997 15.9087 50.4993 14.1123 53.0978C13.7956 53.5903 13.5527 54.1277 13.3914 54.6925C13.2847 55.0122 13.2848 55.3589 13.3917 55.6787C13.4986 55.9984 13.7064 56.2733 13.9828 56.4607C14.2358 56.6509 14.5427 56.7523 14.8574 56.75C15.2503 56.7445 15.6302 56.606 15.9371 56.3567C16.2313 56.1159 16.4948 55.8387 16.7217 55.5317C19.0656 52.4663 21.4045 49.3971 23.7771 46.2842L25.4772 44.0533L31.9263 43.8389L33.2053 45.9141C34.2585 47.6249 35.294 49.3075 36.3335 50.9878C36.5142 51.2797 36.694 51.572 36.873 51.8648C37.5046 52.895 38.1579 53.9599 38.8532 54.9735C39.2401 55.5241 39.7336 55.989 40.3034 56.3392C40.6164 56.5512 40.9896 56.6512 41.3647 56.6233C41.7398 56.5956 42.0951 56.4418 42.3747 56.1861C42.6786 55.9339 42.8935 55.5882 42.987 55.2006C43.0805 54.8133 43.0472 54.4056 42.8923 54.0391C42.6767 53.5023 42.4077 52.9893 42.0891 52.5084C40.8282 50.5951 39.562 48.6855 38.29 46.78C37.6658 45.8423 37.0421 44.9043 36.4189 43.9661C36.3919 43.9242 36.3675 43.8805 36.3463 43.8351C36.4521 43.8233 36.5482 43.8139 36.6407 43.8115C37.7942 43.7891 38.9476 43.7683 40.1013 43.7489C42.763 43.7016 45.5155 43.6544 48.2223 43.5771C48.9004 43.5438 49.576 43.4691 50.2455 43.3535C50.5943 43.3003 50.9559 43.2453 51.3097 43.2042C52.224 43.098 52.7852 42.5202 52.9773 41.4863C53.0445 41.0503 53.071 40.6088 53.0566 40.1676V40.1135C53.0533 38.4381 53.0521 36.7628 53.0531 35.087C53.0531 30.7688 53.0517 26.3039 52.9994 21.912C52.9528 17.9812 52.854 13.9857 52.7589 10.122C52.7142 8.3109 52.6712 6.49981 52.6298 4.68874C52.6236 4.39688 52.6252 4.10461 52.627 3.80022C52.628 3.71845 52.6287 3.63522 52.6291 3.55061ZM5.52566 40.9184L5.50822 40.9134L5.49357 40.8222C5.46247 40.6504 5.44157 40.4767 5.43101 40.3023C5.38636 39.1443 5.33806 37.9863 5.28613 36.8283C5.16707 34.0777 5.04382 31.2335 5.00126 28.4365C4.93801 24.3079 4.91452 20.1086 4.89219 16.0478C4.87754 13.4314 4.86243 10.7258 4.83685 8.06472C4.82824 7.16053 4.76848 6.25845 4.70546 5.30321C4.68081 4.9284 4.65546 4.54489 4.63244 4.14904C16.5468 4.54961 28.6262 4.29079 40.3103 4.03839C43.2637 3.97506 46.314 3.90962 49.3255 3.85526V39.7784C34.501 39.5631 19.8193 39.9565 5.68774 40.9498C5.63279 40.9449 5.57849 40.9345 5.52566 40.9184Z" fill="#9B7E62"/>
<path d="M46.4231 11.4238C46.8001 11.0072 47.0661 10.501 47.1958 9.95249C47.2616 9.70964 47.2677 9.45424 47.2131 9.20851C47.1588 8.96279 47.0455 8.73421 46.8834 8.54263C46.7212 8.35108 46.5151 8.20225 46.2828 8.10924C46.0508 8.01626 45.7996 7.98186 45.5511 8.00902C45.0761 8.06371 44.6223 8.23797 44.2315 8.51581C43.7152 8.8917 43.2251 9.30279 42.7646 9.74604L42.6435 9.85734C39.118 13.0942 35.5866 16.3404 32.0498 19.5957L28.8713 22.5188L28.8636 22.5151C27.6612 21.12 26.1917 20.0212 24.7705 18.9588C24.0647 18.4315 23.3349 17.8858 22.6514 17.3132C21.7036 16.5199 20.999 16.4975 19.9587 17.2282C19.3907 17.6367 18.8737 18.1128 18.419 18.6462C17.4054 19.8107 16.3875 21.0055 15.4034 22.1604C14.6041 23.0988 13.8027 24.0352 12.9995 24.9696C12.2477 25.84 11.4915 26.7068 10.7308 27.5698C9.75536 28.6825 8.74666 29.8332 7.7684 30.9779C7.34907 31.4496 7.01817 31.9941 6.79178 32.5851C6.73809 32.8126 6.73612 33.0492 6.78604 33.2776C6.83596 33.506 6.93645 33.72 7.08001 33.9035C7.17177 34.0139 7.28685 34.1024 7.41685 34.1623C7.54685 34.2223 7.68846 34.2522 7.83138 34.2499C8.10688 34.2426 8.3747 34.1569 8.60406 34.0031C8.78932 33.883 8.95919 33.7403 9.10982 33.5784L9.95274 32.6873C12.9123 29.5621 15.9726 26.3307 18.9727 23.1426C19.4715 22.6127 19.959 22.0548 20.4753 21.4638C20.6778 21.2321 20.8876 20.9919 21.1075 20.7416C21.4729 21.1282 21.8335 21.5111 22.1894 21.8905C23.264 23.0334 24.279 24.1134 25.3322 25.1869C25.8241 25.6901 26.3821 26.1233 26.9906 26.4746C27.8247 26.9503 28.6215 26.954 29.2937 26.4857C29.8322 26.1221 30.3516 25.731 30.8498 25.3131L32.3952 23.9805C35.7496 21.088 39.218 18.097 42.6023 15.1232C43.9709 13.9195 45.2477 12.6327 46.4231 11.4238Z" fill="#9B7E62"/>
</svg>
