<svg xmlns="http://www.w3.org/2000/svg" width="215" height="241" viewBox="0 0 215 241" fill="none">
  <path fill-rule="evenodd" clip-rule="evenodd" d="M105.297 2.85439C99.8007 9.41423 99.978 35.1217 105.297 53.3829C110.793 71.8214 130.827 82.2816 152.989 78.5585C169.299 75.8991 215.396 52.4965 214.687 47.1777C212.914 35.299 196.426 36.5401 168.236 50.7235C130.827 69.3393 129.409 68.2756 121.076 15.2649C117.884 -4.94651 107.602 0.194989 105.297 2.85439ZM62.9239 37.6038C66.4698 84.5865 55.8324 99.4792 16.1187 102.848C-0.19229 104.266 -3.91597 107.812 5.83516 112.776C23.7418 121.995 62.7464 114.194 74.2705 99.1245C82.7806 87.955 89.6948 28.2072 83.8442 15.6194C82.6031 12.96 58.8462 -14.5204 62.9239 37.6038ZM182.419 94.6921C137.032 119.336 124.09 142.916 133.486 184.048C141.642 219.329 152.103 218.62 153.521 182.63C155.117 143.803 157.066 140.079 189.334 117.208C209.19 103.202 213.446 98.0608 208.482 94.1604C204.049 90.2599 190.043 90.4371 182.419 94.6921ZM98.2051 178.552C93.5955 156.213 74.4475 145.575 50.8675 152.135C35.0884 156.39 16.8277 167.737 16.8277 173.233C16.8277 179.793 31.8976 181.211 43.4217 175.892C47.1448 174.12 55.3 171.106 61.6825 168.801C63.9873 167.914 66.4693 168.269 68.5968 169.51C70.7243 170.751 72.143 172.878 72.4976 175.361C73.9159 184.048 75.866 197.168 76.7524 208.337C78.88 235.286 81.8938 240.25 96.0772 240.25C105.119 239.718 106.006 216.138 98.2051 178.552Z" fill="#E6FE55"/>
</svg>