<svg width="252" height="430" viewBox="0 0 252 430" fill="none" xmlns="http://www.w3.org/2000/svg">
<path d="M124.765 223.017C120.906 223.395 120.155 223.765 119.053 225.333C117.649 227.281 112.64 229.334 109.239 229.273C99.1157 229.063 89.0311 211.86 88.4275 193.863C87.9577 180.261 93.4729 179.796 113.002 191.597C137.382 206.382 142.928 221.195 124.765 223.017ZM124.256 209.074C117.926 202.376 99.0486 192.554 99.368 196.256C99.8914 201.216 103.938 213.213 106.634 217.804C111.794 226.361 116.353 227.144 113.259 218.879C111.683 214.669 114.384 212.147 118.202 214.273C119.118 214.82 121.485 216.156 123.394 217.219C129.365 220.584 129.875 215.06 124.256 209.074Z" fill="#7CA851"/>
<path d="M57.1529 258.728C54.7172 258.396 53.567 258.648 52.7577 259.573C44.9383 268.367 32.5581 261.891 32.1659 248.971C31.3268 216.572 39.1527 213.732 64.6386 237.17C75.653 247.359 71.0268 260.646 57.1529 258.728ZM63.0641 246.737C61.3409 244.271 56.8702 241.589 51.8931 238.03C42.9327 231.428 43.8781 231.341 43.4355 238.707C42.9932 245.362 40.2913 250.018 40.5236 252.775C40.9014 256.634 45.2335 263.457 48.6976 254.426C50.454 249.858 53.4853 248.456 55.7831 251.507C61.6445 259.091 65.7026 250.461 63.0641 246.737Z" fill="#7CA851"/>
<path d="M115.822 253.743C152.732 268.282 169.275 288.491 148.966 294.316L143.909 295.765L143.069 299.457C141.516 305.994 136.242 310.191 129.187 310.343C116.92 310.579 108.77 300.918 103.004 279.343C95.673 251.686 98.2092 246.825 115.822 253.743ZM116.142 289.981C122.35 304.902 131.126 310.772 135.398 302.951C137.671 298.811 137.089 293.695 134.254 292.534C122.886 287.811 116.87 278.152 123.731 275.584C129.345 273.482 137.351 278.485 141.897 286.828C145.829 294.245 152.057 291.648 149.109 283.773C147.591 279.719 144.387 277.096 132.893 270.376C125.841 266.26 107.157 257.431 106.894 258.152C106.386 259.409 112.931 282.116 116.142 289.981Z" fill="#7CA851"/>
<path d="M103.976 145.64C101.462 146.048 101.287 146.292 101.9 147.929C103.563 152.373 97.6942 157.592 91.0587 157.676C76.9693 157.795 58.5538 140.421 55.3185 123.943C53.0935 112.775 108.745 121.099 113.065 132.638C115.195 138.329 111.021 144.514 103.976 145.64ZM64.1264 124.913C63.7362 125.77 77.3288 143.082 81.5845 147.089C88.6254 153.787 94.6462 154.911 92.4572 149.064C92.1069 148.128 90.0617 146.227 88.065 144.93C80.6526 140.327 80.945 140.395 81.5304 139.109C82.6523 136.645 89.6678 136.863 95.2981 139.555C101.786 142.638 107.165 140.624 105.327 135.712C104.042 132.282 65.3947 122.127 64.1264 124.913Z" fill="#7CA851"/>
<path d="M10.039 177.517C13.7026 177.568 29.4578 195.671 32.2793 202.971C35.665 212.015 29.4541 219.407 19.5261 218.057C18.1231 217.871 16.7884 217.392 16.6717 217.08C16.5258 216.69 14.0994 217.333 11.3218 218.461C1.86831 222.178 -1.99758 218.025 -2.11628 203.936C-2.26336 188.346 2.663 177.523 10.039 177.517ZM10.6732 210.792C11.7287 205.064 17.1468 204.102 19.0731 209.248C20.5908 213.302 25.0335 214.484 24.5777 210.654C24.1219 206.825 11.2991 189.668 9.42795 190.369C8.10252 190.865 7.06074 206.367 8.10107 210.333C9.38449 215.186 9.86192 215.274 10.6732 210.792Z" fill="#7CA851"/>
<path d="M0.39514 139.17C-1.05662 139.091 -3.02462 138.584 -3.80387 138.164C-4.96296 137.443 -6.11271 137.695 -9.00744 139.223C-22.4772 146.221 -30.4789 132.683 -22.7719 115.753C-15.7965 100.43 -9.38432 99.2739 0.284197 111.566C13.3216 128.108 13.4122 139.986 0.39514 139.17ZM-10.98 112.583C-14.2115 123.66 -17.803 134.249 -15.466 136.93C-13.6548 138.919 -11.4606 135.519 -11.3019 130.482C-11.0748 125.152 -4.63346 123.363 -3.50597 128.275C-1.75636 135.798 4.01089 137.905 2.58274 130.528C1.51403 125.062 -10.0161 113.733 -10.98 112.583Z" fill="#7CA851"/>
<path d="M31.4771 312.43C25.9139 311.579 25.9921 311.55 25.9705 315.292C26.0357 320.69 20.6158 324.497 13.5909 324.015C0.515442 323.043 -5.62197 303.562 -0.0547353 279.966C1.01961 275.475 -2.56981 265.174 14.7402 273.184C24.1988 277.554 38.9661 285.182 43.4269 288.312C58.1632 298.707 49.969 315.286 31.4771 312.43ZM43.5668 299.371C40.8512 294.254 12.9541 278.386 6.9811 278.577C5.40259 278.635 6.61808 300.403 8.572 308.471C11.4107 319.854 19.4077 324.593 19.0431 314.596C18.9275 312.15 18.3055 308.828 17.6634 307.112C15.4548 301.45 20.8252 299.173 25.5775 303.795C34.7023 312.735 48.7449 309.166 43.5668 299.371Z" fill="#7CA851"/>
</svg>
