<svg xmlns="http://www.w3.org/2000/svg" width="164" height="177" viewBox="0 0 164 177" fill="none">
  <path fill-rule="evenodd" clip-rule="evenodd" d="M82.9551 79.6411C79.5442 79.7476 75.1752 80.2067 73.2955 80.5883C56.6211 84.4305 56.4367 84.4362 55.5295 79.0202C53.3422 66.585 44.7495 51.443 38.1057 63.277C34.1312 70.4602 28.546 85.168 26.3823 89.757C20.6215 101.794 20.761 104.789 27.1505 108.465C43.0738 117.519 61.7004 134.84 72.1483 150.293C74.7135 154.135 75.2608 153.933 81.8006 147.639C95.0142 134.908 114.95 129.118 118.879 124.935C123.3 120.23 111.107 115.397 90.1482 113.513L88.0192 113.302L87.3768 110.462C86.0419 104.644 82.4494 104.848 80.6976 110.809C79.28 115.651 79.6313 118.039 84.9435 119.719C87.9726 120.686 92.6583 121.509 99.47 122.45C102.158 122.827 104.248 123.27 104.114 123.412C103.489 124.078 88.8896 133.807 88.8449 133.854L82.2006 126.449C76.6726 120.808 73.1492 123.224 78.2422 129.709C78.7708 130.385 84.1403 136.862 84.1403 136.862C84.1403 136.862 81.4021 139.3 79.3077 140.196C77.1657 141.047 75.6201 140.311 74.2965 137.815C63.7724 118.442 33.1531 101.219 33.1056 101.174C32.0685 100.468 44.2949 70.8814 45.5855 70.8411C45.7699 70.8354 46.1874 72.3909 46.5243 74.3182C50.6082 95.7834 52.2071 96.7488 73.5313 91.1006L83.5523 88.4349L82.9326 92.2375C81.1099 103.321 90.3875 106.4 91.4639 98.0155C91.791 95.1908 92.0694 90.7991 92.4068 83.8678C92.5856 80.7249 89.6847 79.4312 82.9551 79.6411Z" fill="#E6FE55"/>
</svg>