<svg width="80" height="80" viewBox="0 0 80 80" fill="none" xmlns="http://www.w3.org/2000/svg">
<circle cx="40" cy="40" r="40" fill="white"/>
<path fill-rule="evenodd" clip-rule="evenodd" d="M33.74 25.7769C33.7671 27.8946 36.2143 31.3158 37.9001 30.6837C38.6287 30.398 38.6307 30.0867 37.8573 27.8186C36.0048 22.4293 33.7101 24.0744 33.74 25.7769ZM47.4082 30.6653C46.8158 32.3013 48.8274 32.6056 50.2285 31.0997C51.6507 29.5524 53.1819 27.2378 54.0022 25.6656C54.9052 24.1563 53.1666 23.3764 51.705 24.612C49.9722 26.0534 47.8103 29.5263 47.4082 30.6653ZM18.8113 29.2045C17.5207 29.7147 21.8021 35.0999 23.5456 35.1532C25.5797 35.2086 25.7488 34.753 24.35 32.8544C22.1492 29.85 20.2893 28.6126 18.8113 29.2045ZM38.2721 37.0387C37.4988 37.8015 36.5782 38.854 36.2219 39.3499C33.1604 43.8546 33.1186 43.8959 31.7349 42.8277C28.5337 40.3978 23.2514 38.7219 24.2608 42.9222C24.8871 45.4591 26.7655 50.1013 27.2532 51.6409C28.5127 55.6976 29.1933 56.3665 31.4804 55.8423C37.1568 54.5108 45.253 54.5243 51.0358 55.8715C52.4659 56.2134 52.5501 56.0479 52.715 53.1634C53.0453 47.3322 56.4468 41.6672 56.4592 39.8404C56.4732 37.7853 52.581 39.295 47.2802 43.3901L46.7376 43.8017L45.973 43.2775C44.4025 42.208 43.608 43.033 44.4887 44.8036C45.2055 46.2409 45.8043 46.7224 47.4079 45.9652C48.3243 45.5355 49.5962 44.7137 51.3901 43.4596C52.0992 42.9662 52.6829 42.6173 52.6825 42.6795C52.6805 42.9702 51.3772 48.4003 51.3771 48.4211L48.2236 48.1298C45.7125 48.0089 45.4128 49.3355 48.005 49.7475C48.2746 49.7909 50.9294 50.1411 50.9294 50.1411C50.9294 50.1411 50.8177 51.3029 50.5226 51.9652C50.2067 52.6273 49.6866 52.7899 48.8375 52.4935C42.1889 50.2477 31.3139 52.8518 31.2931 52.8516C30.8983 52.9112 27.3511 43.3584 27.6437 43.0698C27.6855 43.0285 28.1195 43.3014 28.6152 43.6784C34.213 47.8061 34.7951 47.6855 38.5515 41.7531L40.3142 38.9625L40.9923 39.9843C42.965 42.9664 45.797 41.6778 44.2342 39.4874C43.6994 38.7572 42.8142 37.6716 41.3933 35.9804C40.755 35.208 39.7978 35.5336 38.2721 37.0387ZM65.2813 36.911C64.5311 37.3418 60.603 41.0519 60.1415 41.7545C59.1552 43.3048 61.1872 43.6716 63.0443 42.2725C65.2144 40.6473 68.2851 37.8449 68.2877 37.4712C68.3135 36.724 66.3025 36.3367 65.2813 36.911ZM13.7944 46.5047C16.8201 47.2727 18.5625 47.4714 19.2501 47.1024C20.3751 46.508 19.8591 46.0685 17.2065 45.3862C16.9579 45.3222 14.513 44.6205 12.8315 44.6091C11.6275 44.6009 8.94516 45.2469 13.7944 46.5047Z" fill="#3E9FA5"/>
</svg>
