<svg width="120" height="120" viewBox="0 0 120 120" fill="none" xmlns="http://www.w3.org/2000/svg">
<circle cx="60" cy="60" r="60" fill="#D3F3FF"/>
<path d="M68.7242 94.5748C61.5768 94.5748 54.4291 94.54 47.2821 94.5859C41.536 94.6227 35.7924 94.7887 30.047 94.8285C28.4305 94.8285 26.8163 94.7074 25.2179 94.4674C21.7748 93.9738 20.4049 91.9393 21.5515 88.6567C22.3356 86.4581 23.3603 84.3522 24.6068 82.3776C29.8884 73.9203 37.5731 68.4284 46.7829 64.8903C51.7828 62.9296 57.0968 61.8865 62.4688 61.8109C70.5003 61.7413 77.8939 63.7748 84.2077 69.0603C88.518 72.6193 92.0408 77.0319 94.5527 82.0185C95.2521 83.4123 96.0399 84.7735 96.6001 86.2217C97.1378 87.5589 97.5136 88.9553 97.72 90.381C97.9958 92.5172 96.8029 93.9334 94.6654 94.202C93.174 94.4042 91.6715 94.5166 90.1661 94.5387C83.019 94.5713 75.8713 94.554 68.7242 94.554V94.5748ZM92.2053 89.3613C92.2331 89.134 92.2308 88.9042 92.1985 88.6776C89.9219 82.7797 86.7762 77.4489 81.9161 73.2734C78.1668 70.052 73.961 67.7339 68.9652 67.1052C63.2082 66.3811 57.5039 66.5328 51.8771 68.1145C41.2317 71.1066 32.7382 76.9967 26.9219 86.4923C26.2601 87.5722 25.7348 88.7352 25.1262 89.8946C25.3111 89.9955 25.5041 90.0812 25.7031 90.1508C27.6947 90.5874 29.6807 90.3306 31.6892 90.2186C35.8633 89.9851 40.0489 89.8848 44.2302 89.8634C57.9097 89.793 71.5894 89.7982 85.2691 89.7331C87.546 89.7211 89.8194 89.4945 92.2063 89.3613H92.2053Z" fill="#3E9FA5"/>
<path d="M60.9236 25.2283C66.4304 25.0945 71.0312 27.7166 74.5243 32.4821C75.3477 33.6057 76.3412 34.6489 76.9425 35.8812C78.2864 38.6356 79.3997 41.4652 78.6853 44.68C78.0147 47.6988 77.1404 50.6057 75.1919 53.0801C71.7269 57.4755 67.3093 60.1929 61.6634 60.8685C56.5813 61.477 51.7491 60.7259 47.2374 58.3404C42.5906 55.8836 39.9467 51.908 38.9868 46.7999C37.5421 39.1104 41.5746 32.2139 47.9371 28.5472C51.7873 26.3277 55.945 25.2091 60.9236 25.2283ZM72.9898 40.8509C73.2422 38.9124 72.4645 37.3643 71.2594 35.9535C70.7893 35.403 70.3642 34.8123 69.8748 34.28C68.1033 32.3532 66.0833 30.8289 63.3964 30.4255C59.6294 29.8036 55.7622 30.3093 52.2836 31.8788C47.9355 33.8737 44.6918 36.9149 43.9445 41.9719C43.0728 47.8711 46.1244 53.1504 51.5515 54.8932C54.8036 55.9073 58.2376 56.2052 61.6164 55.7665C66.2352 55.239 71.6721 50.5024 72.4064 45.6408C72.6463 44.0507 72.7978 42.447 72.9898 40.8493V40.8509Z" fill="#3E9FA5"/>
</svg>
