<svg width="120" height="120" viewBox="0 0 120 120" fill="none" xmlns="http://www.w3.org/2000/svg">
<circle cx="60" cy="60" r="60" fill="#FFECDB"/>
<g clip-path="url(#clip0_4436_4408)">
<path d="M89.2534 87.0609C88.9849 87.6648 88.7203 88.2709 88.447 88.8727C88.13 89.6463 87.6085 90.3194 86.9382 90.8194C86.2679 91.3194 85.4743 91.6272 84.6422 91.7106C82.6252 91.9933 80.5694 91.6872 78.7225 90.8291C76.5625 89.8139 75.6552 88.2118 75.8103 85.8348C75.8955 84.4063 76.4155 83.0378 77.3 81.9127C78.1849 80.7878 79.3918 79.96 80.7603 79.5403C81.0537 79.4494 81.3346 79.3218 81.73 79.1694C81.6637 75.7642 82.1443 72.3366 81.4182 68.9588C81.1691 67.9669 80.7058 67.0421 80.0603 66.2494C79.3664 65.3618 78.3331 65.2494 77.4164 65.916C76.6243 66.4894 75.9373 67.1957 75.3861 68.0039C73.7446 70.4584 72.8834 73.2218 72.4882 76.1306C72.0561 79.3124 71.7261 82.5085 71.2358 85.6806C70.0825 93.1457 62.2788 97.07 55.53 93.603C52.2422 91.9142 50.7594 89.0178 50.6946 85.486C50.6358 82.2842 50.8985 79.0721 51.1158 75.8712C51.2731 73.5466 51.593 71.2348 51.8255 68.9139C51.8476 68.5488 51.8496 68.1827 51.8315 67.8175C48.9979 66.7988 46.2167 65.9657 43.573 64.8175C36.2946 61.653 32.2048 55.9175 30.7215 48.2389C29.9735 44.5042 30.2009 40.6397 31.3819 37.0186C33.0409 31.9625 36.543 28.635 41.5669 26.9098C42.0104 26.768 42.4674 26.6727 42.9306 26.6253C43.6554 26.5362 44.2718 26.4392 44.7736 25.7195C45.3915 24.8332 46.2773 24.9677 46.9358 25.8611C47.2253 26.3228 47.386 26.8534 47.4016 27.398C47.4172 27.9427 47.2872 28.4817 47.0246 28.9592C46.3207 30.0304 45.4916 30.0123 44.1949 28.8986C39.9222 29.4662 34.5667 34.0565 33.5991 40.0325C33.0173 43.6283 32.9964 47.2235 34.2337 50.6317C36.0286 55.5763 39.1509 59.4991 44.1673 61.5766C46.1255 62.3878 48.1806 62.9633 50.1469 63.7557C53.4391 65.0827 56.65 64.4163 59.3763 62.6842C64.8519 59.206 69.5731 54.8071 72.5558 48.9201C74.98 44.135 75.0206 39.2465 72.2991 34.4901C70.4303 31.2234 67.4809 29.4556 63.9252 28.5477C63.3191 28.3929 62.8531 28.4731 62.4403 29.0325C61.9797 29.6537 61.3152 29.9695 60.5249 29.6444C59.7833 29.3389 59.4537 28.7074 59.3297 27.9502C59.0267 26.0947 59.4421 25.2865 60.9552 25.0411C61.4073 24.9674 61.9249 25.1801 62.3891 25.3286C62.9043 25.4932 63.3815 25.8589 63.9015 25.9231C68.9246 26.5456 72.757 29.0247 75.3079 33.3598C78.6037 38.9613 78.3534 44.7256 75.7419 50.4926C74.1334 54.0444 71.6488 56.9733 68.8173 59.5948C66.6909 61.5645 64.4691 63.4336 62.2331 65.2788C60.7012 66.5506 58.7771 67.2545 56.7861 67.2709C56.2783 67.3051 55.7726 67.3651 55.2709 67.4509C55.1944 67.6103 55.1372 67.7781 55.1006 67.9515C54.8861 71.8848 54.627 75.8169 54.4946 79.7533C54.4258 81.6678 54.4918 83.5851 54.6921 85.4906C55.1306 89.5594 57.8842 91.61 61.9322 91.0254C65.4012 90.5245 67.1285 88.9869 67.7503 85.5206C68.1879 83.0778 68.3912 80.5921 68.6728 78.1233C69.1643 73.8203 69.9846 69.6266 72.4119 65.9112C73.5855 64.1142 75.0564 62.7294 77.1618 62.1333C79.0003 61.6121 80.6425 62.0584 82.1279 63.2009C84.5006 65.026 85.274 67.6142 85.5276 70.4269C85.8422 73.496 85.6379 76.5966 84.9237 79.5981C85.1373 79.7412 85.3609 79.8685 85.5931 79.9794C87.4137 80.6921 88.6097 81.9403 89.0134 83.8918C89.0412 84.0272 89.1734 84.1415 89.2558 84.2654L89.2534 87.0609ZM83.4516 88.7388C85.0234 88.563 85.6606 88.0775 86.044 86.6257C86.4052 85.2582 85.8719 83.6257 84.8228 82.8875C83.4425 81.9178 82.03 81.7663 80.95 82.5827C80.347 83.0318 79.8743 83.6336 79.5806 84.3257C79.287 85.0181 79.1831 85.776 79.2791 86.5221C79.3355 86.7878 79.4506 87.0378 79.6164 87.2536C79.7819 87.4691 79.9937 87.6448 80.2361 87.7681C81.2597 88.203 82.374 88.4275 83.4516 88.7375V88.7388Z" fill="#9B7E62"/>
<path d="M84.6609 85.3433C84.6537 85.7872 84.4749 86.2108 84.1618 86.5254C83.8491 86.8402 83.4264 87.0214 82.9828 87.0311C82.4882 87.033 82.0125 86.8418 81.657 86.4984C81.3012 86.1548 81.0937 85.686 81.0785 85.1917C81.0737 84.9711 81.114 84.7514 81.1964 84.5466C81.2788 84.3418 81.4021 84.156 81.5588 84.0002C81.7152 83.8442 81.9018 83.7218 82.107 83.6402C82.3125 83.5584 82.5318 83.5193 82.7528 83.5251C82.9988 83.5139 83.2443 83.5527 83.4752 83.6387C83.7058 83.7251 83.9167 83.8572 84.0949 84.0269C84.2731 84.1969 84.4152 84.4011 84.5125 84.6272C84.6097 84.8536 84.66 85.0972 84.6609 85.3433Z" fill="white"/>
</g>
<defs>
<clipPath id="clip0_4436_4408">
<rect width="59.3939" height="70" fill="white" transform="translate(30 25)"/>
</clipPath>
</defs>
</svg>
