<svg xmlns="http://www.w3.org/2000/svg" width="46" height="54" viewBox="0 0 46 54" fill="none">
  <path d="M34.4249 25.4458C35.1916 24.6853 35.8148 23.9803 36.528 23.3822C37.3918 22.6443 38.3053 21.9668 39.2621 21.3544C40.4939 20.5822 41.4891 20.97 41.85 22.3984C42.3513 24.3806 42.7528 26.3889 43.1488 28.3958C43.8897 32.1617 44.0716 35.9239 42.8259 39.6314C40.5825 46.3092 36.0426 50.5485 29.1949 52.2086C26.6181 52.836 24.0099 53.3269 21.3813 53.6792C8.18366 55.4304 0.920545 45.0763 0.111912 36.969C-0.494392 30.8948 1.40791 25.55 4.72606 20.7084C6.9011 17.5347 9.63209 14.7431 12.0942 11.764C13.5898 9.95445 15.1123 8.16152 16.5008 6.27152C17.5917 4.7864 18.0891 3.02034 18.4036 1.2037C18.4756 0.781473 18.7044 0.401992 19.044 0.141034C19.2035 0.0398697 19.7048 0.442465 20.0324 0.647073C20.5781 0.987478 21.1072 1.35476 21.6463 1.70588C27.7389 5.67317 31.4053 11.3421 33.1526 18.3012C33.6678 20.3519 33.9141 22.4708 34.2825 24.5584C34.3254 24.8031 34.3611 25.0501 34.4249 25.4458ZM20.0794 2.93056C19.5073 6.12249 17.9773 8.6778 16.0576 11.0192C14.2059 13.2787 12.307 15.4994 10.4195 17.7293C7.42675 21.2648 5.06738 25.128 3.68229 29.6043C0.603832 39.5533 7.10001 51.9931 20.1931 51.1473C23.7361 50.9195 27.265 50.8928 30.5909 49.2298C35.9385 46.556 39.557 42.5944 40.8179 36.6578C41.7316 32.3562 40.4497 28.273 39.6413 23.9667C37.44 25.6983 35.7829 27.6122 34.8198 30.0807C34.627 30.5745 34.4607 31.0817 34.229 31.5567C33.936 32.1569 33.4379 32.5 32.7512 32.3597C31.9938 32.2045 31.7151 31.6392 31.7411 30.9213C31.7684 30.1632 31.8498 29.4074 31.8913 28.6498C32.2576 21.9497 30.8024 15.6905 27.2589 9.96879C25.4828 7.06649 23.0164 4.64859 20.0794 2.93056Z" fill="#3E9FA5"/>
  <path d="M42.5994 2.71233C42.869 3.52188 43.1319 4.3337 43.4097 5.14051C43.9861 6.81474 44.754 8.44818 45.1133 10.1673C45.8518 13.7012 44.0005 16.4787 40.5336 17.3924C39.362 17.7007 38.5463 17.2602 38.1051 16.1435C37.9127 15.6609 37.667 15.2014 37.3726 14.7733C35.4856 12.0231 35.0363 9.17321 36.6007 6.10205C37.6182 4.1045 39.1131 2.50205 40.6823 0.961114C40.9715 0.677443 41.6313 0.491736 41.9795 0.625711C42.3365 0.76242 42.5762 1.32428 42.761 1.74648C42.8724 2.00099 42.7815 2.34415 42.7815 2.64742L42.5994 2.71233ZM40.3861 4.44397C37.7823 7.00066 36.2482 11.0233 39.6625 14.6885C41.792 14.0494 42.6154 12.8106 42.4333 10.654C42.2445 8.41719 41.2362 6.46842 40.3861 4.44445V4.44397Z" fill="#3E9FA5"/>
  <path d="M24.0205 32.876C24.5999 31.5034 25.1331 30.2576 25.6514 29.0053C25.9267 28.3402 26.2817 27.7724 27.096 27.7522C27.8431 27.7344 28.2626 28.2176 28.5859 28.8089C30.1699 31.7055 31.6883 34.6377 32.3693 37.9014C33.5151 43.3912 30.1166 48.5955 24.6817 49.9063C20.9466 50.807 17.4165 50.208 14.097 48.4998C10.3052 46.5487 8.61522 43.118 8.37119 39.0245C7.90479 31.1915 13.084 23.2727 20.4112 20.3523C20.9737 20.1281 21.5119 19.8073 22.094 19.6795C22.5661 19.5758 23.2588 19.5059 23.5425 19.7633C23.7214 19.9651 23.8557 20.2023 23.9368 20.4595C24.0178 20.7167 24.0438 20.9881 24.013 21.256C23.8733 22.2218 23.4926 23.151 23.2383 24.1025C22.3367 27.4919 22.5495 30.0659 24.0205 32.876ZM20.7732 22.6025C20.585 22.6732 20.4006 22.7533 20.2204 22.8425C14.4602 25.9795 11.6287 31.0797 11.0154 37.3728C10.4831 42.8245 13.9184 46.9916 19.3015 48.0589C19.5584 48.1253 19.8271 48.132 20.0869 48.0785C21.7914 47.582 23.524 47.1518 25.1777 46.5182C28.3537 45.3012 30.122 42.128 29.6381 38.7773C29.2697 36.2313 28.2181 33.928 27.1119 31.644C27.0892 31.5984 26.9868 31.5934 26.7082 31.4909C26.3224 32.8006 25.8968 34.0834 25.574 35.3914C25.2944 36.5248 24.2212 36.9957 23.2727 36.3058C23.0583 36.1489 22.8726 35.9562 22.7238 35.7362C21.2656 33.5577 20.2036 31.1956 20.2129 28.5489C20.2198 26.6013 20.567 24.6557 20.7732 22.603V22.6025Z" fill="#3E9FA5"/>
</svg>