<svg width="333" height="333" viewBox="0 0 333 333" fill="none" xmlns="http://www.w3.org/2000/svg">
<path d="M93.9009 172.937C83.6611 175.934 86.7411 182.26 82.8284 180.262C77.8334 177.682 69.6749 180.013 67.4271 184.841C63.7641 192.583 72.6719 207.735 86.1584 215.977C88.0731 217.143 91.07 219.057 92.735 220.14C101.643 225.884 107.803 213.979 108.22 189.836C108.469 176.35 103.308 170.106 93.9009 172.937ZM96.065 210.982L94.9829 214.645C81.7462 201.325 74.4204 194.582 74.3371 187.922C74.2539 182.51 76.1684 182.76 81.1634 189.004C84.0771 192.667 85.8254 194.082 87.4904 194.332C94.8997 195.331 90.1543 186.84 93.9838 179.763C95.1493 177.516 96.5645 178.265 98.5625 182.094C100.477 186.09 99.3118 200.076 96.065 210.982Z" fill="#043D3B"/>
<path d="M245.416 128.397C241.67 129.396 240.837 129.313 239.255 128.231C237.257 126.899 231.846 126.732 228.683 127.981C219.275 131.727 215.862 151.374 221.606 168.44C225.935 181.344 231.263 179.846 245.416 161.947C263.065 139.553 263.065 123.735 245.416 128.397ZM249.828 141.634C246.248 150.125 232.012 165.943 231.013 162.363C229.765 157.535 229.349 144.881 230.264 139.636C232.096 129.813 236.092 127.482 236.092 136.306C236.092 140.802 239.505 142.217 242.336 138.887C243.002 138.054 244.75 135.973 246.165 134.308C250.577 129.063 252.992 134.058 249.828 141.634Z" fill="#043D3B"/>
<path d="M169.575 118.657C167.41 119.823 166.245 119.989 165.162 119.407C154.756 113.912 145.432 124.318 149.595 136.556C160.168 167.192 168.493 167.108 184.144 136.223C190.887 122.819 181.896 111.997 169.575 118.657ZM179.315 127.815C178.566 130.728 175.319 134.808 171.906 139.886C165.828 149.21 166.744 148.96 163.747 142.217C161 136.14 156.837 132.727 156.088 130.063C155.089 126.316 156.754 118.408 163.164 125.65C166.411 129.313 169.741 129.563 170.824 125.9C173.654 116.743 180.48 123.402 179.315 127.815Z" fill="#043D3B"/>
<path d="M226.268 102.757C255.739 76.1997 264.147 51.474 243.085 53.139L237.84 53.5553L235.759 50.3919C232.013 44.8142 225.602 42.7326 218.942 45.0636C207.37 49.1428 203.125 61.0479 205.289 83.2757C208.12 111.747 212.199 115.411 226.268 102.757ZM213.864 68.7069C214.447 52.5564 220.607 43.9815 227.351 49.809C230.93 52.8893 232.179 57.8844 229.931 59.9657C220.94 68.3739 218.692 79.5294 226.018 79.5294C232.012 79.5294 237.757 72.0371 239.089 62.6298C240.171 54.3048 246.914 54.5541 246.914 62.9623C246.914 67.2913 244.833 70.8714 236.425 81.1944C231.263 87.5214 216.861 102.34 216.361 101.757C215.446 100.758 213.614 77.1984 213.864 68.7069Z" fill="#043D3B"/>
<path d="M253.075 208.151C250.577 208.651 250.328 208.484 250.328 206.736C250.328 201.99 243.001 199.16 236.758 201.408C223.521 206.237 212.365 228.964 215.113 245.531C216.944 256.769 266.145 229.463 266.145 217.142C266.145 211.065 260.068 206.736 253.075 208.151ZM223.021 241.534C222.355 240.868 229.016 219.889 231.596 214.644C235.842 205.903 241.087 202.74 241.087 208.984C241.087 209.983 239.838 212.48 238.423 214.395C233.095 221.305 233.344 221.138 234.343 222.137C236.258 224.052 242.752 221.388 247.081 216.892C252.076 211.731 257.82 211.731 257.82 216.975C257.82 220.638 225.186 243.699 223.021 241.534Z" fill="#043D3B"/>
<path d="M153.924 211.231C157.337 209.899 165.746 187.422 165.829 179.596C165.829 169.939 157.42 165.194 148.596 169.939C147.347 170.605 146.265 171.521 146.265 171.854C146.265 172.27 143.767 172.52 140.77 172.436C130.614 172.27 128.449 177.515 133.278 190.751C138.606 205.403 147.014 213.812 153.924 211.231ZM142.852 179.846C145.849 184.841 151.26 183.842 151.26 178.347C151.26 174.018 155.006 171.354 155.922 175.1C156.838 178.847 150.844 199.41 148.846 199.41C147.431 199.41 141.02 185.257 140.604 181.177C140.104 176.183 140.521 175.933 142.852 179.846Z" fill="#043D3B"/>
<path d="M158.336 250.526C157.004 251.109 155.339 252.274 154.756 252.94C153.924 254.022 152.759 254.189 149.512 253.772C134.444 251.941 131.696 267.425 144.85 280.579C156.754 292.484 163.165 291.318 167.91 276.416C174.32 256.353 170.241 245.198 158.336 250.526ZM157.004 279.413C150.095 270.172 143.018 261.514 144.267 258.184C145.266 255.687 148.513 258.101 150.428 262.763C152.509 267.675 159.169 267.092 158.503 262.097C157.504 254.438 162.166 250.443 163.415 257.852C164.33 263.346 157.504 277.998 157.004 279.413Z" fill="#043D3B"/>
<path d="M126.701 77.3655C121.79 80.1127 121.873 80.1124 120.541 76.6159C118.709 71.5376 112.299 69.873 105.889 72.7867C93.9841 78.2812 95.0661 98.6773 108.553 118.824C111.133 122.653 111.383 133.559 124.786 119.989C132.112 112.58 143.268 100.259 146.348 95.7634C156.505 80.8616 143.018 68.208 126.701 77.3655ZM142.602 85.3571C141.853 91.1014 121.29 115.743 115.629 117.658C114.13 118.157 107.637 97.3451 106.638 89.1034C105.306 77.4484 111.134 70.2058 114.297 79.6963C115.046 82.0273 115.629 85.3573 115.629 87.1888C115.546 93.2661 121.373 93.5153 124.204 87.5213C129.615 75.9496 144.017 74.3681 142.602 85.3571Z" fill="#043D3B"/>
</svg>
