<svg xmlns="http://www.w3.org/2000/svg" width="50" height="64" viewBox="0 0 50 64" fill="none">
  <path d="M34.6096 11.3417C34.6867 11.2677 34.9054 11.0705 35.1093 10.8619C37.6394 8.27039 40.1675 5.67699 42.7881 2.99008C42.5142 2.91854 42.2357 2.86686 41.9544 2.83563C40.8581 2.7989 39.7603 2.80787 38.6645 2.75536C37.7082 2.70951 37.1796 2.23955 37.1979 1.53547C37.2159 0.841739 37.7619 0.398519 38.7293 0.378304C40.0359 0.35094 41.3454 0.389434 42.653 0.366508C43.8751 0.344978 45.0966 0.299403 46.3177 0.229882C47.696 0.150747 48.279 0.518124 48.5206 1.89696C48.8618 3.84649 49.1478 5.80523 49.3788 7.77319C49.4128 7.9942 49.4022 8.21973 49.3477 8.43657C49.293 8.65342 49.1956 8.85722 49.061 9.03578C48.9264 9.21437 48.7576 9.36413 48.564 9.47635C48.3708 9.5886 48.1568 9.66098 47.9349 9.68918C47.0807 9.76733 46.3537 9.04826 46.2504 7.99755C46.2257 7.74905 46.2881 7.49331 46.2817 7.2416C46.2711 6.16775 46.1944 5.09555 46.0524 4.03109C42.603 6.96625 39.5352 10.238 36.284 13.4111C36.4768 13.7212 36.6449 13.9998 36.8209 14.2739C40.2447 19.6016 40.5435 25.1864 38.0042 30.9031C36.4265 34.4531 33.4556 36.3538 29.7226 37.0683C28.8184 37.2408 28.3633 37.6183 28.0073 38.4432C26.3814 42.2108 23.3529 44.1927 19.4304 44.9715C18.7312 45.1103 18.0276 45.2269 17.183 45.3795C17.2653 47.4735 17.3472 49.5549 17.4365 51.822C18.3506 51.7569 19.1712 51.7032 19.9912 51.6386C20.6566 51.5437 21.3272 51.4899 21.9992 51.4773C22.8127 51.5143 23.3243 52.0197 23.4073 52.6831C23.4502 53.0443 23.3579 53.4084 23.1482 53.7055C22.9384 54.0025 22.6262 54.2113 22.2716 54.2917C21.7796 54.4046 21.2757 54.4574 20.771 54.4492C19.7656 54.4717 18.7593 54.4559 17.6894 54.4559C17.6894 54.9822 17.6751 55.3892 17.6922 55.795C17.7592 57.396 17.8832 58.9964 17.8851 60.5971C17.8887 61.2238 17.7346 61.8411 17.437 62.3926C17.3293 62.5893 17.1702 62.7533 16.9767 62.8667C16.7831 62.9801 16.5624 63.039 16.3381 63.0365C16.1137 63.0343 15.8942 62.971 15.7031 62.8536C15.5119 62.7363 15.3563 62.5689 15.2528 62.3699C14.9836 61.8963 14.823 61.369 14.7831 60.8257C14.6556 59.2292 14.6049 57.6262 14.5346 56.0255C14.5149 55.5717 14.5316 55.1161 14.5316 54.4788C13.4513 54.4788 12.4967 54.4934 11.5432 54.4729C11.0366 54.4717 10.5312 54.4258 10.0327 54.3358C9.26847 54.1822 8.87254 53.6783 8.9179 53.0273C8.96351 52.3678 9.37383 52.0271 10.2552 52.0113C11.5965 51.9867 12.9386 52.0052 14.3998 52.0052C14.4762 49.7933 14.5476 47.7079 14.6238 45.5025C14.062 45.4391 13.4898 45.3637 12.9129 45.3112C7.1025 44.7807 3.04362 41.3914 1.46141 35.8041C0.161711 31.2132 0.640985 26.865 3.21177 22.822C3.76488 21.9745 4.45175 21.2223 5.24562 20.5948C7.03123 19.1649 8.99975 18.0189 11.2653 17.5167C11.5491 17.4676 11.8156 17.3466 12.0394 17.1653C12.2631 16.9841 12.4368 16.7486 12.5438 16.4812C14.5368 12.3105 18.1386 10.4585 22.4395 9.45518C25.2578 8.79842 27.974 9.04056 30.6782 9.7868C31.9557 10.1406 33.1637 10.7599 34.6096 11.3417ZM11.0324 20.423C8.52154 20.9553 6.04435 22.7285 4.90761 24.7448C2.30922 29.3549 2.88295 33.8937 5.31569 38.3332C6.33224 40.1666 8.0215 41.5331 10.0268 42.1443C13.83 43.392 17.6031 43.089 21.2685 41.6069C23.0455 40.8887 24.2816 39.5311 25.0673 37.6666C24.3457 37.5926 23.7222 37.5261 23.0977 37.4694C16.9717 36.9001 12.8755 33.2991 11.4266 27.2981C10.8875 25.0604 10.8207 22.8144 11.0324 20.423ZM29.3314 34.3582C29.6314 34.3382 29.9295 34.2958 30.2231 34.2312C32.8227 33.4342 34.559 31.7194 35.5008 29.1902C36.6027 26.3344 36.7696 23.2027 35.9775 20.2459C35.2417 17.5026 33.9299 15.0145 31.3288 13.5863C28.4614 12.0122 25.2642 11.6988 22.1182 12.1811C19.8094 12.5706 17.6954 13.7159 16.1082 15.4372C15.7513 15.8613 15.4204 16.3067 15.1173 16.7707C16.26 16.9009 17.2232 16.9832 18.1778 17.1243C20.8437 17.5187 23.3778 18.209 25.2727 20.3291C27.2919 22.5567 28.6601 25.2963 29.2279 28.2487C29.6174 30.2429 29.5365 32.2526 29.3314 34.3582ZM25.8645 34.907C25.9407 34.8106 26.0001 34.7023 26.041 34.5865C26.7835 30.2084 26.0097 26.2161 22.9841 22.8203C22.1888 21.9276 21.231 21.1993 20.062 20.9133C18.3952 20.5055 16.7023 20.2009 15.0129 19.8949C14.6236 19.8244 14.2028 19.9275 13.8 19.9504C13.6949 20.3449 13.6027 20.6249 13.5478 20.9119C13.014 23.7469 13.6018 26.4432 14.6677 29.0472C16.3217 33.0831 20.3443 35.526 25.8645 34.907Z" fill="#5F4086"/>
</svg>