<svg width="120" height="120" viewBox="0 0 120 120" fill="none" xmlns="http://www.w3.org/2000/svg">
<circle cx="60" cy="60" r="60" fill="#EEE0FF"/>
<g clip-path="url(#clip0_4436_4418)">
<path d="M88.5441 65.3179C88.5909 70.8307 88.6646 76.3433 88.6722 81.8559C88.6757 84.2488 88.4908 86.642 88.4847 89.0355C88.4765 92.4037 85.952 94.5055 82.8503 94.5742C75.4869 94.7367 68.1205 94.8785 60.7557 94.8566C54.5197 94.8381 48.2833 94.6091 42.0493 94.4057C40.3349 94.3183 38.6268 94.1331 36.9335 93.851C34.9389 93.5554 32.9488 91.1923 32.8165 89.0252C32.7145 87.3587 32.6297 85.6892 32.607 84.0201C32.4874 75.2075 32.3802 66.3946 32.2853 57.5817C32.1896 49.3107 32.097 41.0401 32.0074 32.7695C32.0019 31.1354 32.4154 29.5274 33.2084 28.0986C33.5621 27.3841 34.1088 26.783 34.7866 26.3633C35.4644 25.9436 36.2462 25.7222 37.0434 25.7241C39.4363 25.6377 41.834 25.63 44.2225 25.4749C52.8993 24.9112 61.5751 25.3428 70.2517 25.4104C72.0397 25.4244 73.3808 26.025 74.692 27.2646C77.4487 29.8705 80.3927 32.2774 83.2437 34.7844C84.3291 35.7391 85.3305 36.792 86.4415 37.7131C87.5586 38.6392 87.9125 39.8263 87.9366 41.1909C88.0195 45.8899 88.1054 50.589 88.1941 55.2878C88.2591 58.632 88.3373 61.9759 88.4094 65.3198L88.5441 65.3179ZM69.4238 28.7837C68.6187 28.7214 67.9504 28.6341 67.281 28.623C61.5886 28.5279 55.8959 28.4415 50.2031 28.3633C47.6297 28.3279 45.0558 28.3102 42.4822 28.2954C41.1747 28.2872 39.864 28.2461 38.5599 28.3153C36.7446 28.4117 36.1859 28.9388 35.8589 30.7319C35.5339 32.4199 35.4576 34.1462 35.6325 35.8563C35.7399 36.8442 35.7939 37.8373 35.794 38.831C35.8214 54.7804 35.842 70.7298 35.8558 86.6793C35.8472 86.9955 35.8597 87.3119 35.893 87.6265C36.173 89.6869 37.2566 91.0454 39.5938 91.1381C48.268 91.4815 56.9416 91.4829 65.6182 91.3397C70.0459 91.2665 74.4741 91.2266 78.9021 91.1751C79.9851 91.1627 81.0705 91.2039 82.1511 91.1519C84.0345 91.0613 84.976 90.1135 84.9564 88.2607C84.9356 86.2754 84.7876 84.2919 84.7541 82.3065C84.7152 80.0029 84.7932 77.6966 84.7277 75.3942C84.5642 69.6146 84.2849 63.8376 84.1729 58.0572C84.0839 53.4052 84.1748 48.7498 84.1809 44.096C84.1809 43.7497 84.1434 43.4031 84.1228 43.051C83.9666 43.0177 83.8084 42.9954 83.6491 42.9842C80.8938 43.0397 78.1387 43.1265 75.3831 43.1426C74.5256 43.1489 73.6703 43.0497 72.8372 42.8467C71.1413 42.4262 70.6099 41.7684 70.4305 40.0202C70.2694 38.4483 70.164 36.8708 70.0232 35.297C69.8362 33.1885 69.6362 31.0787 69.4238 28.7837ZM74.2948 39.8802L82.3981 39.3722L72.9188 30.7623C73.4033 33.972 73.8378 36.8519 74.2948 39.8802Z" fill="#5F4086"/>
<path d="M49.6533 40.087C51.5943 40.087 53.5363 40.0769 55.4765 40.0903C56.8469 40.0998 57.3425 40.4867 57.6407 41.8354C57.769 42.4536 57.839 43.0822 57.8496 43.7134C57.8911 45.1823 57.2949 45.9305 55.8651 46.1101C54.6122 46.2686 53.3472 46.3686 52.0851 46.4006C50.1428 46.4505 48.1984 46.4027 46.2556 46.4312C45.3532 46.4255 44.4516 46.4861 43.558 46.6123C41.4591 46.9557 40.4088 45.2198 40.4564 43.7593C40.4961 43.0375 40.5782 42.3188 40.702 41.6066C40.7361 41.2417 40.8907 40.8985 41.1416 40.6313C41.3924 40.364 41.7252 40.1879 42.0872 40.1309C42.793 39.9796 43.5106 39.8898 44.2319 39.8628C46.0381 39.8256 47.8457 39.8507 49.653 39.8507L49.6533 40.087ZM53.9717 42.9908C53.9822 42.8852 53.9926 42.7795 54.0028 42.6738C50.3744 42.8032 46.7458 42.1271 43.0487 42.6276V43.701C43.4677 43.677 43.819 43.6722 44.1669 43.6337C45.0157 43.5394 45.8604 43.3796 46.7112 43.3362C48.649 43.238 50.5894 43.1997 52.5283 43.125C53.0104 43.1044 53.4906 43.0363 53.9717 42.9908Z" fill="#5F4086"/>
<path d="M66.2463 80.5137C62.9972 80.5137 59.7482 80.5219 56.5007 80.5068C55.7361 80.5171 54.9718 80.4672 54.215 80.3576C53.3995 80.2239 52.9735 79.7392 52.9756 79.1554C52.9782 78.5917 53.4471 78.0463 54.2171 77.9176C55.2376 77.7298 56.2706 77.6176 57.3076 77.5822C63.5768 77.4683 69.8461 77.3801 76.1152 77.318C76.7904 77.3141 77.4637 77.3928 78.1199 77.5523C78.9451 77.7502 79.3133 78.2721 79.2895 78.9824C79.2631 79.7239 78.7612 80.2274 77.8856 80.3631C77.6172 80.3983 77.3464 80.4128 77.0759 80.4065C73.4658 80.4091 69.8559 80.4096 66.2457 80.4081L66.2463 80.5137Z" fill="#5F4086"/>
<path d="M65.4714 69.2648C61.8605 69.2648 58.2495 69.2703 54.6386 69.2587C54.0978 69.2613 53.5579 69.2138 53.0259 69.1161C52.5684 69.0276 52.178 68.7666 52.1302 68.233C52.0774 67.6403 52.4511 67.3085 52.938 67.1188C53.2368 67.0179 53.5489 66.9619 53.8641 66.9527C56.2483 66.7823 58.6312 66.5416 61.0186 66.4772C66.1619 66.3372 71.3073 66.2849 76.4519 66.2112C76.9018 66.2049 77.3505 66.2582 77.7864 66.3697C78.693 66.604 79.0863 67.1069 79.0485 67.8724C79.0134 68.5793 78.6148 69.0463 77.7764 69.2241C77.2467 69.3292 76.7079 69.3802 76.1679 69.3757C72.6019 69.3884 69.0359 69.3823 65.4698 69.3823L65.4714 69.2648Z" fill="#5F4086"/>
<path d="M65.857 58.4311C61.9718 58.4311 58.0866 58.4311 54.2013 58.4311C53.9303 58.4311 53.6566 58.4758 53.389 58.4499C52.9217 58.4047 52.4809 58.283 52.403 57.7119C52.3583 57.4852 52.4 57.2499 52.5199 57.0523C52.6398 56.8547 52.8291 56.7091 53.0509 56.6439C53.7705 56.3874 54.517 56.2139 55.2759 56.1259C61.084 55.6441 66.9128 55.4534 72.7402 55.5553C74.2765 55.5799 75.8131 55.5717 77.3494 55.582C77.6656 55.5741 77.982 55.5831 78.2972 55.6095C79.3609 55.7318 80.0564 56.3755 80.0199 57.1793C79.9848 57.947 79.3284 58.5186 78.3191 58.6197C77.9136 58.6528 77.5063 58.6583 77.1 58.6364C74.5718 58.5482 72.0442 58.4377 69.5157 58.3643C68.2972 58.3287 67.0768 58.358 65.857 58.358V58.4311Z" fill="#5F4086"/>
<path d="M44.3625 84.4643C43.9302 84.45 43.4989 84.4141 43.0702 84.3565C40.1646 83.8401 38.9168 81.2517 40.3094 78.6509C41.725 76.0062 43.8416 75.2697 46.6162 76.46C48.4515 77.2464 49.3858 78.8833 49.0847 80.7847C48.7413 82.9576 47.4469 84.2221 45.3601 84.4178C45.0477 84.4463 44.7323 84.4476 44.3625 84.4643ZM42.776 80.9194C43.7269 81.5396 44.7307 81.4812 45.7276 81.1653C46.2559 79.2529 45.4088 78.4807 43.2348 78.7811C42.7488 79.3804 42.4511 80.039 42.7776 80.9207L42.776 80.9194Z" fill="#5F4086"/>
<path d="M48.6787 57.206C48.6787 57.2511 48.6803 57.2963 48.6787 57.3415C48.6137 58.9486 48.2701 60.4587 46.6202 61.1516C44.7798 61.9242 42.9601 61.7689 41.4034 60.44C40.0462 59.2811 39.65 57.7916 40.1239 56.0344C40.7441 53.7363 41.6145 52.9964 44.0991 52.8443C46.2675 52.7122 47.8028 53.5697 48.4236 55.3447C48.5861 55.9504 48.6999 56.568 48.7638 57.1917L48.6787 57.206ZM42.7005 55.7389C42.1244 56.8158 42.1233 57.44 42.674 58.1183C43.3312 58.9272 44.2756 59.1057 45.604 58.6731C46.2007 57.5235 46.2816 56.5915 45.6965 56.0603C44.7897 55.2354 43.7357 55.3416 42.7005 55.7389Z" fill="#5F4086"/>
<path d="M44.2631 72.4774C43.6191 72.3757 43.1714 72.3287 42.7345 72.232C40.7874 71.8009 39.5768 70.4239 39.6174 68.7093C39.6676 66.6412 40.8503 65.2309 42.8309 64.7864C44.6445 64.3793 46.2205 64.7639 47.546 66.0731C49.4534 67.957 48.909 70.9163 46.4286 71.9459C45.6977 72.2494 44.8746 72.3329 44.2631 72.4774ZM42.6423 67.1307C42.3346 67.8363 41.9819 68.5769 42.6787 69.1174C43.0903 69.4368 43.7641 69.4986 44.3263 69.521C44.9024 69.544 45.5199 69.4354 45.7302 68.7209C45.274 67.3061 44.9069 67.1056 42.6423 67.132V67.1307Z" fill="#5F4086"/>
</g>
<defs>
<clipPath id="clip0_4436_4418">
<rect width="56.7925" height="70" fill="white" transform="translate(32 25)"/>
</clipPath>
</defs>
</svg>
