<svg width="333" height="333" viewBox="0 0 333 333" fill="none" xmlns="http://www.w3.org/2000/svg">
<path d="M244.148 204.475C229.329 210.636 217.425 212.884 199.276 212.884C164.311 212.884 135.09 195.9 97.4612 198.398C52.9225 201.395 62.746 219.627 71.2375 217.296C88.5535 212.384 93.2155 211.135 104.121 210.636C148.993 208.638 168.723 226.536 209.432 224.455C223.169 223.789 239.735 219.544 249.809 215.132C266.209 207.889 258.383 198.481 244.148 204.475Z" fill="white"/>
<path d="M76.3155 128.468C100.708 116.48 111.364 115.564 139.502 123.057C194.697 137.625 203.688 138.625 226.998 132.547C238.154 129.634 256.885 119.977 256.885 117.146C256.885 110.902 248.726 110.069 239.402 115.397C204.77 135.211 173.468 123.973 152.822 118.395C133.925 113.317 110.531 105.408 92.8824 109.237C73.0689 113.483 55.3365 124.389 59.0828 130.05C62.0798 134.629 64.2443 134.462 76.3155 128.468Z" fill="white"/>
<path d="M282.609 136.376C267.374 147.032 258.134 151.861 246.312 155.357C213.761 165.014 182.376 165.764 146.995 157.522C112.613 149.613 88.9696 150.446 62.8291 160.436C42.0166 168.428 33.6084 174.755 39.1029 178.335C41.6004 179.916 41.3508 179.999 66.9085 171.591C99.043 161.018 116.858 159.936 149.076 166.763C189.702 175.337 222.419 174.754 253.638 164.931C271.537 159.27 295.346 145.201 295.846 139.873C296.429 134.045 288.853 131.964 282.609 136.376Z" fill="white"/>
</svg>
