<svg width="120" height="121" viewBox="0 0 120 121" fill="none" xmlns="http://www.w3.org/2000/svg">
<circle cx="60" cy="60.5" r="60" fill="#D3F3FF"/>
<path d="M58.5794 30.8231C46.246 33.4245 41.5942 52.2768 51.2957 60.2033C64.4251 70.9148 75.5648 61.2437 77.6459 57.2039C77.9215 56.6837 78.5642 55.9493 79.0538 55.6125C82.4509 53.1949 82.2672 47.2576 80.0639 41.9631C75.9629 32.0167 64.9145 29.5071 58.5794 30.8231ZM50.5918 41.0755C54.9681 34.4344 60.2934 31.9554 67.3017 33.302C73.5451 34.5262 78.7784 40.2798 78.7784 45.9416C78.7784 46.8597 78.7479 46.8597 77.4318 46.7679C75.7793 46.6455 73.4226 47.5942 73.1166 48.5123C72.8718 49.3081 72.627 49.3081 71.1579 48.5736C68.5872 47.2576 66.7202 44.0135 66.0777 39.7595C65.4961 35.934 64.0883 34.5262 62.2827 35.9646C59.0387 38.566 49.0004 45.758 48.8474 45.6049C48.6026 45.4213 49.8266 42.2079 50.5918 41.0755ZM51.6323 46.4313C54.8458 44.442 60.1708 40.5246 61.1809 39.3923C61.9153 38.5966 62.2521 38.5966 62.2521 39.4535C62.2827 44.5032 66.9344 49.4305 72.4739 50.2262L73.0858 50.318C74.249 50.5016 75.4425 50.2262 76.3912 49.5529L76.8808 49.2163C77.1256 49.0632 77.4318 49.002 77.7072 49.0938C77.9826 49.1856 78.2274 49.3693 78.3194 49.6447C78.9007 51.0525 78.4417 52.9193 77.2482 54.0517C70.2092 60.7541 66.965 62.3149 60.9972 61.8559C54.2031 61.3049 48.4494 55.2454 48.4494 48.6042C48.4801 48.4818 49.8878 47.5024 51.6323 46.4313Z" fill="#3E9FA5"/>
<path d="M80.9515 81.7792C78.4725 74.0975 74.4939 69.9352 68.373 68.5275C66.8122 68.1601 63.7213 66.9972 55.152 67.8847C47.1642 68.7417 41.0128 77.3721 39.605 80.8303C36.514 88.2672 45.1444 90.8075 68.3119 90.4708C70.3318 90.0423 84.4097 92.4907 80.9515 81.7792ZM59.5895 69.415C60.875 69.2008 64.058 68.8948 67.2103 70.4862C67.3632 70.5474 67.4549 70.7005 67.4857 70.8533C67.5163 71.0064 67.4551 71.1595 67.3632 71.2818C65.1904 73.5465 62.4972 73.8833 61.3648 73.9444C61.0281 73.9444 60.6913 73.7914 60.5077 73.5465C60.0486 72.9652 59.3144 71.7715 59.0693 70.2106C59.0082 69.8129 59.253 69.4762 59.5895 69.415ZM60.3242 76.3623C59.9263 77.4638 55.3663 82.636 54.7541 82.33C54.1422 82.0241 55.4274 76.3928 56.315 75.3828C57.2025 74.3424 60.7221 75.2605 60.3242 76.3623ZM50.9286 71.2512C51.9998 70.0272 54.5093 69.5987 55.9476 69.5067C56.0702 69.5067 56.1619 69.5373 56.223 69.6293C56.2844 69.721 56.315 69.8129 56.2844 69.9352C55.3357 72.8121 51.1429 73.6996 50.8369 73.6385C50.5002 73.5771 50.1023 72.5673 50.9286 71.2512ZM47.4704 76.4846C46.7359 78.4433 46.338 81.1365 46.338 83.9826C46.338 86.7983 46.3074 86.8289 44.2263 86.2167C41.8698 85.5434 41.2882 84.1968 42.4512 82.1769L43.1245 80.9528L43.5836 82.5748C44.5935 86.0944 45.5729 84.0745 44.8078 80.0959C44.5017 78.5045 44.6548 78.1066 46.3993 76.2092C47.8683 74.6483 48.1437 74.7095 47.4704 76.4846ZM48.97 81.7487C48.5415 81.565 49.3679 77.3415 50.0718 76.1174C50.7757 74.8931 53.4075 74.281 53.6524 75.1074C53.9277 75.9643 49.3985 81.9627 48.97 81.7487ZM78.1971 85.8496C78.136 86.4004 76.4526 87.3797 74.4939 87.9612C72.6882 88.512 55.7948 88.4203 53.8666 87.8387L52.9793 87.5939L55.8865 84.3805C61.426 78.2596 66.2614 74.3424 69.2911 73.5771C71.6478 72.9652 71.5255 73.1488 74.8612 76.8825C72.4742 77.8923 72.7188 77.9843 71.0662 77.1579C68.5261 75.8726 67.6691 76.4846 68.8629 78.7187C69.4442 79.8205 69.5362 79.7593 65.4964 81.4731C61.2729 83.2787 58.9165 84.6559 58.9165 85.3598C58.9165 86.3087 59.6509 86.1556 62.8949 84.5642C70.3012 80.8917 71.8315 81.3202 70.852 79.4839C70.4237 78.7187 70.852 78.7187 72.168 79.5145C73.9125 80.5855 74.4327 80.0653 76.2995 78.9024C77.1565 80.9834 78.4114 83.646 78.1971 85.8496Z" fill="#3E9FA5"/>
</svg>
