<svg width="120" height="121" viewBox="0 0 120 121" fill="none" xmlns="http://www.w3.org/2000/svg">
<circle cx="60" cy="60.5" r="60" fill="#FFE4E4"/>
<path d="M30.5962 81.0309C30.6421 81.8612 30.7972 82.6815 31.0575 83.4707C31.4727 84.7842 31.9686 85.0075 33.2489 85.013L34.4572 85.018C38.2215 85.0335 42.1146 85.0484 45.9417 85.0438C46.3182 85.0361 46.6938 85.0073 47.067 84.9573C47.4585 84.9016 47.8535 84.8739 48.2489 84.8748C48.8683 84.8901 49.501 84.9395 50.1127 84.9874C50.8594 85.0459 51.6296 85.1062 52.394 85.1062C52.443 85.1062 52.4919 85.1062 52.5406 85.1062C62.1009 85.0052 69.8329 84.8952 76.8739 84.7588C79.3337 84.7109 81.1209 83.6935 82.3376 81.6481C85.0063 77.1609 87.0785 72.095 89.0558 65.2212C89.3516 64.1064 89.5788 62.9744 89.7367 61.8315C89.8175 61.3208 89.9013 60.7931 89.9961 60.2786C89.9986 60.2647 90 60.2503 90 60.2359V58.5966C90 58.5702 89.9957 58.544 89.9868 58.5192C89.8783 58.2075 89.7826 57.8786 89.6895 57.5601C89.5075 56.8233 89.2335 56.1127 88.874 55.4453C87.7165 53.5079 85.7659 52.3896 83.2332 52.2113C80.846 52.0432 78.4129 51.9986 76.0611 51.955C75.4649 51.9441 74.8689 51.9325 74.2731 51.9204C73.0751 51.8945 71.8563 51.9011 70.6782 51.9073C70.2242 51.9097 69.7703 51.9116 69.3164 51.913C70.0801 49.9263 70.5554 47.7158 70.855 44.7633C71.0311 43.026 71.1459 40.7461 70.4632 38.5207C69.9805 36.9473 69.2206 36.4223 67.5612 36.5091C66.4437 36.5412 65.378 36.9915 64.573 37.772C64.3869 37.9546 64.1996 38.1362 64.0115 38.3168C63.023 39.2267 62.1029 40.2089 61.2586 41.2553C60.1982 42.6403 59.2078 44.1116 58.2497 45.5347C57.8307 46.1572 57.4118 46.7798 56.986 47.397C54.9887 50.2908 52.6207 52.398 49.7439 53.8366C49.5199 53.9592 49.274 54.0358 49.0204 54.0619C48.7668 54.088 48.5106 54.0631 48.2666 53.9887C46.1624 53.4457 44.3799 53.314 42.6573 53.5734C41.3293 53.7736 39.9636 53.8974 38.6432 54.0166C38.1336 54.0623 37.6245 54.1091 37.1159 54.1595C36.5744 54.213 36.032 54.2608 35.4898 54.3085C34.6158 54.3852 33.7119 54.4646 32.824 54.569C31.2024 54.7597 30.5501 55.3749 30.2387 57.0074L30.2098 57.1545C30.1489 57.4231 30.1117 57.6966 30.0988 57.9718C30.0879 58.5752 30.0726 59.1782 30.0574 59.7815C30.017 61.3775 29.9749 63.0276 30.0185 64.6519C30.1746 70.4435 30.3983 76.1817 30.5962 81.0309ZM46.4559 56.0371C46.4062 60.3181 46.7071 64.614 46.9988 68.7701C47.2893 72.9141 47.5888 77.1965 47.5353 81.4234H34.2528L34.25 81.3967C34.2316 81.2266 34.2126 81.0507 34.2047 80.8786C34.0685 77.6763 33.9323 74.474 33.7961 71.2722C33.6673 68.2399 33.5388 65.2077 33.4103 62.1756C33.398 61.8879 33.3867 61.5999 33.3763 61.3117C33.3402 60.3652 33.3032 59.3862 33.2158 58.4253C33.1545 57.7517 33.3563 57.4836 33.9875 57.4009C34.7477 57.3012 35.5072 57.1986 36.266 57.0933C37.71 56.8953 39.2029 56.691 40.6739 56.5211C42.0423 56.3633 43.4404 56.2471 44.7926 56.1347C45.2697 56.0953 45.7468 56.055 46.2239 56.0141C46.302 56.0123 46.38 56.02 46.4563 56.0371H46.4559ZM68.1661 44.4384C68.0229 46.4888 67.5006 48.6651 66.5222 51.2869C66.2078 52.1298 65.9595 53.0639 66.2698 54.1856C66.2827 54.2327 66.3102 54.2745 66.3479 54.3053C66.3858 54.336 66.4321 54.3541 66.4806 54.3571C66.6622 54.3681 66.8467 54.3813 67.0322 54.3946C67.4382 54.4236 67.8579 54.4537 68.2773 54.4631C69.4723 54.4859 70.6673 54.5019 71.8634 54.5172C74.5028 54.5513 77.2318 54.5857 79.9102 54.7095C81.3524 54.7896 82.7745 55.0852 84.1304 55.5866C85.7914 56.1906 86.5926 57.4668 86.5115 59.3791C86.3862 62.3265 85.6597 65.3948 84.2251 69.0345C83.2757 71.4433 82.203 73.9924 80.7466 77.3011C80.4107 78.0159 80.0271 78.7067 79.5981 79.3691C79.4667 79.5826 79.3353 79.7962 79.2069 80.0108C78.5632 81.0884 77.5582 81.6981 76.22 81.8228C74.4056 81.992 72.2935 82.1738 70.199 82.1909C65.5478 82.2289 60.8181 82.2229 56.2436 82.2165C54.8021 82.2147 53.3607 82.2133 51.9189 82.2124C51.6638 82.2124 51.4017 82.1896 51.17 82.1679L51.0741 82.1592L49.0541 56.179C49.3934 56.0271 49.7293 55.8821 50.0612 55.7382C50.8921 55.3788 51.6767 55.0394 52.4443 54.6309C55.5232 52.9899 58.1099 50.391 60.5857 46.4516C61.9229 44.324 63.5905 41.8734 65.8156 39.8292C66.2385 39.4248 66.7324 39.1029 67.2721 38.88C67.6625 38.7311 67.8268 38.7534 67.8958 38.7984C67.9895 38.8591 68.0492 39.0496 68.0685 39.3492C68.2138 41.0415 68.2464 42.7417 68.1661 44.4384Z" fill="#8F4949"/>
<path d="M36.503 55.7221C36.4877 55.7221 36.4723 55.7232 36.4571 55.7253C33.0533 56.2327 30.9801 58.1542 30.9098 60.8677C30.8411 63.5457 33.0259 65.7145 35.8836 65.8059C35.9396 65.8078 35.9937 65.8087 36.0483 65.8087C37.3831 65.8104 38.6682 65.2996 39.6418 64.3809C40.0887 63.9646 40.4483 63.4625 40.6997 62.9044C40.9511 62.3462 41.0892 61.743 41.1057 61.1305C41.0909 59.6458 40.5018 58.2255 39.4635 57.1705C38.5805 56.2505 37.5287 55.736 36.503 55.7221ZM36.6939 61.4563C36.3089 61.9011 35.7639 61.9465 35.0741 61.5916C34.481 61.2863 34.2807 60.8472 34.4782 60.2854C34.5968 59.9947 34.7455 59.7174 34.922 59.4583C34.9876 59.3523 35.0576 59.239 35.1319 59.1155C35.2616 59.1976 35.3872 59.2737 35.5079 59.347C35.8593 59.5384 36.1862 59.772 36.4817 60.0429C36.7664 60.3338 37.1724 60.9052 36.6939 61.4563Z" fill="#8F4949"/>
</svg>
