<svg width="162" height="181" viewBox="0 0 162 181" fill="none" xmlns="http://www.w3.org/2000/svg">
<path fill-rule="evenodd" clip-rule="evenodd" d="M79.189 1.99634C75.0657 6.91765 75.1987 26.2039 79.189 39.9038C83.3123 53.7366 98.3421 61.5841 114.968 58.7909C127.205 56.7958 161.788 39.2387 161.256 35.2485C159.925 26.3369 147.555 27.268 126.407 37.9086C98.3422 51.8745 97.278 51.0765 91.0266 11.3069C88.6325 -3.85604 80.9181 0.00121023 79.189 1.99634ZM47.4001 28.066C50.0603 63.3132 42.0799 74.486 12.286 77.0132C0.0491802 78.0772 -2.74439 80.7374 4.57108 84.4616C18.0049 91.3781 47.267 85.5256 55.9125 74.2199C62.2969 65.8403 67.4841 21.0165 63.0948 11.5729C62.1638 9.57776 44.3409 -11.0385 47.4001 28.066ZM137.048 70.8947C102.998 89.3828 93.2878 107.073 100.337 137.931C106.456 164.4 114.304 163.868 115.368 136.867C116.565 107.738 118.027 104.945 142.235 87.7868C157.132 77.2792 160.324 73.4219 156.6 70.4957C153.275 67.5695 142.767 67.7024 137.048 70.8947ZM73.8687 133.808C70.4104 117.049 56.0453 109.068 38.3551 113.989C26.5174 117.182 12.8179 125.694 12.8179 129.817C12.8179 134.739 24.1236 135.803 32.7692 131.813C35.5623 130.483 41.6805 128.221 46.4688 126.492C48.1979 125.827 50.0599 126.093 51.656 127.024C53.2521 127.955 54.3164 129.551 54.5824 131.414C55.6465 137.931 57.1094 147.774 57.7745 156.153C59.3706 176.371 61.6316 180.095 72.2723 180.095C79.0557 179.696 79.721 162.006 73.8687 133.808Z" fill="#E6FE55"/>
</svg>
