<svg width="180" height="180" viewBox="0 0 180 180" fill="none" xmlns="http://www.w3.org/2000/svg">
<path d="M76.145 24C76.6396 34.6691 75.9749 45.6711 77.0033 56.2826" stroke="#36FFB3" stroke-width="11.0581" stroke-miterlimit="1.5" stroke-linecap="round" strokeLinejoin="round"/>
<path d="M47.25 67.1506C52.6945 66.7608 59.4507 64.5991 64.8701 65.2118" stroke="#36FFB3" stroke-width="11.0581" stroke-miterlimit="1.5" stroke-linecap="round" strokeLinejoin="round"/>
<path d="M86.0669 63.1417C92.5656 63.9184 99.087 62.8863 105.612 63.632" stroke="#36FFB3" stroke-width="11.0581" stroke-miterlimit="1.5" stroke-linecap="round" strokeLinejoin="round"/>
<path d="M76.5726 74.0972C76.3511 82.1551 76.3809 90.2138 76.3787 98.274" stroke="#36FFB3" stroke-width="11.0581" stroke-miterlimit="1.5" stroke-linecap="round" strokeLinejoin="round"/>
<path d="M62.0965 123.685C58.4569 123.753 56.9841 129.427 61.1603 130.152C63.0406 130.478 66.0295 127.527 64.429 125.809" stroke="#36FFB3" stroke-width="11.0581" stroke-miterlimit="1.5" stroke-linecap="round" strokeLinejoin="round"/>
<path d="M100.581 99.5224C100.002 105.859 100.507 112.145 100.633 118.488" stroke="#36FFB3" stroke-width="11.0581" stroke-miterlimit="1.5" stroke-linecap="round" strokeLinejoin="round"/>
<path d="M86.5244 127.79C88.6365 127.524 90.8202 127.134 92.9545 127.151" stroke="#36FFB3" stroke-width="11.0581" stroke-miterlimit="1.5" stroke-linecap="round" strokeLinejoin="round"/>
<path d="M109.152 126.489C111.987 126.582 114.748 126.236 117.572 126.086" stroke="#36FFB3" stroke-width="11.0581" stroke-miterlimit="1.5" stroke-linecap="round" strokeLinejoin="round"/>
<path d="M101.577 135.401C101.263 142.285 101.332 149.183 101.328 156.074" stroke="#36FFB3" stroke-width="11.0581" stroke-miterlimit="1.5" stroke-linecap="round" strokeLinejoin="round"/>
<path d="M123.189 70.4579C118.457 71.5937 117.594 78.0274 123.263 78.1334C125.231 78.1702 129.388 74.2739 126.437 72.9452" stroke="#36FFB3" stroke-width="11.0581" stroke-miterlimit="1.5" stroke-linecap="round" strokeLinejoin="round"/>
<path d="M126.471 42.0281C119.16 39.5343 109.902 50.4188 118.4 54.6903C127.546 59.2881 138.405 47.936 128.759 41.7902" stroke="#36FFB3" stroke-width="11.0581" stroke-miterlimit="1.5" stroke-linecap="round" strokeLinejoin="round"/>
</svg>
