<svg width="120" height="120" viewBox="0 0 120 120" fill="none" xmlns="http://www.w3.org/2000/svg">
<circle cx="60" cy="60" r="60" fill="#D3F3FF"/>
<path fill-rule="evenodd" clip-rule="evenodd" d="M57.8469 81.8853C49.6409 81.8655 31.7072 63.054 33.231 50.5591C34.3038 41.7662 42.2014 36.3108 49.6349 39.327C53.6321 40.9492 55.7859 45.1781 57.8855 48.7299C60.3442 44.8869 63.3512 39.8367 67.8466 38.3266C75.9537 35.6031 83.4435 41.7982 84.2622 51.2526C85.3087 63.3381 65.5041 81.9041 57.8469 81.8853Z" stroke="#3E9FA5" stroke-width="4.5" stroke-miterlimit="1.5" stroke-linecap="round" strokeLinejoin="round"/>
<path d="M76.3818 38.7071C77.136 38.0008 77.8973 37.296 78.708 36.655" stroke="#3E9FA5" stroke-width="4.5" stroke-miterlimit="1.5" stroke-linecap="round" strokeLinejoin="round"/>
<path d="M53.3301 42.0015C54.3791 41.2715 55.357 40.4599 56.3635 39.6758" stroke="#3E9FA5" stroke-width="4.5" stroke-miterlimit="1.5" stroke-linecap="round" strokeLinejoin="round"/>
<path d="M48.2354 38.8439C49.2839 38.1144 50.2618 37.3028 51.2683 36.5182" stroke="#3E9FA5" stroke-width="4.5" stroke-miterlimit="1.5" stroke-linecap="round" strokeLinejoin="round"/>
<path d="M82.6094 44.969C83.6579 44.239 84.6359 43.4278 85.6423 42.6432" stroke="#3E9FA5" stroke-width="4.5" stroke-miterlimit="1.5" stroke-linecap="round" strokeLinejoin="round"/>
<path d="M84.1255 54.3007C85.1745 53.5707 86.1525 52.7598 87.1589 51.9752" stroke="#3E9FA5" stroke-width="4.5" stroke-miterlimit="1.5" stroke-linecap="round" strokeLinejoin="round"/>
<path d="M79.9116 64.1605C81.0853 63.6548 82.2054 63.0549 83.3482 62.4869" stroke="#3E9FA5" stroke-width="4.5" stroke-miterlimit="1.5" stroke-linecap="round" strokeLinejoin="round"/>
<path d="M71.6392 73.8036C72.814 73.1568 79.5834 69.7329 80.7197 69.0247" stroke="#3E9FA5" stroke-width="4.5" stroke-miterlimit="1.5" stroke-linecap="round" strokeLinejoin="round"/>
<path d="M63.5454 83.5794C64.7081 82.9118 71.4156 79.3677 72.5392 78.6393" stroke="#3E9FA5" stroke-width="4.5" stroke-miterlimit="1.5" stroke-linecap="round" strokeLinejoin="round"/>
</svg>
