<svg width="429" height="429" viewBox="0 0 429 429" fill="none" xmlns="http://www.w3.org/2000/svg">
<g opacity="0.2">
<path d="M284.554 233.73C295.194 234.514 294.528 227.509 297.492 230.752C301.265 234.92 309.723 235.597 313.521 231.863C319.666 225.896 316.636 208.583 306.895 196.136C305.51 194.374 303.375 191.53 302.195 189.932C295.866 181.43 285.923 190.419 277.069 212.883C272.107 225.426 274.751 233.083 284.554 233.73ZM295.866 197.341L298.163 194.29C305.89 211.406 310.386 220.289 308.129 226.556C306.31 231.653 304.605 230.748 302.116 223.149C300.671 218.697 299.53 216.758 298.058 215.941C291.47 212.407 292.937 222.024 286.87 227.308C284.99 229.005 283.927 227.807 283.399 223.52C283.006 219.106 289.001 206.416 295.866 197.341Z" fill="white"/>
<path d="M127.04 222.322C130.899 222.7 131.65 223.07 132.751 224.639C134.156 226.586 139.165 228.639 142.565 228.579C152.689 228.369 162.774 211.166 163.377 193.169C163.847 179.566 158.332 179.101 138.802 190.902C114.422 205.688 108.877 220.501 127.04 222.322ZM127.549 208.38C133.878 201.682 152.756 191.859 152.437 195.562C151.913 200.522 147.867 212.518 145.17 217.109C140.011 225.667 135.451 226.449 138.545 218.185C140.121 213.975 137.421 211.453 133.602 213.579C132.687 214.125 130.32 215.461 128.411 216.525C122.44 219.89 121.93 214.365 127.549 208.38Z" fill="white"/>
<path d="M194.653 258.034C197.088 257.701 198.239 257.954 199.048 258.879C206.867 267.673 219.248 261.196 219.64 248.276C220.479 215.878 212.653 213.037 187.167 236.476C176.153 246.664 180.779 259.952 194.653 258.034ZM188.742 246.043C190.465 243.577 194.936 240.895 199.913 237.335C208.873 230.734 207.928 230.647 208.37 238.013C208.812 244.667 211.514 249.323 211.282 252.081C210.904 255.939 206.572 262.762 203.108 253.732C201.352 249.163 198.32 247.762 196.023 250.813C190.161 258.397 186.103 249.766 188.742 246.043Z" fill="white"/>
<path d="M135.983 253.049C99.0723 267.588 82.5293 287.796 102.838 293.621L107.896 295.07L108.736 298.762C110.289 305.299 115.563 309.496 122.617 309.648C134.885 309.885 143.035 300.224 148.801 278.648C156.132 250.992 153.596 246.131 135.983 253.049ZM135.663 289.286C129.454 304.207 120.679 310.078 116.406 302.256C114.134 298.116 114.715 293 117.55 291.839C128.918 287.117 134.935 277.458 128.074 274.889C122.46 272.788 114.454 277.791 109.908 286.134C105.976 293.551 99.748 290.953 102.696 283.079C104.214 279.025 107.418 276.401 118.912 269.682C125.964 265.566 144.647 256.737 144.911 257.458C145.418 258.715 138.873 281.421 135.663 289.286Z" fill="white"/>
<path d="M147.829 144.946C150.343 145.354 150.519 145.597 149.906 147.234C148.242 151.679 154.111 156.897 160.746 156.981C174.836 157.1 193.251 139.726 196.487 123.248C198.712 112.081 143.06 120.404 138.74 131.943C136.61 137.635 140.784 143.82 147.829 144.946ZM187.679 124.218C188.069 125.076 174.476 142.388 170.221 146.395C163.18 153.093 157.159 154.216 159.348 148.369C159.698 147.433 161.743 145.532 163.74 144.235C171.153 139.632 170.86 139.701 170.275 138.415C169.153 135.95 162.137 136.168 156.507 138.861C150.02 141.943 144.64 139.93 146.479 135.018C147.763 131.588 186.41 121.432 187.679 124.218Z" fill="white"/>
<path d="M241.766 176.823C238.103 176.874 222.347 194.976 219.526 202.276C216.14 211.32 222.351 218.713 232.279 217.362C233.682 217.176 235.017 216.698 235.133 216.386C235.279 215.996 237.706 216.638 240.483 217.767C249.937 221.484 253.803 217.331 253.921 203.241C254.069 187.651 249.142 176.828 241.766 176.823ZM241.132 210.098C240.076 204.369 234.658 203.408 232.732 208.553C231.214 212.608 226.772 213.789 227.227 209.96C227.683 206.13 240.506 188.974 242.377 189.674C243.703 190.171 244.744 205.673 243.704 209.639C242.421 214.492 241.943 214.58 241.132 210.098Z" fill="white"/>
<path d="M251.411 138.475C252.862 138.396 254.83 137.889 255.61 137.47C256.769 136.748 257.918 137.001 260.813 138.529C274.283 145.527 282.285 131.988 274.578 115.058C267.602 99.7353 261.19 98.5794 251.521 110.872C238.484 127.414 238.393 139.291 251.411 138.475ZM262.786 111.889C266.017 122.965 269.609 133.555 267.272 136.236C265.46 138.224 263.266 134.825 263.108 129.788C262.88 124.458 256.439 122.669 255.312 127.58C253.562 135.103 247.795 137.211 249.223 129.834C250.292 124.367 261.822 113.039 262.786 111.889Z" fill="white"/>
<path d="M220.328 311.736C225.891 310.885 225.813 310.856 225.835 314.598C225.77 319.996 231.189 323.802 238.214 323.321C251.29 322.349 257.427 302.868 251.86 279.272C250.786 274.781 254.375 264.48 237.065 272.489C227.606 276.86 212.839 284.487 208.378 287.617C193.642 298.013 201.836 314.591 220.328 311.736ZM208.238 298.677C210.954 293.56 238.851 277.691 244.824 277.883C246.403 277.94 245.187 299.708 243.233 307.777C240.394 319.159 232.397 323.899 232.762 313.902C232.878 311.456 233.5 308.133 234.142 306.418C236.35 300.756 230.98 298.479 226.228 303.1C217.103 312.04 203.06 308.472 208.238 298.677Z" fill="white"/>
</g>
</svg>
