<svg width="120" height="120" viewBox="0 0 120 120" fill="none" xmlns="http://www.w3.org/2000/svg">
<circle cx="60" cy="60" r="60" fill="#7CA851"/>
<g clip-path="url(#clip0_951_17599)">
<path d="M43.5378 42.0293C47.6648 42.117 50.7027 43.9382 52.5602 47.6457C53.5488 49.6185 54.4615 51.6296 55.4526 53.6011C55.8551 54.3958 56.319 55.1576 56.8399 55.8797C57.6285 56.9782 57.1295 58.5828 55.8213 58.8759C55.0306 59.0397 54.2308 59.156 53.4262 59.2241C51.6262 59.4041 49.8232 59.555 48.0214 59.7176C47.9665 59.7284 47.9106 59.7324 47.8547 59.7294C46.787 59.5507 45.8636 59.9921 44.8936 60.3406C43.4145 60.8564 41.8378 61.029 40.2826 60.8453C38.3894 60.651 36.6213 60.158 34.992 59.1577C34.7521 59.0104 34.4113 59.0178 34.1139 58.9767C32.5667 58.764 31.0684 59.1636 29.5517 59.3437C29.0525 59.399 28.5501 59.4193 28.0481 59.4048C27.0487 59.3832 26.3407 58.3561 26.9133 57.4411C28.2555 55.296 29.0167 52.8746 30.1505 50.631C31.4781 48.0038 33.3428 45.8537 35.832 44.2723C37.5396 43.1954 39.4607 42.5048 41.4618 42.2487C42.1506 42.1549 42.8455 42.1013 43.5378 42.0293ZM34.0553 51.8341C33.6473 54.1935 35.1852 56.8284 37.5043 57.6806C38.9484 58.2072 40.4852 58.4303 42.019 58.3363C44.4645 58.2023 46.2767 56.9769 47.5778 54.9552C48.0436 54.2179 48.2895 53.3624 48.2864 52.4896C45.6393 51.6059 43.2669 50.4454 42.1275 47.5224C40.0913 50.3904 37.148 51.2746 34.0553 51.8341Z" fill="#E6FE55"/>
<path d="M46.4148 77.7378C42.8139 77.7378 39.2128 77.7205 35.6121 77.7435C32.7121 77.762 29.8126 77.8442 26.913 77.8656C26.1606 77.8622 25.4096 77.802 24.6662 77.6856C22.9453 77.4362 22.2546 76.4156 22.825 74.769C23.2164 73.6639 23.7278 72.6052 24.3502 71.6122C26.9704 67.3849 30.7807 64.6158 35.3576 62.8559C37.6475 61.9553 40.0703 61.4414 42.528 61.3351C45.6746 61.2155 48.6994 61.5982 51.5053 63.136C53.999 64.5029 56.0115 66.3994 57.6841 68.6902C58.8812 70.3302 59.7066 72.1663 60.5468 73.9933C60.7435 74.4872 60.8644 75.008 60.9058 75.5382C61.0483 76.6879 60.4521 77.4393 59.301 77.5594C58.4429 77.6491 57.5783 77.7183 56.7163 77.7231C53.283 77.7412 49.8495 77.7304 46.4161 77.7304L46.4148 77.7378ZM24.652 75.4178C24.7393 75.4557 24.8286 75.4885 24.9197 75.5158C25.9153 75.74 26.9089 75.602 27.9125 75.5457C29.9435 75.4312 31.9797 75.3793 34.0142 75.3688C40.7411 75.334 47.4683 75.3363 54.1952 75.306C55.4205 75.3006 56.6456 75.2103 57.8705 75.1512C57.9645 75.1322 58.0546 75.0975 58.1373 75.0488C58.1491 74.9447 58.1757 74.8827 58.1585 74.837C57.0149 71.777 55.3784 69.0423 52.8634 66.9093C51.4013 65.6695 49.7885 64.6703 47.9029 64.2131C45.0686 63.5355 42.1183 63.51 39.2729 64.1383C34.1216 65.2347 29.8261 67.7625 26.6285 72.0231C25.8434 73.0688 25.1113 74.1556 24.652 75.4168V75.4178Z" fill="#E6FE55"/>
</g>
<g clip-path="url(#clip1_951_17599)">
<path d="M77.3572 61.0227C74.588 60.8752 72.121 60.4044 70.063 58.6924C68.5669 57.4476 67.6802 55.836 67.3157 53.949C66.5185 49.826 68.7879 46.249 72.1973 44.4906C74.5722 43.2657 77.0734 42.7919 79.7317 43.2026C82.0003 43.5528 83.6597 44.8321 85.0034 46.5991C85.4584 47.1976 85.9924 47.7661 86.3091 48.4339C86.9627 49.8149 87.5186 51.2316 87.1414 52.8412C86.7884 54.3466 86.3513 55.799 85.368 57.0293C83.6414 59.1894 81.4599 60.5613 78.6638 60.8663C78.1647 60.9205 77.6683 60.9853 77.3572 61.0227ZM69.7379 53.0765C70.0378 55.3095 71.1442 56.9089 73.213 57.735C74.05 58.0414 74.9206 58.2476 75.8064 58.349C78.6671 58.7533 81.1226 58.0114 82.9417 55.6541C83.7604 54.6411 84.1591 53.354 84.056 52.0571C81.741 51.6282 79.6465 50.8527 77.9495 49.1642C75.7625 51.6479 72.8657 52.5561 69.7374 53.0765H69.7379Z" fill="#E6FE55"/>
<path d="M82.1532 77.7249C78.6639 77.7249 75.1745 77.707 71.6856 77.7301C68.6739 77.7501 65.6632 77.8364 62.651 77.8497C61.8152 77.8553 60.9811 77.7731 60.1625 77.6045C58.6323 77.2833 58.1387 76.4204 58.5237 74.9028C58.8294 73.6984 59.454 72.6403 60.1121 71.6059C62.7848 67.3982 66.6106 64.6442 71.2167 62.8794C73.7168 61.9009 76.3738 61.3817 79.0592 61.3467C82.9493 61.3177 86.5618 62.2582 89.6643 64.7682C91.8712 66.5291 93.6809 68.734 94.9756 71.2393C95.3578 71.982 95.767 72.7164 96.0761 73.4893C96.35 74.1556 96.546 74.8513 96.6602 75.5623C96.8248 76.6691 96.2241 77.4079 95.1213 77.5408C94.3476 77.6412 93.5687 77.6971 92.7884 77.7081C89.2433 77.7256 85.6983 77.7158 82.1532 77.7158V77.7249ZM93.9005 75.0881C93.9133 74.9416 93.9374 74.8805 93.9201 74.8346C92.7817 71.8215 91.1678 69.1192 88.6827 67.0071C87.2254 65.7687 85.6172 64.7798 83.7394 64.2925C81.2405 63.666 78.637 63.5732 76.0996 64.0203C69.8085 65.0563 64.7828 68.1087 61.3522 73.5664C60.9872 74.1472 60.6966 74.7746 60.352 75.4159C61.4968 75.7471 62.539 75.6151 63.5976 75.5511C65.6555 75.4269 67.7204 75.3818 69.7832 75.3706C76.2589 75.3356 82.7349 75.3397 89.2105 75.3089C90.6592 75.3021 92.1077 75.2158 93.556 75.1616C93.6727 75.1463 93.7879 75.1216 93.9005 75.0876V75.0881Z" fill="#E6FE55"/>
</g>
<defs>
<clipPath id="clip0_951_17599">
<rect width="38.5175" height="36" fill="white" transform="translate(22.5 42)"/>
</clipPath>
<clipPath id="clip1_951_17599">
<rect width="38.5175" height="34.993" fill="white" transform="translate(58.248 43.0071)"/>
</clipPath>
</defs>
</svg>
