<svg width="120" height="120" viewBox="0 0 120 120" fill="none" xmlns="http://www.w3.org/2000/svg">
<circle cx="60" cy="60" r="60" fill="#8F4949"/>
<path d="M60.4555 69.7073C57.9614 69.6538 56.0474 69.2892 54.2231 68.489C52.8598 67.9051 51.7058 66.9211 50.9137 65.6672C50.6187 65.2037 50.3842 64.6529 50.8612 64.2328C51.3898 63.7673 51.9147 64.0748 52.3218 64.5278C54.7659 67.2528 57.9435 67.8737 61.3377 67.3712C64.1955 66.9479 66.3577 65.3274 67.6061 62.6342C67.7536 62.3181 67.8506 61.9098 68.1032 61.7281C68.4614 61.4711 68.9989 61.1837 69.3565 61.2827C69.7227 61.3841 70.2083 61.9359 70.2079 62.2897C70.218 62.9816 70.0367 63.6628 69.6841 64.2583C67.3961 67.7505 64.1565 69.6148 60.4555 69.7073Z" fill="#E6FE55"/>
<path d="M66.7119 52.5933C66.8605 51.7943 66.9369 51.2077 67.0838 50.6393C67.2627 49.9469 67.69 49.4435 68.4365 49.354C69.195 49.264 69.7966 49.603 70.2416 50.2023C71.0423 51.2817 70.9548 54.0514 70.1006 55.0817C69.3316 56.0088 67.9277 55.969 67.3864 54.895C67.0073 54.1437 66.8967 53.2562 66.7119 52.5933Z" fill="#E6FE55"/>
<path d="M52.3231 52.6319C52.1124 53.4338 52.0281 54.1102 51.7595 54.7044C51.2566 55.8211 50.001 55.9528 49.325 54.9433C48.4268 53.6018 48.36 52.0718 48.8826 50.6049C49.2985 49.4372 50.8322 49.3247 51.4925 50.3974C51.9167 51.0866 52.076 51.9391 52.3231 52.6319Z" fill="#E6FE55"/>
<path d="M36.1231 53.396C33.9419 61.9689 35.8519 69.5316 41.804 75.8769C41.9589 76.0409 42.1169 76.2048 42.2748 76.3628C45.4722 79.56 49.4547 81.5341 52.6101 82.9078C53.9645 83.4993 60.914 84.2176 62.7943 83.9375C73.9685 82.2688 81.322 75.9664 83.8831 65.4225C84.3721 63.357 84.6157 61.2412 84.6087 59.1187C84.6205 54.1187 82.5154 48.3058 78.1739 43.9523C77.7268 43.5827 77.2813 43.1999 76.8507 42.8288C75.9166 42.0258 74.9512 41.1944 73.9411 40.4854C66.2249 35.0546 58.2077 35.0242 50.1131 37.904C42.7845 40.5098 38.0778 45.723 36.1231 53.396ZM50.1445 40.4711C57.2467 37.5197 64.3729 36.9989 71.3233 41.4192C72.5941 42.2283 75.9822 44.9666 76.5157 45.3779L76.5498 45.4032L76.578 45.4346C79.2898 48.3101 82.3947 53.5677 82.3262 58.9725C82.3035 61.2835 81.9907 63.5824 81.3949 65.8154C79.6294 72.2326 75.4086 76.9093 68.491 80.108C61.4586 83.4753 51.3735 80.0712 48.6902 78.2998C45.7245 76.2721 43.1294 73.7496 41.0186 70.8424C37.708 66.1553 36.9651 59.4179 38.744 53.2588C39.5766 50.415 41.0316 47.7922 43.0034 45.5804C44.9753 43.3686 47.4146 41.6233 50.1445 40.4711Z" fill="#E6FE55"/>
</svg>
