<svg width="120" height="120" viewBox="0 0 120 120" fill="none" xmlns="http://www.w3.org/2000/svg">
<circle cx="60" cy="60" r="60" fill="#3E9FA5"/>
<path d="M80.0737 64.2592C79.8265 66.0283 79.0193 67.615 78.2041 69.173C76.8282 71.8404 74.8991 74.1856 72.5446 76.053C69.7622 78.2521 66.5805 79.569 63.103 80.1767C60.9473 80.5535 58.7757 80.8278 56.5741 80.7163C51.2663 80.4475 46.6846 78.5977 42.9609 74.7143C41.3809 73.0393 40.038 71.157 38.9693 69.1196C38.3522 67.9745 38.1205 66.7768 37.9127 65.5493C37.5285 63.2783 37.2921 61.0095 37.5446 58.6884C37.8564 55.8218 38.6505 53.1351 40.0859 50.6379C41.826 47.5527 44.2103 44.8758 47.0776 42.7879C49.9329 40.7255 53.1645 39.669 56.6561 39.2488C60.3574 38.7739 64.1188 39.1645 67.6426 40.3896C71.0998 41.5992 74.1853 43.4447 76.2717 46.5401C78.3582 49.6354 79.806 52.978 80.2973 56.7612C80.7053 59.9002 80.288 62.7246 80.0737 64.2592ZM78.0571 59.5797C78.0396 57.3761 77.8314 55.1967 77.0292 53.1476C76.3683 51.4592 75.583 48.8871 74.2457 47.5542C72.388 44.979 69.8018 43.4066 66.8732 42.3674C63.534 41.1581 59.9464 40.7908 56.4302 41.2983C52.8373 41.8148 49.6183 43.1291 46.9114 45.5719C46.1126 46.2943 45.3517 47.0571 44.6314 47.8573C41.5728 51.2494 39.9236 55.3008 39.9254 61.9654C39.9264 66.1205 41.9833 69.6723 44.9292 72.7079C48.0562 75.9302 51.8259 77.5455 56.2347 77.9064C58.3759 78.0811 60.4866 77.849 62.5921 77.5249C68.8882 76.5563 73.3822 73.164 76.28 67.5306C78.0264 64.1352 77.9516 60.8276 78.0571 59.5797Z" fill="#E6FE55"/>
<path d="M70.408 62.2414C70.2743 63.1901 69.8378 64.041 69.397 64.8765C68.653 66.307 67.6098 67.5647 66.3367 68.5661C64.8321 69.7455 63.1116 70.4517 61.2312 70.7776C60.0655 70.9797 58.8912 71.1267 57.7007 71.067C54.8305 70.9228 52.353 69.9308 50.3394 67.8482C49.4851 66.9499 48.7589 65.9405 48.181 64.8479C47.8473 64.2338 47.722 63.5915 47.6096 62.9332C47.4019 61.7153 47.274 60.4986 47.4106 59.2538C47.5792 57.7165 48.0086 56.2757 48.7848 54.9365C49.7258 53.282 51.015 51.8464 52.5655 50.7267C54.1095 49.6207 55.857 49.0541 57.745 48.8288C59.7465 48.5741 61.7805 48.7836 63.6859 49.4406C65.5554 50.0892 67.2238 51.079 68.3521 52.7389C69.4803 54.3989 70.2633 56.1915 70.5289 58.2203C70.7495 59.9037 70.5239 61.4184 70.408 62.2414ZM69.3175 59.7318C69.3081 58.5501 69.1955 57.3813 68.7617 56.2824C68.4043 55.377 67.9796 53.9976 67.2565 53.2828C66.252 51.9018 64.8535 51.0585 63.2699 50.5012C61.4642 49.8527 59.5243 49.6557 57.6229 49.9279C55.6801 50.2049 53.9394 50.9097 52.4757 52.2197C52.0437 52.6072 51.6322 53.0162 51.2428 53.4453C49.5888 55.2645 48.697 57.4372 48.698 61.0112C48.6985 63.2395 49.8108 65.1443 51.4038 66.7722C53.0947 68.5003 55.1331 69.3665 57.5172 69.5601C58.675 69.6538 59.8163 69.5293 60.9549 69.3555C64.3595 68.836 66.7896 67.0168 68.3566 63.9958C69.3009 62.1749 69.2605 60.4011 69.3175 59.7318Z" fill="#E6FE55"/>
<path d="M28.0985 46.0152C27.9963 45.1136 27.9506 44.1889 27.9064 43.2938C27.8862 42.8792 27.8657 42.4646 27.8398 42.0504C27.829 41.8757 27.8187 41.7011 27.8088 41.5264C27.7759 40.9546 27.7418 40.3638 27.6775 39.7833C27.6532 39.6506 27.5938 39.5267 27.5055 39.4244C27.4171 39.3221 27.3029 39.2453 27.1748 39.2015C26.9517 39.1577 26.739 39.3922 26.5668 39.5817C26.4663 39.7123 26.4111 39.8718 26.4098 40.0363C26.3921 40.6215 26.3723 41.2066 26.3521 41.7917C26.2965 43.3829 26.2389 45.027 26.2518 46.6459C26.2613 47.2217 26.3984 47.7883 26.6531 48.3054C26.9079 48.8224 27.2741 49.2771 27.7257 49.637C28.1812 49.99 28.6707 50.2973 29.1869 50.5544C29.4 50.6702 29.6199 50.7892 29.8422 50.918C29.8207 51.5326 29.7946 52.152 29.7684 52.7743C29.7076 54.2143 29.6441 55.7031 29.6395 57.1792C29.6203 62.4688 29.6235 67.847 29.6267 73.0478C29.6279 75.0117 29.6288 76.9755 29.6293 78.9393C29.6293 79.0058 29.6291 79.0726 29.6279 79.1393C29.6259 79.3451 29.6239 79.5576 29.6407 79.7693C29.7 80.5103 30.1194 81.0003 30.6885 81.0003C30.6997 81.0003 30.7106 81.0003 30.7218 81.0003C31.3147 80.9807 31.7035 80.4712 31.7125 79.702C31.7173 79.2793 31.705 78.8513 31.6933 78.4374C31.683 78.0787 31.6723 77.7081 31.673 77.3445C31.6828 72.6854 31.6952 68.0266 31.7103 63.3676L31.7208 59.6667C31.7226 59.0642 31.724 58.4617 31.7248 57.8592C31.7275 56.2528 31.7305 54.5923 31.7467 52.9592C31.752 52.4299 31.7875 51.8895 31.8218 51.3668C31.8351 51.1627 31.8484 50.9587 31.8601 50.7545C33.6753 50.1033 34.7579 48.7937 35.3627 46.5271C35.9436 44.3498 35.9666 42.1894 35.9133 40.3631L35.9118 40.2971C35.9082 40.1043 35.9038 39.8637 35.762 39.7191C35.5086 39.4608 35.2115 39.1838 34.8855 39.1661C34.5763 39.1485 34.2238 39.5197 34.089 39.7941C34.0009 40.011 33.9607 40.2443 33.9711 40.4781C33.9686 40.5681 33.9665 40.658 33.9572 40.7447C33.9105 41.1956 33.8699 41.6477 33.8294 42.0999C33.7341 43.1607 33.6356 44.2568 33.4557 45.3186C33.339 46.0056 33.0438 46.6864 32.7581 47.3448C32.7018 47.4747 32.6456 47.6045 32.5907 47.7337C32.5359 47.8745 32.4526 48.0026 32.346 48.1099C32.2394 48.2173 32.1117 48.3016 31.9709 48.3577C31.9702 48.2569 31.9695 48.158 31.9687 48.0609C31.9655 47.7022 31.9623 47.3633 31.9739 47.0278C31.9849 46.7085 31.9977 46.3892 32.0105 46.0699C32.0842 44.2403 32.1602 42.3484 31.8747 40.4848C31.8486 40.1917 31.7614 39.9072 31.6189 39.6494C31.5338 39.5491 31.4259 39.4707 31.304 39.4208C31.182 39.3709 31.0498 39.351 30.9185 39.3628C30.6512 39.3895 30.4728 39.7609 30.44 39.8351C30.3952 39.9581 30.3804 40.0899 30.3972 40.2196C30.3997 40.2636 30.4022 40.3081 30.4008 40.3503C30.3791 40.9382 30.3579 41.5261 30.3372 42.1143C30.2807 43.7013 30.2223 45.3424 30.1513 46.9554C30.1335 47.3444 30.0825 47.7333 30.0278 48.1434C30.0115 48.2647 29.9954 48.3869 29.9798 48.511C28.8546 48.0657 28.2381 47.2471 28.0985 46.0152Z" fill="#E6FE55"/>
<path d="M88.2318 41.2261C88.0996 40.9432 87.9675 40.6602 87.841 40.3763C87.582 39.7954 87.098 39.3846 86.3183 39.0835C86.2079 39.0308 86.0874 39.0024 85.965 39.0001C85.8427 38.9979 85.7213 39.0218 85.609 39.0704C85.5118 39.1253 85.4276 39.2005 85.3624 39.2909C85.2972 39.3813 85.2525 39.4846 85.2313 39.5939C85.1407 39.9575 85.095 40.3309 85.095 40.7056C85.0813 41.6093 85.0747 42.5132 85.0683 43.417C85.0571 44.9329 85.046 46.5008 84.9988 48.0405C84.9318 50.2327 84.8448 52.4601 84.7608 54.615C84.6737 56.8513 84.5831 59.1641 84.5149 61.4392C84.4 65.2706 84.3148 69.1666 84.2324 72.9345L84.1645 76.0225C84.1437 76.9623 84.1443 77.9407 84.1669 78.9303C84.1498 79.2938 84.2249 79.6559 84.3852 79.983C84.4856 80.1488 84.8486 80.6979 85.3125 80.7962C85.3715 80.8087 85.4316 80.8151 85.492 80.8153C85.9757 80.8153 86.3089 80.3799 86.423 79.9301C86.5177 79.5364 86.5649 79.1328 86.5637 78.7279C86.5755 77.0626 86.5835 75.3972 86.5874 73.7318C86.5909 72.7086 86.5947 71.6853 86.5992 70.6619C86.6003 70.4506 86.6143 70.2415 86.6303 69.9991C86.6347 69.9319 86.6392 69.8628 86.6436 69.7912C87.1138 69.7912 87.5792 69.7935 88.0396 69.7981C89.2493 69.8058 90.3914 69.8136 91.5556 69.7788C92.9007 69.7385 93.3933 69.2368 93.4379 67.861C93.4406 67.6407 93.4296 67.4202 93.4045 67.2014L93.3889 67.027C93.3626 66.7131 93.334 66.3996 93.3053 66.086C93.252 65.5084 93.1975 64.9109 93.1618 64.3236L93.1234 63.6843C92.9458 60.711 92.7606 57.6365 92.0757 54.6748C91.3249 51.4315 90.4437 48.0046 89.3031 43.8905C89.0202 42.9746 88.6619 42.0834 88.2318 41.2261ZM91.215 67.442H86.7355C86.6934 64.5935 86.7797 61.6224 86.8632 58.7476C86.8999 57.4807 86.938 56.171 86.9651 54.88C87.0269 51.915 87.0868 48.95 87.145 45.9849L87.1999 43.2248C89.3072 50.3397 91.3324 58.6765 91.2146 67.442H91.215Z" fill="#E6FE55"/>
</svg>
