<svg width="120" height="120" viewBox="0 0 120 120" fill="none" xmlns="http://www.w3.org/2000/svg">
<circle cx="60" cy="60" r="60" fill="#5F4086"/>
<g clip-path="url(#clip0_951_17589)">
<path d="M60.1191 81.1199C58.4206 82.845 56.2181 83.2505 54.0249 83.6472C52.1134 84.0281 50.1421 83.9948 48.2446 83.55C44.5507 82.6339 40.3884 79.3421 39.9068 73.8577C39.6383 70.8051 39.4347 67.7567 39.4694 64.6833C39.5066 61.3763 39.2686 58.0669 39.2203 54.7574C39.191 52.7513 39.092 50.7137 39.3818 48.742C39.8717 45.4089 40.399 42.0222 42.9216 39.4304C44.9983 37.2967 47.4408 35.9321 50.5062 36.0372C51.3147 36.0746 52.1112 36.2465 52.8629 36.5458C54.8551 37.3194 56.5547 38.6953 57.7237 40.4806C59.7358 43.497 60.8837 46.8403 61.3534 50.4143C61.587 52.1897 61.7208 53.9783 61.91 55.8626C62.2373 55.7755 62.5626 55.6952 62.8842 55.6022C66.695 54.4997 70.4698 54.5137 74.2114 55.9256C75.1941 56.2786 76.0931 56.8301 76.8521 57.5457C77.6112 58.2612 78.214 59.1254 78.6228 60.084C80.3164 63.8574 80.8947 67.7553 80.0026 71.8265C79.3913 74.6142 78.0028 76.9136 75.6939 78.6379C72.6027 80.9464 69.1503 82.2142 65.2699 82.2058C63.522 82.2031 61.8437 81.7859 60.1191 81.1199ZM41.8038 59.2185C43.6732 59.2185 45.4017 59.2447 47.1291 59.213C50.3065 59.1544 53.4832 59.0665 56.6597 58.9748C56.893 58.9614 57.1173 58.8807 57.3053 58.7422C57.8465 58.3475 58.363 57.92 58.8521 57.4625C59.0632 57.2569 59.1932 56.9823 59.2186 56.6891C59.2393 55.4211 59.2342 54.1507 59.1784 52.8837C59.0171 49.2226 58.357 45.6817 56.573 42.4168C55.824 41.0104 54.7261 39.8189 53.3842 38.9559C51.607 37.8149 49.7393 37.642 47.8262 38.4652C45.5636 39.439 43.8266 41.0609 42.915 43.3391C41.8998 45.8282 41.3834 48.4915 41.3947 51.1786C41.4174 53.5374 41.5806 55.8948 41.69 58.2523C41.7047 58.5632 41.7619 58.8724 41.8038 59.2185ZM57.6918 79.8282C57.1178 79.3491 56.6733 79.0021 56.2561 78.6249C54.7061 77.271 53.589 75.493 53.0435 73.5114C51.9842 69.5867 52.7244 65.9179 54.5993 62.4049C54.7771 62.0719 54.956 61.7394 55.1456 61.3857C53.3646 61.1179 42.846 61.2757 41.886 61.5856C41.886 62.1286 41.8664 62.6877 41.8898 63.245C41.9561 64.8275 42.01 66.4117 42.1244 67.991C42.2768 70.0941 42.4319 72.1993 42.6756 74.2932C43.074 77.7146 46.2798 80.614 49.3029 81.1512C51.8827 81.6096 54.3535 81.1615 56.7846 80.3354C57.1008 80.192 57.4042 80.0225 57.6918 79.8282ZM75.5196 60.6917C74.9405 59.6979 74.0363 58.9332 72.9586 58.5261C71.6508 58.0041 70.3236 57.5167 68.9737 57.1183C68.1405 56.8729 67.2237 56.6203 66.3893 56.725C64.3099 56.951 62.3106 57.6514 60.5464 58.7723C57.7008 60.6328 56.1939 63.4131 55.2749 66.5652C54.5972 68.8896 54.5917 71.222 55.4242 73.5221C55.5727 73.9321 55.7819 74.3202 55.9657 74.7244C62.2638 69.6061 69.1306 65.5098 75.5196 60.6917ZM57.313 76.5241C59.3279 78.4727 61.5399 79.5582 64.1174 79.8148C67.8615 80.1875 71.1396 78.9552 74.0784 76.7247C75.6495 75.548 76.7433 73.8468 77.1601 71.9317C77.6097 69.9326 77.6645 67.8653 77.3214 65.8452C77.1849 65.0006 76.9341 64.1755 76.6966 63.1792L57.313 76.5241Z" fill="#E6FE55"/>
</g>
<defs>
<clipPath id="clip0_951_17589">
<rect width="41.5135" height="48" fill="white" transform="translate(39 36)"/>
</clipPath>
</defs>
</svg>
