<svg width="120" height="120" viewBox="0 0 120 120" fill="none" xmlns="http://www.w3.org/2000/svg">
<circle cx="60" cy="60" r="60" fill="#36B887"/>
<g clip-path="url(#clip0_951_17614)">
<path d="M54.191 42.4167C54.2567 41.1859 54.3214 39.9751 54.3963 38.5735C53.7423 38.5735 53.1639 38.5957 52.5877 38.5684C51.6764 38.5253 51.3381 38.2759 51.2934 37.6758C51.246 37.039 51.6463 36.6392 52.5188 36.5129C52.9801 36.4548 53.4443 36.422 53.9092 36.4145C57.3702 36.2957 60.8315 36.1809 64.2929 36.0699C64.5028 36.0621 64.713 36.0799 64.9185 36.123C65.6594 36.284 66.0792 36.7631 66.0728 37.4139C66.0698 37.7339 65.9501 38.0419 65.7359 38.2803C65.5216 38.5186 65.2274 38.6708 64.9086 38.7086C64.3334 38.8039 63.7424 38.8032 63.0714 38.8514V42.2191C66.7566 42.5827 69.8664 44.3279 73.0029 46.4256C73.7613 45.8072 74.5652 45.2111 75.2997 44.5406C77.4288 42.5997 78.6039 42.7384 80.16 44.9036C80.5588 45.3949 80.9908 45.8585 81.4531 46.291C82.6474 47.5429 82.6781 48.515 81.5047 49.8132C80.7159 50.6861 79.8792 51.5163 79.0407 52.3899C79.5935 53.392 80.1521 54.3719 80.6803 55.3684C83.6916 61.0477 83.2604 69.4975 78.3853 75.0005C74.3259 79.5829 69.3446 82.3484 63.3744 83.4682C57.7135 84.5296 52.283 83.6966 47.0433 81.4352C43.3934 79.8598 40.8835 77.0751 39.5057 73.4613C36.7332 66.1896 37.1909 59.0351 40.8818 52.1312C42.2961 49.4858 44.507 47.602 46.9324 45.9589C48.3345 45.0244 49.7934 44.1777 51.3008 43.4235C52.1859 42.9736 53.1876 42.7566 54.191 42.4167ZM41.5496 64.4149C41.5461 66.7186 41.9136 69.0081 42.638 71.1959C43.9284 75.0113 46.3071 77.784 50.2393 79.046C59.0718 81.8807 67.1036 80.5104 74.0631 74.266C79.2381 69.6228 80.298 62.7435 76.9079 56.6949C74.1967 51.8575 70.1077 48.6036 64.8933 46.7685C62.491 45.9365 59.9444 45.5992 57.4075 45.7768C54.3812 45.9658 51.6779 47.1306 49.1161 48.6486C46.4307 50.2096 44.3431 52.6172 43.1825 55.4917C42.0235 58.273 41.6758 61.1639 41.5496 64.4149ZM57.121 38.7751C57.1867 39.8828 57.2497 40.944 57.3124 42.0025H60.119C60.2815 40.9162 60.4351 39.8904 60.602 38.7751H57.121ZM79.8691 48.0253L77.9259 45.8639L75.5748 48.3518L77.1438 50.0857L79.8691 48.0253Z" fill="#E6FE55"/>
<path d="M61.0653 62.0536C62.7908 62.0994 64.429 62.1343 66.0664 62.1917C66.5709 62.1907 67.0742 62.2451 67.5669 62.3539C67.8623 62.4095 68.129 62.5653 68.3219 62.7947C68.515 63.0244 68.6222 63.3134 68.6254 63.613C68.6336 63.933 68.5313 64.2458 68.336 64.4998C68.1409 64.7539 67.864 64.9336 67.5521 65.0091C67.1083 65.145 66.6452 65.2073 66.1812 65.1938C63.9037 65.0818 61.6282 64.9279 59.3519 64.7908C58.3507 64.7305 57.8666 64.328 57.7557 63.3609C57.7178 62.8994 57.7293 62.4354 57.79 61.9765C58.0767 59.1717 58.373 56.3681 58.6791 53.5656C58.735 53.1064 58.8196 52.6513 58.9325 52.2027C59.0629 51.6575 59.3983 51.3057 59.9912 51.2919C60.658 51.2767 60.9964 51.6772 61.109 52.2765C61.205 52.7289 61.2546 53.1898 61.2572 53.6522C61.2078 56.0929 61.131 58.5333 61.066 60.9737C61.0584 61.2659 61.0653 61.5581 61.0653 62.0536Z" fill="#E6FE55"/>
</g>
<defs>
<clipPath id="clip0_951_17614">
<rect width="45.1948" height="48" fill="white" transform="translate(37.5 36)"/>
</clipPath>
</defs>
</svg>
