<svg width="120" height="120" viewBox="0 0 120 120" fill="none" xmlns="http://www.w3.org/2000/svg">
<circle cx="60" cy="60" r="60" fill="#9B7E62"/>
<path d="M39.4889 39.349C38.9076 39.2764 38.1225 39.1 37.7438 39.7627C37.155 40.793 36.0759 41.6288 35.4686 42.6777C35.0428 43.4133 34.5608 44.2442 34.0725 44.9335C33.5645 45.6506 33.3231 46.4324 32.9155 47.2022C32.1974 48.5586 31.3364 49.9041 30.4594 51.1708C29.6967 52.2725 28.5232 53.0839 27.8804 54.241C27.5372 54.8588 27.1824 55.4269 27.066 56.1542C26.8698 57.3803 27.1533 58.3638 27.3633 59.5669C27.5155 60.4384 28.0425 61.5255 28.9534 61.8292C30.0996 62.2112 30.9726 63.0038 32.0042 63.6002C35.1419 65.4142 38.5609 66.8249 42.0356 67.879C44.4121 68.6 46.7143 69.4257 49.0097 70.3804C50.3891 70.9541 51.6436 71.6952 52.9589 72.3906C53.67 72.7665 54.5169 73.0995 55.1436 73.6122C55.8422 74.1838 56.7906 74.4565 57.561 74.892C58.5931 75.4753 59.6906 76.1762 60.7992 76.5919C61.5201 76.8622 62.1336 77.3015 62.8093 77.6519C63.4726 77.9958 64.1844 78.2231 64.8518 78.5568C65.879 79.0704 66.979 79.2258 68.0513 79.5522C69.7603 80.0723 71.5387 80.1684 73.2932 80.47C75.0706 80.7755 77.0202 81 78.826 81C79.8549 81 81.0308 80.9522 82.0448 80.7932C83.5251 80.561 85.063 80.7558 86.5434 80.4441C87.253 80.2948 87.8878 80.2467 88.5213 79.9012C89.2753 79.4899 89.9059 78.5863 90.4474 77.9492C91.5676 76.6313 92.5583 74.9845 91.8694 73.2308C91.2501 71.6544 89.834 70.9477 88.5342 70.0379C87.8864 69.5844 87.1811 69.0076 86.4335 68.7322C85.7563 68.4827 85.1495 68.4963 84.4557 68.3767C82.6267 68.0614 80.1462 68.5606 78.5739 67.3813C77.9601 66.921 77.3886 66.4139 76.7964 65.9271C76.5059 65.6882 76.0024 65.4073 75.7881 65.1127C74.8948 63.8844 74.0015 62.6466 73.1187 61.4026C71.8563 59.6238 70.9587 57.5385 70.32 55.4626C69.5939 53.1031 68.4717 50.8434 67.7863 48.4755C67.558 47.6872 67.3345 46.9351 67.1528 46.1357C67.0255 45.5756 66.7688 44.7006 66.3901 44.2613C66.0735 43.894 66.0695 43.3478 65.8472 42.9234C65.6614 42.5687 65.4885 42.2067 65.3172 41.844C65.1107 41.4066 65.0525 40.803 64.7096 40.422C64.2947 39.9609 63.1425 39.6981 62.5508 39.6981C61.1439 39.6981 59.2961 40.1347 58.2719 41.1588C57.2753 42.1555 56.5052 43.2741 55.7188 44.41C55.3827 44.8956 55.1608 45.4605 54.7881 45.916C54.5926 46.1549 54.4065 46.7512 54.2064 46.9114C53.9372 47.1267 53.4806 46.9168 53.1399 46.9114C52.565 46.9022 51.9892 46.9114 51.4141 46.9114C50.6798 46.9114 49.8989 46.9459 49.1907 46.7304C48.3583 46.4771 47.6545 46.3497 46.9349 45.8384C46.2839 45.3759 45.5318 44.8941 44.8407 44.494C43.8762 43.9356 42.9204 43.2879 42.1648 42.4903C41.4325 41.7173 40.8608 40.858 40.0706 40.1117C39.4733 39.5475 38.7764 39.3418 38.0928 39" stroke="#E6FE55" stroke-width="2.25" stroke-linecap="round"/>
<path d="M68.4496 50.9202C67.6083 50.9202 66.6751 51.2474 65.9124 51.5524C65.3356 51.7832 64.8937 52.1474 64.375 52.4657C64.1129 52.6265 63.8337 52.7711 63.5617 52.9142C63.4185 52.9896 63.2674 53.0532 63.1456 53.1628C63.0338 53.2634 62.9707 53.4217 62.8564 53.4979" stroke="#E6FE55" stroke-width="2.25" stroke-linecap="round"/>
<path d="M69.8602 55.5403C69.7304 55.5479 69.625 55.633 69.5089 55.6862C69.149 55.851 68.7913 56.0204 68.4281 56.178C67.6118 56.5321 66.8034 56.8912 66.0747 57.4074C65.7705 57.6228 65.5052 57.8526 65.2397 58.118" stroke="#E6FE55" stroke-width="2.25" stroke-linecap="round"/>
<path d="M71.9508 60.1121C71.7215 60.1241 71.4942 60.2317 71.2807 60.3066C70.6175 60.5394 69.9425 60.7503 69.2974 61.0307C68.8182 61.2391 68.4204 61.4811 68.0086 61.79C67.7426 61.9895 67.5169 62.1628 67.2817 62.398" stroke="#E6FE55" stroke-width="2.25" stroke-linecap="round"/>
<path d="M28.3094 53.4756C29.2306 54.313 30.8136 54.6372 31.9882 54.9191C34.0559 55.4154 36.1409 55.6412 38.2348 55.9902C41.7404 56.5745 45.2756 56.9561 48.4794 58.558C50.4087 59.5226 52.4369 60.343 54.0275 61.831C54.7045 62.4643 55.4657 62.9655 56.103 63.6737C56.9736 64.6409 57.6298 65.7925 58.5445 66.7071C60.5379 68.7006 63.1315 69.81 65.6093 71.0777C68.4996 72.5565 71.4841 73.0997 74.6498 73.5258C78.1947 74.003 81.7343 74.211 85.3003 74.3175C87.0808 74.3706 88.8006 74.3996 90.5756 74.3108C91.1509 74.282 91.6747 74.0713 92.252 74.0713" stroke="#E6FE55" stroke-width="2.25" stroke-linecap="round"/>
</svg>
