<svg xmlns="http://www.w3.org/2000/svg" width="72" height="78" viewBox="0 0 72 78" fill="none">
  <path fill-rule="evenodd" clip-rule="evenodd" d="M36.4369 35.0323C34.9775 35.1155 33.1116 35.3603 32.3109 35.5444C25.2128 37.3737 25.1339 37.3782 24.6857 35.0689C23.6118 29.7679 19.7651 23.3784 17.0506 28.5194C15.4279 31.6393 13.1984 37.9992 12.3224 39.9883C9.98825 45.2065 10.0811 46.4873 12.8578 47.9911C19.7765 51.6926 27.944 58.9043 32.5886 65.4066C33.7294 67.0234 33.9616 66.931 36.6927 64.1635C42.2107 58.5659 50.6837 55.8667 52.3204 54.0322C54.1616 51.9684 48.8871 50.0332 39.8909 49.4578L38.9769 49.3911L38.6705 48.1818C38.0346 45.7051 36.4985 45.8322 35.814 48.404C35.2604 50.4933 35.4372 51.5122 37.7306 52.1729C39.0384 52.5535 41.054 52.8541 43.9813 53.1819C45.1365 53.3139 46.0364 53.4803 45.9806 53.5428C45.7202 53.8347 39.5758 58.1621 39.5572 58.1829L36.6302 55.0849C34.2007 52.7303 32.7186 53.8041 34.9711 56.525C35.2049 56.8085 37.5757 59.5226 37.5757 59.5226C37.5757 59.5226 36.43 60.5971 35.543 61.0038C34.6352 61.3919 33.9652 61.0937 33.3708 60.0393C28.6504 51.8595 15.3483 44.8218 15.3275 44.8032C14.8756 44.5124 19.7849 31.7076 20.3371 31.6761C20.416 31.6716 20.612 32.3331 20.7775 33.1547C22.7631 42.3017 23.4585 42.6974 32.5278 40.0435L36.7897 38.7914L36.5663 40.4266C35.908 45.1932 39.9149 46.4092 40.2834 42.8068C40.3923 41.5936 40.463 39.7099 40.5311 36.738C40.573 35.3901 39.3164 34.8681 36.4369 35.0323Z" fill="#36B887"/>
</svg>