<svg width="80" height="80" viewBox="0 0 80 80" fill="none" xmlns="http://www.w3.org/2000/svg">
<circle cx="40" cy="40" r="40" fill="white"/>
<path d="M54.5613 21.1053C46.7607 14.9661 35.5068 15.6855 27.993 20.2728C15.0432 28.1792 13.3634 47.916 22.6131 56.8014C32.8123 66.5982 46.733 64.2371 53.6703 57.9693C62.6616 49.8456 66.505 36.4701 58.7653 26.5073" stroke="#7CA851" stroke-width="4.5" stroke-miterlimit="1.5" stroke-linecap="round" strokeLinejoin="round"/>
<path d="M33.9049 33.9165C33.7027 35.1627 33.6191 36.446 33.5869 37.7086" stroke="#7CA851" stroke-width="4.5" stroke-miterlimit="1.5" stroke-linecap="round" strokeLinejoin="round"/>
<path d="M45.0621 33.5664C45.0709 35.0716 45.1644 36.6428 45.0142 38.1463" stroke="#7CA851" stroke-width="4.5" stroke-miterlimit="1.5" stroke-linecap="round" strokeLinejoin="round"/>
<path d="M27.981 44.4814C28.3545 45.8826 29.1889 47.1087 30.2097 48.1173C35.2161 53.064 44.5649 51.5184 48.1332 45.5478" stroke="#7CA851" stroke-width="4.5" stroke-miterlimit="1.5" stroke-linecap="round" strokeLinejoin="round"/>
</svg>
