<svg xmlns="http://www.w3.org/2000/svg" width="41" height="40" viewBox="0 0 41 40" fill="none">
  <path fill-rule="evenodd" clip-rule="evenodd" d="M20.0271 5.33333C11.9269 5.33333 5.35535 11.8998 5.34906 20C5.34277 28.1002 11.9042 34.6667 20.0043 34.6667C28.1045 34.6667 34.6761 28.1002 34.6824 20C34.6887 11.8998 28.1273 5.33333 20.0271 5.33333ZM0.0157261 20C0.0242997 8.9543 8.98556 0 20.0313 0C31.0769 0 40.0243 8.9543 40.0157 20C40.0072 31.0457 31.0459 40 20.0002 40C8.95451 40 0.00715249 31.0457 0.0157261 20Z" fill="currentColor"/>
  <path fill-rule="evenodd" clip-rule="evenodd" d="M20.018 14.6666C17.0725 14.6666 14.6828 17.0544 14.6805 19.9999C14.6782 22.9454 17.0642 25.3332 20.0097 25.3332C22.9552 25.3332 25.3449 22.9454 25.3472 19.9999C25.3495 17.0544 22.9635 14.6666 20.018 14.6666ZM9.34719 19.9999C9.35176 14.1089 14.1311 9.33325 20.0221 9.33325C25.9132 9.33325 30.6851 14.1089 30.6805 19.9999C30.6759 25.891 25.8966 30.6666 20.0056 30.6666C14.1145 30.6666 9.34262 25.891 9.34719 19.9999Z" fill="currentColor"/>
</svg>