<svg width="71" height="77" viewBox="0 0 71 77" fill="none" xmlns="http://www.w3.org/2000/svg">
<path fill-rule="evenodd" clip-rule="evenodd" d="M35.1568 34.5323C36.6163 34.6155 38.4821 34.8603 39.2829 35.0445C46.381 36.8737 46.4599 36.8782 46.9081 34.569C47.9819 29.268 51.8286 22.8785 54.5431 28.0195C56.1659 31.1394 58.3954 37.4993 59.2713 39.4883C61.6055 44.7066 61.5127 45.9874 58.736 47.4912C51.8173 51.1927 43.6498 58.4043 39.0052 64.9066C37.8643 66.5235 37.6322 66.4311 34.9011 63.6636C29.3831 58.066 20.91 55.3668 19.2734 53.5323C17.4321 51.4684 22.7067 49.5333 31.7029 48.9578L32.6169 48.8912L32.9233 47.6818C33.5591 45.2052 35.0953 45.3323 35.7797 47.904C36.3334 49.9934 36.1565 51.0122 33.8632 51.673C32.5554 52.0535 30.5397 52.3541 27.6124 52.6819C26.4573 52.814 25.5573 52.9804 25.6131 53.0429C25.8735 53.3348 32.0179 57.6621 32.0365 57.683L34.9635 54.585C37.393 52.2304 38.8752 53.3042 36.6227 56.025C36.3889 56.3085 34.018 59.0227 34.018 59.0227C34.018 59.0227 35.1637 60.0971 36.0507 60.5038C36.9586 60.892 37.6286 60.5938 38.2229 59.5394C42.9433 51.3596 56.2454 44.3219 56.2663 44.3033C56.7182 44.0124 51.8089 31.2076 51.2566 31.1761C51.1777 31.1716 50.9818 31.8332 50.8162 32.6548C48.8306 41.8018 48.1353 42.1975 39.0659 39.5436L34.8041 38.2915L35.0275 39.9267C35.6857 44.6932 31.6788 45.9093 31.3104 42.3069C31.2015 41.0937 31.1307 39.2099 31.0627 36.238C31.0208 34.8902 32.2773 34.3682 35.1568 34.5323Z" fill="#36B887"/>
</svg>
