<svg width="120" height="121" viewBox="0 0 120 121" fill="none" xmlns="http://www.w3.org/2000/svg">
<circle cx="60" cy="60.5" r="60" fill="#FFE4E4"/>
<g clip-path="url(#clip0_130_5140)">
<path d="M60.0826 86.8999C57.9648 89.0563 55.2187 89.5631 52.4842 90.0591C50.1009 90.5352 47.6431 90.4935 45.2772 89.9375C40.6716 88.7924 35.4821 84.6776 34.8816 77.8222C34.5468 74.0064 34.2929 70.196 34.3362 66.3542C34.3825 62.2204 34.0859 58.0837 34.0256 53.9468C33.989 51.4391 33.8657 48.8921 34.227 46.4275C34.8378 42.2612 35.4952 38.0278 38.6404 34.788C41.2297 32.121 44.275 30.4152 48.097 30.5465C49.1051 30.5933 50.0982 30.8082 51.0355 31.1823C53.5193 32.1493 55.6384 33.8692 57.0959 36.1008C59.6046 39.8713 61.0359 44.0504 61.6214 48.5179C61.9127 50.7372 62.0795 52.9729 62.3154 55.3283C62.7236 55.2194 63.1292 55.119 63.5301 55.0029C68.2814 53.6247 72.988 53.6421 77.653 55.4071C78.8783 55.8483 79.9992 56.5376 80.9456 57.4322C81.8919 58.3266 82.6436 59.4068 83.1532 60.605C85.2648 65.3218 85.9858 70.1942 84.8736 75.2831C84.1114 78.7678 82.3802 81.6421 79.5014 83.7975C75.6473 86.6831 71.3427 88.2678 66.5046 88.2573C64.3253 88.2539 62.2328 87.7325 60.0826 86.8999ZM37.2468 59.5232C39.5775 59.5232 41.7326 59.5559 43.8865 59.5163C47.848 59.4431 51.8088 59.3332 55.7693 59.2186C56.0602 59.2018 56.3399 59.1009 56.5743 58.9278C57.249 58.4345 57.8931 57.9001 58.5028 57.3282C58.766 57.0712 58.9281 56.7279 58.9598 56.3615C58.9856 54.7765 58.9792 53.1884 58.9097 51.6047C58.7086 47.0283 57.8855 42.6021 55.6612 38.5211C54.7273 36.7631 53.3585 35.2737 51.6854 34.195C49.4695 32.7686 47.1409 32.5526 44.7556 33.5816C41.9345 34.7988 39.7688 36.8262 38.6322 39.674C37.3665 42.7853 36.7226 46.1144 36.7367 49.4733C36.765 52.4218 36.9684 55.3685 37.1049 58.3155C37.1232 58.7041 37.1945 59.0906 37.2468 59.5232ZM57.0561 85.2854C56.3405 84.6864 55.7863 84.2527 55.2661 83.7812C53.3336 82.0889 51.9408 79.8663 51.2605 77.3893C49.9398 72.4835 50.8627 67.8975 53.2003 63.5061C53.4221 63.09 53.6451 62.6744 53.8815 62.2322C51.6609 61.8975 38.5462 62.0947 37.3493 62.482C37.3493 63.1608 37.3248 63.8597 37.3539 64.5563C37.4366 66.5345 37.5038 68.5147 37.6465 70.4888C37.8365 73.1177 38.0299 75.7492 38.3338 78.3666C38.8305 82.6433 42.8276 86.2675 46.5967 86.9391C49.8133 87.512 52.8939 86.952 55.9251 85.9193C56.3193 85.7401 56.6976 85.5282 57.0561 85.2854ZM79.2841 61.3647C78.562 60.1224 77.4347 59.1666 76.091 58.6577C74.4604 58.0052 72.8056 57.3959 71.1226 56.8979C70.0838 56.5912 68.9407 56.2755 67.9003 56.4063C65.3077 56.6888 62.815 57.5643 60.6153 58.9654C57.0674 61.291 55.1886 64.7664 54.0427 68.7066C53.1978 71.612 53.1909 74.5276 54.2289 77.4027C54.414 77.9151 54.6749 78.4003 54.904 78.9055C62.7565 72.5077 71.3183 67.3873 79.2841 61.3647ZM56.5838 81.1551C59.0961 83.5909 61.854 84.9478 65.0677 85.2686C69.7359 85.7345 73.8231 84.194 77.4872 81.406C79.4461 79.9351 80.8099 77.8085 81.3295 75.4147C81.8901 72.9158 81.9583 70.3317 81.5306 67.8066C81.3604 66.7508 81.0478 65.7194 80.7517 64.4741L56.5838 81.1551Z" fill="#8F4949"/>
</g>
<defs>
<clipPath id="clip0_130_5140">
<rect width="51.7597" height="60" fill="white" transform="translate(33.75 30.5)"/>
</clipPath>
</defs>
</svg>
