<svg xmlns="http://www.w3.org/2000/svg" width="58" height="57" viewBox="0 0 58 57" fill="none">
  <path d="M30.3341 31.4341C33.3941 31.461 35.7441 32.0324 37.8563 33.3664C38.4405 33.7214 38.917 34.2287 39.2348 34.8339C39.3228 35.0882 39.3499 35.3596 39.3141 35.6263C39.2782 35.893 39.1804 36.1476 39.0284 36.3697C38.7349 36.7101 38.03 36.8561 37.53 36.8114C37.0103 36.7208 36.5284 36.4804 36.1435 36.1197C32.0934 32.6299 24.7457 34.2383 21.9427 37.3651C21.6177 37.7278 21.3198 38.1583 20.9143 38.3924C20.5851 38.5822 19.9782 38.7035 19.7403 38.5262C19.4893 38.3383 19.3932 37.7298 19.4778 37.3622C19.6284 36.8988 19.8746 36.4722 20.2003 36.1099C21.9254 33.9008 24.2385 32.6123 26.9289 31.9991C28.2309 31.7014 29.5675 31.5578 30.3341 31.4341Z" fill="#9B7E62"/>
  <path d="M17.2502 21.4209C17.129 21.4277 17.0074 21.427 16.8863 21.4187C16.2366 21.336 15.4853 21.2883 15.4386 20.4403C15.3896 19.5698 16.1364 19.5376 16.7772 19.3612C17.8564 19.0596 18.9189 18.7011 19.9602 18.2872C20.6422 18.0182 21.3055 17.5417 21.9279 18.2907C22.3836 18.8383 22.0992 19.833 21.1516 20.2985C19.9451 20.8911 18.6162 21.2347 17.34 21.6858C17.3108 21.5975 17.2809 21.5092 17.2502 21.4209Z" fill="#9B7E62"/>
  <path d="M41.5526 24.3473C41.0409 25.1056 40.7164 25.8552 40.1599 26.3368C39.5783 26.8402 38.6482 26.5039 38.1445 25.8205C37.4927 24.9361 37.5304 23.4458 38.2245 22.646C38.7851 22.0003 39.7498 21.7002 40.2671 22.2175C40.7937 22.7438 41.0715 23.5179 41.5526 24.3473Z" fill="#9B7E62"/>
  <path d="M21.7112 24.2797C21.5735 24.7899 21.5603 25.3377 21.2922 25.6939C21.0102 26.0686 20.487 26.4677 20.0644 26.4734C19.8148 26.4466 19.5739 26.3666 19.3579 26.2387C19.1419 26.1109 18.9559 25.9382 18.8123 25.7323C18.2214 24.8239 18.3099 23.7643 18.6939 22.8019C19.0779 21.8394 20.6849 21.7687 21.1995 22.6796C21.4685 23.1575 21.5466 23.7421 21.7112 24.2797Z" fill="#9B7E62"/>
  <path d="M39.7354 21.2653C38.9454 20.8756 37.9836 20.4926 37.141 19.9308C36.8776 19.7552 36.9353 19.0977 36.8461 18.6607C37.2836 18.6193 37.8344 18.3904 38.1368 18.5728C38.5128 18.8109 38.9354 18.966 39.3762 19.0278C39.817 19.0897 40.2659 19.0568 40.6929 18.9314C40.9652 18.8607 41.2865 18.7484 41.5245 18.8301C41.9304 19.0065 42.3188 19.2207 42.6846 19.4697C42.4483 19.851 42.2987 20.3916 41.9562 20.5787C41.3731 20.8977 40.668 20.9945 39.7354 21.2653Z" fill="#9B7E62"/>
  <path d="M1.42683 20.5839C-1.10513 30.5355 1.11204 39.3144 8.02139 46.6802C8.2014 46.8705 8.38461 47.0607 8.56805 47.2442C12.2794 50.9555 16.9024 53.2471 20.5655 54.8418C22.1375 55.5283 30.2047 56.3621 32.3874 56.0371C45.3584 54.0999 53.8944 46.7841 56.8674 34.5445C57.4352 32.1469 57.7179 29.6907 57.7098 27.2269C57.7237 21.4228 55.2798 14.6752 50.2401 9.62152C49.7213 9.19252 49.2042 8.7481 48.7043 8.31738C47.6198 7.38526 46.4991 6.42016 45.3266 5.59712C36.3695 -0.707112 27.0632 -0.742387 17.6669 2.60063C9.15946 5.62544 3.69611 11.6771 1.42683 20.5839ZM17.7031 5.58046C25.9477 2.15453 34.2199 1.54991 42.2878 6.6811C43.7632 7.62032 47.6961 10.799 48.3152 11.2764L48.355 11.3057L48.3878 11.3422C51.5354 14.6801 55.1396 20.7833 55.0602 27.0572C55.0339 29.7398 54.6708 32.4085 53.9793 35.0006C51.9299 42.4498 47.0301 47.8786 39.0001 51.5917C30.837 55.5004 19.1301 51.5489 16.0152 49.4927C12.5724 47.139 9.55994 44.2107 7.10957 40.836C3.26662 35.3952 2.40445 27.5742 4.46804 20.4247C5.43465 17.1235 7.12377 14.0788 9.41294 11.5113C11.7021 8.94379 14.534 6.91787 17.7031 5.58046Z" fill="#9B7E62"/>
</svg>