<svg xmlns="http://www.w3.org/2000/svg" width="34" height="30" viewBox="0 0 34 30" fill="none">
  <path d="M16.383 15.445C14.009 15.3185 11.8939 14.9149 10.1297 13.4472C8.847 12.38 8.0868 10.9983 7.77435 9.38058C7.09083 5.84588 9.03644 2.77928 11.9594 1.27175C13.9954 0.221606 16.1397 -0.184521 18.4187 0.167525C20.3637 0.467804 21.7862 1.56451 22.9382 3.07944C23.3283 3.59251 23.7862 4.07989 24.0576 4.6524C24.618 5.83635 25.0946 7.05088 24.7712 8.43088C24.4685 9.72144 24.0938 10.9666 23.2508 12.0214C21.7706 13.8733 19.9004 15.0494 17.5032 15.3109C17.0754 15.3573 16.6497 15.4129 16.383 15.445ZM9.85095 8.63255C10.108 10.547 11.0565 11.9181 12.8302 12.6264C13.5478 12.889 14.2941 13.0658 15.0535 13.1528C17.506 13.4994 19.6112 12.8634 21.1707 10.8423C21.8726 9.97394 22.2144 8.87048 22.126 7.75861C20.1413 7.39094 18.3457 6.72607 16.8908 5.27853C15.0158 7.40784 12.5324 8.18646 9.8505 8.63255H9.85095Z" fill="#3E9FA5"/>
  <path d="M20.4944 29.7642C17.503 29.7642 14.5114 29.7489 11.5204 29.7687C8.93839 29.7859 6.35725 29.8598 3.77486 29.8712C3.05831 29.876 2.34322 29.8055 1.64146 29.661C0.329546 29.3857 -0.0935799 28.6459 0.236495 27.3448C0.498569 26.3123 1.03404 25.4052 1.59821 24.5183C3.88957 20.911 7.16949 18.5499 11.1184 17.037C13.2617 16.1981 15.5396 15.753 17.8419 15.723C21.1769 15.6981 24.2739 16.5044 26.9337 18.6563C28.8257 20.1659 30.3772 22.0562 31.4872 24.204C31.8149 24.8407 32.1657 25.4703 32.4307 26.133C32.6655 26.7042 32.8335 27.3006 32.9315 27.9102C33.0725 28.8591 32.5576 29.4924 31.6121 29.6064C30.9488 29.6925 30.2811 29.7404 29.6121 29.7498C26.5729 29.7648 23.5336 29.7564 20.4944 29.7564V29.7642ZM30.5655 27.5036C30.5764 27.378 30.5971 27.3257 30.5823 27.2864C29.6064 24.7032 28.2227 22.3865 26.0922 20.5757C24.8429 19.514 23.4641 18.6662 21.8543 18.2484C19.7119 17.7113 17.4799 17.6318 15.3045 18.0151C9.91111 18.9032 5.60251 21.5201 2.66135 26.1991C2.34848 26.697 2.0993 27.2349 1.80392 27.7846C2.78533 28.0686 3.67888 27.9554 4.58641 27.9006C6.35069 27.7941 8.12096 27.7555 9.88944 27.7458C15.4411 27.7158 20.993 27.7193 26.5447 27.693C27.7867 27.6871 29.0285 27.6132 30.2701 27.5667C30.3702 27.5536 30.469 27.5324 30.5655 27.5032V27.5036Z" fill="#3E9FA5"/>
</svg>