<svg xmlns="http://www.w3.org/2000/svg" width="104" height="80" viewBox="0 0 104 80" fill="none">
  <path fill-rule="evenodd" clip-rule="evenodd" d="M102.481 79.1254C103.741 78.8553 104.041 76.3045 103.981 66.3116C103.831 42.3646 101.01 38.9436 98.5195 26.3999C93.8982 3.29322 84.2953 -2.85827 61.3087 2.5133C60.8286 2.63333 33.0705 12.2061 29.3494 13.7666C26.6786 14.9069 26.7387 14.9366 25.8384 11.7557C25.4183 10.2252 24.9081 8.60476 24.7281 8.15462C23.8278 5.84396 19.2665 6.50415 17.3459 9.20493C14.3451 13.4662 10.2039 17.0975 3.00178 21.8689C-1.0494 24.5697 -0.329193 25.0198 7.80317 25.0198C15.1853 25.0198 19.7166 25.6197 24.0079 27.1502C31.0599 29.7009 29.8596 27.4802 28.4492 21.7486C28.029 20.0381 27.6689 18.4779 27.6689 18.2679C27.6689 16.5874 55.457 7.76452 56.0872 7.49444C79.464 -2.16837 88.5266 2.33324 93.388 26.0701C95.4886 36.3931 98.2194 41.9447 98.9396 59.8299C99.6598 77.1148 100.14 79.6355 102.481 79.1254Z" fill="#36B887"/>
</svg>