<svg xmlns="http://www.w3.org/2000/svg" width="33" height="33" viewBox="0 0 33 33" fill="none">
  <g clip-path="url(#clip0_272_1748)">
    <path fill-rule="evenodd" clip-rule="evenodd" d="M17.6912 5.29366C18.2639 6.59451 18.9984 7.95386 19.9926 8.97109C21.1735 10.1792 22.612 10.6011 24.1118 10.8456C26.0385 11.1595 28.0692 11.1935 30.006 11.6031C30.7253 11.7546 31.0199 12.1252 31.1502 12.2839C31.4794 12.6851 31.5903 13.1068 31.5895 13.5111C31.5896 13.9902 31.4568 14.6579 30.6892 15.1464C30.5793 15.2161 30.4109 15.3085 30.1761 15.3795C30.004 15.4314 29.4586 15.4964 29.236 15.5542C28.6879 15.6981 28.1386 15.8251 27.5858 15.947C25.746 16.3527 24.178 16.6231 22.5318 17.6027C20.2969 18.932 18.9624 20.1984 18.4485 21.8219C17.9514 23.3916 18.1982 25.2075 18.844 27.5037C18.9139 27.7216 18.9758 27.9377 19.0292 28.1522C19.2834 29.1667 18.6802 30.198 17.6711 30.4741C16.6627 30.7501 15.6184 30.1693 15.3196 29.1673C15.2574 28.9581 15.1977 28.7518 15.142 28.5475C14.1336 25.4545 11.0861 22.0102 8.49566 20.068C7.69693 19.4694 5.52706 18.6655 4.11631 17.7872C3.07559 17.1391 2.3653 16.3774 2.08575 15.7149C1.89769 15.2711 1.89359 14.8856 1.94886 14.563C2.029 14.0943 2.25071 13.694 2.62618 13.3721C2.83177 13.1967 3.11187 13.0275 3.47818 12.9299C3.65454 12.8832 4.10854 12.8464 4.31427 12.8323C4.98362 12.5839 5.63364 12.2922 6.31069 12.0649C7.92612 11.5227 8.90805 10.6175 10.2133 9.5322C11.4349 8.51705 12.1726 7.46836 12.7134 5.97026C12.7457 5.77813 13.0081 4.2277 13.1832 3.67419C13.44 2.86557 13.9385 2.45291 14.2118 2.29653C14.6754 2.03069 15.0935 1.97648 15.4468 1.99714C15.9682 2.02799 16.4271 2.2277 16.8138 2.61317C17.0541 2.85187 17.2974 3.21689 17.4395 3.71884C17.5502 4.10659 17.6736 5.14758 17.6912 5.29366ZM21.023 14.036C20.8708 14.118 20.7182 14.2047 20.5644 14.2961C17.2912 16.2431 15.533 18.2823 14.7807 20.6606L14.7564 20.7403C13.496 19.2771 12.1112 17.9704 10.8034 16.9898C10.2649 16.586 9.17036 16.0791 8.04561 15.5273C9.86505 14.8198 11.1124 13.7881 12.6731 12.4914C13.8641 11.5009 14.7411 10.4899 15.4275 9.27594C15.954 10.1412 16.5565 10.9592 17.2416 11.6602C18.3824 12.8272 19.6593 13.5609 21.023 14.036Z" fill="#7CA851"/>
  </g>
  <defs>
    <clipPath id="clip0_272_1748">
      <rect width="30.0087" height="30.0087" fill="white" transform="matrix(0.0724198 0.997387 -0.997368 0.0723354 30.6523 0.521973)"/>
    </clipPath>
  </defs>
</svg>