<svg width="51" height="50" viewBox="0 0 51 50" fill="none" xmlns="http://www.w3.org/2000/svg">
<g clip-path="url(#clip0_272_1656)">
<path fill-rule="evenodd" clip-rule="evenodd" d="M23.5997 10.0945C24.7075 11.6173 26.041 13.1702 27.6146 14.207C29.4837 15.4383 31.4649 15.579 33.4755 15.4729C36.0585 15.3362 38.6972 14.8078 41.3201 14.7922C42.2939 14.7856 42.7797 15.1824 42.9931 15.3511C43.5323 15.7778 43.7945 16.2925 43.9074 16.8161C44.0424 17.4364 44.0584 18.3384 43.2021 19.1872C43.0795 19.3084 42.8874 19.4755 42.6035 19.6337C42.3952 19.7493 41.7075 19.9872 41.4355 20.1248C40.7664 20.4656 40.091 20.7849 39.4096 21.0985C37.1418 22.1424 35.1878 22.9344 33.3324 24.6667C30.8132 27.0178 29.4419 29.0336 29.2336 31.2803C29.0321 33.4528 29.8628 35.7344 31.3454 38.5252C31.4972 38.7876 31.6383 39.05 31.7678 39.3126C32.3825 40.5545 31.8919 42.0598 30.6631 42.7017C29.4354 43.3433 27.9198 42.8857 27.2508 41.6725C27.1113 41.4192 26.9759 41.169 26.8463 40.9202C24.6699 37.1998 19.7546 33.5994 15.8539 31.815C14.6513 31.2651 11.6156 30.8359 9.54187 30.0965C8.01197 29.5507 6.87792 28.7648 6.32947 27.9858C5.96102 27.4642 5.8472 26.9663 5.82792 26.533C5.79972 25.9036 5.97407 25.3229 6.36955 24.8002C6.58635 24.5152 6.90134 24.2171 7.34814 23.9876C7.56331 23.8774 8.14076 23.7018 8.40313 23.6255C9.1998 23.1152 9.95926 22.5543 10.7718 22.0692C12.7106 20.9118 13.7271 19.463 15.1114 17.69C16.4072 16.0314 17.0671 14.4656 17.3455 12.3736C17.3332 12.1157 17.2364 10.0344 17.3072 9.26842C17.412 8.14909 17.9413 7.47429 18.2511 7.19479C18.7765 6.71991 19.3025 6.53189 19.7657 6.45906C20.4495 6.35202 21.0998 6.48124 21.709 6.87131C22.0873 7.11264 22.5051 7.51664 22.8305 8.12647C23.083 8.59728 23.5358 9.9103 23.5997 10.0945ZM30.3748 20.4741C30.2008 20.6232 30.0276 20.7785 29.8542 20.9402C26.1646 24.3836 24.4624 27.5194 24.158 30.8107L24.1489 30.9207C22.1052 29.3816 19.9444 28.0801 17.975 27.1791C17.1642 26.8081 15.6044 26.4603 13.9928 26.0629C16.1493 24.6341 17.4738 22.9467 19.1293 20.828C20.3924 19.2098 21.2432 17.6537 21.7901 15.8885C22.7153 16.8603 23.7257 17.7496 24.81 18.4641C26.6157 19.6535 28.4754 20.2434 30.3748 20.4741Z" fill="#3E9FA5"/>
</g>
<defs>
<clipPath id="clip0_272_1656">
<rect width="39.7616" height="39.7616" fill="white" transform="matrix(0.282697 0.959185 -0.959186 0.282857 39.037 0.263184)"/>
</clipPath>
</defs>
</svg>
