<svg width="35" height="35" viewBox="0 0 35 35" fill="none" xmlns="http://www.w3.org/2000/svg">
<g clip-path="url(#clip0_272_2270)">
<path fill-rule="evenodd" clip-rule="evenodd" d="M17.8116 6.34969C18.4797 7.60418 19.3133 8.90496 20.3806 9.84519C21.6482 10.9619 23.1142 11.2752 24.628 11.4072C26.5728 11.5765 28.6004 11.4589 30.5623 11.7229C31.2908 11.8204 31.6122 12.1679 31.754 12.3165C32.1123 12.692 32.2542 13.1042 32.2836 13.5075C32.3194 13.9852 32.2367 14.661 31.5076 15.2054C31.4032 15.2831 31.2421 15.3878 31.0133 15.4761C30.8455 15.5407 30.3065 15.6462 30.0888 15.7204C29.553 15.9048 29.0146 16.0725 28.4725 16.2352C26.668 16.7771 25.1245 17.1637 23.5559 18.2633C21.4263 19.7557 20.1899 21.1181 19.7983 22.7753C19.4196 24.3778 19.801 26.1702 20.6161 28.4118C20.7019 28.6239 20.7799 28.8348 20.8491 29.0447C21.1782 30.0375 20.6534 31.1109 19.6677 31.4615C18.6827 31.8119 17.5981 31.3107 17.2254 30.3337C17.1478 30.1297 17.0729 29.9285 17.0021 29.7289C15.766 26.7197 12.4704 23.5123 9.74246 21.7688C8.90134 21.2314 6.67761 20.5916 5.20534 19.8211C4.11922 19.2523 3.35416 18.5458 3.02603 17.906C2.80541 17.4774 2.77261 17.0934 2.80369 16.7675C2.84869 16.2941 3.03995 15.8784 3.39039 15.5294C3.58235 15.3392 3.84906 15.1495 4.20708 15.0249C4.37946 14.9651 4.82947 14.8946 5.03357 14.8652C5.68255 14.5676 6.30903 14.2282 6.96726 13.951C8.5378 13.2897 9.44956 12.3138 10.6703 11.1342C11.8128 10.0308 12.4704 8.92999 12.8981 7.39572C12.916 7.20171 13.0621 5.63603 13.1955 5.07101C13.3913 4.24547 13.8577 3.79678 14.1186 3.62045C14.5611 3.32076 14.974 3.23552 15.3278 3.22977C15.8501 3.22163 16.3226 3.38656 16.7369 3.74211C16.9943 3.96222 17.2642 4.30807 17.4433 4.79803C17.5826 5.17643 17.7832 6.20532 17.8116 6.34969ZM21.7856 14.8191C21.6399 14.9122 21.4942 15.0101 21.3476 15.1127C18.2286 17.2984 16.6272 19.4631 16.0541 21.8909L16.0358 21.9722C14.67 20.6072 13.1917 19.4073 11.8144 18.527C11.2473 18.1645 10.1181 17.7407 8.95533 17.2743C10.717 16.433 11.8841 15.3112 13.3438 13.9017C14.4576 12.8251 15.2569 11.7515 15.8509 10.4897C16.4404 11.3133 17.1022 12.0841 17.8376 12.732C19.0623 13.8107 20.3902 14.4471 21.7856 14.8191Z" fill="#5F4086"/>
</g>
<defs>
<clipPath id="clip0_272_2270">
<rect width="30.0087" height="30.0087" fill="white" transform="translate(30.3812 0.624512) rotate(81.574)"/>
</clipPath>
</defs>
</svg>
