<svg xmlns="http://www.w3.org/2000/svg" width="148" height="127" fill="none" viewBox="0 0 148 127"><path fill="#8F4949" fill-rule="evenodd" d="M65.7863 60.5237C64.9206 63.8256 64.1215 68.1466 63.9542 70.058C62.9087 87.1423 62.8619 87.3208 57.4095 86.6544C44.8609 85.2243 27.8986 89.1704 37.3649 98.9008C43.1274 104.751 55.6506 114.281 59.4386 117.659C69.3503 126.6 72.2624 127.316 77.6015 122.23C90.8039 109.525 112.703 96.5724 130.49 90.9351C134.903 89.5645 134.865 88.9823 130.683 80.9234C122.22 64.6368 122.323 43.8719 119.425 38.9158C116.166 33.3401 108.071 43.6642 100.317 63.2342L99.5113 65.2166L96.6043 65.0268C90.645 64.6566 89.8217 68.1605 95.0419 71.532C99.2847 74.2657 101.675 74.6063 104.794 69.9874C106.58 67.3561 108.699 63.095 111.534 56.8281C112.659 54.3571 113.676 52.4778 113.775 52.6468C114.236 53.4352 119.426 70.1992 119.459 70.2555L110.47 74.5277C103.491 78.2298 104.81 82.2951 112.475 79.2498C113.273 78.9345 121.009 75.6215 121.009 75.6215C121.009 75.6215 122.571 78.9399 122.836 81.203C123.045 83.4991 121.9 84.7728 119.13 85.3342C97.5618 89.9325 72.3538 114.416 72.2975 114.449C71.3262 115.244 46.4151 95.1215 46.7427 93.8722C46.7895 93.6937 48.4 93.7346 50.3443 93.9582C72.0926 96.131 73.4722 94.8712 74.1046 72.8144L74.3908 62.4458L77.8624 64.1191C87.9771 69.0122 93.5624 60.9865 85.8253 57.5751C83.2087 56.4599 79.075 54.9469 72.5223 52.6567C69.5582 51.5935 67.4943 54.009 65.7863 60.5237Z" clip-rule="evenodd"/></svg>