<svg width="120" height="121" viewBox="0 0 120 121" fill="none" xmlns="http://www.w3.org/2000/svg">
<circle cx="60" cy="60.25" r="60" fill="#D3F3FF"/>
<g clip-path="url(#clip0_2771_4495)">
<path d="M67.1795 87.9099C61.4615 87.9099 55.7434 87.882 50.0258 87.9188C45.4289 87.9482 40.8341 88.081 36.2377 88.1128C34.9445 88.1128 33.6532 88.0159 32.3744 87.8239C29.62 87.4291 28.524 85.8014 29.4413 83.1754C30.0686 81.4165 30.8883 79.7318 31.8856 78.1521C36.1108 71.3862 42.2586 66.9927 49.6264 64.1622C53.6263 62.5937 57.8775 61.7592 62.1751 61.6988C68.6003 61.643 74.5152 63.2699 79.5663 67.4983C83.0145 70.3454 85.8327 73.8755 87.8423 77.8648C88.4017 78.9799 89.032 80.0689 89.4802 81.2274C89.9104 82.2971 90.211 83.4143 90.3761 84.5548C90.5968 86.2638 89.6424 87.3968 87.9324 87.6117C86.7393 87.7734 85.5373 87.8633 84.333 87.881C78.6153 87.907 72.8971 87.8932 67.1795 87.8932V87.9099ZM85.9643 83.7391C85.9865 83.5573 85.9847 83.3734 85.9589 83.1921C84.1376 78.4738 81.6211 74.2092 77.733 70.8687C74.7335 68.2917 71.3689 66.4372 67.3722 65.9342C62.7667 65.3549 58.2032 65.4763 53.7018 66.7416C45.1855 69.1353 38.3906 73.8474 33.7376 81.4438C33.2082 82.3078 32.7879 83.2382 32.3011 84.1657C32.449 84.2465 32.6034 84.315 32.7626 84.3707C34.3558 84.72 35.9446 84.5145 37.5515 84.4249C40.8908 84.2381 44.2392 84.1579 47.5842 84.1407C58.5279 84.0844 69.4716 84.0886 80.4154 84.0365C82.2369 84.0269 84.0556 83.8456 85.9651 83.7391H85.9643Z" fill="#3E9FA5"/>
<path d="M60.939 32.4326C65.3444 32.3256 69.0251 34.4233 71.8195 38.2357C72.4782 39.1346 73.273 39.9691 73.7541 40.955C74.8292 43.1585 75.7198 45.4222 75.1484 47.994C74.6119 50.409 73.9124 52.7346 72.3536 54.7141C69.5817 58.2304 66.0475 60.4043 61.5308 60.9448C57.4652 61.4316 53.5994 60.8307 49.99 58.9223C46.2725 56.9569 44.1574 53.7764 43.3896 49.69C42.2338 43.5383 45.4598 38.0211 50.5498 35.0878C53.63 33.3122 56.9561 32.4172 60.939 32.4326ZM70.5919 44.9307C70.7938 43.3799 70.1717 42.1414 69.2076 41.0128C68.8315 40.5724 68.4915 40.0999 68.0999 39.674C66.6827 38.1326 65.0668 36.9131 62.9172 36.5904C59.9036 36.0928 56.8098 36.4974 54.027 37.7531C50.5485 39.3489 47.9536 41.7819 47.3557 45.8275C46.6583 50.5469 49.0996 54.7703 53.4413 56.1646C56.043 56.9758 58.7902 57.2142 61.4932 56.8632C65.1882 56.4412 69.5378 52.6519 70.1252 48.7627C70.3172 47.4906 70.4384 46.2076 70.5919 44.9295V44.9307Z" fill="#3E9FA5"/>
</g>
<defs>
<clipPath id="clip0_2771_4495">
<rect width="61.6403" height="56" fill="white" transform="translate(29 32.25)"/>
</clipPath>
</defs>
</svg>
