<svg width="120" height="121" viewBox="0 0 120 121" fill="none" xmlns="http://www.w3.org/2000/svg">
<circle cx="60" cy="60.25" r="60" fill="#D3F3FF"/>
<g clip-path="url(#clip0_951_13253)">
<path d="M29.9218 82.1726C29.8224 82.1239 29.7175 82.087 29.6097 82.0626C27.0268 81.8975 25.8493 80.5093 26.3714 77.9625C26.6779 76.4946 27.163 75.0698 27.8161 73.72C28.225 72.8723 29.0672 72.2347 29.6931 71.5262C29.486 70.6185 29.0802 69.6428 29.0929 68.6719C29.105 67.7323 29.5475 66.7982 29.8214 65.7863C27.7831 63.8812 27.7264 63.4736 29.1712 60.1696C28.3716 59.3414 28.2836 58.3388 28.4086 57.1989C28.7537 54.0575 29.1656 50.9333 30.3653 47.9858C33.4154 40.4935 38.8234 35.3521 46.3823 32.6738C55.5614 29.4218 64.828 29.3731 73.9656 32.9469C78.187 34.5973 81.9141 37.0583 84.5751 40.8337C85.6286 42.2729 86.5129 43.8289 87.2105 45.4709C88.1346 47.7734 88.7935 50.1871 89.4863 52.5765C89.9685 54.2387 90.1183 55.9215 88.9092 57.483C90.0386 58.3965 91.0206 59.307 91.4946 60.6421C91.9851 62.0235 91.6147 63.2257 90.825 64.4244C92.2695 65.901 92.4767 67.6311 91.8299 69.5878C93.0526 70.5255 94.1715 71.6021 94.676 73.1256C94.9678 73.9153 95.1558 74.7394 95.2355 75.5778C95.3891 78.2783 94.3315 79.477 91.7117 79.7843C91.6488 80.9962 91.6367 82.2034 91.5133 83.3988C91.2622 85.8328 89.8525 87.4122 87.5502 87.9868C85.3585 88.5097 83.1366 88.8953 80.8969 89.142C76.6985 89.6473 72.493 90.1185 68.2785 90.4532C61.3356 91.0033 54.3782 91.2525 47.4243 90.6521C43.5405 90.3168 39.6639 89.8896 35.7936 89.4231C34.6792 89.2584 33.586 88.9723 32.5335 88.5704C31.9011 88.3628 31.344 87.9727 30.9326 87.449C30.5212 86.9253 30.2738 86.2916 30.2215 85.6273C30.0764 84.4729 30.0166 83.3058 29.9218 82.1726ZM86.963 56.1168C86.365 53.6041 85.8792 51.2178 85.2181 48.8811C84.5762 46.4669 83.4746 44.1995 81.9735 42.2035C79.3513 38.803 75.8558 36.6856 71.9306 35.2096C65.9821 32.9731 59.8292 32.569 53.6068 33.5991C44.9405 35.0322 38.0158 39.0978 33.7856 47.1227C32.0943 50.3307 31.3054 53.7697 30.686 57.3873C31.1396 57.576 31.6086 57.7257 32.0875 57.8346C33.6653 58.0447 35.2527 58.3756 36.8315 58.3498C43.0317 58.2474 49.2295 58.0106 55.4292 57.8547C60.456 57.7281 65.4837 57.6488 70.511 57.5418C75.1142 57.4442 79.7192 57.3576 84.2805 56.632C85.1483 56.4936 86.0073 56.3019 86.963 56.1168ZM82.6989 78.0011C81.9323 78.5941 81.208 79.1013 80.5435 79.6803C79.3362 80.7296 78.0516 80.909 76.6455 80.1454C76.0984 79.8753 75.5697 79.5694 75.063 79.2297C73.7749 78.2899 72.5249 78.2018 71.1669 79.123C70.2599 79.7092 69.3163 80.2373 68.3425 80.7041C67.5519 81.1298 66.6696 81.3554 65.7719 81.3609C64.8745 81.3667 63.9891 81.1518 63.1936 80.736C62.4792 80.3828 61.7744 80.0043 61.0951 79.5884C60.7055 79.3202 60.2497 79.1656 59.7776 79.1414C59.3055 79.117 58.8359 79.2242 58.4207 79.4509C57.5898 79.8836 56.7591 80.3247 55.9694 80.8262C55.3863 81.2302 54.7071 81.4734 54.0001 81.5314C53.2932 81.5895 52.5834 81.4599 51.9423 81.1562C51.1238 80.8036 50.3464 80.3624 49.6236 79.8409C48.4206 78.9429 47.2053 78.887 45.9347 79.5716C45.1928 79.9713 44.4889 80.4444 43.777 80.8988C41.945 82.0683 40.1438 81.9756 38.3742 80.7709C37.9475 80.4804 37.5446 80.1539 37.1393 79.8329C36.082 78.9959 34.9828 78.986 33.8779 79.7023C33.3811 80.0244 32.9349 80.4243 32.5368 80.7338C32.7016 81.7856 32.8196 82.6704 32.979 83.5479C33.3282 85.4711 33.4487 85.5861 35.3307 85.9841C35.4681 86.0132 35.6106 86.0204 35.7493 86.0449C41.5882 87.0318 47.4927 87.5813 53.4133 87.6889C62.9315 87.923 72.3611 86.796 81.782 85.6273C83.2224 85.4485 84.6523 85.1611 86.0732 84.8591C87.1058 84.639 87.67 83.9291 87.7714 82.8734C87.8538 82.0056 87.9233 81.1364 88.0055 80.1834C85.8567 80.4202 84.2443 79.5653 82.6989 78.0011ZM29.0639 79.4038C29.7047 79.0787 30.2057 78.857 30.6731 78.5787C31.1562 78.2901 31.5933 77.9251 32.0731 77.63C34.3911 76.2046 36.4656 76.3342 38.5779 78.0214C38.871 78.256 39.1623 78.4937 39.4519 78.7341C40.401 79.5207 41.3836 79.5868 42.4302 78.9162C43.1688 78.4164 43.9339 77.9573 44.7223 77.5409C46.826 76.4957 48.8716 76.5067 50.8086 77.9947C51.3004 78.355 51.8197 78.6763 52.3617 78.9555C52.746 79.1877 53.191 79.2991 53.6393 79.2754C54.0874 79.2517 54.5183 79.0939 54.8761 78.8224C55.6485 78.2893 56.4648 77.8225 57.3164 77.4278C59.0019 76.6648 60.6775 76.6577 62.2759 77.7285C62.704 78.0156 63.1673 78.2494 63.6088 78.5168C64.1985 78.9118 64.8896 79.128 65.5991 79.1392C66.3086 79.1505 67.0062 78.9563 67.608 78.58C68.5027 78.064 69.4111 77.5698 70.2846 77.0194C72.1531 75.8432 73.9727 75.9029 75.8492 77.0348C78.1538 78.4252 78.1725 78.3944 80.3042 76.7988C82.0903 75.4617 83.4328 75.4174 85.3503 76.6475C85.8858 76.9908 86.404 77.3626 86.9717 77.7494C87.7136 76.8235 87.9211 75.3082 89.2609 75.4017C90.3051 75.4746 91.3124 76.1001 92.366 76.4913C93.4197 74.9036 92.4959 72.2174 90.5752 71.195C89.0125 71.6626 87.6046 72.21 86.1455 72.501C80.6958 73.5886 75.146 73.7759 69.6263 74.2396C66.9293 74.4663 64.2246 74.1343 61.5301 74.4616C61.0193 74.5235 60.4643 74.2011 59.9271 74.0655C59.4017 73.9327 58.873 73.7016 58.3462 73.7024C52.7553 73.7129 47.1627 73.838 41.5736 73.7649C38.9083 73.7299 36.2465 73.3209 33.5803 73.1207C33.0727 73.0789 32.5621 73.1452 32.0819 73.3152C30.117 74.0564 28.8746 76.4756 29.0639 79.4049V79.4038ZM47.9357 60.7109C47.9515 60.8055 47.967 60.9001 47.9824 60.9947C51.7598 63.9282 55.5177 66.8873 59.3223 69.7845C61.2872 71.2808 61.0083 71.8122 63.1502 69.5193C65.6507 66.8441 68.0333 64.06 70.4616 61.3179C70.6677 61.0852 70.8295 60.8132 71.2018 60.2961L47.9357 60.7109ZM55.8372 70.8916C54.3911 69.6753 53.1936 68.7008 52.0367 67.68C51.504 67.2097 50.9626 67.109 50.2507 67.1206C45.0408 67.2031 39.8292 67.7304 34.6177 67.0917C33.9822 67.0138 33.3156 67.1676 32.6666 67.2322C32.0365 67.2947 31.8036 67.724 31.75 68.2937C31.6772 69.0677 31.9961 69.6156 32.8767 69.8434C33.9581 70.1602 35.0705 70.3594 36.1945 70.4375C42.2515 70.654 48.3122 70.7992 54.3699 70.9629C54.7329 70.9739 55.0986 70.9307 55.8372 70.8927V70.8916ZM89.1782 65.698C87.4326 66.1455 85.8215 66.7171 84.1632 66.9536C79.3807 67.6569 74.5522 68.0002 69.7186 67.9804C69.407 67.951 69.0951 68.0324 68.8376 68.2101C67.9361 69.1378 67.0917 70.1212 66.1148 71.2101C67.5261 71.2101 68.6909 71.2836 69.8436 71.1969C74.0549 70.8814 78.2697 70.5849 82.4675 70.1319C84.4707 69.9124 86.4491 69.5086 88.3783 68.9258C90.1191 68.4026 90.3444 67.1225 89.1782 65.6991V65.698ZM71.6621 64.8161C72.3001 64.8161 72.6747 64.8368 73.0462 64.8128C76.1363 64.6151 79.24 64.5251 82.3112 64.1631C84.2569 63.8878 86.1732 63.4342 88.0362 62.8082C89.2304 62.436 89.4648 61.7478 89.1312 60.7532C88.7424 59.5952 87.9046 58.9967 86.878 59.1901C83.5568 59.8175 80.1869 60.15 76.8071 60.1841C76.1578 60.1905 75.5093 60.2466 75.0889 60.2667L71.6621 64.8161ZM31.8439 60.2166C31.51 60.8148 31.2098 61.4313 30.945 62.0633C30.6306 62.949 30.7462 63.2411 31.6687 63.5522C32.6006 63.868 33.561 64.093 34.5361 64.2242C38.5133 64.7468 42.5073 64.518 46.4971 64.4022C46.8577 64.3584 47.2152 64.2902 47.5665 64.1978C46.9229 63.7093 46.4901 63.3602 46.0361 63.0412C45.3448 62.5551 44.507 62.2033 43.9753 61.5834C43.4257 60.9433 42.8541 60.877 42.1342 60.8762C38.7571 60.8732 35.3677 61.0951 31.8439 60.2166Z" fill="#3E9FA5"/>
<path d="M54.8921 39.935C54.955 39.3885 54.8597 38.8164 55.5109 38.6084C56.1481 38.4049 56.6303 38.7201 56.8933 39.2793C57.1785 39.8661 57.4025 40.4811 57.5608 41.1142C57.6948 41.6858 57.5819 42.2601 56.9395 42.5214C56.3723 42.7519 55.7579 42.4878 55.4587 41.8004C55.232 41.1908 55.0429 40.5678 54.8921 39.935Z" fill="#3E9FA5"/>
<path d="M44.6686 47.5215C44.8772 47.6672 45.3861 47.8372 45.4677 48.1266C45.5172 48.3392 45.5198 48.5601 45.4755 48.7738C45.4312 48.9875 45.3408 49.189 45.2109 49.3643C44.5127 50.1161 43.52 50.3546 42.5289 50.3917C41.8122 50.4192 41.4935 49.5971 41.9793 48.9271C42.5813 48.0986 43.4458 47.6505 44.6686 47.5215Z" fill="#3E9FA5"/>
<path d="M78.5776 53.8744C78.1228 53.5358 77.6175 53.3427 77.4895 53.0061C77.3875 52.7376 77.6466 52.1598 77.9212 51.9565C78.4765 51.5316 79.1068 51.2159 79.7795 51.0262C80.132 50.9357 80.7948 51.1637 80.9514 51.4501C81.0141 51.6586 81.0229 51.8798 80.9764 52.0927C80.9303 52.3056 80.8308 52.5033 80.6874 52.667C80.0991 53.1535 79.353 53.4492 78.5776 53.8744Z" fill="#3E9FA5"/>
<path d="M63.3019 49.4886C63.2629 48.5732 63.9493 48.1152 64.7011 48.4596C65.3866 48.7735 66.175 50.3102 66.0442 51.0771C65.9269 51.7648 65.2545 52.1242 64.6923 51.7292C63.9589 51.1885 63.461 50.3864 63.3019 49.4886Z" fill="#3E9FA5"/>
<path d="M76.5506 43.3106C76.5454 44.1303 75.424 45.2578 74.6142 45.2556C74.1034 45.2542 73.6209 44.687 73.8743 44.1702C74.1834 43.5086 74.6431 42.9288 75.2168 42.4774C75.8282 42.0324 76.5561 42.5586 76.5506 43.3106Z" fill="#3E9FA5"/>
<path d="M51.8688 55.5551C51.0046 55.5059 49.9932 54.481 50.01 53.7713C50.0187 53.6309 50.0557 53.4936 50.1187 53.3678C50.1816 53.242 50.2691 53.1302 50.3763 53.0391C50.4834 52.9481 50.6081 52.8795 50.7423 52.8378C50.8765 52.796 51.0178 52.7818 51.1577 52.796C51.8386 52.8835 52.6182 53.8989 52.5963 54.6743C52.5809 55.2123 52.3969 55.5955 51.8688 55.5551Z" fill="#3E9FA5"/>
</g>
<defs>
<clipPath id="clip0_951_13253">
<rect width="68.1481" height="60" fill="white" transform="translate(26.25 30.25)"/>
</clipPath>
</defs>
</svg>
