<svg width="120" height="121" viewBox="0 0 120 121" fill="none" xmlns="http://www.w3.org/2000/svg">
<circle cx="60" cy="60.25" r="60" fill="#F1F7E0"/>
<g clip-path="url(#clip0_951_13276)">
<path d="M74.2014 79.2186C67.9734 86.632 59.4836 89.1189 49.9429 88.9055C45.3984 88.8041 40.9971 87.8972 36.8678 85.9072C32.8625 83.9838 29.5566 80.8592 27.4106 76.9686C23.7237 70.4746 22.4128 63.5535 23.7766 56.1803C24.0217 54.8561 24.4059 53.7644 25.7947 52.8809C29.9312 50.2501 34.5241 49.0647 39.2198 48.3475C47.3526 47.1051 55.5635 46.7221 63.7581 47.6327C67.8678 48.1402 71.9473 48.8681 75.9789 49.8133C79.179 50.5232 79.3124 50.8635 79.8405 53.9182C81.0126 53.4764 82.1542 52.9035 83.3612 52.6176C87.0895 51.7348 90.8501 53.2993 93.1391 56.6215C97.008 62.2375 97.2793 72.4086 88.7916 78.2131C85.561 80.4223 82.0498 81.7846 78.063 80.8385C76.782 80.535 75.5999 79.8196 74.2014 79.2186ZM26.5874 58.4401C26.2734 64.7918 28.0077 71.0764 31.5349 76.368C33.3139 79.177 35.9195 81.3658 38.9933 82.6334C47.7794 86.1821 56.5654 86.2792 65.1971 82.1055C68.4883 80.5598 71.1712 77.9623 72.8226 74.7229C75.6605 69.189 76.2757 63.2539 76.0666 57.0811C74.7947 57.5405 73.6479 58.1466 72.432 58.3597C68.5963 59.0295 64.7496 59.9123 60.8818 60.0617C49.4467 60.4998 37.9988 60.6222 26.5874 58.4401ZM28.7205 55.0391L28.7942 55.5334C30.0246 55.7413 31.2494 56.0857 32.4859 56.1347C40.934 56.4695 49.3816 56.8775 57.8345 56.9816C62.3294 57.0367 66.848 56.64 71.2055 55.3224C72.0725 55.0559 72.9037 54.6848 73.6808 54.2171C73.8517 54.0887 73.9893 53.9213 74.0822 53.7288C74.1752 53.5364 74.2207 53.3244 74.2151 53.1108C74.1405 52.9138 74.0219 52.7363 73.8685 52.5919C73.715 52.4476 73.5307 52.3401 73.3295 52.2776C72.0205 51.9056 70.6938 51.4907 69.3491 51.3722C65.2677 51.0121 61.1787 50.6925 57.0857 50.522C49.0421 50.1871 41.0963 50.8687 33.3709 53.2843C31.7912 53.7778 30.2688 54.4494 28.7205 55.0391ZM79.6643 58.5132C80.2753 58.3348 80.5986 58.2267 80.9286 58.146C84.2642 57.3314 87.5346 58.8806 88.7027 61.8798C89.4378 63.7889 89.555 65.8807 89.0375 67.8599C87.6631 73.3898 82.1983 76.6578 76.4148 75.442L75.9031 76.6313C77.7376 76.8691 79.4609 77.4344 81.0927 77.2384C85.6386 76.6904 88.8859 74.0395 90.5767 69.874C92.2158 65.8385 91.7503 61.7717 89.2175 58.1603C87.018 55.0259 81.7776 55.1289 79.6643 58.5132ZM77.9842 72.4844C83.1417 73.1639 87.4841 67.8459 85.7498 62.8159C85.0353 60.7434 81.7733 59.7978 80.1483 61.2262C79.8831 61.5151 79.7153 61.88 79.6685 62.2695C79.0947 65.6404 78.5516 69.0164 77.9842 72.4844Z" fill="#7CA851"/>
<path d="M56.3068 41.2149C56.2426 43.0415 55.8051 44.4562 54.6456 45.4562C54.3749 45.6515 54.0684 45.7915 53.7436 45.8682C53.4188 45.9449 53.0821 45.9567 52.7526 45.9031C51.8723 45.739 51.8156 44.8105 52.0546 44.1639C52.8936 41.8917 52.44 39.7738 51.8305 37.5195C51.2317 35.3048 51.9764 33.1227 53.2026 31.1695C53.6592 30.4437 54.3083 30.0513 55.1205 30.4605C55.8992 30.852 55.912 31.6249 55.5939 32.3138C54.5485 34.5864 54.6395 36.7807 55.7522 39.0173C56.1245 39.7628 56.1765 40.667 56.3068 41.2149Z" fill="#7CA851"/>
<path d="M37.3772 46.0001C37.4034 45.7854 37.4664 45.5769 37.5635 45.3837C38.6251 43.8186 38.1818 42.3394 37.4384 40.8036C35.9282 37.6826 36.3821 34.8259 38.7137 32.2732C38.9843 31.9767 39.2753 31.57 39.6178 31.4958C40.2047 31.3691 40.9877 31.2379 41.4206 31.5198C42.0782 31.946 41.7396 32.6258 41.3396 33.2383C40.7703 34.1292 40.2597 35.0563 39.8111 36.0137C39.216 37.2524 39.5441 38.454 39.9938 39.6827C40.5068 40.9386 40.8759 42.2485 41.094 43.5875C41.2964 45.2372 40.3408 46.7146 39.1088 47.1962C38.0597 47.6056 37.3328 47.1512 37.3772 46.0001Z" fill="#7CA851"/>
<path d="M60.8132 40.2267C60.5155 39.1113 60.282 38.0258 59.9344 36.9782C59.2314 34.8603 59.8303 32.9902 60.939 31.2093C61.4096 30.4528 62.1135 29.977 62.9875 30.4212C63.9071 30.8888 63.5911 31.7101 63.2614 32.4106C62.9092 33.1126 62.7369 33.8912 62.76 34.6763C62.7831 35.4614 63.0009 36.2284 63.3939 36.9085C64.6167 39.2483 64.681 41.6225 62.8295 43.6893C62.2297 44.359 61.3006 44.8199 60.4345 45.1365C59.7493 45.3871 59.2421 45.0147 59.5386 44.1286C59.9697 42.8436 60.3813 41.5525 60.8132 40.2267Z" fill="#7CA851"/>
<path d="M47.9986 31.5928C47.8685 32.0215 47.717 32.4433 47.5447 32.8568C46.7261 34.5506 46.9166 36.165 47.808 37.7769C48.6762 39.3472 49.3122 41.0416 49.0357 42.8432C48.8446 43.8643 48.4223 44.8281 47.801 45.6607C47.5331 46.0327 46.5723 46.1958 46.0834 46.0187C45.7431 45.8969 45.4173 44.9754 45.5215 44.5087C46.0438 42.1701 45.5957 40.0696 44.5878 37.9203C43.4553 35.5053 44.0057 33.1579 45.7285 31.1605C46.0426 30.7952 46.7602 30.6464 47.2862 30.6568C47.5358 30.6616 47.7733 31.2778 47.9986 31.5928Z" fill="#7CA851"/>
</g>
<defs>
<clipPath id="clip0_951_13276">
<rect width="74.1237" height="60" fill="white" transform="translate(23.25 30.25)"/>
</clipPath>
</defs>
</svg>
