<svg width="120" height="121" viewBox="0 0 120 121" fill="none" xmlns="http://www.w3.org/2000/svg">
<circle cx="60" cy="60.25" r="60" fill="#FFECDB"/>
<g clip-path="url(#clip0_951_13266)">
<path d="M88.8252 49.8353C88.6425 49.0933 88.2653 48.5236 87.7636 48.2311C87.573 48.1194 87.3616 48.0482 87.1423 48.0221C86.9232 47.996 86.7008 48.0155 86.4896 48.0794C85.8098 48.2737 85.0471 48.8762 85.2771 50.644C85.457 52.0275 85.6061 53.441 85.7506 54.8064C85.8122 55.3891 85.8747 55.9716 85.9379 56.5543C85.707 60.4304 85.4513 63.925 84.6675 67.4048C83.6436 71.9501 81.528 76.2346 78.3799 80.1386C75.8266 83.3053 72.5638 85.2678 68.405 86.1377C64.9633 86.8325 61.433 86.9708 57.9478 86.5477C55.1147 86.2231 51.7931 85.7073 48.6374 84.3415C44.9838 82.7602 42.3978 80.8929 40.4987 78.4647C37.6887 74.8617 35.6801 70.6959 34.6081 66.2479C33.8824 63.4237 33.689 60.4883 34.0379 57.5929C34.5726 53.3322 36.0197 49.1451 38.5919 44.4153C39.4973 42.7458 40.721 41.2717 42.1933 40.0768C45.7766 37.1629 49.3256 35.1619 53.0427 33.959C55.6862 33.1034 58.6038 32.8345 61.9654 33.1371C64.1995 33.3382 66.3703 34.0072 68.4697 34.6545C68.9401 34.7994 69.4107 34.9443 69.8822 35.0846L70.0993 35.1507C70.5011 35.2878 70.9155 35.3837 71.3364 35.437C71.6156 35.4616 72.1952 35.3061 72.3055 34.9745C72.3577 34.7849 72.3682 34.5861 72.3357 34.3921C72.3035 34.1981 72.2292 34.0135 72.1184 33.8513C71.8338 33.4996 71.4658 33.2251 71.0482 33.053C69.6447 32.4683 68.3756 31.9481 67.0517 31.5056C64.5315 30.6602 61.89 30.2361 59.2329 30.2503C54.9713 30.2861 50.7896 31.4157 47.0852 33.5318C45.7172 34.2984 44.5082 35.0108 43.3891 35.7098C40.0948 37.7674 37.7009 40.1774 36.0706 43.0774C34.114 46.557 32.7624 49.7637 31.938 52.88C30.9608 56.5748 30.6098 59.4556 30.7995 62.2202C31.1284 67.0055 32.6468 71.7435 35.4431 76.7051C36.4505 78.5371 37.6781 80.2384 39.0982 81.7703C42.068 84.9196 45.8308 87.1476 50.5991 88.5804C54.2662 89.6864 58.0744 90.2489 61.9034 90.25C63.5514 90.2496 65.1979 90.1465 66.8335 89.9417C73.2515 89.1394 78.1933 86.3484 81.9387 81.4091C84.9359 77.4569 86.9212 73.5016 88.0083 69.3186C89.2471 64.5493 89.7072 59.355 89.4151 53.4385C89.3364 52.2209 89.1388 51.014 88.8252 49.8353Z" fill="#9B7E62"/>
<path d="M64.6252 41.4679C64.8884 41.4955 65.1513 41.5234 65.4145 41.5481C65.6507 41.5701 66.2807 41.6293 66.4912 41.0142C66.5807 40.7826 66.5774 40.5252 66.4823 40.2958C66.3873 40.0665 66.2075 39.8829 65.9807 39.7834C65.5647 39.5721 65.1239 39.4136 64.6686 39.3117C62.5864 38.8714 60.4471 38.7727 58.3335 39.0194C54.3907 39.4847 51.0802 40.5098 48.2126 42.1533C44.4029 44.3367 42.0461 47.1241 41.0075 50.6761C40.8485 51.2208 40.6346 51.7682 40.4456 52.2513C38.8183 56.3013 38.4126 60.7426 39.2792 65.0226C39.8914 68.0476 40.647 70.4897 42.3437 72.5764C46.2396 77.3673 50.67 80.0703 55.8883 80.8403C57.0133 81.0063 58.1692 81.0618 59.2848 81.1153C59.7931 81.1398 60.3186 81.1651 60.8328 81.2006H60.848H60.8535C64.8851 81.1169 68.843 80.099 72.4181 78.2259C73.2753 77.7971 74.0652 77.2439 74.762 76.5841C76.9651 74.4098 78.3535 72.3485 79.1307 70.0973C79.2875 69.6434 79.4945 69.1926 79.6949 68.7565C79.7563 68.6229 79.8179 68.4892 79.878 68.3551C81.6735 64.3603 81.6574 59.993 79.8287 55.0035C79.6758 54.5839 79.4368 54.2016 79.1271 53.8814C78.928 53.6579 78.6728 53.4923 78.3879 53.402C78.103 53.3119 77.7993 53.3004 77.5087 53.3689C77.2317 53.4579 76.9841 53.6215 76.7931 53.8418C76.6021 54.062 76.4747 54.3305 76.4249 54.6183C76.3023 55.142 76.3931 55.7249 76.4732 56.2394L76.4914 56.355C76.5846 56.962 76.6975 57.5746 76.8067 58.1675C76.992 59.1737 77.1839 60.2145 77.282 61.2421C77.462 62.9394 77.2355 64.6552 76.6216 66.247C76.0754 67.6805 75.4569 69.0851 74.7688 70.4556C73.6308 72.6579 72.385 74.1008 70.8472 74.9923C69.6428 75.6913 68.2832 76.1882 66.968 76.6687L66.4498 76.8588C64.1252 77.7159 61.6241 77.7176 59.1909 77.719H59.1723C55.4306 77.719 52.581 76.8889 50.2061 75.1075C49.8192 74.817 49.4124 74.5452 49.019 74.2823C48.5835 73.9912 48.1332 73.6903 47.7152 73.3675C45.4494 71.6169 43.9689 69.6456 43.1895 67.3385C42.272 64.6253 41.3117 61.0261 42.0323 57.2445C42.2693 56.1114 42.5638 54.9916 42.9148 53.8889C43.1282 53.1778 43.3485 52.4424 43.5344 51.7099C44.2945 48.7176 46.1369 46.4 49.1672 44.6247C53.2549 42.2297 57.8249 41.1171 62.7381 41.3105C63.3658 41.3353 64.0055 41.4028 64.6252 41.4679Z" fill="#9B7E62"/>
<path d="M53.9984 52.2225C54.9914 51.6502 56.0447 51.1909 57.139 50.8532C58.2678 50.5158 59.4555 50.2877 60.604 50.067C60.9 50.0099 61.1961 49.9531 61.4913 49.8943C61.8674 49.8197 62.4358 49.7065 62.4474 49.039C62.4564 48.5153 62.1101 48.164 61.5217 48.099C61.2125 48.0642 60.9013 48.052 60.5904 48.0622C58.5022 48.1411 56.4017 48.6285 53.9809 49.5968C51.8722 50.4066 50.1544 52 49.1833 54.0467C47.4337 57.6516 47.3301 61.5074 48.8762 65.5067C49.3115 66.6323 49.9664 68.0693 51.1771 69.2013C53.8899 71.737 57.1901 73.0222 60.9871 73.0222C61.1671 73.0222 61.3476 73.0273 61.5283 73.033C61.6946 73.0385 61.8634 73.0443 62.0327 73.0443C62.2351 73.0458 62.4376 73.0348 62.6386 73.0112C65.2845 72.6831 67.356 71.7923 68.9718 70.2879C72.0054 67.4634 73.3774 63.681 73.0508 59.0454C73.0046 58.392 72.6844 57.7461 72.4021 57.1766C72.1471 56.6625 71.5638 56.2701 70.982 56.5575C70.5881 56.7993 70.3001 57.1819 70.1762 57.6283C70.1006 57.9394 70.0745 58.2607 70.0995 58.5799C70.1034 58.7356 70.1072 58.8827 70.0995 59.0265C70.08 59.3806 70.0712 59.7407 70.0626 60.0893C70.0642 60.8903 70.0021 61.6902 69.8773 62.481C69.0986 66.6374 66.7659 69.0779 62.9444 69.7353C60.252 70.1978 57.6028 69.6944 55.0714 68.2378C54.0953 67.6762 53.103 67.0124 52.4565 65.9657C50.567 62.9063 50.1001 59.6491 51.0686 56.2844C51.6153 54.3803 52.6021 53.0134 53.9984 52.2225Z" fill="#9B7E62"/>
<path d="M79.7285 38.0879C79.7608 37.917 79.7954 37.7462 79.8301 37.5755C79.95 37.0418 80.036 36.501 80.0875 35.9563C80.159 34.9928 79.7147 34.6506 78.9741 34.4105C78.6891 34.3095 78.3823 34.2865 78.0853 34.3437C77.7882 34.4009 77.5118 34.5363 77.284 34.736C75.1868 36.495 73.0721 38.2776 70.9984 40.0339C70.2528 40.6662 69.9896 41.4755 70.176 42.5806C70.2953 43.2911 70.3694 44.0247 70.4409 44.7343C70.4955 45.2736 70.5519 45.831 70.6278 46.3784C70.6872 46.8085 70.5664 47.1001 70.1821 47.454L70.0104 47.612C68.9499 48.5882 67.8536 49.5976 66.8233 50.6415C64.9889 52.5001 63.1391 54.4042 61.3485 56.2455C60.4985 57.1205 59.6476 57.995 58.796 58.8691C58.1873 59.4934 58.3153 59.9742 58.5302 60.2675C58.6096 60.3856 58.7164 60.4823 58.8414 60.5494C58.9664 60.6164 59.1059 60.6516 59.2476 60.6521C59.5373 60.638 59.8156 60.5345 60.0443 60.3554C60.443 60.0583 60.8206 59.7337 61.1746 59.384C63.2253 57.4402 65.2746 55.4947 67.3227 53.5479L70.6517 50.3859C70.987 50.0682 71.2262 49.9147 71.6517 49.9323C73.4679 49.9869 75.314 49.9856 77.0996 49.9836C77.6064 49.9827 78.1132 49.9827 78.6202 49.9836H78.6244C78.9369 49.9918 79.247 49.9289 79.5318 49.7997C79.8167 49.6706 80.0687 49.4784 80.2691 49.2377C81.7165 47.5787 83.2146 45.9147 84.6176 44.3634C85.3067 43.6016 85.903 42.8077 85.6358 41.4751C85.3946 40.277 85.233 39.7469 83.8909 39.7394C83.1902 39.7383 82.4797 39.7755 81.7928 39.8147C81.404 39.8368 81.0152 39.8588 80.6261 39.8734C80.3121 39.8848 80.0007 39.8824 79.6393 39.8793L79.3647 39.8771C79.393 39.7392 79.4211 39.604 79.4489 39.4714C79.5487 38.9909 79.6426 38.5401 79.7285 38.0879ZM82.9705 42.4925L83.0249 42.4965L79.2678 47.2708H72.9631C72.9449 47.2069 72.9249 47.142 72.905 47.0762C72.8131 46.8154 72.7543 46.544 72.7296 46.2685C72.7017 45.5396 72.703 44.795 72.7041 44.0751C72.7041 43.6432 72.7056 43.2114 72.7004 42.7799C72.6951 42.354 72.757 42.0138 73.0745 41.7385C74.2618 40.7091 75.4449 39.6743 76.7007 38.5758L77.761 37.649C77.7502 37.8135 77.7412 37.9331 77.7235 38.0483C77.6728 38.3749 77.616 38.7006 77.5592 39.0264C77.4515 39.6463 77.3399 40.2874 77.2724 40.9263C77.2127 41.4896 77.2912 41.8732 77.5195 42.132C77.7478 42.3908 78.1086 42.5139 78.6616 42.524C79.4695 42.5394 80.2904 42.5163 81.0834 42.4945C81.5134 42.4828 81.9435 42.4711 82.3733 42.465C82.5496 42.4645 82.7248 42.4762 82.9702 42.4934L82.9705 42.4925Z" fill="#9B7E62"/>
</g>
<defs>
<clipPath id="clip0_951_13266">
<rect width="58.75" height="60" fill="white" transform="translate(30.75 30.25)"/>
</clipPath>
</defs>
</svg>
