<svg xmlns="http://www.w3.org/2000/svg" width="120" height="121" fill="none" viewBox="0 0 120 121"><circle cx="60" cy="60.25" r="60" fill="#FFECDB"/><g clip-path="url(#clip0_2771_4478)"><path fill="#9B7E62" d="M87.1745 84.9914C86.929 85.5436 86.6871 86.0977 86.4372 86.6479C86.1474 87.3552 85.6706 87.9706 85.0577 88.4277C84.4449 88.8849 83.7193 89.1664 82.9585 89.2425C81.1144 89.501 79.2349 89.2212 77.5462 88.4366C75.5713 87.5084 74.7418 86.0437 74.8837 83.8704C74.9615 82.5644 75.437 81.3132 76.2457 80.2845C77.0547 79.2561 78.1582 78.4991 79.4094 78.1154C79.6776 78.0323 79.9344 77.9157 80.296 77.7763C80.2353 74.663 80.6747 71.5292 80.0109 68.4409C79.7831 67.5341 79.3595 66.6885 78.7694 65.9637C78.1349 65.1522 77.1902 65.0494 76.3521 65.659C75.6279 66.1832 74.9998 66.829 74.4958 67.5679C72.995 69.812 72.2076 72.3385 71.8463 74.998C71.4512 77.9071 71.1495 80.8292 70.7012 83.7294C69.6468 90.5547 62.512 94.1426 56.3417 90.9728C53.3356 89.4287 51.98 86.7806 51.9207 83.5515C51.8669 80.6242 52.1072 77.6874 52.3059 74.7608C52.4496 72.6355 52.7422 70.5219 52.9547 68.3999C52.9749 68.066 52.9767 67.7313 52.9602 67.3975C50.3694 66.466 47.8266 65.7044 45.4096 64.6546C38.755 61.7613 35.0158 56.5175 33.6596 49.4971C32.9757 46.0825 33.1837 42.5492 34.2634 39.2385C35.7803 34.6158 38.9821 31.5735 43.5754 29.9962C43.9809 29.8665 44.3987 29.7793 44.8222 29.736C45.4849 29.6546 46.0485 29.5659 46.5073 28.9079C47.0722 28.0975 47.8821 28.2205 48.4841 29.0373C48.7488 29.4594 48.8957 29.9445 48.91 30.4425C48.9243 30.9405 48.8054 31.4333 48.5653 31.8699C47.9217 32.8493 47.1637 32.8327 45.9782 31.8145C42.0717 32.3334 37.1752 36.5302 36.2906 41.9941C35.7586 45.2816 35.7396 48.5686 36.8708 51.6847C38.5118 56.2055 41.3665 59.792 45.9529 61.6915C47.7432 62.4332 49.6222 62.9593 51.42 63.6838C54.43 64.8971 57.3656 64.2878 59.8583 62.7042C64.8645 59.5241 69.181 55.5022 71.9081 50.1199C74.1246 45.7449 74.1617 41.2754 71.6734 36.9267C69.9648 33.94 67.2682 32.3237 64.0173 31.4937C63.4632 31.3521 63.037 31.4255 62.6597 31.9369C62.2386 32.5049 61.631 32.7936 60.9084 32.4963C60.2304 32.217 59.929 31.6397 59.8157 30.9473C59.5387 29.2509 59.9184 28.512 61.3018 28.2876C61.7152 28.2202 62.1884 28.4147 62.6129 28.5505C63.0839 28.7009 63.5202 29.0353 63.9957 29.094C68.5881 29.6631 72.0921 31.9297 74.4243 35.8933C77.4376 41.0147 77.2087 46.2849 74.8211 51.5575C73.3505 54.8049 71.0789 57.4828 68.4901 59.8796C66.546 61.6804 64.5146 63.3893 62.4702 65.0763C61.0697 66.2391 59.3104 66.8827 57.4901 66.8977C57.0258 66.929 56.5635 66.9838 56.1048 67.0623C56.0348 67.208 55.9825 67.3615 55.9491 67.52C55.753 71.1161 55.5161 74.7112 55.395 78.3102C55.3321 80.0606 55.3924 81.8136 55.5756 83.5557C55.9765 87.2757 58.4941 89.1506 62.1951 88.6161C65.3668 88.1581 66.946 86.7524 67.5145 83.5831C67.9146 81.3498 68.1005 79.0771 68.3579 76.8199C68.8073 72.8857 69.5573 69.0515 71.7765 65.6545C72.8495 64.0116 74.1944 62.7454 76.1194 62.2005C77.8003 61.7239 79.3016 62.132 80.6598 63.1765C82.8291 64.8452 83.5362 67.2116 83.7681 69.7832C84.0556 72.5892 83.8689 75.4241 83.2159 78.1683C83.4112 78.2991 83.6157 78.4155 83.8279 78.5169C85.4924 79.1685 86.586 80.3097 86.955 82.0939C86.9805 82.2178 87.1013 82.3222 87.1767 82.4356L87.1745 84.9914ZM81.8699 86.5255C83.307 86.3648 83.8897 85.9209 84.2402 84.5935C84.5704 83.3432 84.0828 81.8507 83.1236 81.1758C81.8616 80.2892 80.5703 80.1507 79.5828 80.8971C79.0315 81.3077 78.5993 81.8579 78.3308 82.4907C78.0624 83.1238 77.9673 83.8167 78.0551 84.4988C78.1067 84.7418 78.212 84.9703 78.3635 85.1676C78.5148 85.3646 78.7085 85.5253 78.9301 85.638C79.866 86.0356 80.8847 86.2409 81.8699 86.5243V86.5255Z"/><path fill="#9B7E62" d="M82.9759 83.421C82.9693 83.8269 82.8058 84.2142 82.5196 84.5018C82.2337 84.7897 81.8472 84.9554 81.4416 84.9642C80.9894 84.9659 80.5544 84.7911 80.2295 84.4772C79.9042 84.163 79.7144 83.7344 79.7006 83.2825C79.6961 83.0808 79.733 82.8799 79.8083 82.6926C79.8837 82.5054 79.9964 82.3355 80.1397 82.1931C80.2826 82.0504 80.4533 81.9385 80.6409 81.864C80.8287 81.7892 81.0293 81.7534 81.2313 81.7587C81.4563 81.7484 81.6807 81.7839 81.8918 81.8626C82.1026 81.9415 82.2955 82.0623 82.4584 82.2175C82.6213 82.3729 82.7512 82.5597 82.8402 82.7663C82.9291 82.9733 82.9751 83.1961 82.9759 83.421Z"/></g><defs><clipPath id="clip0_2771_4478"><rect width="54.303" height="64" fill="#fff" transform="translate(33 28.25)"/></clipPath></defs></svg>