<svg width="120" height="121" viewBox="0 0 120 121" fill="none" xmlns="http://www.w3.org/2000/svg">
<circle cx="60" cy="60.75" r="60" fill="#F1F7E0"/>
<g clip-path="url(#clip0_2771_4483)">
<path d="M86.0311 65.612C86.0739 70.6523 86.1412 75.6924 86.1482 80.7325C86.1514 82.9203 85.9823 85.1084 85.9768 87.2967C85.9693 90.3762 83.6612 92.2979 80.8254 92.3607C74.0931 92.5092 67.3581 92.6389 60.6246 92.6188C54.923 92.6019 49.2212 92.3925 43.5216 92.2066C41.9541 92.1266 40.3924 91.9573 38.8443 91.6994C37.0206 91.4292 35.2011 89.2686 35.0801 87.2873C34.9869 85.7636 34.9094 84.2372 34.8886 82.7112C34.7793 74.6539 34.6812 66.5964 34.5944 58.539C34.507 50.9769 34.4223 43.4151 34.3404 35.8535C34.3354 34.3595 34.7134 32.8893 35.4385 31.583C35.7618 30.9297 36.2617 30.3801 36.8814 29.9964C37.5011 29.6127 38.2159 29.4102 38.9447 29.412C41.1326 29.333 43.3248 29.3259 45.5085 29.1842C53.4416 28.6688 61.3737 29.0634 69.3066 29.1252C70.9414 29.138 72.1675 29.6871 73.3664 30.8205C75.8868 33.203 78.5784 35.4035 81.185 37.6957C82.1773 38.5685 83.0929 39.5312 84.1087 40.3733C85.13 41.22 85.4537 42.3054 85.4756 43.553C85.5515 47.8493 85.63 52.1456 85.7111 56.4417C85.7705 59.4992 85.842 62.5565 85.9079 65.6137L86.0311 65.612ZM68.5497 32.2094C67.8136 32.1524 67.2026 32.0726 66.5906 32.0624C61.386 31.9755 56.1813 31.8964 50.9765 31.8249C48.6237 31.7926 46.2704 31.7764 43.9174 31.7629C42.7219 31.7554 41.5236 31.7178 40.3313 31.7811C38.6716 31.8692 38.1608 32.3511 37.8618 33.9905C37.5646 35.5338 37.4949 37.1122 37.6548 38.6757C37.753 39.5789 37.8023 40.4869 37.8024 41.3955C37.8275 55.9777 37.8463 70.5601 37.8589 85.1424C37.8511 85.4315 37.8625 85.7208 37.893 86.0085C38.149 87.8923 39.1396 89.1343 41.2765 89.2191C49.2072 89.5331 57.1374 89.5343 65.0703 89.4034C69.1185 89.3365 73.1671 89.3 77.2155 89.2529C78.2057 89.2416 79.1981 89.2792 80.1861 89.2317C81.9081 89.1488 82.7688 88.2823 82.7509 86.5883C82.7319 84.7732 82.5966 82.9597 82.5659 81.1445C82.5304 79.0383 82.6017 76.9297 82.5418 74.8247C82.3923 69.5404 82.137 64.2586 82.0346 58.9737C81.9532 54.7204 82.0363 50.4641 82.0419 46.2091C82.0419 45.8925 82.0076 45.5757 81.9887 45.2537C81.846 45.2233 81.7013 45.2029 81.5557 45.1926C79.0365 45.2434 76.5176 45.3227 73.9981 45.3374C73.2142 45.3433 72.4322 45.2525 71.6705 45.0669C70.12 44.6824 69.6341 44.081 69.4701 42.4827C69.3228 41.0455 69.2264 39.6033 69.0977 38.1643C68.9267 36.2366 68.7439 34.3076 68.5497 32.2094ZM73.0031 42.3547L80.4119 41.8903L71.7451 34.0184C72.188 36.9529 72.5853 39.586 73.0031 42.3547Z" fill="#7CA851"/>
<path d="M50.4735 42.5438C52.2482 42.5438 54.0237 42.5345 55.7976 42.5469C57.0506 42.5556 57.5036 42.9092 57.7763 44.1424C57.8936 44.7075 57.9575 45.2823 57.9673 45.8594C58.0052 47.2024 57.4602 47.8864 56.1529 48.0506C55.0074 48.1956 53.8508 48.287 52.6968 48.3162C50.921 48.3619 49.1433 48.3182 47.367 48.3443C46.542 48.339 45.7176 48.3945 44.9007 48.5099C42.9816 48.8238 42.0214 47.2367 42.0649 45.9014C42.1012 45.2414 42.1762 44.5843 42.2895 43.9332C42.3206 43.5995 42.462 43.2858 42.6913 43.0414C42.9207 42.7971 43.2249 42.6361 43.556 42.5839C44.2013 42.4456 44.8573 42.3636 45.5168 42.3389C47.1682 42.3048 48.8209 42.3278 50.4733 42.3278L50.4735 42.5438ZM54.4217 45.1988C54.4314 45.1022 54.4408 45.0055 54.4502 44.9089C51.1328 45.0272 47.8152 44.409 44.435 44.8667V45.8481C44.8181 45.8261 45.1393 45.8218 45.4574 45.7865C46.2334 45.7003 47.0057 45.5542 47.7836 45.5146C49.5553 45.4247 51.3294 45.3897 53.1021 45.3214C53.5428 45.3026 53.9819 45.2403 54.4217 45.1988Z" fill="#7CA851"/>
<path d="M65.6444 79.5054C62.6739 79.5054 59.7033 79.5129 56.7342 79.4991C56.0351 79.5085 55.3363 79.4629 54.6444 79.3627C53.8988 79.2405 53.5093 78.7973 53.5112 78.2636C53.5137 77.7482 53.9423 77.2495 54.6463 77.1319C55.5794 76.9601 56.5238 76.8575 57.472 76.8251C63.2037 76.721 68.9357 76.6404 74.6675 76.5836C75.2848 76.58 75.9004 76.652 76.5003 76.7978C77.2548 76.9787 77.5914 77.456 77.5697 78.1054C77.5455 78.7833 77.0867 79.2436 76.2861 79.3677C76.0407 79.3999 75.7931 79.4132 75.5458 79.4074C72.2451 79.4098 68.9447 79.4103 65.6439 79.4088L65.6444 79.5054Z" fill="#7CA851"/>
<path d="M64.9361 69.2207C61.6347 69.2207 58.3332 69.2257 55.0318 69.2151C54.5373 69.2175 54.0437 69.174 53.5574 69.0847C53.1391 69.0038 52.7822 68.7652 52.7384 68.2773C52.6901 67.7354 53.0319 67.432 53.477 67.2586C53.7501 67.1664 54.0355 67.1152 54.3237 67.1067C56.5036 66.9509 58.6822 66.7309 60.865 66.672C65.5674 66.544 70.2718 66.4962 74.9754 66.4288C75.3867 66.423 75.797 66.4718 76.1955 66.5737C77.0244 66.7879 77.384 67.2478 77.3494 67.9477C77.3173 68.5939 76.9529 69.0209 76.1863 69.1835C75.7021 69.2796 75.2094 69.3262 74.7158 69.3221C71.4554 69.3337 68.195 69.3281 64.9346 69.3281L64.9361 69.2207Z" fill="#7CA851"/>
<path d="M65.2885 59.3157C61.7363 59.3157 58.1842 59.3157 54.6319 59.3157C54.3841 59.3157 54.1338 59.3565 53.8892 59.3328C53.462 59.2915 53.0589 59.1802 52.9877 58.658C52.9468 58.4508 52.9849 58.2356 53.0945 58.055C53.2042 57.8743 53.3773 57.7413 53.5801 57.6816C54.238 57.4471 54.9205 57.2884 55.6143 57.208C60.9246 56.7675 66.2538 56.5931 71.5817 56.6864C72.9863 56.7088 74.3912 56.7013 75.7958 56.7107C76.0849 56.7035 76.3742 56.7117 76.6623 56.7359C77.6349 56.8477 78.2708 57.4362 78.2375 58.1712C78.2053 58.873 77.6052 59.3956 76.6824 59.4881C76.3117 59.5183 75.9393 59.5234 75.5678 59.5033C73.2563 59.4227 70.9453 59.3217 68.6336 59.2546C67.5195 59.222 66.4037 59.2488 65.2885 59.2488V59.3157Z" fill="#7CA851"/>
<path d="M45.6364 83.1174C45.2411 83.1043 44.8468 83.0715 44.4549 83.0188C41.7983 82.5467 40.6574 80.1801 41.9306 77.8022C43.2249 75.3842 45.1601 74.7109 47.6969 75.7991C49.3749 76.5181 50.2291 78.0148 49.9538 79.7531C49.6398 81.7398 48.4564 82.8959 46.5485 83.0749C46.2628 83.1009 45.9745 83.1021 45.6364 83.1174ZM44.1858 79.8763C45.0553 80.4434 45.973 80.39 46.8845 80.1012C47.3675 78.3526 46.593 77.6467 44.6053 77.9213C44.161 78.4693 43.8888 79.0714 44.1873 79.8775L44.1858 79.8763Z" fill="#7CA851"/>
<path d="M49.5828 58.1955C49.5828 58.2368 49.5842 58.2781 49.5828 58.3194C49.5234 59.7887 49.2092 61.1694 47.7007 61.8029C46.0181 62.5093 44.3544 62.3673 42.9311 61.1523C41.6903 60.0928 41.328 58.7309 41.7613 57.1244C42.3283 55.0232 43.1241 54.3468 45.3958 54.2077C47.3783 54.0869 48.782 54.8708 49.3495 56.4938C49.4982 57.0476 49.6022 57.6122 49.6606 58.1824L49.5828 58.1955ZM44.117 56.8541C43.5903 57.8388 43.5893 58.4094 44.0928 59.0296C44.6937 59.7691 45.5571 59.9324 46.7717 59.5368C47.3172 58.4858 47.3911 57.6337 46.8562 57.148C46.0271 56.3938 45.0635 56.4909 44.117 56.8541Z" fill="#7CA851"/>
<path d="M45.5457 72.1579C44.9569 72.0649 44.5476 72.022 44.1481 71.9336C42.3679 71.5394 41.2611 70.2804 41.2983 68.7128C41.3442 66.822 42.4254 65.5326 44.2363 65.1261C45.8945 64.754 47.3353 65.1056 48.5472 66.3025C50.2912 68.025 49.7934 70.7306 47.5256 71.672C46.8574 71.9495 46.1048 72.0258 45.5457 72.1579ZM44.0638 67.2695C43.7825 67.9146 43.46 68.5918 44.0971 69.0859C44.4734 69.3779 45.0895 69.4344 45.6035 69.455C46.1302 69.476 46.6948 69.3767 46.8871 68.7234C46.47 67.4299 46.1343 67.2466 44.0638 67.2707V67.2695Z" fill="#7CA851"/>
</g>
<defs>
<clipPath id="clip0_2771_4483">
<rect width="51.9245" height="64" fill="white" transform="translate(34.3335 28.75)"/>
</clipPath>
</defs>
</svg>
