<svg width="120" height="121" viewBox="0 0 120 121" fill="none" xmlns="http://www.w3.org/2000/svg">
<circle cx="60" cy="60.25" r="60" fill="#FFE4E4"/>
<g clip-path="url(#clip0_951_13288)">
<path d="M67.1489 33.5096C66.9687 33.0954 66.7885 32.6811 66.616 32.2653C66.2626 31.4147 65.6025 30.8132 64.5389 30.3723C64.3884 30.2952 64.224 30.2535 64.0571 30.2502C63.8902 30.2469 63.7246 30.282 63.5715 30.3531C63.4388 30.4334 63.3241 30.5436 63.2351 30.6759C63.1462 30.8083 63.0851 30.9596 63.0563 31.1196C62.9326 31.6521 62.8703 32.1988 62.8704 32.7474C62.8517 34.0708 62.8427 35.3944 62.8339 36.7177C62.8187 38.9375 62.8035 41.2333 62.7391 43.4878C62.6478 46.6978 62.5291 49.9595 62.4146 53.1149C62.2956 56.3895 62.1722 59.776 62.0791 63.1075C61.9224 68.7177 61.8062 74.4225 61.6938 79.9398L61.6011 84.4615C61.5728 85.8377 61.5737 87.2703 61.6044 88.7195C61.5811 89.2517 61.6836 89.7819 61.9022 90.2608C62.0391 90.5036 62.5343 91.3077 63.167 91.4516C63.2475 91.47 63.3295 91.4793 63.4118 91.4796C64.0716 91.4796 64.5261 90.842 64.6818 90.1834C64.8109 89.6069 64.8753 89.0159 64.8736 88.4231C64.8898 85.9845 64.9007 83.5459 64.906 81.1073C64.9107 79.609 64.916 78.1106 64.9221 76.612C64.9236 76.3027 64.9427 75.9964 64.9645 75.6415C64.9705 75.5431 64.9766 75.4419 64.9827 75.3371C65.6241 75.3371 66.2588 75.3404 66.8868 75.3472C68.5368 75.3586 70.0947 75.37 71.6826 75.319C73.5174 75.2599 74.1894 74.5253 74.2502 72.5107C74.2538 72.1882 74.2388 71.8654 74.2046 71.5449L74.1833 71.2896C74.1475 70.8299 74.1085 70.3709 74.0692 69.9116C73.9966 69.0659 73.9222 68.1909 73.8735 67.331L73.8212 66.3949C73.579 62.0412 73.3263 57.5391 72.3921 53.2023C71.368 48.4533 70.166 43.4353 68.6103 37.4111C68.2244 36.0699 67.7356 34.7649 67.1489 33.5096ZM71.2181 71.8972H65.108C65.0506 67.7262 65.1683 63.3757 65.2822 59.1661C65.3323 57.3111 65.3842 55.3932 65.4212 53.5029C65.5055 49.1613 65.5872 44.8197 65.6665 40.4779L65.7415 36.4363C68.6159 46.8546 71.3782 59.0621 71.2176 71.8972H71.2181Z" fill="#8F4949"/>
<path d="M49.0214 40.5217C48.8819 39.2015 48.8197 37.8474 48.7593 36.5368C48.7317 35.9297 48.7039 35.3226 48.6685 34.7161C48.6538 34.4603 48.6397 34.2046 48.6262 33.9488C48.5814 33.1116 48.5348 32.2464 48.4471 31.3965C48.414 31.2022 48.333 31.0207 48.2125 30.8709C48.0919 30.7212 47.9362 30.6086 47.7614 30.5445C47.4572 30.4803 47.167 30.8237 46.9321 31.1012C46.795 31.2924 46.7198 31.526 46.718 31.7668C46.6938 32.6237 46.6669 33.4805 46.6392 34.3374C46.5634 36.6672 46.4848 39.0747 46.5025 41.4452C46.5155 42.2884 46.7024 43.1181 47.0499 43.8752C47.3974 44.6323 47.8969 45.2981 48.5129 45.8251C49.1341 46.342 49.8018 46.7919 50.506 47.1684C50.7966 47.338 51.0966 47.5122 51.3998 47.7009C51.3705 48.6007 51.3349 49.5078 51.2991 50.419C51.2162 52.5275 51.1296 54.7075 51.1233 56.8691C51.0972 64.6145 51.1015 72.4896 51.1058 80.1051C51.1074 82.9809 51.1087 85.8565 51.1094 88.732C51.1094 88.8294 51.1092 88.9272 51.1075 89.0248C51.1048 89.3261 51.102 89.6373 51.125 89.9474C51.2059 91.0324 51.7779 91.75 52.5542 91.75C52.5694 91.75 52.5843 91.75 52.5996 91.75C53.4084 91.7212 53.9386 90.9752 53.951 89.8488C53.9575 89.2298 53.9407 88.6031 53.9247 87.9971C53.9106 87.4718 53.896 86.9292 53.897 86.3968C53.9104 79.5744 53.9274 72.7527 53.9479 65.9306L53.9623 60.5114C53.9647 59.6291 53.9666 58.7469 53.9677 57.8647C53.9714 55.5125 53.9755 53.081 53.9975 50.6898C54.0048 49.9147 54.0532 49.1234 54.1 48.3579C54.1181 48.0592 54.1362 47.7605 54.1522 47.4615C56.6282 46.5078 58.1049 44.5903 58.9299 41.2713C59.7222 38.083 59.7536 34.9196 59.6809 32.2454L59.6788 32.1488C59.6739 31.8664 59.6679 31.5142 59.4744 31.3024C59.1288 30.9242 58.7236 30.5186 58.2789 30.4927C57.8572 30.4668 57.3763 31.0104 57.1925 31.4122C57.0723 31.7298 57.0174 32.0715 57.0316 32.4138C57.0282 32.5455 57.0253 32.6773 57.0127 32.8041C56.949 33.4645 56.8936 34.1264 56.8384 34.7886C56.7083 36.3419 56.574 37.9469 56.3287 39.5016C56.1695 40.5076 55.7668 41.5045 55.3771 42.4686C55.3003 42.6589 55.2236 42.8489 55.1488 43.0382C55.0741 43.2442 54.9605 43.4318 54.815 43.589C54.6696 43.7462 54.4954 43.8696 54.3034 43.9518C54.3024 43.8042 54.3014 43.6594 54.3003 43.5172C54.2959 42.9919 54.2917 42.4958 54.3074 42.0044C54.3224 41.5369 54.3399 41.0694 54.3573 40.6019C54.4578 37.9228 54.5616 35.1524 54.1721 32.4236C54.1365 31.9944 54.0176 31.5779 53.8232 31.2003C53.7072 31.0535 53.56 30.9386 53.3937 30.8656C53.2273 30.7926 53.0469 30.7634 52.8678 30.7807C52.5033 30.8197 52.26 31.3636 52.2152 31.4723C52.154 31.6524 52.134 31.8454 52.1568 32.0353C52.1602 32.0998 52.1637 32.1648 52.1617 32.2267C52.1322 33.0875 52.1032 33.9484 52.0749 34.8096C51.9979 37.1335 51.9183 39.5365 51.8214 41.8985C51.7972 42.468 51.7276 43.0375 51.653 43.638C51.6307 43.8156 51.6087 43.9945 51.5874 44.1763C50.0527 43.5242 49.2118 42.3256 49.0214 40.5217Z" fill="#8F4949"/>
</g>
<defs>
<clipPath id="clip0_951_13288">
<rect width="27.0732" height="60" fill="white" transform="translate(46.5 30.25)"/>
</clipPath>
</defs>
</svg>
