<svg width="231" height="267" viewBox="0 0 231 267" fill="none" xmlns="http://www.w3.org/2000/svg">
<path fill-rule="evenodd" clip-rule="evenodd" d="M114.154 1.34205C103.543 4.1829 87.5013 13.7076 72.8798 25.8227C-32.8134 113.636 -21.6177 241.304 93.9348 264.865C185.424 283.497 275.994 118.231 205.059 62.0841C160.776 26.9926 91.5118 66.4288 78.6448 133.939C67.6995 191.589 124.431 233.617 162.197 195.935C201.132 157.083 200.714 102.774 161.361 102.44C130.781 102.189 112.734 149.479 139.554 159.506C155.429 165.438 174.145 146.973 161.695 137.699C157.601 134.607 154.844 135.276 153.424 139.453C150.667 148.143 141.476 154.325 139.972 148.56C135.544 132.184 161.612 102.69 171.889 112.466C186.51 126.335 174.145 166.106 147.492 190.754C108.055 227.266 73.9659 167.11 102.206 110.712C134.708 45.792 203.054 38.272 215.503 98.2621C228.955 162.848 160.943 258.18 103.293 255.089C29.4326 251.162 -8.41646 175.715 29.6832 100.686C49.5688 61.4165 92.2638 19.055 123.93 7.19068C136.63 2.42823 128.442 -2.41778 114.154 1.34205Z" fill="white"/>
</svg>
