<svg width="80" height="80" viewBox="0 0 80 80" fill="none" xmlns="http://www.w3.org/2000/svg">
<circle cx="40" cy="40" r="40" fill="white"/>
<g clip-path="url(#clip0_951_17890)">
<path d="M39.9429 61.9998C38.1782 63.7968 35.8897 64.2191 33.611 64.6324C31.6249 65.0292 29.5768 64.9944 27.6052 64.5311C23.7672 63.5768 19.4425 60.1479 18.9421 54.435C18.6631 51.2552 18.4516 48.0799 18.4876 44.8784C18.5263 41.4335 18.279 37.9863 18.2288 34.5388C18.1983 32.4491 18.0956 30.3266 18.3966 28.2728C18.9056 24.8009 19.4535 21.273 22.0745 18.5732C24.2322 16.3507 26.77 14.9292 29.955 15.0386C30.7951 15.0776 31.6227 15.2567 32.4037 15.5684C34.4736 16.3743 36.2395 17.8075 37.4541 19.6672C39.5447 22.8092 40.7374 26.2919 41.2253 30.0148C41.468 31.8642 41.6071 33.7273 41.8037 35.6901C42.1438 35.5994 42.4818 35.5157 42.8159 35.4189C46.7753 34.2704 50.6974 34.285 54.585 35.7558C55.606 36.1234 56.5402 36.6979 57.3288 37.4434C58.1174 38.1887 58.7438 39.0889 59.1685 40.0874C60.9281 44.0181 61.529 48.0784 60.6022 52.3191C59.967 55.223 58.5243 57.6183 56.1253 59.4144C52.9135 61.8191 49.3264 63.1397 45.2947 63.1309C43.4786 63.1281 41.7348 62.6936 39.9429 61.9998ZM20.9132 39.1859C22.8554 39.1859 24.6514 39.2131 26.4462 39.1801C29.7475 39.1191 33.0481 39.0275 36.3486 38.932C36.5909 38.9181 36.824 38.8339 37.0194 38.6897C37.5817 38.2786 38.1184 37.8333 38.6265 37.3567C38.8458 37.1425 38.9809 36.8565 39.0073 36.5511C39.0288 35.2303 39.0235 33.9069 38.9655 32.5871C38.7979 28.7734 38.1121 25.085 36.2585 21.6841C35.4802 20.2191 34.3396 18.9779 32.9453 18.079C31.0988 16.8904 29.1582 16.7103 27.1705 17.5678C24.8196 18.5822 23.0148 20.2717 22.0676 22.6449C21.0129 25.2376 20.4763 28.0119 20.4881 30.8109C20.5117 33.268 20.6812 35.7236 20.7949 38.1794C20.8101 38.5032 20.8696 38.8253 20.9132 39.1859ZM37.4209 60.6543C36.8246 60.1552 36.3627 59.7938 35.9292 59.4009C34.3188 57.9906 33.1581 56.1384 32.5913 54.0743C31.4906 49.9861 32.2597 46.1644 34.2078 42.505C34.3925 42.1582 34.5784 41.8118 34.7754 41.4434C32.9249 41.1644 21.996 41.3288 20.9986 41.6515C20.9986 42.2172 20.9782 42.7996 21.0024 43.3801C21.0713 45.0286 21.1273 46.6788 21.2462 48.3238C21.4046 50.5146 21.5657 52.7075 21.8189 54.8887C22.2329 58.4526 25.5638 61.4728 28.7048 62.0324C31.3852 62.5099 33.9524 62.0432 36.4784 61.1826C36.8069 61.0333 37.1222 60.8567 37.4209 60.6543ZM55.9442 40.7204C55.3425 39.6852 54.403 38.8887 53.2833 38.4646C51.9245 37.9208 50.5455 37.4131 49.1429 36.9981C48.2773 36.7425 47.3247 36.4794 46.4577 36.5884C44.2972 36.8238 42.22 37.5535 40.3869 38.7211C37.4303 40.659 35.8646 43.5552 34.9097 46.8387C34.2056 49.2599 34.1999 51.6895 35.0649 54.0854C35.2192 54.5125 35.4365 54.9168 35.6275 55.3378C42.1713 50.0063 49.306 45.7393 55.9442 40.7204ZM37.0273 57.2125C39.1209 59.2423 41.4191 60.373 44.0972 60.6404C47.9874 61.0286 51.3934 59.7449 54.4468 57.4215C56.0792 56.1957 57.2157 54.4236 57.6487 52.4288C58.1159 50.3464 58.1728 48.1929 57.8163 46.0887C57.6745 45.2088 57.414 44.3494 57.1672 43.3116L37.0273 57.2125Z" fill="#5F4086"/>
</g>
<defs>
<clipPath id="clip0_951_17890">
<rect width="43.133" height="50" fill="white" transform="translate(18 15)"/>
</clipPath>
</defs>
</svg>
