<svg width="108" height="108" viewBox="0 0 108 108" fill="none" xmlns="http://www.w3.org/2000/svg">
<path fill-rule="evenodd" clip-rule="evenodd" d="M82.9839 36.373C48.7154 57.147 42.9429 59.6166 29.4544 47.4211C32.7991 59.075 31.271 67.5504 25.0371 76.2193C40.4663 71.5167 43.281 75.8129 51.1129 81.1899C46.2921 65.97 53.0528 60.9623 82.9839 36.373Z" stroke="#9B7E62" stroke-width="6" stroke-miterlimit="1.5" stroke-linecap="round" strokeLinejoin="round"/>
<path d="M70.1211 67.3203C70.6105 68.919 70.8046 70.6165 71.1193 72.2558" stroke="#9B7E62" stroke-width="6" stroke-miterlimit="1.5" stroke-linecap="round" strokeLinejoin="round"/>
<path d="M63.6758 77.6259C64.9455 77.4313 66.2279 77.0702 67.4832 76.7773" stroke="#9B7E62" stroke-width="6" stroke-miterlimit="1.5" stroke-linecap="round" strokeLinejoin="round"/>
<path d="M72.6583 79.7773C72.654 81.3475 72.9354 83.3774 73.4291 84.8918" stroke="#9B7E62" stroke-width="6" stroke-miterlimit="1.5" stroke-linecap="round" strokeLinejoin="round"/>
<path d="M76.707 75.253C78.4003 75.3901 80.1839 74.7071 81.8759 74.4961" stroke="#9B7E62" stroke-width="6" stroke-miterlimit="1.5" stroke-linecap="round" strokeLinejoin="round"/>
<path d="M39.3672 22.6602C39.5503 24.4535 39.8543 26.2244 40.2103 27.9886" stroke="#9B7E62" stroke-width="6" stroke-miterlimit="1.5" stroke-linecap="round" strokeLinejoin="round"/>
<path d="M32.3203 32.719C33.6623 32.5989 34.9475 32.4323 36.269 32.1914" stroke="#9B7E62" stroke-width="6" stroke-miterlimit="1.5" stroke-linecap="round" strokeLinejoin="round"/>
<path d="M41.6289 35.4268C41.6568 37.1042 41.9911 38.8873 42.3313 40.5369" stroke="#9B7E62" stroke-width="6" stroke-miterlimit="1.5" stroke-linecap="round" strokeLinejoin="round"/>
<path d="M45.8672 30.8341C47.3949 30.4533 48.8083 29.9386 50.3884 29.7578" stroke="#9B7E62" stroke-width="6" stroke-miterlimit="1.5" stroke-linecap="round" strokeLinejoin="round"/>
</svg>
