<svg width="121" height="120" viewBox="0 0 121 120" fill="none" xmlns="http://www.w3.org/2000/svg">
<circle cx="60.333" cy="60" r="60" fill="#7CA851"/>
<g clip-path="url(#clip0_1023_1970)">
<path d="M67.512 87.6599C61.7941 87.6599 56.0759 87.632 50.3583 87.6687C45.7614 87.6982 41.1666 87.831 36.5702 87.8628C35.2771 87.8628 33.9857 87.7659 32.707 87.5739C29.9525 87.179 28.8565 85.5514 29.7738 82.9254C30.4011 81.1665 31.2208 79.4818 32.2181 77.9021C36.4433 71.1362 42.5911 66.7427 49.9589 63.9122C53.9588 62.3437 58.21 61.5092 62.5076 61.4487C68.9328 61.393 74.8477 63.0199 79.8988 67.2483C83.347 70.0954 86.1652 73.6255 88.1748 77.6148C88.7343 78.7298 89.3645 79.8188 89.8127 80.9774C90.2429 82.0471 90.5435 83.1642 90.7086 84.3048C90.9293 86.0137 89.9749 87.1467 88.2649 87.3616C87.0718 87.5234 85.8698 87.6132 84.6655 87.631C78.9478 87.657 73.2296 87.6432 67.512 87.6432V87.6599ZM86.2969 83.489C86.3191 83.3072 86.3172 83.1233 86.2914 82.9421C84.4701 78.2237 81.9536 73.9591 78.0655 70.6187C75.066 68.0416 71.7014 66.1871 67.7047 65.6842C63.0992 65.1049 58.5357 65.2263 54.0343 66.4916C45.518 68.8853 38.7232 73.5974 34.0701 81.1938C33.5407 82.0578 33.1204 82.9882 32.6336 83.9157C32.7815 83.9964 32.9359 84.0649 33.0951 84.1207C34.6884 84.4699 36.2772 84.2644 37.884 84.1748C41.2233 83.9881 44.5717 83.9079 47.9168 83.8907C58.8604 83.8344 69.8042 83.8386 80.7479 83.7865C82.5695 83.7768 84.3881 83.5956 86.2976 83.489H86.2969Z" fill="white"/>
<path d="M61.2715 32.1827C65.6769 32.0756 69.3576 34.1733 72.152 37.9858C72.8107 38.8846 73.6055 39.7192 74.0867 40.705C75.1617 42.9086 76.0523 45.1722 75.4809 47.7441C74.9444 50.1591 74.2449 52.4846 72.6862 54.4641C69.9142 57.9804 66.38 60.1544 61.8633 60.6949C57.7977 61.1817 53.9319 60.5808 50.3225 58.6723C46.6051 56.7069 44.49 53.5264 43.7221 49.44C42.5663 43.2883 45.7923 37.7712 50.8823 34.8378C53.9625 33.0622 57.2886 32.1673 61.2715 32.1827ZM70.9245 44.6808C71.1264 43.13 70.5042 41.8915 69.5402 40.7629C69.164 40.3224 68.824 39.8499 68.4325 39.4241C67.0153 37.8826 65.3993 36.6631 63.2497 36.3404C60.2361 35.8429 57.1424 36.2475 54.3595 37.5031C50.881 39.099 48.2861 41.532 47.6882 45.5775C46.9909 50.2969 49.4321 54.5203 53.7739 55.9146C56.3755 56.7259 59.1227 56.9642 61.8257 56.6132C65.5207 56.1913 69.8703 52.402 70.4577 48.5127C70.6497 47.2406 70.7709 45.9576 70.9245 44.6795V44.6808Z" fill="white"/>
</g>
<defs>
<clipPath id="clip0_1023_1970">
<rect width="61.6403" height="56" fill="white" transform="translate(29.333 32)"/>
</clipPath>
</defs>
</svg>
