<svg xmlns="http://www.w3.org/2000/svg" width="120" height="120" fill="none" viewBox="0 0 120 120"><circle cx="60" cy="60" r="60" fill="#3E9FA5"/><g clip-path="url(#clip0_1023_1960)"><path fill="#fff" d="M87.174 84.7414C86.9285 85.2936 86.6866 85.8477 86.4367 86.3979C86.1469 87.1052 85.6701 87.7206 85.0573 88.1777C84.4444 88.6349 83.7188 88.9164 82.958 88.9925C81.1139 89.251 79.2344 88.9712 77.5457 88.1866C75.5709 87.2584 74.7414 85.7937 74.8832 83.6204C74.9611 82.3144 75.4365 81.0632 76.2452 80.0345C77.0542 79.0061 78.1577 78.2491 79.4089 77.8654C79.6771 77.7823 79.9339 77.6657 80.2955 77.5263C80.2348 74.413 80.6742 71.2792 80.0104 68.1909C79.7827 67.2841 79.359 66.4385 78.7689 65.7137C78.1345 64.9022 77.1897 64.7994 76.3516 65.409C75.6274 65.9332 74.9993 66.579 74.4953 67.3179C72.9945 69.562 72.2071 72.0885 71.8458 74.748C71.4508 77.6571 71.149 80.5792 70.7008 83.4794C69.6463 90.3047 62.5115 93.8926 56.3412 90.7228C53.3352 89.1787 51.9795 86.5306 51.9202 83.3015C51.8665 80.3742 52.1067 77.4374 52.3054 74.5108C52.4492 72.3855 52.7417 70.2719 52.9542 68.1499C52.9744 67.816 52.9763 67.4813 52.9597 67.1475C50.369 66.216 47.8261 65.4544 45.4091 64.4046C38.7545 61.5113 35.0153 56.2675 33.6591 49.2471C32.9752 45.8325 33.1832 42.2992 34.2629 38.9885C35.7798 34.3658 38.9816 31.3235 43.575 29.7462C43.9804 29.6165 44.3982 29.5293 44.8217 29.486C45.4844 29.4046 46.048 29.3159 46.5068 28.6579C47.0717 27.8475 47.8816 27.9705 48.4837 28.7873C48.7483 29.2094 48.8952 29.6945 48.9095 30.1925C48.9238 30.6905 48.8049 31.1833 48.5648 31.6199C47.9212 32.5993 47.1632 32.5827 45.9777 31.5645C42.0712 32.0834 37.1747 36.2802 36.2901 41.7441C35.7581 45.0316 35.7391 48.3186 36.8703 51.4347C38.5113 55.9555 41.366 59.542 45.9524 61.4415C47.7427 62.1832 49.6217 62.7093 51.4195 63.4338C54.4295 64.6471 57.3652 64.0378 59.8578 62.4542C64.864 59.2741 69.1806 55.2522 71.9076 49.8699C74.1241 45.4949 74.1612 41.0254 71.673 36.6767C69.9643 33.69 67.2678 32.0737 64.0168 31.2437C63.4627 31.1021 63.0366 31.1755 62.6592 31.6869C62.2381 32.2549 61.6305 32.5436 60.9079 32.2463C60.2299 31.967 59.9285 31.3897 59.8152 30.6973C59.5382 29.0009 59.918 28.262 61.3014 28.0376C61.7147 27.9702 62.1879 28.1647 62.6124 28.3005C63.0834 28.4509 63.5197 28.7853 63.9952 28.844C68.5877 29.4131 72.0916 31.6797 74.4238 35.6433C77.4371 40.7647 77.2083 46.0349 74.8206 51.3075C73.35 54.5549 71.0784 57.2328 68.4896 59.6296C66.5455 61.4304 64.5141 63.1393 62.4697 64.8263C61.0692 65.9891 59.31 66.6327 57.4896 66.6477C57.0253 66.679 56.563 66.7338 56.1043 66.8123C56.0343 66.958 55.982 67.1115 55.9486 67.27C55.7525 70.8661 55.5156 74.4612 55.3945 78.0602C55.3316 79.8106 55.3919 81.5636 55.5751 83.3057C55.976 87.0257 58.4936 88.9006 62.1946 88.3661C65.3663 87.9081 66.9455 86.5024 67.5141 83.3331C67.9141 81.0998 68.1 78.8271 68.3574 76.5699C68.8068 72.6357 69.5568 68.8015 71.776 65.4045C72.8491 63.7616 74.1939 62.4954 76.1189 61.9505C77.7998 61.4739 79.3011 61.882 80.6593 62.9265C82.8286 64.5952 83.5357 66.9616 83.7676 69.5332C84.0552 72.3392 83.8684 75.1741 83.2154 77.9183C83.4107 78.0491 83.6152 78.1655 83.8274 78.2669C85.492 78.9185 86.5855 80.0597 86.9545 81.8439C86.98 81.9678 87.1008 82.0722 87.1762 82.1856L87.174 84.7414ZM81.8695 86.2755C83.3065 86.1148 83.8892 85.6709 84.2397 84.3435C84.5699 83.0932 84.0823 81.6007 83.1231 80.9258C81.8611 80.0392 80.5698 79.9007 79.5824 80.6471C79.031 81.0577 78.5988 81.6079 78.3303 82.2407C78.0619 82.8738 77.9668 83.5667 78.0547 84.2488C78.1062 84.4918 78.2115 84.7203 78.363 84.9176C78.5143 85.1146 78.708 85.2753 78.9296 85.388C79.8655 85.7856 80.8842 85.9909 81.8695 86.2743V86.2755Z"/><path fill="#fff" d="M82.9759 83.1711C82.9693 83.5769 82.8058 83.9643 82.5196 84.2519C82.2337 84.5397 81.8472 84.7054 81.4416 84.7143C80.9894 84.7159 80.5544 84.5411 80.2295 84.2272C79.9042 83.913 79.7144 83.4844 79.7006 83.0325C79.6961 82.8308 79.733 82.63 79.8083 82.4427C79.8837 82.2554 79.9964 82.0855 80.1397 81.9431C80.2826 81.8005 80.4533 81.6885 80.6409 81.614C80.8287 81.5392 81.0293 81.5035 81.2313 81.5087C81.4563 81.4985 81.6807 81.5339 81.8918 81.6126C82.1026 81.6916 82.2955 81.8124 82.4584 81.9675C82.6213 82.123 82.7512 82.3097 82.8402 82.5164C82.9291 82.7233 82.9751 82.9461 82.9759 83.1711Z"/></g><defs><clipPath id="clip0_1023_1960"><rect width="54.303" height="64" fill="#fff" transform="translate(33 28)"/></clipPath></defs></svg>