<svg width="120" height="120" viewBox="0 0 120 120" fill="none" xmlns="http://www.w3.org/2000/svg">
<circle cx="60" cy="60" r="60" fill="#9B7E62"/>
<g clip-path="url(#clip0_1023_2000)">
<path d="M46.5861 34.043C52.5862 34.1705 57.003 36.8184 59.7036 42.2087C61.1409 45.0769 62.4678 48.0008 63.9088 50.8671C64.494 52.0224 65.1684 53.1301 65.9258 54.1799C67.0724 55.7769 66.3467 58.1099 64.4449 58.536C63.2952 58.7742 62.1325 58.9433 60.9627 59.0423C58.3456 59.304 55.7243 59.5233 53.1046 59.7598C53.0249 59.7755 52.9435 59.7812 52.8624 59.7769C51.31 59.5171 49.9675 60.1588 48.5573 60.6655C46.4067 61.4154 44.1145 61.6664 41.8534 61.3992C39.1008 61.1168 36.5303 60.4 34.1614 58.9457C33.8126 58.7316 33.3171 58.7423 32.8848 58.6826C30.6353 58.3733 28.457 58.9543 26.2519 59.2162C25.5261 59.2966 24.7956 59.3261 24.0657 59.3049C22.6128 59.2735 21.5835 57.7803 22.4159 56.45C24.3674 53.3312 25.4741 49.8109 27.1225 46.5489C29.0526 42.7293 31.7636 39.6032 35.3827 37.304C37.8653 35.7384 40.6584 34.7343 43.5678 34.362C44.5691 34.2257 45.5795 34.1477 46.5861 34.043ZM32.7996 48.298C32.2064 51.7284 34.4424 55.5592 37.814 56.7982C39.9136 57.5638 42.1479 57.8882 44.3779 57.7515C47.9334 57.5566 50.568 55.7752 52.4597 52.8358C53.1369 51.7638 53.4945 50.52 53.49 49.251C49.6414 47.9663 46.1922 46.2791 44.5357 42.0293C41.5753 46.1991 37.296 47.4846 32.7996 48.298Z" fill="white"/>
<path d="M50.7696 85.9587C45.5343 85.9587 40.2988 85.9335 35.0637 85.9671C30.8476 85.994 26.6319 86.1134 22.4162 86.1446C21.3224 86.1396 20.2304 86.052 19.1497 85.8829C16.6477 85.5203 15.6435 84.0364 16.4728 81.6424C17.0418 80.0358 17.7854 78.4965 18.6903 77.0529C22.4997 70.9068 28.0395 66.8809 34.6938 64.3222C38.023 63.0127 41.5455 62.2657 45.1186 62.111C49.6935 61.9371 54.0912 62.4936 58.1706 64.7295C61.7962 66.7167 64.7222 69.4741 67.1539 72.8045C68.8944 75.1889 70.0944 77.8584 71.3159 80.5147C71.6019 81.2327 71.7777 81.99 71.838 82.7608C72.0451 84.4323 71.1783 85.5248 69.5047 85.6994C68.257 85.8298 67.0001 85.9304 65.7468 85.9373C60.7552 85.9637 55.7634 85.948 50.7715 85.948L50.7696 85.9587ZM19.1291 82.5857C19.2559 82.6409 19.3858 82.6885 19.5182 82.7282C20.9657 83.0541 22.4103 82.8536 23.8694 82.7717C26.8222 82.6052 29.7826 82.5298 32.7406 82.5145C42.5208 82.4639 52.3013 82.4672 62.0814 82.4232C63.8629 82.4153 65.644 82.284 67.4249 82.1981C67.5616 82.1705 67.6925 82.1201 67.8128 82.0492C67.8299 81.8979 67.8686 81.8077 67.8437 81.7413C66.181 77.2925 63.8017 73.3165 60.1451 70.2154C58.0195 68.4128 55.6746 66.9601 52.9332 66.2954C48.8125 65.3102 44.523 65.2731 40.3861 66.1866C32.8968 67.7806 26.6515 71.4558 22.0026 77.6503C20.8612 79.1705 19.7968 80.7507 19.1291 82.5843V82.5857Z" fill="white"/>
</g>
<g clip-path="url(#clip1_1023_2000)">
<path d="M75.7838 60.1924C71.7578 59.978 68.171 59.2934 65.179 56.8044C63.0038 54.9947 61.7146 52.6515 61.1847 49.908C60.0256 43.9137 63.325 38.7132 68.282 36.1566C71.7347 34.3757 75.3712 33.687 79.2361 34.284C82.5344 34.7932 84.947 36.6531 86.9005 39.2222C87.5621 40.0923 88.3385 40.9188 88.7988 41.8897C89.7492 43.8975 90.5574 45.9572 90.009 48.2975C89.4958 50.4861 88.8603 52.5978 87.4306 54.3865C84.9204 57.527 81.7488 59.5215 77.6836 59.965C76.9579 60.0438 76.2361 60.138 75.7838 60.1924ZM64.7063 48.6395C65.1422 51.8861 66.7508 54.2113 69.7587 55.4125C70.9756 55.8579 72.2414 56.1576 73.5291 56.3052C77.6883 56.893 81.2583 55.8144 83.9031 52.387C85.0934 50.9143 85.6731 49.043 85.5231 47.1574C82.1574 46.5339 79.1123 45.4064 76.645 42.9515C73.4653 46.5625 69.2537 47.883 64.7056 48.6395H64.7063Z" fill="white"/>
<path d="M82.7549 84.4758C77.6819 84.4758 72.6087 84.4498 67.5363 84.4834C63.1576 84.5125 58.7803 84.6379 54.401 84.6573C53.1858 84.6653 51.9731 84.5458 50.783 84.3007C48.5582 83.8338 47.8406 82.5792 48.4004 80.3728C48.8448 78.6218 49.7529 77.0834 50.7097 75.5794C54.5955 69.462 60.1578 65.4579 66.8545 62.8921C70.4894 61.4695 74.3523 60.7147 78.2566 60.6638C83.9124 60.6217 89.1645 61.9889 93.6751 65.6383C96.8838 68.1984 99.5148 71.404 101.397 75.0465C101.953 76.1262 102.548 77.1939 102.997 78.3177C103.395 79.2865 103.68 80.2978 103.846 81.3317C104.086 82.9408 103.212 84.0148 101.609 84.2082C100.484 84.3542 99.3518 84.4353 98.2173 84.4514C93.0632 84.4767 87.909 84.4625 82.7549 84.4625V84.4758ZM99.8342 80.6421C99.8527 80.4292 99.8878 80.3404 99.8627 80.2737C98.2076 75.8929 95.861 71.9641 92.2481 68.8934C90.1293 67.0928 87.7911 65.6551 85.0611 64.9466C81.428 64.0358 77.6428 63.9009 73.9536 64.5509C64.8072 66.0571 57.5004 70.4949 52.5126 78.4299C51.982 79.2742 51.5594 80.1864 51.0585 81.1187C52.7229 81.6002 54.2382 81.4083 55.7772 81.3153C58.7692 81.1348 61.7713 81.0692 64.7704 81.0529C74.1852 81.002 83.6006 81.008 93.0155 80.9632C95.1216 80.9533 97.2276 80.8279 99.3333 80.7491C99.5029 80.7268 99.6705 80.6909 99.8342 80.6414V80.6421Z" fill="white"/>
</g>
<defs>
<clipPath id="clip0_1023_2000">
<rect width="56" height="52.3399" fill="white" transform="translate(16 34)"/>
</clipPath>
<clipPath id="clip1_1023_2000">
<rect width="56" height="50.8758" fill="white" transform="translate(48 34)"/>
</clipPath>
</defs>
</svg>
