<svg width="121" height="120" viewBox="0 0 121 120" fill="none" xmlns="http://www.w3.org/2000/svg">
<circle cx="60.667" cy="60" r="60" fill="#5F4086"/>
<g clip-path="url(#clip0_1023_1983)">
<path d="M86.6976 64.862C86.7404 69.9023 86.8077 74.9424 86.8148 79.9825C86.8179 82.1703 86.6488 84.3584 86.6433 86.5467C86.6358 89.6262 84.3277 91.5479 81.4919 91.6107C74.7596 91.7592 68.0246 91.8889 61.2911 91.8688C55.5895 91.8519 49.8877 91.6425 44.1881 91.4566C42.6206 91.3766 41.059 91.2073 39.5108 90.9494C37.6871 90.6792 35.8676 88.5186 35.7466 86.5373C35.6534 85.0136 35.5759 83.4872 35.5551 81.9612C35.4458 73.9039 35.3477 65.8464 35.261 57.789C35.1735 50.2269 35.0888 42.6651 35.0069 35.1035C35.0019 33.6095 35.3799 32.1393 36.105 30.833C36.4283 30.1797 36.9282 29.6301 37.5479 29.2464C38.1676 28.8627 38.8824 28.6602 39.6112 28.662C41.7991 28.583 43.9913 28.5759 46.175 28.4342C54.1081 27.9188 62.0402 28.3134 69.9731 28.3752C71.6079 28.388 72.834 28.9371 74.0329 30.0705C76.5533 32.453 79.2449 34.6535 81.8515 36.9457C82.8439 37.8185 83.7594 38.7812 84.7752 39.6233C85.7965 40.47 86.1202 41.5554 86.1421 42.803C86.218 47.0993 86.2965 51.3956 86.3776 55.6917C86.437 58.7492 86.5085 61.8065 86.5744 64.8637L86.6976 64.862ZM69.2162 31.4594C68.4801 31.4024 67.8691 31.3226 67.2571 31.3124C62.0525 31.2255 56.8478 31.1464 51.643 31.0749C49.2902 31.0426 46.9369 31.0264 44.5839 31.0129C43.3884 31.0054 42.1901 30.9678 40.9978 31.0311C39.3381 31.1192 38.8273 31.6011 38.5283 33.2405C38.2311 34.7838 38.1614 36.3622 38.3213 37.9257C38.4195 38.8289 38.4688 39.7369 38.4689 40.6455C38.494 55.2277 38.5128 69.8101 38.5254 84.3924C38.5176 84.6815 38.529 84.9708 38.5595 85.2585C38.8155 87.1423 39.8061 88.3843 41.943 88.4691C49.8737 88.7831 57.8039 88.7843 65.7368 88.6534C69.785 88.5865 73.8336 88.55 77.882 88.5029C78.8722 88.4916 79.8646 88.5292 80.8526 88.4817C82.5746 88.3988 83.4353 87.5323 83.4174 85.8383C83.3984 84.0232 83.2631 82.2097 83.2324 80.3945C83.1969 78.2883 83.2682 76.1797 83.2083 74.0747C83.0588 68.7904 82.8035 63.5086 82.7011 58.2237C82.6197 53.9704 82.7028 49.7141 82.7084 45.4591C82.7084 45.1425 82.6741 44.8257 82.6552 44.5037C82.5125 44.4733 82.3678 44.4529 82.2222 44.4426C79.703 44.4934 77.1841 44.5727 74.6647 44.5874C73.8807 44.5933 73.0987 44.5025 72.337 44.3169C70.7865 43.9324 70.3006 43.331 70.1366 41.7327C69.9893 40.2955 69.8929 38.8533 69.7642 37.4143C69.5932 35.4866 69.4104 33.5576 69.2162 31.4594ZM73.6696 41.6047L81.0784 41.1403L72.4116 33.2684C72.8545 36.2029 73.2518 38.836 73.6696 41.6047Z" fill="white"/>
<path d="M51.1405 41.7938C52.9152 41.7938 54.6907 41.7846 56.4646 41.7969C57.7175 41.8056 58.1706 42.1593 58.4433 43.3924C58.5606 43.9576 58.6245 44.5323 58.6343 45.1094C58.6722 46.4524 58.1271 47.1364 56.8199 47.3007C55.6744 47.4456 54.5178 47.537 53.3638 47.5662C51.588 47.6119 49.8103 47.5682 48.034 47.5943C47.209 47.5891 46.3846 47.6445 45.5677 47.7599C43.6486 48.0738 42.6884 46.4867 42.7319 45.1514C42.7682 44.4915 42.8432 43.8344 42.9565 43.1832C42.9876 42.8496 43.129 42.5358 43.3583 42.2915C43.5877 42.0471 43.8919 41.8861 44.223 41.8339C44.8682 41.6957 45.5243 41.6136 46.1838 41.5889C47.8352 41.5548 49.4878 41.5778 51.1403 41.5778L51.1405 41.7938ZM55.0887 44.4488C55.0984 44.3522 55.1078 44.2555 55.1172 44.1589C51.7998 44.2773 48.4822 43.6591 45.102 44.1167V45.0981C45.4851 45.0761 45.8063 45.0718 46.1244 45.0365C46.9004 44.9503 47.6727 44.8042 48.4506 44.7646C50.2223 44.6747 51.9964 44.6398 53.7691 44.5714C54.2098 44.5526 54.6489 44.4903 55.0887 44.4488Z" fill="white"/>
<path d="M66.3109 78.7553C63.3404 78.7553 60.3698 78.7628 57.4007 78.7491C56.7016 78.7585 56.0028 78.7128 55.3109 78.6126C54.5653 78.4904 54.1758 78.0472 54.1777 77.5135C54.1802 76.9981 54.6088 76.4994 55.3128 76.3818C56.2459 76.2101 57.1903 76.1074 58.1385 76.0751C63.8702 75.971 69.6022 75.8903 75.334 75.8336C75.9513 75.8299 76.5669 75.9019 77.1668 76.0478C77.9213 76.2287 78.2579 76.7059 78.2362 77.3553C78.212 78.0332 77.7532 78.4936 76.9526 78.6177C76.7072 78.6498 76.4596 78.6631 76.2123 78.6573C72.9116 78.6597 69.6112 78.6602 66.3105 78.6587L66.3109 78.7553Z" fill="white"/>
<path d="M65.6026 68.4707C62.3012 68.4707 58.9997 68.4758 55.6983 68.4651C55.2038 68.4675 54.7102 68.4241 54.2239 68.3347C53.8056 68.2538 53.4487 68.0152 53.4049 67.5273C53.3566 66.9854 53.6984 66.6821 54.1435 66.5087C54.4166 66.4164 54.702 66.3652 54.9902 66.3568C57.1701 66.201 59.3487 65.981 61.5315 65.922C66.2339 65.794 70.9383 65.7462 75.6419 65.6788C76.0532 65.673 76.4635 65.7218 76.862 65.8237C77.6909 66.038 78.0505 66.4978 78.0159 67.1977C77.9838 67.844 77.6194 68.271 76.8528 68.4335C76.3686 68.5296 75.8759 68.5762 75.3823 68.5721C72.1219 68.5837 68.8615 68.5782 65.6011 68.5782L65.6026 68.4707Z" fill="white"/>
<path d="M65.9545 58.5656C62.4023 58.5656 58.8502 58.5656 55.2979 58.5656C55.0501 58.5656 54.7998 58.6065 54.5552 58.5828C54.128 58.5415 53.7249 58.4301 53.6537 57.908C53.6128 57.7008 53.651 57.4856 53.7606 57.305C53.8702 57.1243 54.0433 56.9912 54.2461 56.9316C54.904 56.6971 55.5865 56.5384 56.2803 56.458C61.5906 56.0175 66.9198 55.8431 72.2477 55.9363C73.6523 55.9588 75.0572 55.9513 76.4618 55.9607C76.7509 55.9535 77.0402 55.9617 77.3284 55.9858C78.3009 56.0976 78.9368 56.6862 78.9035 57.4211C78.8714 58.1229 78.2712 58.6456 77.3484 58.7381C76.9777 58.7683 76.6053 58.7733 76.2338 58.7533C73.9223 58.6726 71.6113 58.5717 69.2996 58.5045C68.1855 58.4719 67.0698 58.4987 65.9545 58.4987V58.5656Z" fill="white"/>
<path d="M46.3034 82.3674C45.9081 82.3543 45.5138 82.3215 45.1219 82.2688C42.4653 81.7967 41.3244 79.4301 42.5976 77.0522C43.8919 74.6342 45.8271 73.9609 48.3639 75.0491C50.0419 75.7681 50.8961 77.2648 50.6208 79.0031C50.3068 80.9898 49.1234 82.1459 47.2155 82.3249C46.9298 82.3509 46.6415 82.3521 46.3034 82.3674ZM44.8528 79.1263C45.7223 79.6934 46.64 79.64 47.5515 79.3512C48.0345 77.6026 47.26 76.8967 45.2723 77.1713C44.828 77.7193 44.5558 78.3214 44.8543 79.1275L44.8528 79.1263Z" fill="white"/>
<path d="M50.2488 57.4455C50.2488 57.4868 50.2503 57.5281 50.2488 57.5694C50.1894 59.0387 49.8752 60.4194 48.3667 61.0529C46.6841 61.7593 45.0204 61.6173 43.5972 60.4023C42.3563 59.3428 41.994 57.9809 42.4273 56.3744C42.9944 54.2733 43.7901 53.5968 46.0618 53.4577C48.0443 53.3369 49.448 54.1209 50.0156 55.7438C50.1642 56.2976 50.2682 56.8623 50.3266 57.4325L50.2488 57.4455ZM44.783 56.1042C44.2563 57.0888 44.2553 57.6595 44.7588 58.2797C45.3597 59.0192 46.2231 59.1824 47.4377 58.7868C47.9832 57.7358 48.0572 56.8837 47.5222 56.3981C46.6931 55.6438 45.7295 55.7409 44.783 56.1042Z" fill="white"/>
<path d="M46.2123 71.4079C45.6235 71.3149 45.2141 71.2719 44.8146 71.1835C43.0344 70.7894 41.9276 69.5304 41.9648 67.9627C42.0107 66.072 43.0919 64.7825 44.9028 64.3761C46.561 64.0039 48.0018 64.3556 49.2137 65.5525C50.9577 67.2749 50.4599 69.9805 48.1921 70.922C47.5239 71.1994 46.7713 71.2758 46.2123 71.4079ZM44.7303 66.5195C44.449 67.1645 44.1266 67.8417 44.7637 68.3359C45.1399 68.6279 45.756 68.6844 46.27 68.7049C46.7967 68.7259 47.3613 68.6266 47.5536 67.9734C47.1365 66.6798 46.8008 66.4965 44.7303 66.5207V66.5195Z" fill="white"/>
</g>
<defs>
<clipPath id="clip0_1023_1983">
<rect width="51.9245" height="64" fill="white" transform="translate(35 28)"/>
</clipPath>
</defs>
</svg>
