<svg width="335" height="335" viewBox="0 0 335 335" fill="none" xmlns="http://www.w3.org/2000/svg">
<rect width="334.207" height="334.207" fill="white"/>
<path fill-rule="evenodd" clip-rule="evenodd" d="M165.955 35.1804C155.344 38.0213 139.302 47.546 124.681 59.661C18.9873 147.474 30.183 275.142 145.736 298.704C237.225 317.336 327.795 152.069 256.86 95.9225C212.577 60.831 143.313 100.267 130.446 167.777C119.5 225.428 176.232 267.455 213.998 229.773C252.933 190.922 252.515 136.612 213.162 136.278C182.582 136.027 164.535 183.318 191.355 193.344C207.23 199.276 225.945 180.811 213.496 171.537C209.402 168.445 206.645 169.114 205.225 173.292C202.467 181.981 193.277 188.164 191.773 182.399C187.344 166.022 213.413 136.529 223.69 146.304C238.311 160.174 225.945 199.945 199.292 224.592C159.856 261.105 125.767 200.948 154.007 144.55C186.509 79.6304 254.854 72.1104 267.304 132.1C280.755 196.686 212.744 292.019 155.093 288.927C81.2334 285 43.3843 209.554 81.484 134.524C101.37 95.2549 144.065 52.8934 175.731 41.0291C188.431 36.2666 180.243 31.4206 165.955 35.1804Z" fill="#F3F4DC"/>
</svg>
