<svg xmlns="http://www.w3.org/2000/svg" width="187" height="279" viewBox="0 0 187 279" fill="none">
  <path d="M49.9258 49.1438C51.7465 63.2676 55.1667 77.5603 56.2732 91.7321" stroke="#3E9FA5" stroke-width="14.7441" stroke-miterlimit="1.5" stroke-linecap="round" strokeLinejoin="round"/>
  <path d="M97.8588 99.1137C90.6195 99.8625 81.2476 98.5882 74.2733 100.648" stroke="#3E9FA5" stroke-width="14.7441" stroke-miterlimit="1.5" stroke-linecap="round" strokeLinejoin="round"/>
  <path d="M45.9609 102.837C37.6074 105.361 28.8054 105.516 20.4098 108.006" stroke="#3E9FA5" stroke-width="14.7441" stroke-miterlimit="1.5" stroke-linecap="round" strokeLinejoin="round"/>
  <path d="M60.9638 115.024C63.1202 125.554 64.947 136.142 66.8161 146.725" stroke="#3E9FA5" stroke-width="14.7441" stroke-miterlimit="1.5" stroke-linecap="round" strokeLinejoin="round"/>
  <path d="M91.4533 176.785C96.248 176.032 99.4957 183.141 94.1799 185.06C91.7864 185.924 87.1784 182.741 88.8823 180.114" stroke="#3E9FA5" stroke-width="14.7441" stroke-miterlimit="1.5" stroke-linecap="round" strokeLinejoin="round"/>
  <path d="M35.3261 153.968C37.5531 162.154 38.3461 170.525 39.649 178.883" stroke="#3E9FA5" stroke-width="14.7441" stroke-miterlimit="1.5" stroke-linecap="round" strokeLinejoin="round"/>
  <path d="M60.3277 187.831C57.4928 187.971 54.5352 187.965 51.7366 188.481" stroke="#3E9FA5" stroke-width="14.7441" stroke-miterlimit="1.5" stroke-linecap="round" strokeLinejoin="round"/>
  <path d="M30.3141 191.362C26.6133 192.14 22.9075 192.325 19.164 192.782" stroke="#3E9FA5" stroke-width="14.7441" stroke-miterlimit="1.5" stroke-linecap="round" strokeLinejoin="round"/>
  <path d="M42.3239 201.31C44.3308 210.277 45.8367 219.351 47.4379 228.398" stroke="#3E9FA5" stroke-width="14.7441" stroke-miterlimit="1.5" stroke-linecap="round" strokeLinejoin="round"/>
  <path d="M-1.09043 121.039C5.38673 121.435 8.00908 129.683 0.589946 131.134C-1.98618 131.639 -8.34715 127.485 -4.77974 125.057" stroke="#3E9FA5" stroke-width="14.7441" stroke-miterlimit="1.5" stroke-linecap="round" strokeLinejoin="round"/>
  <path d="M-11.9811 84.4679C-2.95882 79.5007 11.7183 91.6493 1.54882 99.2256C-9.39618 107.38 -26.2842 94.9887 -15.0414 84.6854" stroke="#3E9FA5" stroke-width="14.7441" stroke-miterlimit="1.5" stroke-linecap="round" strokeLinejoin="round"/>
</svg>