<svg xmlns="http://www.w3.org/2000/svg" width="120" height="120" viewBox="0 0 120 120" fill="none">
  <circle cx="60" cy="60" r="60" fill="white"/>
  <path d="M85.6291 34.5506L85.8796 34.5015C86.1668 34.445 86.4377 34.3916 86.7023 34.3287C86.9895 34.2696 87.2488 34.1141 87.4386 33.8873C87.6284 33.6605 87.7377 33.3755 87.7491 33.078C87.7602 32.7804 87.673 32.4877 87.5009 32.2467C87.3288 32.0057 87.0821 31.8304 86.8003 31.749C86.2468 31.5815 85.6724 31.4976 85.095 31.5001C83.645 31.5357 82.1718 31.5878 80.7463 31.6382C78.8106 31.7062 76.809 31.7769 74.841 31.8073C65.9395 31.9458 56.2159 32.0726 45.114 32.1945C42.6573 32.2217 40.1619 32.159 37.9601 32.1041C37.2587 32.0867 36.5432 32.0285 35.8516 31.9725C35.4076 31.9366 34.9637 31.9017 34.5195 31.8745C33.571 31.8202 33.2038 32.3471 33.0649 32.8009C32.8575 33.4792 33.1552 34.1254 33.8414 34.488C34.0441 34.5905 34.2524 34.6809 34.4653 34.759L34.5956 34.8101C34.5956 35.2658 34.5965 35.7189 34.5984 36.1695C34.6009 37.2296 34.6039 38.3258 34.5935 39.3975C34.5651 42.3566 34.5005 45.3657 34.437 48.2756C34.2591 56.4969 34.0754 64.998 34.6928 73.3631C34.7963 74.7647 35.2414 75.2582 36.5241 75.3941C37.6013 75.5193 38.685 75.5767 39.7691 75.5666C42.8908 75.4978 46.064 75.4042 49.1327 75.3139C50.3872 75.2766 51.6419 75.24 52.8969 75.2043C53.0746 75.1991 53.2527 75.2 53.4818 75.2015C53.406 75.296 53.3323 75.3879 53.2611 75.4765C52.933 75.8847 52.6495 76.2368 52.3863 76.6074C50.7563 78.8997 48.9087 81.4993 47.1123 84.0978C46.7956 84.5903 46.5527 85.1277 46.3914 85.6925C46.2847 86.0122 46.2848 86.3589 46.3917 86.6787C46.4986 86.9984 46.7064 87.2733 46.9828 87.4607C47.2358 87.6509 47.5427 87.7523 47.8574 87.75C48.2503 87.7445 48.6302 87.606 48.9371 87.3567C49.2313 87.1159 49.4948 86.8387 49.7217 86.5317C52.0656 83.4663 54.4045 80.3971 56.7771 77.2842L58.4772 75.0533L64.9263 74.8389L66.2053 76.9141C67.2585 78.6249 68.294 80.3075 69.3335 81.9878C69.5142 82.2797 69.694 82.572 69.873 82.8648C70.5046 83.895 71.1579 84.9599 71.8532 85.9735C72.2401 86.5241 72.7336 86.989 73.3034 87.3392C73.6164 87.5512 73.9896 87.6512 74.3647 87.6233C74.7398 87.5956 75.0951 87.4418 75.3747 87.1861C75.6786 86.9339 75.8935 86.5882 75.987 86.2006C76.0805 85.8133 76.0472 85.4056 75.8923 85.0391C75.6767 84.5023 75.4077 83.9893 75.0891 83.5084C73.8282 81.5951 72.562 79.6855 71.29 77.78C70.6658 76.8423 70.0421 75.9043 69.4189 74.9661C69.3919 74.9242 69.3675 74.8805 69.3463 74.8351C69.4521 74.8233 69.5482 74.8139 69.6407 74.8115C70.7942 74.7891 71.9476 74.7683 73.1013 74.7489C75.763 74.7016 78.5155 74.6544 81.2223 74.5771C81.9004 74.5438 82.576 74.4691 83.2455 74.3535C83.5943 74.3003 83.9559 74.2453 84.3097 74.2042C85.224 74.098 85.7852 73.5202 85.9773 72.4863C86.0445 72.0503 86.071 71.6088 86.0566 71.1676V71.1135C86.0533 69.4381 86.0521 67.7628 86.0531 66.087C86.0531 61.7688 86.0517 57.3039 85.9994 52.912C85.9528 48.9812 85.854 44.9857 85.7589 41.122C85.7142 39.3109 85.6712 37.4998 85.6298 35.6887C85.6236 35.3969 85.6252 35.1046 85.627 34.8002C85.628 34.7185 85.6287 34.6352 85.6291 34.5506ZM38.5257 71.9184L38.5082 71.9134L38.4936 71.8222C38.4625 71.6504 38.4416 71.4767 38.431 71.3023C38.3864 70.1443 38.3381 68.9863 38.2861 67.8283C38.1671 65.0777 38.0438 62.2335 38.0013 59.4365C37.938 55.3079 37.9145 51.1086 37.8922 47.0478C37.8775 44.4314 37.8624 41.7258 37.8368 39.0647C37.8282 38.1605 37.7685 37.2584 37.7055 36.3032C37.6808 35.9284 37.6555 35.5449 37.6324 35.149C49.5468 35.5496 61.6262 35.2908 73.3103 35.0384C76.2637 34.9751 79.314 34.9096 82.3255 34.8553V70.7784C67.501 70.5631 52.8193 70.9565 38.6877 71.9498C38.6328 71.9449 38.5785 71.9345 38.5257 71.9184Z" fill="#8F4949"/>
  <path d="M79.4231 42.4238C79.8001 42.0072 80.0661 41.501 80.1958 40.9525C80.2616 40.7096 80.2677 40.4542 80.2131 40.2085C80.1588 39.9628 80.0455 39.7342 79.8834 39.5426C79.7212 39.3511 79.5151 39.2022 79.2828 39.1092C79.0508 39.0163 78.7996 38.9819 78.5511 39.009C78.0761 39.0637 77.6223 39.238 77.2315 39.5158C76.7152 39.8917 76.2251 40.3028 75.7646 40.746L75.6435 40.8573C72.118 44.0942 68.5866 47.3404 65.0498 50.5957L61.8713 53.5188L61.8636 53.5151C60.6612 52.12 59.1917 51.0212 57.7705 49.9588C57.0647 49.4315 56.3349 48.8858 55.6514 48.3132C54.7036 47.5199 53.999 47.4975 52.9587 48.2282C52.3907 48.6367 51.8737 49.1128 51.419 49.6462C50.4054 50.8107 49.3875 52.0055 48.4034 53.1604C47.6041 54.0988 46.8027 55.0352 45.9995 55.9696C45.2477 56.84 44.4915 57.7068 43.7308 58.5698C42.7554 59.6825 41.7467 60.8332 40.7684 61.9779C40.3491 62.4496 40.0182 62.9941 39.7918 63.5851C39.7381 63.8126 39.7361 64.0492 39.786 64.2776C39.836 64.506 39.9365 64.72 40.08 64.9035C40.1718 65.0139 40.2869 65.1024 40.4169 65.1623C40.5468 65.2223 40.6885 65.2522 40.8314 65.2499C41.1069 65.2426 41.3747 65.1569 41.6041 65.0031C41.7893 64.883 41.9592 64.7403 42.1098 64.5784L42.9527 63.6873C45.9123 60.5621 48.9726 57.3307 51.9727 54.1426C52.4715 53.6127 52.959 53.0548 53.4753 52.4638C53.6778 52.2321 53.8876 51.9919 54.1075 51.7416C54.4729 52.1282 54.8335 52.5111 55.1894 52.8905C56.264 54.0334 57.279 55.1134 58.3322 56.1869C58.8241 56.6901 59.3821 57.1233 59.9906 57.4746C60.8247 57.9503 61.6215 57.954 62.2937 57.4857C62.8322 57.1221 63.3516 56.731 63.8498 56.3131L65.3952 54.9805C68.7496 52.088 72.218 49.097 75.6023 46.1232C76.9709 44.9195 78.2477 43.6327 79.4231 42.4238Z" fill="#8F4949"/>
</svg>