<svg width="120" height="120" viewBox="0 0 120 120" fill="none" xmlns="http://www.w3.org/2000/svg">
<circle cx="60" cy="60" r="60" fill="white"/>
<g clip-path="url(#clip0_2770_3562)">
<path d="M60.0826 86.4001C57.9648 88.5565 55.2187 89.0632 52.4842 89.5592C50.1009 90.0353 47.6431 89.9936 45.2772 89.4377C40.6716 88.2925 35.4821 84.1777 34.8816 77.3223C34.5468 73.5065 34.2929 69.6961 34.3362 65.8543C34.3825 61.7205 34.0859 57.5838 34.0256 53.4469C33.989 50.9393 33.8657 48.3923 34.227 45.9276C34.8378 41.7614 35.4952 37.5279 38.6404 34.2881C41.2297 31.6211 44.275 29.9153 48.097 30.0466C49.1051 30.0934 50.0982 30.3083 51.0355 30.6824C53.5193 31.6495 55.6384 33.3693 57.0959 35.6009C59.6046 39.3714 61.0359 43.5505 61.6214 48.0181C61.9127 50.2373 62.0795 52.473 62.3154 54.8285C62.7236 54.7195 63.1292 54.6191 63.5301 54.503C68.2814 53.1248 72.988 53.1422 77.653 54.9072C78.8783 55.3484 79.9992 56.0378 80.9456 56.9323C81.8919 57.8267 82.6436 58.9069 83.1532 60.1051C85.2648 64.822 85.9858 69.6943 84.8736 74.7832C84.1114 78.2679 82.3802 81.1422 79.5014 83.2976C75.6473 86.1832 71.3427 87.768 66.5046 87.7574C64.3253 87.7541 62.2328 87.2326 60.0826 86.4001ZM37.2468 59.0233C39.5775 59.0233 41.7326 59.056 43.8865 59.0164C47.848 58.9432 51.8088 58.8333 55.7693 58.7187C56.0602 58.702 56.3399 58.601 56.5743 58.428C57.249 57.9346 57.8931 57.4002 58.5028 56.8283C58.766 56.5713 58.9281 56.2281 58.9598 55.8616C58.9856 54.2766 58.9792 52.6885 58.9097 51.1049C58.7086 46.5284 57.8855 42.1022 55.6612 38.0212C54.7273 36.2632 53.3585 34.7738 51.6854 33.6951C49.4695 32.2687 47.1409 32.0527 44.7556 33.0817C41.9345 34.299 39.7688 36.3263 38.6322 39.1741C37.3665 42.2854 36.7226 45.6145 36.7367 48.9734C36.765 51.9219 36.9684 54.8687 37.1049 57.8156C37.1232 58.2042 37.1945 58.5907 37.2468 59.0233ZM57.0561 84.7855C56.3405 84.1865 55.7863 83.7529 55.2661 83.2814C53.3336 81.589 51.9408 79.3664 51.2605 76.8894C49.9398 71.9836 50.8627 67.3976 53.2003 63.0062C53.4221 62.5901 53.6451 62.1745 53.8815 61.7323C51.6609 61.3976 38.5462 61.5948 37.3493 61.9821C37.3493 62.6609 37.3248 63.3598 37.3539 64.0564C37.4366 66.0346 37.5038 68.0148 37.6465 69.9889C37.8365 72.6178 38.0299 75.2493 38.3338 77.8667C38.8305 82.1434 42.8276 85.7676 46.5967 86.4392C49.8133 87.0122 52.8939 86.4521 55.9251 85.4195C56.3193 85.2402 56.6976 85.0283 57.0561 84.7855ZM79.2841 60.8648C78.562 59.6226 77.4347 58.6667 76.091 58.1578C74.4604 57.5053 72.8056 56.896 71.1226 56.398C70.0838 56.0913 68.9407 55.7756 67.9003 55.9064C65.3077 56.1889 62.815 57.0644 60.6153 58.4656C57.0674 60.7911 55.1886 64.2665 54.0427 68.2067C53.1978 71.1122 53.1909 74.0277 54.2289 76.9028C54.414 77.4153 54.6749 77.9004 54.904 78.4056C62.7565 72.0078 71.3183 66.8875 79.2841 60.8648ZM56.5838 80.6553C59.0961 83.0911 61.854 84.4479 65.0677 84.7687C69.7359 85.2346 73.8231 83.6941 77.4872 80.9061C79.4461 79.4352 80.8099 77.3087 81.3295 74.9148C81.8901 72.416 81.9583 69.8318 81.5306 67.3067C81.3604 66.2509 81.0478 65.2196 80.7517 63.9742L56.5838 80.6553Z" fill="#9B7E62"/>
</g>
<defs>
<clipPath id="clip0_2770_3562">
<rect width="51.7597" height="60" fill="white" transform="translate(33.75 30)"/>
</clipPath>
</defs>
</svg>
