<svg width="120" height="120" viewBox="0 0 120 120" fill="none" xmlns="http://www.w3.org/2000/svg">
<circle cx="60" cy="60" r="60" fill="white"/>
<g clip-path="url(#clip0_2141_4262)">
<path d="M29.9835 76.6612C30.0299 77.5022 30.1866 78.3331 30.4495 79.1325C30.8688 80.4629 31.3698 80.6892 32.6629 80.6947L33.8834 80.6998C37.6854 80.7155 41.6177 80.7306 45.4832 80.7259C45.8634 80.7181 46.2428 80.6889 46.6198 80.6383C47.0152 80.5818 47.4141 80.5538 47.8135 80.5548C48.4391 80.5703 49.0782 80.6202 49.696 80.6688C50.4502 80.728 51.2281 80.7891 52.0002 80.7891C52.0498 80.7891 52.0991 80.7891 52.1483 80.7891C61.8046 80.6868 69.6143 80.5754 76.726 80.4373C79.2105 80.3887 81.0156 79.3582 82.2446 77.2864C84.94 72.7412 87.033 67.6098 89.0302 60.6472C89.3289 59.518 89.5584 58.3714 89.718 57.2137C89.7996 56.6965 89.8842 56.1619 89.98 55.6408C89.9825 55.6267 89.9839 55.6121 89.9839 55.5975V53.937C89.9839 53.9103 89.9795 53.8838 89.9706 53.8586C89.861 53.5429 89.7643 53.2098 89.6703 52.8871C89.4864 52.1408 89.2097 51.421 88.8466 50.745C87.6775 48.7826 85.7073 47.6498 83.1492 47.4692C80.738 47.2989 78.2805 47.2538 75.905 47.2096C75.3028 47.1985 74.7008 47.1868 74.099 47.1745C72.8891 47.1484 71.658 47.155 70.468 47.1613C70.0095 47.1638 69.551 47.1657 69.0925 47.167C69.864 45.1547 70.344 42.9156 70.6466 39.925C70.8245 38.1652 70.9405 35.8559 70.2509 33.6017C69.7633 32.008 68.9958 31.4762 67.3198 31.5641C66.191 31.5967 65.1147 32.0528 64.3015 32.8433C64.1136 33.0284 63.9244 33.2123 63.7344 33.3952C62.736 34.3169 61.8067 35.3118 60.9539 36.3717C59.8828 37.7746 58.8824 39.2648 57.9148 40.7063C57.4916 41.3369 57.0684 41.9675 56.6383 42.5927C54.621 45.5239 52.2293 47.6583 49.3235 49.1156C49.0973 49.2397 48.8489 49.3173 48.5928 49.3437C48.3366 49.3701 48.0778 49.3449 47.8314 49.2696C45.7061 48.7196 43.9057 48.5861 42.1657 48.8489C40.8244 49.0517 39.4451 49.1771 38.1113 49.2979C37.5966 49.3441 37.0824 49.3915 36.5687 49.4426C36.0217 49.4968 35.4739 49.5452 34.9263 49.5935C34.0435 49.6713 33.1306 49.7517 32.2338 49.8574C30.5958 50.0505 29.9369 50.6737 29.6224 52.3273L29.5933 52.4763C29.5318 52.7484 29.4942 53.0254 29.4811 53.3042C29.4701 53.9153 29.4546 54.5261 29.4393 55.1372C29.3985 56.7538 29.356 58.4253 29.4 60.0706C29.5577 65.937 29.7836 71.7493 29.9835 76.6612ZM46.0025 51.3445C45.9523 55.6808 46.2563 60.0322 46.5509 64.242C46.8443 68.4395 47.1468 72.7773 47.0927 77.0588H33.6768L33.6741 77.0317C33.6555 76.8594 33.6363 76.6813 33.6283 76.5069C33.4907 73.2632 33.3531 70.0196 33.2156 66.7764C33.0855 63.7049 32.9556 60.6336 32.8259 57.5623C32.8135 57.2708 32.8021 56.9791 32.7915 56.6872C32.7551 55.7284 32.7177 54.7368 32.6295 53.7635C32.5676 53.0812 32.7713 52.8097 33.4089 52.7259C34.1767 52.6249 34.9438 52.521 35.7103 52.4143C37.1687 52.2138 38.6767 52.0068 40.1624 51.8347C41.5445 51.6748 42.9567 51.5571 44.3225 51.4433C44.8044 51.4034 45.2863 51.3626 45.7682 51.3211C45.8471 51.3193 45.9259 51.3271 46.0029 51.3445H46.0025ZM67.9307 39.5959C67.7861 41.6728 67.2586 43.8772 66.2703 46.5329C65.9528 47.3866 65.702 48.3329 66.0154 49.4691C66.0285 49.5168 66.0562 49.5591 66.0942 49.5903C66.1325 49.6214 66.1793 49.6398 66.2284 49.6428C66.4117 49.6539 66.5981 49.6673 66.7854 49.6807C67.1955 49.7101 67.6194 49.7406 68.0431 49.7501C69.25 49.7732 70.457 49.7895 71.6651 49.805C74.331 49.8394 77.0875 49.8743 79.7928 49.9997C81.2494 50.0808 82.6859 50.3802 84.0554 50.8881C85.733 51.4999 86.5422 52.7927 86.4604 54.7297C86.3339 57.7151 85.6 60.823 84.151 64.5098C83.192 66.9497 82.1086 69.5318 80.6376 72.8832C80.2983 73.6072 79.9109 74.3069 79.4776 74.9779C79.3448 75.1942 79.2121 75.4105 79.0824 75.6279C78.4322 76.7194 77.4171 77.337 76.0655 77.4633C74.2329 77.6347 72.0996 77.8189 69.9841 77.8362C65.2862 77.8746 60.5089 77.8686 55.8885 77.8621C54.4325 77.8603 52.9766 77.8589 51.5204 77.8579C51.2627 77.8579 50.998 77.8348 50.7639 77.8128L50.6671 77.8041L48.6268 51.4882C48.9695 51.3343 49.3088 51.1874 49.644 51.0417C50.4832 50.6776 51.2757 50.3339 52.051 49.9201C55.1608 48.2579 57.7736 45.6254 60.2742 41.6351C61.6249 39.48 63.3091 36.9978 65.5567 34.9271C65.9837 34.5175 66.4826 34.1915 67.0277 33.9656C67.422 33.8148 67.588 33.8374 67.6577 33.883C67.7524 33.9445 67.8127 34.1374 67.8322 34.4409C67.9789 36.1551 68.0119 37.8773 67.9307 39.5959Z" fill="#3E9FA5"/>
<path d="M40.2254 52.2515C40.2128 52.2514 40.2002 52.2523 40.1878 52.2541C37.4027 52.6704 35.7063 54.2472 35.6487 56.4738C35.5926 58.6712 37.3802 60.4509 39.7185 60.5259C39.7644 60.5275 39.8086 60.5282 39.8533 60.5282C40.9454 60.5296 41.997 60.1104 42.7936 59.3566C43.1593 59.0149 43.4535 58.603 43.6592 58.145C43.8649 57.687 43.9779 57.192 43.9915 56.6894C43.9793 55.4711 43.4973 54.3056 42.6478 53.44C41.9252 52.685 41.0646 52.2628 40.2254 52.2515ZM40.3815 56.9568C40.0665 57.3218 39.6206 57.359 39.0562 57.0678C38.5709 56.8173 38.407 56.4569 38.5686 55.9959C38.6656 55.7574 38.7873 55.5298 38.9317 55.3173C38.9854 55.2303 39.0427 55.1373 39.1034 55.036C39.2096 55.1033 39.3123 55.1657 39.4111 55.2259C39.6987 55.3829 39.9661 55.5747 40.2079 55.797C40.4408 56.0357 40.7731 56.5046 40.3815 56.9568Z" fill="#3E9FA5"/>
</g>
<defs>
<clipPath id="clip0_2141_4262">
<rect width="60.75" height="49.5" fill="white" transform="translate(29.25 31.5)"/>
</clipPath>
</defs>
</svg>
