<svg width="120" height="120" viewBox="0 0 120 120" fill="none" xmlns="http://www.w3.org/2000/svg">
<circle cx="60" cy="60" r="60" fill="white"/>
<path d="M83.6426 64.4643C83.6818 69.113 83.7435 73.7616 83.75 78.4101C83.7528 80.428 83.5978 82.4461 83.5927 84.4644C83.5859 87.3047 81.4697 89.0771 78.8697 89.135C72.6972 89.272 66.5222 89.3916 60.3486 89.3731C55.1212 89.3575 49.8935 89.1644 44.6678 88.9929C43.2307 88.9191 41.7989 88.763 40.3794 88.5251C38.7074 88.2758 37.0392 86.2831 36.9283 84.4557C36.8428 83.0504 36.7717 81.6426 36.7527 80.2351C36.6525 72.8038 36.5626 65.3722 36.483 57.9407C36.4028 50.966 36.3252 43.9917 36.25 37.0175C36.2455 35.6395 36.5921 34.2835 37.2568 33.0787C37.5533 32.4762 38.0116 31.9693 38.5797 31.6154C39.1479 31.2615 39.8033 31.0747 40.4715 31.0764C42.4775 31.0035 44.4873 30.997 46.4895 30.8662C53.7629 30.3909 61.0355 30.7548 68.3087 30.8118C69.8076 30.8236 70.9318 31.3301 72.0309 32.3754C74.3417 34.5729 76.8095 36.6025 79.1994 38.7166C80.1092 39.5216 80.9487 40.4095 81.88 41.1862C82.8164 41.9671 83.1131 42.9682 83.1333 44.1189C83.2028 48.0814 83.2748 52.0439 83.3492 56.0063C83.4036 58.8263 83.4692 61.6461 83.5296 64.4658L83.6426 64.4643ZM67.6148 33.6564C66.9399 33.6039 66.3796 33.5303 65.8186 33.5209C61.0468 33.4407 56.2749 33.3678 51.5028 33.3019C49.3456 33.272 47.1881 33.2571 45.0307 33.2447C43.9346 33.2378 42.8359 33.2031 41.7428 33.2614C40.2211 33.3427 39.7528 33.7872 39.4786 35.2992C39.2062 36.7226 39.1422 38.1784 39.2889 39.6204C39.3789 40.4535 39.4241 41.291 39.4242 42.1289C39.4472 55.5784 39.4645 69.0279 39.476 82.4775C39.4689 82.7441 39.4793 83.011 39.5072 83.2763C39.7419 85.0137 40.6502 86.1593 42.6094 86.2375C49.8807 86.527 57.1514 86.5282 64.4247 86.4074C68.1362 86.3457 71.8482 86.3121 75.56 86.2687C76.4679 86.2582 77.3777 86.2929 78.2836 86.2491C79.8624 86.1727 80.6515 85.3734 80.6351 83.8111C80.6176 82.1369 80.4936 80.4643 80.4655 78.7901C80.433 76.8475 80.4983 74.9027 80.4434 72.9612C80.3063 68.0875 80.0723 63.216 79.9784 58.3416C79.9038 54.4188 79.9799 50.493 79.985 46.5687C79.985 46.2766 79.9536 45.9844 79.9363 45.6875C79.8055 45.6594 79.6728 45.6406 79.5393 45.6311C77.2296 45.6779 74.9201 45.7511 72.6102 45.7647C71.8914 45.77 71.1744 45.6864 70.4761 45.5152C69.0545 45.1606 68.609 44.6059 68.4586 43.1317C68.3236 41.8062 68.2352 40.4759 68.1172 39.1488C67.9604 37.3708 67.7928 35.5917 67.6148 33.6564ZM71.6979 43.0136L78.4906 42.5853L70.5445 35.3249C70.9506 38.0315 71.3148 40.46 71.6979 43.0136Z" fill="#7CA851"/>
<path d="M51.0237 43.0372C52.6259 43.0372 54.229 43.0281 55.8305 43.0402C56.9618 43.0487 57.3708 43.3948 57.617 44.6016C57.7229 45.1547 57.7807 45.7171 57.7895 46.2819C57.8237 47.5962 57.3316 48.2656 56.1513 48.4263C55.1171 48.5681 54.0728 48.6576 53.031 48.6862C51.4277 48.7309 49.8227 48.6882 48.219 48.7137C47.4741 48.7086 46.7298 48.7628 45.9922 48.8757C44.2596 49.183 43.3927 47.6297 43.4319 46.323C43.4648 45.6772 43.5325 45.0341 43.6347 44.3969C43.6628 44.0704 43.7905 43.7633 43.9975 43.5242C44.2046 43.2851 44.4793 43.1275 44.7782 43.0764C45.3608 42.9411 45.9531 42.8608 46.5485 42.8366C48.0395 42.8033 49.5316 42.8258 51.0235 42.8258L51.0237 43.0372ZM54.5883 45.6354C54.5971 45.5409 54.6056 45.4463 54.614 45.3517C51.6189 45.4675 48.6236 44.8625 45.5718 45.3104V46.2708C45.9177 46.2493 46.2077 46.2451 46.4949 46.2106C47.1955 46.1262 47.8927 45.9832 48.5951 45.9444C50.1947 45.8565 51.7964 45.8223 53.3969 45.7554C53.7948 45.737 54.1913 45.6761 54.5883 45.6354Z" fill="#7CA851"/>
<path d="M65.0659 77.1797C62.3381 77.1797 59.6103 77.1868 56.8839 77.1737C56.2419 77.1827 55.6002 77.1394 54.9648 77.0444C54.2802 76.9286 53.9225 76.5086 53.9243 76.0027C53.9265 75.5143 54.3202 75.0416 54.9666 74.9301C55.8234 74.7674 56.6907 74.6701 57.5613 74.6394C62.8246 74.5408 68.0881 74.4643 73.3514 74.4105C73.9183 74.4071 74.4836 74.4753 75.0344 74.6136C75.7272 74.785 76.0364 75.2373 76.0164 75.8528C75.9943 76.4953 75.5729 76.9316 74.8377 77.0492C74.6124 77.0797 74.3851 77.0923 74.158 77.0868C71.1271 77.0891 68.0963 77.0895 65.0654 77.0881L65.0659 77.1797Z" fill="#7CA851"/>
<path d="M64.0448 67.6556C61.0079 67.6556 57.971 67.6604 54.9341 67.6503C54.4793 67.6526 54.0252 67.6111 53.5778 67.5257C53.193 67.4484 52.8647 67.2205 52.8245 66.7545C52.7801 66.2368 53.0944 65.947 53.5038 65.7814C53.7551 65.6933 54.0176 65.6444 54.2828 65.6363C56.288 65.4875 58.292 65.2773 60.2999 65.221C64.6256 65.0988 68.953 65.0531 73.2798 64.9887C73.6581 64.9832 74.0355 65.0298 74.4021 65.1271C75.1646 65.3318 75.4953 65.771 75.4636 66.4396C75.434 67.0569 75.0988 67.4648 74.3937 67.62C73.9482 67.7119 73.495 67.7564 73.0409 67.7525C70.0418 67.7635 67.0426 67.7582 64.0435 67.7582L64.0448 67.6556Z" fill="#7CA851"/>
<path d="M64.6801 58.6977C61.4189 58.6977 58.1577 58.6977 54.8963 58.6977C54.6688 58.6977 54.439 58.7373 54.2144 58.7143C53.8222 58.6742 53.4521 58.5661 53.3867 58.059C53.3492 57.8577 53.3843 57.6487 53.4849 57.4733C53.5855 57.2978 53.7445 57.1686 53.9306 57.1106C54.5347 56.8829 55.1613 56.7288 55.7983 56.6507C60.6737 56.2228 65.5664 56.0535 70.4579 56.144C71.7475 56.1658 73.0373 56.1586 74.3269 56.1677C74.5923 56.1607 74.858 56.1687 75.1225 56.1921C76.0154 56.3007 76.5992 56.8723 76.5686 57.5861C76.5391 58.2677 75.9881 58.7753 75.1409 58.8652C74.8005 58.8945 74.4586 58.8994 74.1176 58.8799C71.9954 58.8016 69.8737 58.7035 67.7513 58.6383C66.7284 58.6067 65.7041 58.6327 64.6801 58.6327V58.6977Z" fill="#7CA851"/>
<path d="M46.6807 80.5069C46.3252 80.4949 45.9704 80.4647 45.6178 80.4162C43.228 79.9813 42.2016 77.8016 43.347 75.6115C44.5114 73.3845 46.2523 72.7643 48.5344 73.7666C50.0439 74.4288 50.8124 75.8073 50.5647 77.4084C50.2823 79.2382 49.2176 80.303 47.5013 80.4678C47.2443 80.4918 46.9849 80.4929 46.6807 80.5069ZM45.3758 77.5218C46.158 78.0441 46.9836 77.9949 47.8035 77.7289C48.238 76.1185 47.5413 75.4683 45.7532 75.7212C45.3534 76.2259 45.1086 76.7804 45.3771 77.5229L45.3758 77.5218Z" fill="#7CA851"/>
<path d="M49.989 57.4908C49.989 57.5279 49.9903 57.5649 49.989 57.6019C49.9362 58.9198 49.6568 60.1581 48.3154 60.7263C46.8192 61.3599 45.3397 61.2325 44.0741 60.1428C42.9707 59.1925 42.6486 57.971 43.0338 56.5302C43.5381 54.6457 44.2457 54.0389 46.2658 53.9142C48.0287 53.8059 49.2769 54.509 49.7816 55.9646C49.9138 56.4613 50.0062 56.9677 50.0582 57.4791L49.989 57.4908ZM45.1286 56.2878C44.6603 57.1709 44.6594 57.6827 45.1071 58.239C45.6415 58.9022 46.4092 59.0487 47.4892 58.6939C47.9744 57.7512 48.0401 56.987 47.5644 56.5514C46.8272 55.8749 45.9703 55.962 45.1286 56.2878Z" fill="#7CA851"/>
<path d="M46.285 70.5306C45.7363 70.4444 45.3548 70.4045 44.9825 70.3226C43.3234 69.9571 42.2919 68.7898 42.3265 67.3363C42.3693 65.5832 43.377 64.3877 45.0646 64.0109C46.61 63.6658 47.9529 63.9918 49.0823 65.1016C50.7076 66.6986 50.2437 69.2072 48.1302 70.0801C47.5075 70.3373 46.8061 70.4081 46.285 70.5306ZM44.904 65.9982C44.6417 66.5963 44.3412 67.2241 44.935 67.6823C45.2857 67.953 45.8599 68.0054 46.3388 68.0244C46.8297 68.0439 47.3559 67.9519 47.5351 67.3462C47.1464 66.1469 46.8336 65.9769 44.904 65.9993V65.9982Z" fill="#7CA851"/>
</svg>
