<svg xmlns="http://www.w3.org/2000/svg" width="37" height="54" viewBox="0 0 37 54" fill="none">
  <g clip-path="url(#clip0_290_3314)">
    <path d="M10.0088 9.82663C9.38302 9.68076 8.75807 9.53043 8.13091 9.38995C7.22568 9.18829 6.70789 8.59563 6.66644 7.70452C6.59742 6.21336 6.5842 4.71706 6.61983 3.22456C6.64224 2.24964 7.37563 1.69526 8.1733 1.40823C9.20939 1.03561 10.3051 0.667263 11.3896 0.618416C16.3282 0.395918 21.2709 0.250479 26.2142 0.154802C28.0021 0.120296 29.2716 0.585725 29.5147 3.12888C29.6602 4.64828 29.7993 6.16875 29.9053 7.69128C29.9638 8.53444 29.4233 9.22259 28.4923 9.57348C28.2028 9.67312 27.9064 9.75157 27.6055 9.80826C27.3164 9.87122 27.0229 9.91112 26.6886 9.96848C26.7054 10.7001 27.1699 11.0404 27.6451 11.3552C28.2196 11.7361 28.8103 12.0933 29.3984 12.4531C33.2228 14.7895 35.1101 18.3057 35.6185 22.6597C36.3093 28.5729 36.3597 34.5173 36.4684 40.4578C36.5056 42.4892 36.4807 44.5235 36.4095 46.5537C36.3689 47.7379 36.2452 48.9176 36.0391 50.0841C35.7254 51.8484 34.7487 52.811 32.8475 53.0568C29.9989 53.4252 27.1381 53.7884 24.2718 53.9116C18.2444 54.1709 12.2414 53.7006 6.27542 52.8278C5.21679 52.6663 4.17966 52.3864 3.18335 51.9936C1.78181 51.4485 0.814033 50.4476 0.631195 48.8679C0.512664 47.8466 0.327622 46.8195 0.344875 45.7982C0.428676 40.7766 0.474598 35.7513 0.723535 30.7367C0.902788 27.1084 1.12324 23.4632 1.99687 19.9074C2.73046 16.9208 4.46747 14.5916 6.813 12.683C7.58468 12.0557 8.41303 11.4955 9.22214 10.9152C9.56137 10.6716 9.91811 10.4523 10.267 10.2219C10.1811 10.0896 10.095 9.9578 10.0088 9.82663ZM12.3279 10.018C12.407 11.776 11.1991 12.8374 9.91403 13.8535C9.49368 14.1858 9.09238 14.5432 8.69108 14.8988C6.83984 16.5383 5.35251 18.4552 5.03747 20.9608C4.54744 24.8697 4.09328 28.7933 3.87661 32.7244C3.6028 37.6955 3.58528 42.681 3.45084 47.6602C3.41924 48.8372 3.60773 49.1542 4.8076 49.3653C6.20062 49.6104 7.60843 49.7863 9.01602 49.9324C16.5126 50.7117 24.0085 50.7821 31.5006 49.8549C32.5537 49.7247 32.8739 49.3257 32.8515 48.2705C32.8038 46.0119 32.7487 43.7527 32.7655 41.4941C32.8103 35.4784 32.9136 29.4617 32.4384 23.4567C32.2414 20.9697 31.7523 18.5684 29.9864 16.6853C29.1125 15.7753 28.1369 14.9687 27.0791 14.2813C25.5497 13.2661 24.2761 12.1415 24.2286 10.0182L12.3279 10.018ZM8.81301 7.45491C14.8856 7.55744 20.9595 7.35486 27.0117 6.84791C26.9073 5.38229 26.8156 4.09727 26.7204 2.76565C25.9716 2.64609 25.2169 2.56495 24.4598 2.52253C20.6282 2.50371 16.7967 2.48128 12.9669 2.54962C11.8307 2.57001 10.6869 2.82455 9.57011 3.07685C8.65144 3.28479 8.51837 3.49675 8.54929 4.45621C8.57998 5.40445 8.71129 6.34959 8.81301 7.45491Z" fill="#36B887"/>
    <path d="M7.51773 32.6511C7.51773 29.9301 7.50339 27.2092 7.52311 24.4886C7.53566 22.7698 8.1597 22.1 9.86485 22.0324C13.1203 21.9033 16.3773 21.8181 19.6341 21.7209C21.3971 21.6682 23.16 21.6107 24.9234 21.5936C25.4953 21.5771 26.0664 21.6408 26.6205 21.783C27.5616 22.0476 27.8305 22.4713 27.8663 23.4523C28.0099 27.3977 28.1296 31.3442 28.3041 35.2882C28.4074 37.6229 28.6221 39.9528 28.7312 42.2873C28.7296 42.936 28.6521 43.5824 28.5007 44.2132C28.465 44.4446 28.3503 44.6568 28.1762 44.8135C28.0019 44.9701 27.7787 45.0615 27.5446 45.0723C26.2194 45.1982 24.8923 45.4063 23.5665 45.403C19.5781 45.3924 15.5917 45.3057 11.6047 45.2237C11.0297 45.2042 10.4587 45.1215 9.90184 44.9772C8.89892 44.7297 8.29571 44.1482 8.01406 43.0648C7.669 41.739 7.6331 40.4347 7.66783 39.0892C7.72206 36.9442 7.68244 34.797 7.68244 32.6507L7.51773 32.6511ZM10.0322 23.973C10.2917 30.0403 10.5476 36.0159 10.8088 42.1397H25.6559V24.4965C20.4163 23.9634 15.298 24.1097 10.0322 23.973Z" fill="#36B887"/>
    <path d="M17.2965 36.5043H15.1168C14.8873 36.5043 14.657 36.5164 14.4284 36.5014C13.3384 36.4301 12.6391 35.8726 12.6456 35.0897C12.6518 34.325 13.2448 33.7982 14.3241 33.7178C16.2304 33.5759 18.1399 33.4713 20.0494 33.3797C20.4697 33.3649 20.8899 33.4081 21.2983 33.5083C22.0602 33.6875 22.5123 34.1984 22.5383 34.8231C22.5659 35.4875 22.1023 36.0678 21.2974 36.262C20.8123 36.3689 20.3176 36.4261 19.8209 36.4328C18.9802 36.4592 18.1381 36.4402 17.2965 36.4402V36.5043Z" fill="#36B887"/>
    <path d="M17.5686 26.3296C18.639 26.3296 19.7095 26.3137 20.7794 26.3341C21.9475 26.3565 22.6742 26.9275 22.643 27.7561C22.6125 28.5627 21.8256 29.1542 20.6995 29.1273C18.5605 29.076 16.4227 28.9835 14.2847 28.9015C14.0556 28.8943 13.828 28.8614 13.6062 28.8033C12.8273 28.5938 12.4428 28.0913 12.5206 27.4141C12.5936 26.7785 13.0108 26.3789 13.7852 26.3335C14.6235 26.2842 15.4657 26.3133 16.3071 26.3097C16.7274 26.3079 17.148 26.3097 17.5686 26.3097V26.3296Z" fill="#36B887"/>
    <path d="M17.9514 38.0784C18.6012 38.0784 19.2526 38.0528 19.9009 38.0882C20.2784 38.1156 20.6509 38.1909 21.0093 38.3123C21.4662 38.46 21.7416 38.8516 21.5979 39.2861C21.4837 39.6314 21.1328 39.9101 20.852 40.1824C20.7179 40.2588 20.5617 40.2865 20.4095 40.2615C18.7698 40.1882 17.1298 40.1149 15.4912 40.0208C14.9102 39.9874 14.5905 39.6175 14.5367 39.0596C14.4849 38.524 14.8867 38.1328 15.5482 38.0374C15.7756 38.0136 16.0046 38.0082 16.2329 38.0212C16.5385 38.0264 16.8437 38.0472 17.1493 38.0539C17.4169 38.0598 17.6844 38.0551 17.9519 38.0551L17.9514 38.0784Z" fill="#36B887"/>
    <path d="M17.0926 30.3308C18.3608 30.323 18.9936 30.6864 19.0393 31.3109C19.0841 31.9289 18.5039 32.4563 17.5048 32.5484C16.9372 32.576 16.3685 32.5231 15.8156 32.3915C15.3587 32.3019 15.0215 31.9304 15.1479 31.4771C15.2655 31.0958 15.525 30.7742 15.8728 30.5786C16.3025 30.3716 16.8349 30.3765 17.0926 30.3308Z" fill="#36B887"/>
  </g>
  <defs>
    <clipPath id="clip0_290_3314">
      <rect width="36.2988" height="54" fill="white" transform="translate(0.25)"/>
    </clipPath>
  </defs>
</svg>