<svg xmlns="http://www.w3.org/2000/svg" width="63" height="54" viewBox="0 0 63 54" fill="none">
  <g clip-path="url(#clip0_290_3307)">
    <path d="M48.6821 9.52507L54.9502 3.93601C54.6982 3.51724 54.4166 3.09904 54.1888 2.6557C53.9806 2.24908 53.6949 1.81334 53.692 1.38863C53.6887 0.943395 53.8618 0.291075 54.178 0.106126C54.506 -0.085574 55.114 0.121783 55.5685 0.258133C55.8033 0.328602 55.9753 0.619117 56.1676 0.818107C57.6429 2.34604 59.1357 3.85801 60.5797 5.4151C61.07 5.96115 61.4987 6.55941 61.8584 7.19904C62.255 7.88106 62.0711 8.56087 61.5309 9.09331C61.0041 9.61225 60.3385 9.55936 59.7181 9.29206C59.2602 9.05214 58.8195 8.78092 58.3989 8.48041L52.1759 13.5624C52.9546 14.4372 53.5578 15.1921 54.2409 15.8665C55.701 17.3089 55.3819 19.2351 53.9625 20.4153C46.8615 26.3202 39.8523 32.3366 32.7788 38.2756C31.6087 39.25 30.3567 40.1221 29.0372 40.8827C27.5009 41.7737 26.686 41.5374 25.5795 40.1472C25.0935 39.5373 24.637 38.9052 24.1054 38.2032C22.9984 38.8539 21.967 39.5494 20.857 40.0811C20.1358 40.4264 19.2986 40.5276 18.5164 40.7493C18.2182 40.8057 17.9306 40.9083 17.664 41.0536C12.6979 44.4451 8.0849 48.281 3.59156 52.2667C3.14541 52.6685 2.67246 53.0394 2.17598 53.3772C1.42268 53.8802 0.790085 53.8708 0.423155 53.4172C0.0562238 52.9636 0.155546 52.2853 0.795987 51.7162C4.14398 48.7416 7.48523 45.7575 10.8821 42.8394C12.6641 41.3079 14.5568 39.9045 16.523 38.3452C16.27 37.1267 17.0427 36.3275 18.127 35.6266C19.0839 35.008 19.9452 34.2415 20.9016 33.4995C20.4291 32.7827 20.0227 32.1765 19.6258 31.5626C18.6511 30.0578 18.7078 29.2881 20.0516 28.0588C21.6867 26.5629 23.3637 25.1111 25.0566 23.6806C30.9477 18.7038 36.8461 13.7358 42.7521 8.77666C43.2111 8.39001 43.6377 7.96528 44.0924 7.57351C45.211 6.60961 45.91 6.60745 46.976 7.63804C47.5684 8.20801 48.0862 8.85844 48.6821 9.52507ZM28.0023 38.9392C33.3526 34.96 38.1561 30.4043 43.2141 26.2208C40.9644 22.9708 38.8001 19.8445 36.5677 16.619L21.0639 29.6572L28.0023 38.9392ZM38.8614 14.728L46.1568 23.7371L52.363 18.0789C50.122 15.1068 47.9944 12.2836 45.7615 9.32173L38.8614 14.728ZM21.907 35.0369C19.6895 36.7163 19.207 37.2358 19.0069 38.325L22.571 36.0186L21.907 35.0369ZM53.8375 8.91436L53.6347 8.69833C52.6489 9.52696 51.6535 10.3454 50.6896 11.198C50.5751 11.2993 50.6318 11.5938 50.6045 11.8419C51.7471 10.8062 52.7923 9.86044 53.8372 8.91436H53.8375Z" fill="#8F4949"/>
  </g>
  <defs>
    <clipPath id="clip0_290_3307">
      <rect width="62.1" height="54" fill="white"/>
    </clipPath>
  </defs>
</svg>